<svg version="1.1" xmlns="http://www.w3.org/2000/svg" xmlns:xlink="http://www.w3.org/1999/xlink" width="1360" height="1236"><defs/><g><g><rect fill="#ffffff" stroke="none" x="3008" y="1224" width="160" height="40" transform="matrix(1 0 0 1 -2838 -1214)"/></g><g><path fill="none" stroke="#000000" paint-order="fill stroke markers" d=" M 170 10 L 330 10 L 330 50 L 170 50 L 170 10 Z Z" stroke-miterlimit="10" stroke-dasharray=""/></g><g><g><path fill="none" stroke="none"/><text fill="#000000" stroke="none" font-family="Arial" font-size="20px" font-style="normal" font-weight="normal" text-decoration="undefined" x="3088" y="1244" text-anchor="middle" dominant-baseline="central" transform="matrix(1 0 0 1 -2838 -1214)">Pull Request</text></g></g><g><rect fill="#ffffff" stroke="none" x="3008" y="1328" width="160" height="100" transform="matrix(1 0 0 1 -2838 -1214)"/></g><g><path fill="none" stroke="#000000" paint-order="fill stroke markers" d=" M 170 114 L 330 114 L 330 214 L 170 214 L 170 114 Z Z" stroke-miterlimit="10" stroke-dasharray=""/></g><g><g><path fill="none" stroke="none"/><text fill="#000000" stroke="none" font-family="Arial" font-size="20px" font-style="normal" font-weight="normal" text-decoration="undefined" x="3088" y="1348" text-anchor="middle" dominant-baseline="central" transform="matrix(1 0 0 1 -2838 -1214)">Fetch delle</text><text fill="#000000" stroke="none" font-family="Arial" font-size="20px" font-style="normal" font-weight="normal" text-decoration="undefined" x="3088" y="1368" text-anchor="middle" dominant-baseline="central" transform="matrix(1 0 0 1 -2838 -1214)">informazioni</text><text fill="#000000" stroke="none" font-family="Arial" font-size="20px" font-style="normal" font-weight="normal" text-decoration="undefined" x="3088" y="1388" text-anchor="middle" dominant-baseline="central" transform="matrix(1 0 0 1 -2838 -1214)">dei file</text><text fill="#000000" stroke="none" font-family="Arial" font-size="20px" font-style="normal" font-weight="normal" text-decoration="undefined" x="3088" y="1408" text-anchor="middle" dominant-baseline="central" transform="matrix(1 0 0 1 -2838 -1214)">modificati</text></g></g><g><path fill="none" stroke="#000000" paint-order="fill stroke markers" d=" M 250 50 L 250 114" stroke-miterlimit="10" stroke-dasharray=""/></g><g><path fill="#000000" stroke="none" paint-order="stroke fill markers" d=" M 245.79048224398412 103.8373251423759 L 250 114 L 254.20951775601588 103.8373251423759"/></g><g><path fill="none" stroke="#000000" paint-order="fill stroke markers" d=" M 245.79048224398412 103.8373251423759 L 250 114 L 254.20951775601588 103.8373251423759 L 245.79048224398412 103.8373251423759" stroke-miterlimit="10" stroke-dasharray=""/></g><g><path fill="#ffffff" stroke="none" paint-order="stroke fill markers" d=" M 162 346 L 250 266 L 338 346 L 250 426 L 162 346"/></g><g><path fill="none" stroke="#000000" paint-order="fill stroke markers" d=" M 162 346 L 250 266 L 338 346 L 250 426 L 162 346 L 162 346" stroke-miterlimit="10" stroke-dasharray=""/></g><g><g><path fill="none" stroke="none"/><text fill="#000000" stroke="none" font-family="Arial" font-size="20px" font-style="normal" font-weight="normal" text-decoration="undefined" x="3088" y="1540" text-anchor="middle" dominant-baseline="central" transform="matrix(1 0 0 1 -2838 -1214)"># file .typ</text><text fill="#000000" stroke="none" font-family="Arial" font-size="20px" font-style="normal" font-weight="normal" text-decoration="undefined" x="3088" y="1560" text-anchor="middle" dominant-baseline="central" transform="matrix(1 0 0 1 -2838 -1214)">modificati</text><text fill="#000000" stroke="none" font-family="Arial" font-size="20px" font-style="normal" font-weight="normal" text-decoration="undefined" x="3088" y="1580" text-anchor="middle" dominant-baseline="central" transform="matrix(1 0 0 1 -2838 -1214)">&gt;1?</text></g></g><g><rect fill="#ffffff" stroke="none" x="3272" y="1520" width="160" height="80" transform="matrix(1 0 0 1 -2838 -1214)"/></g><g><path fill="none" stroke="#000000" paint-order="fill stroke markers" d=" M 434 306 L 594 306 L 594 386 L 434 386 L 434 306 Z Z" stroke-miterlimit="10" stroke-dasharray=""/></g><g><g><path fill="none" stroke="none"/><text fill="#000000" stroke="none" font-family="Arial" font-size="20px" font-style="normal" font-weight="normal" text-decoration="undefined" x="3352" y="1540" text-anchor="middle" dominant-baseline="central" transform="matrix(1 0 0 1 -2838 -1214)">Errore, pre</text><text fill="#000000" stroke="none" font-family="Arial" font-size="20px" font-style="normal" font-weight="normal" text-decoration="undefined" x="3352" y="1560" text-anchor="middle" dominant-baseline="central" transform="matrix(1 0 0 1 -2838 -1214)">condizione non</text><text fill="#000000" stroke="none" font-family="Arial" font-size="20px" font-style="normal" font-weight="normal" text-decoration="undefined" x="3352" y="1580" text-anchor="middle" dominant-baseline="central" transform="matrix(1 0 0 1 -2838 -1214)">rispettata</text></g></g><g><path fill="#ffffff" stroke="none" paint-order="stroke fill markers" d=" M 170 586 L 250 506 L 330 586 L 250 666 L 170 586"/></g><g><path fill="none" stroke="#000000" paint-order="fill stroke markers" d=" M 170 586 L 250 506 L 330 586 L 250 666 L 170 586 L 170 586" stroke-miterlimit="10" stroke-dasharray=""/></g><g><g><path fill="none" stroke="none"/><text fill="#000000" stroke="none" font-family="Arial" font-size="20px" font-style="normal" font-weight="normal" text-decoration="undefined" x="3088" y="1770" text-anchor="middle" dominant-baseline="central" transform="matrix(1 0 0 1 -2838 -1214)">File</text><text fill="#000000" stroke="none" font-family="Arial" font-size="20px" font-style="normal" font-weight="normal" text-decoration="undefined" x="3088" y="1790" text-anchor="middle" dominant-baseline="central" transform="matrix(1 0 0 1 -2838 -1214)">log.csv</text><text fill="#000000" stroke="none" font-family="Arial" font-size="20px" font-style="normal" font-weight="normal" text-decoration="undefined" x="3088" y="1810" text-anchor="middle" dominant-baseline="central" transform="matrix(1 0 0 1 -2838 -1214)">del file</text><text fill="#000000" stroke="none" font-family="Arial" font-size="20px" font-style="normal" font-weight="normal" text-decoration="undefined" x="3088" y="1830" text-anchor="middle" dominant-baseline="central" transform="matrix(1 0 0 1 -2838 -1214)">esiste?</text></g></g><g><rect fill="#ffffff" stroke="none" x="3400" y="1760" width="127.162109375" height="80" transform="matrix(1 0 0 1 -2838 -1214)"/></g><g><path fill="none" stroke="#000000" paint-order="fill stroke markers" d=" M 562 546 L 689.162109375 546 L 689.162109375 626 L 562 626 L 562 546 Z Z" stroke-miterlimit="10" stroke-dasharray=""/></g><g><g><path fill="none" stroke="none"/><text fill="#000000" stroke="none" font-family="Arial" font-size="20px" font-style="normal" font-weight="normal" text-decoration="undefined" x="3463.5810546875" y="1780" text-anchor="middle" dominant-baseline="central" transform="matrix(1 0 0 1 -2838 -1214)">Creazione</text><text fill="#000000" stroke="none" font-family="Arial" font-size="20px" font-style="normal" font-weight="normal" text-decoration="undefined" x="3463.5810546875" y="1800" text-anchor="middle" dominant-baseline="central" transform="matrix(1 0 0 1 -2838 -1214)">del file di</text><text fill="#000000" stroke="none" font-family="Arial" font-size="20px" font-style="normal" font-weight="normal" text-decoration="undefined" x="3463.5810546875" y="1820" text-anchor="middle" dominant-baseline="central" transform="matrix(1 0 0 1 -2838 -1214)">log</text></g></g><g><rect fill="#ffffff" stroke="none" x="3032" y="1968" width="122.18994140625" height="80" transform="matrix(1 0 0 1 -2838 -1214)"/></g><g><path fill="none" stroke="#000000" paint-order="fill stroke markers" d=" M 194 754 L 316.18994140625 754 L 316.18994140625 834 L 194 834 L 194 754 Z Z" stroke-miterlimit="10" stroke-dasharray=""/></g><g><g><path fill="none" stroke="none"/><text fill="#000000" stroke="none" font-family="Arial" font-size="20px" font-style="normal" font-weight="normal" text-decoration="undefined" x="3093.094970703125" y="1988" text-anchor="middle" dominant-baseline="central" transform="matrix(1 0 0 1 -2838 -1214)">Rilascio</text><text fill="#000000" stroke="none" font-family="Arial" font-size="20px" font-style="normal" font-weight="normal" text-decoration="undefined" x="3093.094970703125" y="2008" text-anchor="middle" dominant-baseline="central" transform="matrix(1 0 0 1 -2838 -1214)">della</text><text fill="#000000" stroke="none" font-family="Arial" font-size="20px" font-style="normal" font-weight="normal" text-decoration="undefined" x="3093.094970703125" y="2028" text-anchor="middle" dominant-baseline="central" transform="matrix(1 0 0 1 -2838 -1214)">review</text></g></g><g><rect fill="#ffffff" stroke="none" x="2848" y="2048" width="123.63720703125" height="100" transform="matrix(1 0 0 1 -2838 -1214)"/></g><g><path fill="none" stroke="#000000" paint-order="fill stroke markers" d=" M 10 834 L 133.63720703125 834 L 133.63720703125 934 L 10 934 L 10 834 Z Z" stroke-miterlimit="10" stroke-dasharray=""/></g><g><g><path fill="none" stroke="none"/><text fill="#000000" stroke="none" font-family="Arial" font-size="20px" font-style="normal" font-weight="normal" text-decoration="undefined" x="2909.818603515625" y="2068" text-anchor="middle" dominant-baseline="central" transform="matrix(1 0 0 1 -2838 -1214)">Apporto</text><text fill="#000000" stroke="none" font-family="Arial" font-size="20px" font-style="normal" font-weight="normal" text-decoration="undefined" x="2909.818603515625" y="2088" text-anchor="middle" dominant-baseline="central" transform="matrix(1 0 0 1 -2838 -1214)">modifiche</text><text fill="#000000" stroke="none" font-family="Arial" font-size="20px" font-style="normal" font-weight="normal" text-decoration="undefined" x="2909.818603515625" y="2108" text-anchor="middle" dominant-baseline="central" transform="matrix(1 0 0 1 -2838 -1214)">richieste in</text><text fill="#000000" stroke="none" font-family="Arial" font-size="20px" font-style="normal" font-weight="normal" text-decoration="undefined" x="2909.818603515625" y="2128" text-anchor="middle" dominant-baseline="central" transform="matrix(1 0 0 1 -2838 -1214)">review</text></g></g><g><path fill="#ffffff" stroke="none" paint-order="stroke fill markers" d=" M 162 986 L 250 906 L 338 986 L 250 1066 L 162 986"/></g><g><path fill="none" stroke="#000000" paint-order="fill stroke markers" d=" M 162 986 L 250 906 L 338 986 L 250 1066 L 162 986 L 162 986" stroke-miterlimit="10" stroke-dasharray=""/></g><g><g><path fill="none" stroke="none"/><text fill="#000000" stroke="none" font-family="Arial" font-size="20px" font-style="normal" font-weight="normal" text-decoration="undefined" x="3088" y="2180" text-anchor="middle" dominant-baseline="central" transform="matrix(1 0 0 1 -2838 -1214)">Review</text><text fill="#000000" stroke="none" font-family="Arial" font-size="20px" font-style="normal" font-weight="normal" text-decoration="undefined" x="3088" y="2200" text-anchor="middle" dominant-baseline="central" transform="matrix(1 0 0 1 -2838 -1214)">con esito</text><text fill="#000000" stroke="none" font-family="Arial" font-size="20px" font-style="normal" font-weight="normal" text-decoration="undefined" x="3088" y="2220" text-anchor="middle" dominant-baseline="central" transform="matrix(1 0 0 1 -2838 -1214)">positivo?</text></g></g><g><rect fill="#ffffff" stroke="none" x="3272" y="2152" width="152" height="100" transform="matrix(1 0 0 1 -2838 -1214)"/></g><g><path fill="none" stroke="#000000" paint-order="fill stroke markers" d=" M 434 938 L 586 938 L 586 1038 L 434 1038 L 434 938 Z Z" stroke-miterlimit="10" stroke-dasharray=""/></g><g><g><path fill="none" stroke="none"/><text fill="#000000" stroke="none" font-family="Arial" font-size="20px" font-style="normal" font-weight="normal" text-decoration="undefined" x="3348" y="2172" text-anchor="middle" dominant-baseline="central" transform="matrix(1 0 0 1 -2838 -1214)">Fetch</text><text fill="#000000" stroke="none" font-family="Arial" font-size="20px" font-style="normal" font-weight="normal" text-decoration="undefined" x="3348" y="2192" text-anchor="middle" dominant-baseline="central" transform="matrix(1 0 0 1 -2838 -1214)">informazioni</text><text fill="#000000" stroke="none" font-family="Arial" font-size="20px" font-style="normal" font-weight="normal" text-decoration="undefined" x="3348" y="2212" text-anchor="middle" dominant-baseline="central" transform="matrix(1 0 0 1 -2838 -1214)">versione</text><text fill="#000000" stroke="none" font-family="Arial" font-size="20px" font-style="normal" font-weight="normal" text-decoration="undefined" x="3348" y="2232" text-anchor="middle" dominant-baseline="central" transform="matrix(1 0 0 1 -2838 -1214)">documento</text></g></g><g><rect fill="#ffffff" stroke="none" x="3496" y="2152" width="192" height="100" transform="matrix(1 0 0 1 -2838 -1214)"/></g><g><path fill="none" stroke="#000000" paint-order="fill stroke markers" d=" M 658 938 L 850 938 L 850 1038 L 658 1038 L 658 938 Z Z" stroke-miterlimit="10" stroke-dasharray=""/></g><g><g><path fill="none" stroke="none"/><text fill="#000000" stroke="none" font-family="Arial" font-size="20px" font-style="normal" font-weight="normal" text-decoration="undefined" x="3592" y="2172" text-anchor="middle" dominant-baseline="central" transform="matrix(1 0 0 1 -2838 -1214)">Aggiornamento</text><text fill="#000000" stroke="none" font-family="Arial" font-size="20px" font-style="normal" font-weight="normal" text-decoration="undefined" x="3592" y="2192" text-anchor="middle" dominant-baseline="central" transform="matrix(1 0 0 1 -2838 -1214)">log.csv con il</text><text fill="#000000" stroke="none" font-family="Arial" font-size="20px" font-style="normal" font-weight="normal" text-decoration="undefined" x="3592" y="2212" text-anchor="middle" dominant-baseline="central" transform="matrix(1 0 0 1 -2838 -1214)">registro delle</text><text fill="#000000" stroke="none" font-family="Arial" font-size="20px" font-style="normal" font-weight="normal" text-decoration="undefined" x="3592" y="2232" text-anchor="middle" dominant-baseline="central" transform="matrix(1 0 0 1 -2838 -1214)">modifiche</text></g></g><g><rect fill="#ffffff" stroke="none" x="3768" y="2160" width="141.171875" height="80" transform="matrix(1 0 0 1 -2838 -1214)"/></g><g><path fill="none" stroke="#000000" paint-order="fill stroke markers" d=" M 930 946 L 1071.171875 946 L 1071.171875 1026 L 930 1026 L 930 946 Z Z" stroke-miterlimit="10" stroke-dasharray=""/></g><g><g><path fill="none" stroke="none"/><text fill="#000000" stroke="none" font-family="Arial" font-size="20px" font-style="normal" font-weight="normal" text-decoration="undefined" x="3838.5859375" y="2180" text-anchor="middle" dominant-baseline="central" transform="matrix(1 0 0 1 -2838 -1214)">Compilazione</text><text fill="#000000" stroke="none" font-family="Arial" font-size="20px" font-style="normal" font-weight="normal" text-decoration="undefined" x="3838.5859375" y="2200" text-anchor="middle" dominant-baseline="central" transform="matrix(1 0 0 1 -2838 -1214)">del</text><text fill="#000000" stroke="none" font-family="Arial" font-size="20px" font-style="normal" font-weight="normal" text-decoration="undefined" x="3838.5859375" y="2220" text-anchor="middle" dominant-baseline="central" transform="matrix(1 0 0 1 -2838 -1214)">documento</text></g></g><g><rect fill="#ffffff" stroke="none" x="4008" y="2360" width="144.53125" height="80" transform="matrix(1 0 0 1 -2838 -1214)"/></g><g><path fill="none" stroke="#000000" paint-order="fill stroke markers" d=" M 1170 1146 L 1314.53125 1146 L 1314.53125 1226 L 1170 1226 L 1170 1146 Z Z" stroke-miterlimit="10" stroke-dasharray=""/></g><g><g><path fill="none" stroke="none"/><text fill="#000000" stroke="none" font-family="Arial" font-size="20px" font-style="normal" font-weight="normal" text-decoration="undefined" x="4080.265625" y="2380" text-anchor="middle" dominant-baseline="central" transform="matrix(1 0 0 1 -2838 -1214)">Pubblicazione</text><text fill="#000000" stroke="none" font-family="Arial" font-size="20px" font-style="normal" font-weight="normal" text-decoration="undefined" x="4080.265625" y="2400" text-anchor="middle" dominant-baseline="central" transform="matrix(1 0 0 1 -2838 -1214)">del</text><text fill="#000000" stroke="none" font-family="Arial" font-size="20px" font-style="normal" font-weight="normal" text-decoration="undefined" x="4080.265625" y="2420" text-anchor="middle" dominant-baseline="central" transform="matrix(1 0 0 1 -2838 -1214)">documento</text></g></g><g><path fill="#ffffff" stroke="none" paint-order="stroke fill markers" d=" M 1146 986 L 1242 914 L 1338 986 L 1242 1058 L 1146 986"/></g><g><path fill="none" stroke="#000000" paint-order="fill stroke markers" d=" M 1146 986 L 1242 914 L 1338 986 L 1242 1058 L 1146 986 L 1146 986" stroke-miterlimit="10" stroke-dasharray=""/></g><g><g><path fill="none" stroke="none"/><text fill="#000000" stroke="none" font-family="Arial" font-size="20px" font-style="normal" font-weight="normal" text-decoration="undefined" x="4080" y="2190" text-anchor="middle" dominant-baseline="central" transform="matrix(1 0 0 1 -2838 -1214)">Richiesta</text><text fill="#000000" stroke="none" font-family="Arial" font-size="20px" font-style="normal" font-weight="normal" text-decoration="undefined" x="4080" y="2210" text-anchor="middle" dominant-baseline="central" transform="matrix(1 0 0 1 -2838 -1214)">di merge?</text></g></g><g><path fill="none" stroke="#000000" paint-order="fill stroke markers" d=" M 250 214 L 250 266" stroke-miterlimit="10" stroke-dasharray=""/></g><g><path fill="#000000" stroke="none" paint-order="stroke fill markers" d=" M 245.79048224398412 255.8373251423759 L 250 266 L 254.20951775601588 255.8373251423759"/></g><g><path fill="none" stroke="#000000" paint-order="fill stroke markers" d=" M 245.79048224398412 255.8373251423759 L 250 266 L 254.20951775601588 255.8373251423759 L 245.79048224398412 255.8373251423759" stroke-miterlimit="10" stroke-dasharray=""/></g><g><path fill="none" stroke="#000000" paint-order="fill stroke markers" d=" M 338 346 L 434 346" stroke-miterlimit="10" stroke-dasharray=""/></g><g><path fill="#000000" stroke="none" paint-order="stroke fill markers" d=" M 423.8373251423759 350.2095177560159 L 434 346 L 423.8373251423759 341.7904822439841"/></g><g><path fill="none" stroke="#000000" paint-order="fill stroke markers" d=" M 423.8373251423759 350.2095177560159 L 434 346 L 423.8373251423759 341.7904822439841 L 423.8373251423759 350.2095177560159" stroke-miterlimit="10" stroke-dasharray=""/></g><g><rect fill="#ffffff" stroke="none" x="3215" y="1535" width="18.896484375" height="20" transform="matrix(1 0 0 1 -2838 -1214)"/></g><g><g><path fill="none" stroke="none"/><text fill="#000000" stroke="none" font-family="Arial" font-size="20px" font-style="normal" font-weight="normal" text-decoration="undefined" x="3224.4482421875" y="1545" text-anchor="middle" dominant-baseline="central" transform="matrix(1 0 0 1 -2838 -1214)">Sì</text></g></g><g><path fill="none" stroke="#000000" paint-order="fill stroke markers" d=" M 250 426 L 250 506" stroke-miterlimit="10" stroke-dasharray=""/></g><g><path fill="#000000" stroke="none" paint-order="stroke fill markers" d=" M 245.79048224398412 495.8373251423759 L 250 506 L 254.20951775601588 495.8373251423759"/></g><g><path fill="none" stroke="#000000" paint-order="fill stroke markers" d=" M 245.79048224398412 495.8373251423759 L 250 506 L 254.20951775601588 495.8373251423759 L 245.79048224398412 495.8373251423759" stroke-miterlimit="10" stroke-dasharray=""/></g><g><path fill="none" stroke="#000000" paint-order="fill stroke markers" d=" M 250 666 L 250 754" stroke-miterlimit="10" stroke-dasharray=""/></g><g><path fill="#000000" stroke="none" paint-order="stroke fill markers" d=" M 245.79048224398412 743.8373251423759 L 250 754 L 254.20951775601588 743.8373251423759"/></g><g><path fill="none" stroke="#000000" paint-order="fill stroke markers" d=" M 245.79048224398412 743.8373251423759 L 250 754 L 254.20951775601588 743.8373251423759 L 245.79048224398412 743.8373251423759" stroke-miterlimit="10" stroke-dasharray=""/></g><g><rect fill="#ffffff" stroke="none" x="3097" y="1892" width="18.896484375" height="20" transform="matrix(1 0 0 1 -2838 -1214)"/></g><g><g><path fill="none" stroke="none"/><text fill="#000000" stroke="none" font-family="Arial" font-size="20px" font-style="normal" font-weight="normal" text-decoration="undefined" x="3106.4482421875" y="1902" text-anchor="middle" dominant-baseline="central" transform="matrix(1 0 0 1 -2838 -1214)">Sì</text></g></g><g><path fill="none" stroke="#000000" paint-order="fill stroke markers" d=" M 250 834 L 250 906" stroke-miterlimit="10" stroke-dasharray=""/></g><g><path fill="#000000" stroke="none" paint-order="stroke fill markers" d=" M 245.79048224398412 895.8373251423759 L 250 906 L 254.20951775601588 895.8373251423759"/></g><g><path fill="none" stroke="#000000" paint-order="fill stroke markers" d=" M 245.79048224398412 895.8373251423759 L 250 906 L 254.20951775601588 895.8373251423759 L 245.79048224398412 895.8373251423759" stroke-miterlimit="10" stroke-dasharray=""/></g><g><path fill="none" stroke="#000000" paint-order="fill stroke markers" d=" M 162 986 L 74 986 L 74 934" stroke-miterlimit="10" stroke-dasharray=""/></g><g><path fill="#000000" stroke="none" paint-order="stroke fill markers" d=" M 78.20951775601588 944.1626748576241 L 74 934 L 69.79048224398412 944.1626748576241"/></g><g><path fill="none" stroke="#000000" paint-order="fill stroke markers" d=" M 78.20951775601588 944.1626748576241 L 74 934 L 69.79048224398412 944.1626748576241 L 78.20951775601588 944.1626748576241" stroke-miterlimit="10" stroke-dasharray=""/></g><g><rect fill="#ffffff" stroke="none" x="2968" y="2215" width="25.56640625" height="20" transform="matrix(1 0 0 1 -2838 -1214)"/></g><g><g><path fill="none" stroke="none"/><text fill="#000000" stroke="none" font-family="Arial" font-size="20px" font-style="normal" font-weight="normal" text-decoration="undefined" x="2980.783203125" y="2225" text-anchor="middle" dominant-baseline="central" transform="matrix(1 0 0 1 -2838 -1214)">No</text></g></g><g><path fill="none" stroke="#000000" paint-order="fill stroke markers" d=" M 74 834 L 74 794 L 194 794" stroke-miterlimit="10" stroke-dasharray=""/></g><g><path fill="#000000" stroke="none" paint-order="stroke fill markers" d=" M 183.8373251423759 798.2095177560159 L 194 794 L 183.8373251423759 789.7904822439841"/></g><g><path fill="none" stroke="#000000" paint-order="fill stroke markers" d=" M 183.8373251423759 798.2095177560159 L 194 794 L 183.8373251423759 789.7904822439841 L 183.8373251423759 798.2095177560159" stroke-miterlimit="10" stroke-dasharray=""/></g><g><path fill="none" stroke="#000000" paint-order="fill stroke markers" d=" M 338 986 L 434 986" stroke-miterlimit="10" stroke-dasharray=""/></g><g><path fill="#000000" stroke="none" paint-order="stroke fill markers" d=" M 423.8373251423759 990.2095177560159 L 434 986 L 423.8373251423759 981.7904822439841"/></g><g><path fill="none" stroke="#000000" paint-order="fill stroke markers" d=" M 423.8373251423759 990.2095177560159 L 434 986 L 423.8373251423759 981.7904822439841 L 423.8373251423759 990.2095177560159" stroke-miterlimit="10" stroke-dasharray=""/></g><g><path fill="none" stroke="#000000" paint-order="fill stroke markers" d=" M 586 988 L 658 988" stroke-miterlimit="10" stroke-dasharray=""/></g><g><path fill="#000000" stroke="none" paint-order="stroke fill markers" d=" M 647.8373251423759 992.2095177560159 L 658 988 L 647.8373251423759 983.7904822439841"/></g><g><path fill="none" stroke="#000000" paint-order="fill stroke markers" d=" M 647.8373251423759 992.2095177560159 L 658 988 L 647.8373251423759 983.7904822439841 L 647.8373251423759 992.2095177560159" stroke-miterlimit="10" stroke-dasharray=""/></g><g><path fill="none" stroke="#000000" paint-order="fill stroke markers" d=" M 850 986 L 930 986" stroke-miterlimit="10" stroke-dasharray=""/></g><g><path fill="#000000" stroke="none" paint-order="stroke fill markers" d=" M 919.8373251423759 990.2095177560159 L 930 986 L 919.8373251423759 981.7904822439841"/></g><g><path fill="none" stroke="#000000" paint-order="fill stroke markers" d=" M 919.8373251423759 990.2095177560159 L 930 986 L 919.8373251423759 981.7904822439841 L 919.8373251423759 990.2095177560159" stroke-miterlimit="10" stroke-dasharray=""/></g><g><path fill="none" stroke="#000000" paint-order="fill stroke markers" d=" M 1071 986 L 1146 986" stroke-miterlimit="10" stroke-dasharray=""/></g><g><path fill="#000000" stroke="none" paint-order="stroke fill markers" d=" M 1135.837325142376 990.2095177560159 L 1146 986 L 1135.837325142376 981.7904822439841"/></g><g><path fill="none" stroke="#000000" paint-order="fill stroke markers" d=" M 1135.837325142376 990.2095177560159 L 1146 986 L 1135.837325142376 981.7904822439841 L 1135.837325142376 990.2095177560159" stroke-miterlimit="10" stroke-dasharray=""/></g><g><path fill="none" stroke="#000000" paint-order="fill stroke markers" d=" M 1242 1058 L 1242 1146" stroke-miterlimit="10" stroke-dasharray=""/></g><g><path fill="#000000" stroke="none" paint-order="stroke fill markers" d=" M 1237.7904822439841 1135.837325142376 L 1242 1146 L 1246.2095177560159 1135.837325142376"/></g><g><path fill="none" stroke="#000000" paint-order="fill stroke markers" d=" M 1237.7904822439841 1135.837325142376 L 1242 1146 L 1246.2095177560159 1135.837325142376 L 1237.7904822439841 1135.837325142376" stroke-miterlimit="10" stroke-dasharray=""/></g><g><path fill="none" stroke="#000000" paint-order="fill stroke markers" d=" M 626 626 L 626 794 L 316 794" stroke-miterlimit="10" stroke-dasharray=""/></g><g><path fill="#000000" stroke="none" paint-order="stroke fill markers" d=" M 326.1626748576241 789.7904822439841 L 316 794 L 326.1626748576241 798.2095177560159"/></g><g><path fill="none" stroke="#000000" paint-order="fill stroke markers" d=" M 326.1626748576241 789.7904822439841 L 316 794 L 326.1626748576241 798.2095177560159 L 326.1626748576241 789.7904822439841" stroke-miterlimit="10" stroke-dasharray=""/></g><g><path fill="none" stroke="#000000" paint-order="fill stroke markers" d=" M 330 586 L 562 586" stroke-miterlimit="10" stroke-dasharray=""/></g><g><path fill="#000000" stroke="none" paint-order="stroke fill markers" d=" M 551.8373251423759 590.2095177560159 L 562 586 L 551.8373251423759 581.7904822439841"/></g><g><path fill="none" stroke="#000000" paint-order="fill stroke markers" d=" M 551.8373251423759 590.2095177560159 L 562 586 L 551.8373251423759 581.7904822439841 L 551.8373251423759 590.2095177560159" stroke-miterlimit="10" stroke-dasharray=""/></g><g><path fill="none" stroke="#000000" paint-order="fill stroke markers" d=" M 1242 914 L 1242 794 L 316 794" stroke-miterlimit="10" stroke-dasharray=""/></g><g><path fill="#000000" stroke="none" paint-order="stroke fill markers" d=" M 326.1626748576241 789.7904822439841 L 316 794 L 326.1626748576241 798.2095177560159"/></g><g><path fill="none" stroke="#000000" paint-order="fill stroke markers" d=" M 326.1626748576241 789.7904822439841 L 316 794 L 326.1626748576241 798.2095177560159 L 326.1626748576241 789.7904822439841" stroke-miterlimit="10" stroke-dasharray=""/></g><g><g><path fill="none" stroke="none"/><text fill="#000000" stroke="none" font-family="Arial" font-size="20px" font-style="normal" font-weight="normal" text-decoration="undefined" x="4093" y="2061" text-anchor="start" dominant-baseline="text-before-edge" transform="matrix(1 0 0 1 -2838 -1214)">No</text></g></g></g></svg>