<svg version="1.1" xmlns="http://www.w3.org/2000/svg" xmlns:xlink="http://www.w3.org/1999/xlink" width="621.9951171875" height="507"><defs/><g><g><path fill="#C0C0C0" stroke="none" paint-order="stroke fill markers" d=" M 259.8076171875 189 C 259.8076171875 182.3725824 265.1801995875 177 271.8076171875 177 C 278.4350347875 177 283.8076171875 182.3725824 283.8076171875 189 C 283.8076171875 195.6274176 278.4350347875 201 271.8076171875 201 C 265.1801995875 201 259.8076171875 195.6274176 259.8076171875 189 Z" fill-opacity="0.2"/></g><g><path fill="#ffffff" stroke="none" paint-order="stroke fill markers" d=" M 252.8076171875 182 C 252.8076171875 175.3725824 258.1801995875 170 264.8076171875 170 C 271.4350347875 170 276.8076171875 175.3725824 276.8076171875 182 C 276.8076171875 188.6274176 271.4350347875 194 264.8076171875 194 C 258.1801995875 194 252.8076171875 188.6274176 252.8076171875 182 Z"/></g><g><path fill="none" stroke="#000000" paint-order="fill stroke markers" d=" M 252.8076171875 182 C 252.8076171875 175.3725824 258.1801995875 170 264.8076171875 170 C 271.4350347875 170 276.8076171875 175.3725824 276.8076171875 182 C 276.8076171875 188.6274176 271.4350347875 194 264.8076171875 194 C 258.1801995875 194 252.8076171875 188.6274176 252.8076171875 182 Z" stroke-miterlimit="10" stroke-dasharray=""/></g><g><path fill="none" stroke="#000000" paint-order="fill stroke markers" d=" M 122 219 L 408.615234375 219" stroke-miterlimit="10" stroke-dasharray=""/></g><g><g><path fill="none" stroke="none"/><text fill="#000000" stroke="none" font-family="Arial" font-size="13px" font-style="normal" font-weight="bold" text-decoration="undefined" x="311.3076171875" y="373.5" text-anchor="middle" dominant-baseline="central" transform="matrix(1 0 0 1 -46 -166)">SearchStrategy&lt;T extends Zone | Product&gt;</text></g></g><g><g><path fill="none" stroke="none"/><text fill="#000000" stroke="none" font-family="Arial" font-size="13px" font-style="normal" font-weight="normal" text-decoration="undefined" x="173" y="396.5" text-anchor="start" dominant-baseline="central" transform="matrix(1 0 0 1 -46 -166)">+search(list: T[*], query: string, type: string): T[*]</text></g></g><g><rect fill="#C0C0C0" stroke="none" x="335" y="479" width="328.9951171875" height="73" transform="matrix(1 0 0 1 -46 -166)" fill-opacity="0.2"/></g><g><rect fill="#ffffff" stroke="none" x="328" y="472" width="328.9951171875" height="73" transform="matrix(1 0 0 1 -46 -166)"/></g><g><path fill="none" stroke="#000000" paint-order="fill stroke markers" d=" M 282 306 L 610.9951171875 306 L 610.9951171875 379 L 282 379 L 282 306 Z Z" stroke-miterlimit="10" stroke-dasharray=""/></g><g><path fill="none" stroke="#000000" paint-order="fill stroke markers" d=" M 282 331 L 611.9951171875 331" stroke-miterlimit="10" stroke-dasharray=""/></g><g><path fill="none" stroke="#000000" paint-order="fill stroke markers" d=" M 282 341 L 611.9951171875 341" stroke-miterlimit="10" stroke-dasharray=""/></g><g><g><path fill="none" stroke="none"/><text fill="#000000" stroke="none" font-family="Arial" font-size="13px" font-style="normal" font-weight="bold" text-decoration="undefined" x="492.99755859375" y="485.5" text-anchor="middle" dominant-baseline="central" transform="matrix(1 0 0 1 -46 -166)">ZoneSearchStrategy</text></g></g><g><g><path fill="none" stroke="none"/><text fill="#000000" stroke="none" font-family="Arial" font-size="13px" font-style="normal" font-weight="normal" text-decoration="undefined" x="333" y="518.5" text-anchor="start" dominant-baseline="central" transform="matrix(1 0 0 1 -46 -166)">+searchById(list: Zone[*], query: string): Zone[*]</text></g></g><g><g><path fill="none" stroke="none"/><text fill="#000000" stroke="none" font-family="Arial" font-size="13px" font-style="normal" font-weight="normal" text-decoration="undefined" x="333" y="533.5" text-anchor="start" dominant-baseline="central" transform="matrix(1 0 0 1 -46 -166)">+search(list: Zone[*], query: string, type: string): Zone[*]</text></g></g><g><rect fill="#C0C0C0" stroke="none" x="135" y="567" width="359.3369140625" height="103" transform="matrix(1 0 0 1 -46 -166)" fill-opacity="0.2"/></g><g><rect fill="#ffffff" stroke="none" x="128" y="560" width="359.3369140625" height="103" transform="matrix(1 0 0 1 -46 -166)"/></g><g><path fill="none" stroke="#000000" paint-order="fill stroke markers" d=" M 82 394 L 441.3369140625 394 L 441.3369140625 497 L 82 497 L 82 394 Z Z" stroke-miterlimit="10" stroke-dasharray=""/></g><g><path fill="none" stroke="#000000" paint-order="fill stroke markers" d=" M 82 419 L 442.3369140625 419" stroke-miterlimit="10" stroke-dasharray=""/></g><g><path fill="none" stroke="#000000" paint-order="fill stroke markers" d=" M 82 429 L 442.3369140625 429" stroke-miterlimit="10" stroke-dasharray=""/></g><g><g><path fill="none" stroke="none"/><text fill="#000000" stroke="none" font-family="Arial" font-size="13px" font-style="normal" font-weight="bold" text-decoration="undefined" x="308.16845703125" y="573.5" text-anchor="middle" dominant-baseline="central" transform="matrix(1 0 0 1 -46 -166)">ProductSearchStrategy</text></g></g><g><g><path fill="none" stroke="none"/><text fill="#000000" stroke="none" font-family="Arial" font-size="13px" font-style="normal" font-weight="normal" text-decoration="undefined" x="133" y="606.5" text-anchor="start" dominant-baseline="central" transform="matrix(1 0 0 1 -46 -166)">+searchById(list: Product[*], query: string): Product[*]</text></g></g><g><g><path fill="none" stroke="none"/><text fill="#000000" stroke="none" font-family="Arial" font-size="13px" font-style="normal" font-weight="normal" text-decoration="undefined" x="133" y="621.5" text-anchor="start" dominant-baseline="central" transform="matrix(1 0 0 1 -46 -166)">+searchByName(list: Product[*], query: string): Product[*]</text></g></g><g><g><path fill="none" stroke="none"/><text fill="#000000" stroke="none" font-family="Arial" font-size="13px" font-style="normal" font-weight="normal" text-decoration="undefined" x="133" y="636.5" text-anchor="start" dominant-baseline="central" transform="matrix(1 0 0 1 -46 -166)">+searchByCategory(list: Product[*], query: string): Product[*]</text></g></g><g><g><path fill="none" stroke="none"/><text fill="#000000" stroke="none" font-family="Arial" font-size="13px" font-style="normal" font-weight="normal" text-decoration="undefined" x="133" y="651.5" text-anchor="start" dominant-baseline="central" transform="matrix(1 0 0 1 -46 -166)">+search(list: Product[*], query: string, type: string): Product[*]</text></g></g><g><rect fill="#C0C0C0" stroke="none" x="63" y="183" width="512.3154296875" height="58" transform="matrix(1 0 0 1 -46 -166)" fill-opacity="0.2"/></g><g><rect fill="#ffffff" stroke="none" x="56" y="176" width="512.3154296875" height="58" transform="matrix(1 0 0 1 -46 -166)"/></g><g><path fill="none" stroke="#000000" paint-order="fill stroke markers" d=" M 10 10 L 522.3154296875 10 L 522.3154296875 68 L 10 68 L 10 10 Z Z" stroke-miterlimit="10" stroke-dasharray=""/></g><g><path fill="none" stroke="#000000" paint-order="fill stroke markers" d=" M 10 35 L 523.3154296875 35" stroke-miterlimit="10" stroke-dasharray=""/></g><g><path fill="none" stroke="#000000" paint-order="fill stroke markers" d=" M 10 45 L 523.3154296875 45" stroke-miterlimit="10" stroke-dasharray=""/></g><g><g><path fill="none" stroke="none"/><text fill="#000000" stroke="none" font-family="Arial" font-size="13px" font-style="normal" font-weight="bold" text-decoration="undefined" x="312.65771484375" y="189.5" text-anchor="middle" dominant-baseline="central" transform="matrix(1 0 0 1 -46 -166)">SearchStrategyFactory</text></g></g><g><g><path fill="none" stroke="none"/><text fill="#000000" stroke="none" font-family="Arial" font-size="13px" font-style="normal" font-weight="normal" text-decoration="undefined" x="61" y="222.5" text-anchor="start" dominant-baseline="central" transform="matrix(1 0 0 1 -46 -166)">+createSearchStrategy&lt;T extends Zone | Product&gt;(type: string): SearchStrategy&lt;T&gt;</text><path fill="none" stroke="#000000" paint-order="fill stroke markers" d=" M 15 63 L 501.43359375 63" stroke-miterlimit="10" stroke-dasharray=""/></g></g><g><path fill="none" stroke="#000000" paint-order="fill stroke markers" d=" M 264 243 L 262 393" stroke-miterlimit="10" stroke-dasharray=""/></g><g><path fill="none" stroke="#000000" paint-order="fill stroke markers" d=" M 314 243 L 396 305" stroke-miterlimit="10" stroke-dasharray=""/></g><g><g><path fill="none" stroke="none"/><text fill="#000000" stroke="none" font-family="Arial" font-size="13px" font-style="normal" font-weight="normal" text-decoration="undefined" x="325" y="261" text-anchor="start" dominant-baseline="text-before-edge" transform="matrix(1 0 0 1 -46 -166)">&lt;&lt;create&gt;&gt;</text></g></g><g><path fill="none" stroke="#000000" paint-order="fill stroke markers" d=" M 266 69 L 264 169" stroke-miterlimit="10" stroke-dasharray=""/></g><g><path fill="none" stroke="#000000" paint-order="fill stroke markers" d=" M 259.9945367536925 158.755183545691 L 264 169 L 268.4118889635959 158.92353058988908" stroke-miterlimit="10" stroke-dasharray=""/></g></g></svg>