<svg version="1.1" xmlns="http://www.w3.org/2000/svg" xmlns:xlink="http://www.w3.org/1999/xlink" width="1233.9599609375" height="1261"><defs/><g><g><rect fill="#C0C0C0" stroke="none" x="191" y="79" width="732.00146484375" height="311" transform="matrix(1 0 0 1 -94 -62)" fill-opacity="0.2"/></g><g><rect fill="#ffffff" stroke="none" x="184" y="72" width="732.00146484375" height="311" transform="matrix(1 0 0 1 -94 -62)"/></g><g><path fill="none" stroke="#000000" paint-order="fill stroke markers" d=" M 90 10 L 822.00146484375 10 L 822.00146484375 321 L 90 321 L 90 10 Z Z" stroke-miterlimit="10" stroke-dasharray=""/></g><g><path fill="none" stroke="#000000" paint-order="fill stroke markers" d=" M 90 35 L 823.00146484375 35" stroke-miterlimit="10" stroke-dasharray=""/></g><g><path fill="none" stroke="#000000" paint-order="fill stroke markers" d=" M 90 148 L 823.00146484375 148" stroke-miterlimit="10" stroke-dasharray=""/></g><g><g><path fill="none" stroke="none"/><text fill="#000000" stroke="none" font-family="Arial" font-size="13px" font-style="normal" font-weight="bold" text-decoration="undefined" x="550.500732421875" y="85.5" text-anchor="middle" dominant-baseline="central" transform="matrix(1 0 0 1 -94 -62)">Bin</text></g></g><g><g><path fill="none" stroke="none"/><text fill="#000000" stroke="none" font-family="Arial" font-size="13px" font-style="normal" font-weight="normal" text-decoration="undefined" x="189" y="108.5" text-anchor="start" dominant-baseline="central" transform="matrix(1 0 0 1 -94 -62)">-id: string</text></g></g><g><g><path fill="none" stroke="none"/><text fill="#000000" stroke="none" font-family="Arial" font-size="13px" font-style="normal" font-weight="normal" text-decoration="undefined" x="189" y="123.5" text-anchor="start" dominant-baseline="central" transform="matrix(1 0 0 1 -94 -62)">-level: number</text></g></g><g><g><path fill="none" stroke="none"/><text fill="#000000" stroke="none" font-family="Arial" font-size="13px" font-style="normal" font-weight="normal" text-decoration="undefined" x="189" y="138.5" text-anchor="start" dominant-baseline="central" transform="matrix(1 0 0 1 -94 -62)">-column: number</text></g></g><g><g><path fill="none" stroke="none"/><text fill="#000000" stroke="none" font-family="Arial" font-size="13px" font-style="normal" font-weight="normal" text-decoration="undefined" x="189" y="153.5" text-anchor="start" dominant-baseline="central" transform="matrix(1 0 0 1 -94 -62)">-height: number</text></g></g><g><g><path fill="none" stroke="none"/><text fill="#000000" stroke="none" font-family="Arial" font-size="13px" font-style="normal" font-weight="normal" text-decoration="undefined" x="189" y="168.5" text-anchor="start" dominant-baseline="central" transform="matrix(1 0 0 1 -94 -62)">-length: number</text></g></g><g><g><path fill="none" stroke="none"/><text fill="#000000" stroke="none" font-family="Arial" font-size="13px" font-style="normal" font-weight="normal" text-decoration="undefined" x="189" y="183.5" text-anchor="start" dominant-baseline="central" transform="matrix(1 0 0 1 -94 -62)">-width: number</text></g></g><g><g><path fill="none" stroke="none"/><text fill="#000000" stroke="none" font-family="Arial" font-size="13px" font-style="normal" font-weight="normal" text-decoration="undefined" x="189" y="198.5" text-anchor="start" dominant-baseline="central" transform="matrix(1 0 0 1 -94 -62)">-product: Product | null</text></g></g><g><g><path fill="none" stroke="none"/><text fill="#000000" stroke="none" font-family="Arial" font-size="13px" font-style="normal" font-weight="normal" text-decoration="undefined" x="189" y="221.5" text-anchor="start" dominant-baseline="central" transform="matrix(1 0 0 1 -94 -62)">+constructor(id: string, level: number, column: number, height: number, length: number, width: number, product: Product | null)</text></g></g><g><g><path fill="none" stroke="none"/><text fill="#000000" stroke="none" font-family="Arial" font-size="13px" font-style="normal" font-weight="normal" text-decoration="undefined" x="189" y="236.5" text-anchor="start" dominant-baseline="central" transform="matrix(1 0 0 1 -94 -62)">+getId(): string</text></g></g><g><g><path fill="none" stroke="none"/><text fill="#000000" stroke="none" font-family="Arial" font-size="13px" font-style="normal" font-weight="normal" text-decoration="undefined" x="189" y="251.5" text-anchor="start" dominant-baseline="central" transform="matrix(1 0 0 1 -94 -62)">+getLevel(): number</text></g></g><g><g><path fill="none" stroke="none"/><text fill="#000000" stroke="none" font-family="Arial" font-size="13px" font-style="normal" font-weight="normal" text-decoration="undefined" x="189" y="266.5" text-anchor="start" dominant-baseline="central" transform="matrix(1 0 0 1 -94 -62)">+getColumn(): number</text></g></g><g><g><path fill="none" stroke="none"/><text fill="#000000" stroke="none" font-family="Arial" font-size="13px" font-style="normal" font-weight="normal" text-decoration="undefined" x="189" y="281.5" text-anchor="start" dominant-baseline="central" transform="matrix(1 0 0 1 -94 -62)">+getHeight(): number</text></g></g><g><g><path fill="none" stroke="none"/><text fill="#000000" stroke="none" font-family="Arial" font-size="13px" font-style="normal" font-weight="normal" text-decoration="undefined" x="189" y="296.5" text-anchor="start" dominant-baseline="central" transform="matrix(1 0 0 1 -94 -62)">+getLength(): number</text></g></g><g><g><path fill="none" stroke="none"/><text fill="#000000" stroke="none" font-family="Arial" font-size="13px" font-style="normal" font-weight="normal" text-decoration="undefined" x="189" y="311.5" text-anchor="start" dominant-baseline="central" transform="matrix(1 0 0 1 -94 -62)">+getWidth(): number</text></g></g><g><g><path fill="none" stroke="none"/><text fill="#000000" stroke="none" font-family="Arial" font-size="13px" font-style="normal" font-weight="normal" text-decoration="undefined" x="189" y="326.5" text-anchor="start" dominant-baseline="central" transform="matrix(1 0 0 1 -94 -62)">+getProduct(): Product | null</text></g></g><g><g><path fill="none" stroke="none"/><text fill="#000000" stroke="none" font-family="Arial" font-size="13px" font-style="normal" font-weight="normal" text-decoration="undefined" x="189" y="341.5" text-anchor="start" dominant-baseline="central" transform="matrix(1 0 0 1 -94 -62)">+setId(id: string): void</text></g></g><g><g><path fill="none" stroke="none"/><text fill="#000000" stroke="none" font-family="Arial" font-size="13px" font-style="normal" font-weight="normal" text-decoration="undefined" x="189" y="356.5" text-anchor="start" dominant-baseline="central" transform="matrix(1 0 0 1 -94 -62)">+setProduct(product: Product | null): void</text></g></g><g><g><path fill="none" stroke="none"/><text fill="#000000" stroke="none" font-family="Arial" font-size="13px" font-style="normal" font-weight="normal" text-decoration="undefined" x="189" y="371.5" text-anchor="start" dominant-baseline="central" transform="matrix(1 0 0 1 -94 -62)">+clearProduct(): void</text></g></g><g><rect fill="#C0C0C0" stroke="none" x="111" y="543" width="426.5712890625" height="176" transform="matrix(1 0 0 1 -94 -62)" fill-opacity="0.2"/></g><g><rect fill="#ffffff" stroke="none" x="104" y="536" width="426.5712890625" height="176" transform="matrix(1 0 0 1 -94 -62)"/></g><g><path fill="none" stroke="#000000" paint-order="fill stroke markers" d=" M 10 474 L 436.5712890625 474 L 436.5712890625 650 L 10 650 L 10 474 Z Z" stroke-miterlimit="10" stroke-dasharray=""/></g><g><path fill="none" stroke="#000000" paint-order="fill stroke markers" d=" M 10 499 L 437.5712890625 499" stroke-miterlimit="10" stroke-dasharray=""/></g><g><path fill="none" stroke="#000000" paint-order="fill stroke markers" d=" M 10 567 L 437.5712890625 567" stroke-miterlimit="10" stroke-dasharray=""/></g><g><g><path fill="none" stroke="none"/><text fill="#000000" stroke="none" font-family="Arial" font-size="13px" font-style="normal" font-weight="bold" text-decoration="undefined" x="317.78564453125" y="549.5" text-anchor="middle" dominant-baseline="central" transform="matrix(1 0 0 1 -94 -62)">Order</text></g></g><g><g><path fill="none" stroke="none"/><text fill="#000000" stroke="none" font-family="Arial" font-size="13px" font-style="normal" font-weight="normal" text-decoration="undefined" x="109" y="572.5" text-anchor="start" dominant-baseline="central" transform="matrix(1 0 0 1 -94 -62)">-id: number</text></g></g><g><g><path fill="none" stroke="none"/><text fill="#000000" stroke="none" font-family="Arial" font-size="13px" font-style="normal" font-weight="normal" text-decoration="undefined" x="109" y="587.5" text-anchor="start" dominant-baseline="central" transform="matrix(1 0 0 1 -94 -62)">-startPoint: Bin</text></g></g><g><g><path fill="none" stroke="none"/><text fill="#000000" stroke="none" font-family="Arial" font-size="13px" font-style="normal" font-weight="normal" text-decoration="undefined" x="109" y="602.5" text-anchor="start" dominant-baseline="central" transform="matrix(1 0 0 1 -94 -62)">-endPoint: Bin</text></g></g><g><g><path fill="none" stroke="none"/><text fill="#000000" stroke="none" font-family="Arial" font-size="13px" font-style="normal" font-weight="normal" text-decoration="undefined" x="109" y="617.5" text-anchor="start" dominant-baseline="central" transform="matrix(1 0 0 1 -94 -62)">-product: Product</text></g></g><g><g><path fill="none" stroke="none"/><text fill="#000000" stroke="none" font-family="Arial" font-size="13px" font-style="normal" font-weight="normal" text-decoration="undefined" x="109" y="640.5" text-anchor="start" dominant-baseline="central" transform="matrix(1 0 0 1 -94 -62)">+constructor(id: number, startPoint: Bin, endPoint: Bin, product: Product)</text></g></g><g><g><path fill="none" stroke="none"/><text fill="#000000" stroke="none" font-family="Arial" font-size="13px" font-style="normal" font-weight="normal" text-decoration="undefined" x="109" y="655.5" text-anchor="start" dominant-baseline="central" transform="matrix(1 0 0 1 -94 -62)">+getId(): number</text></g></g><g><g><path fill="none" stroke="none"/><text fill="#000000" stroke="none" font-family="Arial" font-size="13px" font-style="normal" font-weight="normal" text-decoration="undefined" x="109" y="670.5" text-anchor="start" dominant-baseline="central" transform="matrix(1 0 0 1 -94 -62)">+getStartPoint(): Bin</text></g></g><g><g><path fill="none" stroke="none"/><text fill="#000000" stroke="none" font-family="Arial" font-size="13px" font-style="normal" font-weight="normal" text-decoration="undefined" x="109" y="685.5" text-anchor="start" dominant-baseline="central" transform="matrix(1 0 0 1 -94 -62)">+getEndPoint(): Bin</text></g></g><g><g><path fill="none" stroke="none"/><text fill="#000000" stroke="none" font-family="Arial" font-size="13px" font-style="normal" font-weight="normal" text-decoration="undefined" x="109" y="700.5" text-anchor="start" dominant-baseline="central" transform="matrix(1 0 0 1 -94 -62)">+getProduct(): Product</text></g></g><g><rect fill="#C0C0C0" stroke="none" x="591" y="455" width="732.9599609375" height="266" transform="matrix(1 0 0 1 -94 -62)" fill-opacity="0.2"/></g><g><rect fill="#ffffff" stroke="none" x="584" y="448" width="732.9599609375" height="266" transform="matrix(1 0 0 1 -94 -62)"/></g><g><path fill="none" stroke="#000000" paint-order="fill stroke markers" d=" M 490 386 L 1222.9599609375 386 L 1222.9599609375 652 L 490 652 L 490 386 Z Z" stroke-miterlimit="10" stroke-dasharray=""/></g><g><path fill="none" stroke="#000000" paint-order="fill stroke markers" d=" M 490 411 L 1223.9599609375 411" stroke-miterlimit="10" stroke-dasharray=""/></g><g><path fill="none" stroke="#000000" paint-order="fill stroke markers" d=" M 490 524 L 1223.9599609375 524" stroke-miterlimit="10" stroke-dasharray=""/></g><g><g><path fill="none" stroke="none"/><text fill="#000000" stroke="none" font-family="Arial" font-size="13px" font-style="normal" font-weight="bold" text-decoration="undefined" x="950.97998046875" y="461.5" text-anchor="middle" dominant-baseline="central" transform="matrix(1 0 0 1 -94 -62)">Product</text></g></g><g><g><path fill="none" stroke="none"/><text fill="#000000" stroke="none" font-family="Arial" font-size="13px" font-style="normal" font-weight="normal" text-decoration="undefined" x="589" y="484.5" text-anchor="start" dominant-baseline="central" transform="matrix(1 0 0 1 -94 -62)">-id: number</text></g></g><g><g><path fill="none" stroke="none"/><text fill="#000000" stroke="none" font-family="Arial" font-size="13px" font-style="normal" font-weight="normal" text-decoration="undefined" x="589" y="499.5" text-anchor="start" dominant-baseline="central" transform="matrix(1 0 0 1 -94 -62)">-name: string</text></g></g><g><g><path fill="none" stroke="none"/><text fill="#000000" stroke="none" font-family="Arial" font-size="13px" font-style="normal" font-weight="normal" text-decoration="undefined" x="589" y="514.5" text-anchor="start" dominant-baseline="central" transform="matrix(1 0 0 1 -94 -62)">-weight: number</text></g></g><g><g><path fill="none" stroke="none"/><text fill="#000000" stroke="none" font-family="Arial" font-size="13px" font-style="normal" font-weight="normal" text-decoration="undefined" x="589" y="529.5" text-anchor="start" dominant-baseline="central" transform="matrix(1 0 0 1 -94 -62)">-length: number</text></g></g><g><g><path fill="none" stroke="none"/><text fill="#000000" stroke="none" font-family="Arial" font-size="13px" font-style="normal" font-weight="normal" text-decoration="undefined" x="589" y="544.5" text-anchor="start" dominant-baseline="central" transform="matrix(1 0 0 1 -94 -62)">-width: number</text></g></g><g><g><path fill="none" stroke="none"/><text fill="#000000" stroke="none" font-family="Arial" font-size="13px" font-style="normal" font-weight="normal" text-decoration="undefined" x="589" y="559.5" text-anchor="start" dominant-baseline="central" transform="matrix(1 0 0 1 -94 -62)">-height: number</text></g></g><g><g><path fill="none" stroke="none"/><text fill="#000000" stroke="none" font-family="Arial" font-size="13px" font-style="normal" font-weight="normal" text-decoration="undefined" x="589" y="574.5" text-anchor="start" dominant-baseline="central" transform="matrix(1 0 0 1 -94 -62)">-categories: string[0..*]</text></g></g><g><g><path fill="none" stroke="none"/><text fill="#000000" stroke="none" font-family="Arial" font-size="13px" font-style="normal" font-weight="normal" text-decoration="undefined" x="589" y="597.5" text-anchor="start" dominant-baseline="central" transform="matrix(1 0 0 1 -94 -62)">+constructor(id: number, name: string, weight: number, length: number, width: number, height: number, categories: string[0..*])</text></g></g><g><g><path fill="none" stroke="none"/><text fill="#000000" stroke="none" font-family="Arial" font-size="13px" font-style="normal" font-weight="normal" text-decoration="undefined" x="589" y="612.5" text-anchor="start" dominant-baseline="central" transform="matrix(1 0 0 1 -94 -62)">+getId(): number</text></g></g><g><g><path fill="none" stroke="none"/><text fill="#000000" stroke="none" font-family="Arial" font-size="13px" font-style="normal" font-weight="normal" text-decoration="undefined" x="589" y="627.5" text-anchor="start" dominant-baseline="central" transform="matrix(1 0 0 1 -94 -62)">+getName(): string</text></g></g><g><g><path fill="none" stroke="none"/><text fill="#000000" stroke="none" font-family="Arial" font-size="13px" font-style="normal" font-weight="normal" text-decoration="undefined" x="589" y="642.5" text-anchor="start" dominant-baseline="central" transform="matrix(1 0 0 1 -94 -62)">+getWeight(): number</text></g></g><g><g><path fill="none" stroke="none"/><text fill="#000000" stroke="none" font-family="Arial" font-size="13px" font-style="normal" font-weight="normal" text-decoration="undefined" x="589" y="657.5" text-anchor="start" dominant-baseline="central" transform="matrix(1 0 0 1 -94 -62)">+getLength(): number</text></g></g><g><g><path fill="none" stroke="none"/><text fill="#000000" stroke="none" font-family="Arial" font-size="13px" font-style="normal" font-weight="normal" text-decoration="undefined" x="589" y="672.5" text-anchor="start" dominant-baseline="central" transform="matrix(1 0 0 1 -94 -62)">+getWidth(): number</text></g></g><g><g><path fill="none" stroke="none"/><text fill="#000000" stroke="none" font-family="Arial" font-size="13px" font-style="normal" font-weight="normal" text-decoration="undefined" x="589" y="687.5" text-anchor="start" dominant-baseline="central" transform="matrix(1 0 0 1 -94 -62)">+getHeight(): number</text></g></g><g><g><path fill="none" stroke="none"/><text fill="#000000" stroke="none" font-family="Arial" font-size="13px" font-style="normal" font-weight="normal" text-decoration="undefined" x="589" y="702.5" text-anchor="start" dominant-baseline="central" transform="matrix(1 0 0 1 -94 -62)">+getCategories(): string[0..*]</text></g></g><g><rect fill="#C0C0C0" stroke="none" x="135" y="919" width="866.6923828125" height="401" transform="matrix(1 0 0 1 -94 -62)" fill-opacity="0.2"/></g><g><rect fill="#ffffff" stroke="none" x="128" y="912" width="866.6923828125" height="401" transform="matrix(1 0 0 1 -94 -62)"/></g><g><path fill="none" stroke="#000000" paint-order="fill stroke markers" d=" M 34 850 L 900.6923828125 850 L 900.6923828125 1251 L 34 1251 L 34 850 Z Z" stroke-miterlimit="10" stroke-dasharray=""/></g><g><path fill="none" stroke="#000000" paint-order="fill stroke markers" d=" M 34 875 L 901.6923828125 875" stroke-miterlimit="10" stroke-dasharray=""/></g><g><path fill="none" stroke="#000000" paint-order="fill stroke markers" d=" M 34 1003 L 901.6923828125 1003" stroke-miterlimit="10" stroke-dasharray=""/></g><g><g><path fill="none" stroke="none"/><text fill="#000000" stroke="none" font-family="Arial" font-size="13px" font-style="normal" font-weight="bold" text-decoration="undefined" x="561.84619140625" y="925.5" text-anchor="middle" dominant-baseline="central" transform="matrix(1 0 0 1 -94 -62)">Zone</text></g></g><g><g><path fill="none" stroke="none"/><text fill="#000000" stroke="none" font-family="Arial" font-size="13px" font-style="normal" font-weight="normal" text-decoration="undefined" x="133" y="948.5" text-anchor="start" dominant-baseline="central" transform="matrix(1 0 0 1 -94 -62)">-id: number</text></g></g><g><g><path fill="none" stroke="none"/><text fill="#000000" stroke="none" font-family="Arial" font-size="13px" font-style="normal" font-weight="normal" text-decoration="undefined" x="133" y="963.5" text-anchor="start" dominant-baseline="central" transform="matrix(1 0 0 1 -94 -62)">-xcoordinate: number</text></g></g><g><g><path fill="none" stroke="none"/><text fill="#000000" stroke="none" font-family="Arial" font-size="13px" font-style="normal" font-weight="normal" text-decoration="undefined" x="133" y="978.5" text-anchor="start" dominant-baseline="central" transform="matrix(1 0 0 1 -94 -62)">-ycoordinate: number</text></g></g><g><g><path fill="none" stroke="none"/><text fill="#000000" stroke="none" font-family="Arial" font-size="13px" font-style="normal" font-weight="normal" text-decoration="undefined" x="133" y="993.5" text-anchor="start" dominant-baseline="central" transform="matrix(1 0 0 1 -94 -62)">-height: number</text></g></g><g><g><path fill="none" stroke="none"/><text fill="#000000" stroke="none" font-family="Arial" font-size="13px" font-style="normal" font-weight="normal" text-decoration="undefined" x="133" y="1008.5" text-anchor="start" dominant-baseline="central" transform="matrix(1 0 0 1 -94 -62)">-length: number</text></g></g><g><g><path fill="none" stroke="none"/><text fill="#000000" stroke="none" font-family="Arial" font-size="13px" font-style="normal" font-weight="normal" text-decoration="undefined" x="133" y="1023.5" text-anchor="start" dominant-baseline="central" transform="matrix(1 0 0 1 -94 -62)">-width: number</text></g></g><g><g><path fill="none" stroke="none"/><text fill="#000000" stroke="none" font-family="Arial" font-size="13px" font-style="normal" font-weight="normal" text-decoration="undefined" x="133" y="1038.5" text-anchor="start" dominant-baseline="central" transform="matrix(1 0 0 1 -94 -62)">-bins: Bin[*]</text></g></g><g><g><path fill="none" stroke="none"/><text fill="#000000" stroke="none" font-family="Arial" font-size="13px" font-style="normal" font-weight="normal" text-decoration="undefined" x="133" y="1053.5" text-anchor="start" dominant-baseline="central" transform="matrix(1 0 0 1 -94 -62)">-orientation: boolean</text></g></g><g><g><path fill="none" stroke="none"/><text fill="#000000" stroke="none" font-family="Arial" font-size="13px" font-style="normal" font-weight="normal" text-decoration="undefined" x="133" y="1076.5" text-anchor="start" dominant-baseline="central" transform="matrix(1 0 0 1 -94 -62)">+constructor(id: number, xcoordinate: number, ycoordinate: number, height: number, length: number, width: number, bins: Bin[*], orientation: boolean)</text></g></g><g><g><path fill="none" stroke="none"/><text fill="#000000" stroke="none" font-family="Arial" font-size="13px" font-style="normal" font-weight="normal" text-decoration="undefined" x="133" y="1091.5" text-anchor="start" dominant-baseline="central" transform="matrix(1 0 0 1 -94 -62)">+getId(): number</text></g></g><g><g><path fill="none" stroke="none"/><text fill="#000000" stroke="none" font-family="Arial" font-size="13px" font-style="normal" font-weight="normal" text-decoration="undefined" x="133" y="1106.5" text-anchor="start" dominant-baseline="central" transform="matrix(1 0 0 1 -94 -62)">+getXcoordinate(): number</text></g></g><g><g><path fill="none" stroke="none"/><text fill="#000000" stroke="none" font-family="Arial" font-size="13px" font-style="normal" font-weight="normal" text-decoration="undefined" x="133" y="1121.5" text-anchor="start" dominant-baseline="central" transform="matrix(1 0 0 1 -94 -62)">+getYcoordinate(): number</text></g></g><g><g><path fill="none" stroke="none"/><text fill="#000000" stroke="none" font-family="Arial" font-size="13px" font-style="normal" font-weight="normal" text-decoration="undefined" x="133" y="1136.5" text-anchor="start" dominant-baseline="central" transform="matrix(1 0 0 1 -94 -62)">+getHeight(): number</text></g></g><g><g><path fill="none" stroke="none"/><text fill="#000000" stroke="none" font-family="Arial" font-size="13px" font-style="normal" font-weight="normal" text-decoration="undefined" x="133" y="1151.5" text-anchor="start" dominant-baseline="central" transform="matrix(1 0 0 1 -94 -62)">+getLength(): number</text></g></g><g><g><path fill="none" stroke="none"/><text fill="#000000" stroke="none" font-family="Arial" font-size="13px" font-style="normal" font-weight="normal" text-decoration="undefined" x="133" y="1166.5" text-anchor="start" dominant-baseline="central" transform="matrix(1 0 0 1 -94 -62)">+getWidth(): number</text></g></g><g><g><path fill="none" stroke="none"/><text fill="#000000" stroke="none" font-family="Arial" font-size="13px" font-style="normal" font-weight="normal" text-decoration="undefined" x="133" y="1181.5" text-anchor="start" dominant-baseline="central" transform="matrix(1 0 0 1 -94 -62)">+getBins(): Bin[*]</text></g></g><g><g><path fill="none" stroke="none"/><text fill="#000000" stroke="none" font-family="Arial" font-size="13px" font-style="normal" font-weight="normal" text-decoration="undefined" x="133" y="1196.5" text-anchor="start" dominant-baseline="central" transform="matrix(1 0 0 1 -94 -62)">+getOrientation(): boolean</text></g></g><g><g><path fill="none" stroke="none"/><text fill="#000000" stroke="none" font-family="Arial" font-size="13px" font-style="normal" font-weight="normal" text-decoration="undefined" x="133" y="1211.5" text-anchor="start" dominant-baseline="central" transform="matrix(1 0 0 1 -94 -62)">+getBin(id: number | string): Bin | null</text></g></g><g><g><path fill="none" stroke="none"/><text fill="#000000" stroke="none" font-family="Arial" font-size="13px" font-style="normal" font-weight="normal" text-decoration="undefined" x="133" y="1226.5" text-anchor="start" dominant-baseline="central" transform="matrix(1 0 0 1 -94 -62)">+getLevels(): Bin[*][*]</text></g></g><g><g><path fill="none" stroke="none"/><text fill="#000000" stroke="none" font-family="Arial" font-size="13px" font-style="normal" font-weight="normal" text-decoration="undefined" x="133" y="1241.5" text-anchor="start" dominant-baseline="central" transform="matrix(1 0 0 1 -94 -62)">+getColumns(): Bin[*][*]</text></g></g><g><g><path fill="none" stroke="none"/><text fill="#000000" stroke="none" font-family="Arial" font-size="13px" font-style="normal" font-weight="normal" text-decoration="undefined" x="133" y="1256.5" text-anchor="start" dominant-baseline="central" transform="matrix(1 0 0 1 -94 -62)">+getMaxUsedLevel(): number</text></g></g><g><g><path fill="none" stroke="none"/><text fill="#000000" stroke="none" font-family="Arial" font-size="13px" font-style="normal" font-weight="normal" text-decoration="undefined" x="133" y="1271.5" text-anchor="start" dominant-baseline="central" transform="matrix(1 0 0 1 -94 -62)">+getMaxUsedColumn(): number</text></g></g><g><g><path fill="none" stroke="none"/><text fill="#000000" stroke="none" font-family="Arial" font-size="13px" font-style="normal" font-weight="normal" text-decoration="undefined" x="133" y="1286.5" text-anchor="start" dominant-baseline="central" transform="matrix(1 0 0 1 -94 -62)">+setCoordinateX(x: number): void</text></g></g><g><g><path fill="none" stroke="none"/><text fill="#000000" stroke="none" font-family="Arial" font-size="13px" font-style="normal" font-weight="normal" text-decoration="undefined" x="133" y="1301.5" text-anchor="start" dominant-baseline="central" transform="matrix(1 0 0 1 -94 -62)">+setCoordinateY(y: number): void</text></g></g><g><path fill="none" stroke="#000000" paint-order="fill stroke markers" d=" M 633 322 L 705 385" stroke-miterlimit="10" stroke-dasharray=""/></g><g><path fill="#FFFFFF" stroke="none" paint-order="stroke fill markers" d=" M 694.5798209070276 381.4758167371174 L 705 385 L 700.1237945855094 375.13984681885256 L 688.4433127164486 370.5128986268926"/></g><g><path fill="none" stroke="#000000" paint-order="fill stroke markers" d=" M 694.5798209070276 381.4758167371174 L 705 385 L 700.1237945855094 375.13984681885256 L 688.4433127164486 370.5128986268926 L 694.5798209070276 381.4758167371174" stroke-miterlimit="10" stroke-dasharray=""/></g><g><path fill="none" stroke="#000000" paint-order="fill stroke markers" d=" M 275 473 L 364 322" stroke-miterlimit="10" stroke-dasharray=""/></g><g><path fill="#000000" stroke="none" paint-order="stroke fill markers" d=" M 362.4661935215707 332.89254046064224 L 364 322 L 355.2132458140058 328.61762426214375 L 352.8291056341835 340.95286572177855"/></g><g><path fill="none" stroke="#000000" paint-order="fill stroke markers" d=" M 362.4661935215707 332.89254046064224 L 364 322 L 355.2132458140058 328.61762426214375 L 352.8291056341835 340.95286572177855 L 362.4661935215707 332.89254046064224" stroke-miterlimit="10" stroke-dasharray=""/></g><g><path fill="none" stroke="#000000" paint-order="fill stroke markers" d=" M 268 651 L 367 849" stroke-miterlimit="10" stroke-dasharray=""/></g><g><path fill="#000000" stroke="none" paint-order="stroke fill markers" d=" M 358.6900064950472 841.7927808450386 L 367 849 L 366.22022077900255 838.0276737030609 L 357.16130089900093 829.3226017980019"/></g><g><path fill="none" stroke="#000000" paint-order="fill stroke markers" d=" M 358.6900064950472 841.7927808450386 L 367 849 L 366.22022077900255 838.0276737030609 L 357.16130089900093 829.3226017980019 L 358.6900064950472 841.7927808450386" stroke-miterlimit="10" stroke-dasharray=""/></g><g><path fill="none" stroke="#000000" paint-order="fill stroke markers" d=" M 465 849 L 458 322" stroke-miterlimit="10" stroke-dasharray=""/></g><g><path fill="#000000" stroke="none" paint-order="stroke fill markers" d=" M 462.3441226450949 332.1058695046183 L 458 322 L 453.92582972415073 332.21768743715455 L 458.29219433892183 343.9980595159733"/></g><g><path fill="none" stroke="#000000" paint-order="fill stroke markers" d=" M 462.3441226450949 332.1058695046183 L 458 322 L 453.92582972415073 332.21768743715455 L 458.29219433892183 343.9980595159733 L 462.3441226450949 332.1058695046183" stroke-miterlimit="10" stroke-dasharray=""/></g></g></svg>