<svg version="1.1" xmlns="http://www.w3.org/2000/svg" xmlns:xlink="http://www.w3.org/1999/xlink" width="767.2587890625" height="702"><defs/><g><g><rect fill="#C0C0C0" stroke="none" x="287" y="711" width="362.015625" height="146" transform="matrix(1 0 0 1 -78 -158)" fill-opacity="0.2"/></g><g><rect fill="#ffffff" stroke="none" x="280" y="704" width="362.015625" height="146" transform="matrix(1 0 0 1 -78 -158)"/></g><g><path fill="none" stroke="#000000" paint-order="fill stroke markers" d=" M 202 546 L 564.015625 546 L 564.015625 692 L 202 692 L 202 546 Z Z" stroke-miterlimit="10" stroke-dasharray=""/></g><g><path fill="none" stroke="#000000" paint-order="fill stroke markers" d=" M 202 571 L 565.015625 571" stroke-miterlimit="10" stroke-dasharray=""/></g><g><path fill="none" stroke="#000000" paint-order="fill stroke markers" d=" M 202 624 L 565.015625 624" stroke-miterlimit="10" stroke-dasharray=""/></g><g><g><path fill="none" stroke="none"/><text fill="#000000" stroke="none" font-family="Arial" font-size="13px" font-style="normal" font-weight="bold" text-decoration="undefined" x="461.5078125" y="717.5" text-anchor="middle" dominant-baseline="central" transform="matrix(1 0 0 1 -78 -158)">Floor</text></g></g><g><g><path fill="none" stroke="none"/><text fill="#000000" stroke="none" font-family="Arial" font-size="13px" font-style="normal" font-weight="normal" text-decoration="undefined" x="285" y="740.5" text-anchor="start" dominant-baseline="central" transform="matrix(1 0 0 1 -78 -158)">-length: number</text></g></g><g><g><path fill="none" stroke="none"/><text fill="#000000" stroke="none" font-family="Arial" font-size="13px" font-style="normal" font-weight="normal" text-decoration="undefined" x="285" y="755.5" text-anchor="start" dominant-baseline="central" transform="matrix(1 0 0 1 -78 -158)">-width: number</text></g></g><g><g><path fill="none" stroke="none"/><text fill="#000000" stroke="none" font-family="Arial" font-size="13px" font-style="normal" font-weight="normal" text-decoration="undefined" x="285" y="770.5" text-anchor="start" dominant-baseline="central" transform="matrix(1 0 0 1 -78 -158)">-SVG?: string | null</text></g></g><g><g><path fill="none" stroke="none"/><text fill="#000000" stroke="none" font-family="Arial" font-size="13px" font-style="normal" font-weight="normal" text-decoration="undefined" x="285" y="793.5" text-anchor="start" dominant-baseline="central" transform="matrix(1 0 0 1 -78 -158)">+constructor(length: number, width: number, svg: string | null)</text></g></g><g><g><path fill="none" stroke="none"/><text fill="#000000" stroke="none" font-family="Arial" font-size="13px" font-style="normal" font-weight="normal" text-decoration="undefined" x="285" y="808.5" text-anchor="start" dominant-baseline="central" transform="matrix(1 0 0 1 -78 -158)">+getLength(): number</text></g></g><g><g><path fill="none" stroke="none"/><text fill="#000000" stroke="none" font-family="Arial" font-size="13px" font-style="normal" font-weight="normal" text-decoration="undefined" x="285" y="823.5" text-anchor="start" dominant-baseline="central" transform="matrix(1 0 0 1 -78 -158)">+getWidth(): number</text></g></g><g><g><path fill="none" stroke="none"/><text fill="#000000" stroke="none" font-family="Arial" font-size="13px" font-style="normal" font-weight="normal" text-decoration="undefined" x="285" y="838.5" text-anchor="start" dominant-baseline="central" transform="matrix(1 0 0 1 -78 -158)">+getSVG(): string | null</text></g></g><g><path fill="#C0C0C0" stroke="none" paint-order="stroke fill markers" d=" M 382.12939453125 221 C 382.12939453125 214.3725824 387.50197693125 209 394.12939453125 209 C 400.75681213125 209 406.12939453125 214.3725824 406.12939453125 221 C 406.12939453125 227.6274176 400.75681213125 233 394.12939453125 233 C 387.50197693125 233 382.12939453125 227.6274176 382.12939453125 221 Z" fill-opacity="0.2"/></g><g><path fill="#ffffff" stroke="none" paint-order="stroke fill markers" d=" M 375.12939453125 214 C 375.12939453125 207.3725824 380.50197693125 202 387.12939453125 202 C 393.75681213125 202 399.12939453125 207.3725824 399.12939453125 214 C 399.12939453125 220.6274176 393.75681213125 226 387.12939453125 226 C 380.50197693125 226 375.12939453125 220.6274176 375.12939453125 214 Z"/></g><g><path fill="none" stroke="#000000" paint-order="fill stroke markers" d=" M 375.12939453125 214 C 375.12939453125 207.3725824 380.50197693125 202 387.12939453125 202 C 393.75681213125 202 399.12939453125 207.3725824 399.12939453125 214 C 399.12939453125 220.6274176 393.75681213125 226 387.12939453125 226 C 380.50197693125 226 375.12939453125 220.6274176 375.12939453125 214 Z" stroke-miterlimit="10" stroke-dasharray=""/></g><g><path fill="none" stroke="#000000" paint-order="fill stroke markers" d=" M 210 251 L 565.2587890625 251" stroke-miterlimit="10" stroke-dasharray=""/></g><g><g><path fill="none" stroke="none"/><text fill="#000000" stroke="none" font-family="Arial" font-size="13px" font-style="normal" font-weight="bold" text-decoration="undefined" x="465.62939453125" y="397.5" text-anchor="middle" dominant-baseline="central" transform="matrix(1 0 0 1 -78 -158)">FloorStrategy</text></g></g><g><g><path fill="none" stroke="none"/><text fill="#000000" stroke="none" font-family="Arial" font-size="13px" font-style="normal" font-weight="normal" text-decoration="undefined" x="293" y="420.5" text-anchor="start" dominant-baseline="central" transform="matrix(1 0 0 1 -78 -158)">+createFloor(params: URLSearchParams): Promise&lt;Floor&gt;</text></g></g><g><rect fill="#C0C0C0" stroke="none" x="95" y="519" width="354.2587890625" height="58" transform="matrix(1 0 0 1 -78 -158)" fill-opacity="0.2"/></g><g><rect fill="#ffffff" stroke="none" x="88" y="512" width="354.2587890625" height="58" transform="matrix(1 0 0 1 -78 -158)"/></g><g><path fill="none" stroke="#000000" paint-order="fill stroke markers" d=" M 10 354 L 364.2587890625 354 L 364.2587890625 412 L 10 412 L 10 354 Z Z" stroke-miterlimit="10" stroke-dasharray=""/></g><g><path fill="none" stroke="#000000" paint-order="fill stroke markers" d=" M 10 379 L 365.2587890625 379" stroke-miterlimit="10" stroke-dasharray=""/></g><g><path fill="none" stroke="#000000" paint-order="fill stroke markers" d=" M 10 389 L 365.2587890625 389" stroke-miterlimit="10" stroke-dasharray=""/></g><g><g><path fill="none" stroke="none"/><text fill="#000000" stroke="none" font-family="Arial" font-size="13px" font-style="normal" font-weight="bold" text-decoration="undefined" x="265.62939453125" y="525.5" text-anchor="middle" dominant-baseline="central" transform="matrix(1 0 0 1 -78 -158)">StandardFloorStrategy</text></g></g><g><g><path fill="none" stroke="none"/><text fill="#000000" stroke="none" font-family="Arial" font-size="13px" font-style="normal" font-weight="normal" text-decoration="undefined" x="93" y="558.5" text-anchor="start" dominant-baseline="central" transform="matrix(1 0 0 1 -78 -158)">+createFloor(params: URLSearchParams): Promise&lt;Floor&gt;</text></g></g><g><rect fill="#C0C0C0" stroke="none" x="487" y="519" width="354.2587890625" height="58" transform="matrix(1 0 0 1 -78 -158)" fill-opacity="0.2"/></g><g><rect fill="#ffffff" stroke="none" x="480" y="512" width="354.2587890625" height="58" transform="matrix(1 0 0 1 -78 -158)"/></g><g><path fill="none" stroke="#000000" paint-order="fill stroke markers" d=" M 402 354 L 756.2587890625 354 L 756.2587890625 412 L 402 412 L 402 354 Z Z" stroke-miterlimit="10" stroke-dasharray=""/></g><g><path fill="none" stroke="#000000" paint-order="fill stroke markers" d=" M 402 379 L 757.2587890625 379" stroke-miterlimit="10" stroke-dasharray=""/></g><g><path fill="none" stroke="#000000" paint-order="fill stroke markers" d=" M 402 389 L 757.2587890625 389" stroke-miterlimit="10" stroke-dasharray=""/></g><g><g><path fill="none" stroke="none"/><text fill="#000000" stroke="none" font-family="Arial" font-size="13px" font-style="normal" font-weight="bold" text-decoration="undefined" x="657.62939453125" y="525.5" text-anchor="middle" dominant-baseline="central" transform="matrix(1 0 0 1 -78 -158)">CustomFloorStrategy</text></g></g><g><g><path fill="none" stroke="none"/><text fill="#000000" stroke="none" font-family="Arial" font-size="13px" font-style="normal" font-weight="normal" text-decoration="undefined" x="485" y="558.5" text-anchor="start" dominant-baseline="central" transform="matrix(1 0 0 1 -78 -158)">+createFloor(params: URLSearchParams): Promise&lt;Floor&gt;</text></g></g><g><rect fill="#C0C0C0" stroke="none" x="295" y="175" width="354.2587890625" height="101" transform="matrix(1 0 0 1 -78 -158)" fill-opacity="0.2"/></g><g><rect fill="#ffffff" stroke="none" x="288" y="168" width="354.2587890625" height="101" transform="matrix(1 0 0 1 -78 -158)"/></g><g><path fill="none" stroke="#000000" paint-order="fill stroke markers" d=" M 210 10 L 564.2587890625 10 L 564.2587890625 111 L 210 111 L 210 10 Z Z" stroke-miterlimit="10" stroke-dasharray=""/></g><g><path fill="none" stroke="#000000" paint-order="fill stroke markers" d=" M 210 35 L 565.2587890625 35" stroke-miterlimit="10" stroke-dasharray=""/></g><g><path fill="none" stroke="#000000" paint-order="fill stroke markers" d=" M 210 58 L 565.2587890625 58" stroke-miterlimit="10" stroke-dasharray=""/></g><g><g><path fill="none" stroke="none"/><text fill="#000000" stroke="none" font-family="Arial" font-size="13px" font-style="normal" font-weight="bold" text-decoration="undefined" x="465.62939453125" y="181.5" text-anchor="middle" dominant-baseline="central" transform="matrix(1 0 0 1 -78 -158)">FloorStrategyContext</text></g></g><g><g><path fill="none" stroke="none"/><text fill="#000000" stroke="none" font-family="Arial" font-size="13px" font-style="normal" font-weight="normal" text-decoration="undefined" x="293" y="204.5" text-anchor="start" dominant-baseline="central" transform="matrix(1 0 0 1 -78 -158)">-strategy: FloorStrategy</text></g></g><g><g><path fill="none" stroke="none"/><text fill="#000000" stroke="none" font-family="Arial" font-size="13px" font-style="normal" font-weight="normal" text-decoration="undefined" x="293" y="227.5" text-anchor="start" dominant-baseline="central" transform="matrix(1 0 0 1 -78 -158)">+constructor(strategy?: FloorStrategy)</text></g></g><g><g><path fill="none" stroke="none"/><text fill="#000000" stroke="none" font-family="Arial" font-size="13px" font-style="normal" font-weight="normal" text-decoration="undefined" x="293" y="242.5" text-anchor="start" dominant-baseline="central" transform="matrix(1 0 0 1 -78 -158)">+setStrategy(strategy: FloorStrategy)</text></g></g><g><g><path fill="none" stroke="none"/><text fill="#000000" stroke="none" font-family="Arial" font-size="13px" font-style="normal" font-weight="normal" text-decoration="undefined" x="293" y="257.5" text-anchor="start" dominant-baseline="central" transform="matrix(1 0 0 1 -78 -158)">+createFloor(params: URLSearchParams): Promise&lt;Floor&gt;</text></g></g><g><path fill="none" stroke="#000000" paint-order="fill stroke markers" d=" M 228 353 L 336 275" stroke-miterlimit="10" stroke-dasharray=""/></g><g><path fill="none" stroke="#000000" paint-order="fill stroke markers" d=" M 539 353 L 436 275" stroke-miterlimit="10" stroke-dasharray=""/></g><g><path fill="none" stroke="#000000" paint-order="fill stroke markers" d=" M 212 413 L 322 545" stroke-miterlimit="10" stroke-dasharray="3"/></g><g><path fill="none" stroke="#000000" paint-order="fill stroke markers" d=" M 312.2601729802721 539.887684514256 L 322 545 L 318.72785521430103 534.4979493192318" stroke-miterlimit="10" stroke-dasharray=""/></g><g><g><path fill="none" stroke="none"/><text fill="#000000" stroke="none" font-family="Arial" font-size="13px" font-style="normal" font-weight="normal" text-decoration="undefined" x="357" y="621" text-anchor="start" dominant-baseline="text-before-edge" transform="matrix(1 0 0 1 -78 -158)">&lt;&lt;create&gt;&gt;</text></g></g><g><path fill="none" stroke="#000000" paint-order="fill stroke markers" d=" M 554 413 L 444 545" stroke-miterlimit="10" stroke-dasharray="3"/></g><g><path fill="none" stroke="#000000" paint-order="fill stroke markers" d=" M 447.27214478569897 534.4979493192318 L 444 545 L 453.73982701972795 539.887684514256" stroke-miterlimit="10" stroke-dasharray=""/></g><g><g><path fill="none" stroke="none"/><text fill="#000000" stroke="none" font-family="Arial" font-size="13px" font-style="normal" font-weight="normal" text-decoration="undefined" x="509" y="621" text-anchor="start" dominant-baseline="text-before-edge" transform="matrix(1 0 0 1 -78 -158)">&lt;&lt;create&gt;&gt;</text></g></g><g><path fill="none" stroke="#000000" paint-order="fill stroke markers" d=" M 387 112 L 387 201" stroke-miterlimit="10" stroke-dasharray=""/></g><g><path fill="#FFFFFF" stroke="none" paint-order="stroke fill markers" d=" M 382.790482243984 190.83732514237585 L 387 201 L 391.209517756016 190.83732514237585 L 387 179"/></g><g><path fill="none" stroke="#000000" paint-order="fill stroke markers" d=" M 382.790482243984 190.83732514237585 L 387 201 L 391.209517756016 190.83732514237585 L 387 179 L 382.790482243984 190.83732514237585" stroke-miterlimit="10" stroke-dasharray=""/></g></g></svg>