<svg version="1.1" xmlns="http://www.w3.org/2000/svg" xmlns:xlink="http://www.w3.org/1999/xlink" width="911.5712890625" height="1365"><defs/><g><g><rect fill="#C0C0C0" stroke="none" x="151" y="367" width="732.00146484375" height="356" transform="matrix(1 0 0 1 -62 -30)" fill-opacity="0.2"/></g><g><rect fill="#ffffff" stroke="none" x="144" y="360" width="732.00146484375" height="356" transform="matrix(1 0 0 1 -62 -30)"/></g><g><path fill="none" stroke="#000000" paint-order="fill stroke markers" d=" M 82 330 L 814.00146484375 330 L 814.00146484375 686 L 82 686 L 82 330 Z Z" stroke-miterlimit="10" stroke-dasharray=""/></g><g><path fill="none" stroke="#000000" paint-order="fill stroke markers" d=" M 82 355 L 815.00146484375 355" stroke-miterlimit="10" stroke-dasharray=""/></g><g><path fill="none" stroke="#000000" paint-order="fill stroke markers" d=" M 82 483 L 815.00146484375 483" stroke-miterlimit="10" stroke-dasharray=""/></g><g><g><path fill="none" stroke="none"/><text fill="#000000" stroke="none" font-family="Arial" font-size="13px" font-style="normal" font-weight="bold" text-decoration="undefined" x="510.500732421875" y="373.5" text-anchor="middle" dominant-baseline="central" transform="matrix(1 0 0 1 -62 -30)">Bin</text></g></g><g><g><path fill="none" stroke="none"/><text fill="#000000" stroke="none" font-family="Arial" font-size="13px" font-style="normal" font-weight="normal" text-decoration="undefined" x="149" y="396.5" text-anchor="start" dominant-baseline="central" transform="matrix(1 0 0 1 -62 -30)">-id: string</text></g></g><g><g><path fill="none" stroke="none"/><text fill="#000000" stroke="none" font-family="Arial" font-size="13px" font-style="normal" font-weight="normal" text-decoration="undefined" x="149" y="411.5" text-anchor="start" dominant-baseline="central" transform="matrix(1 0 0 1 -62 -30)">-level: number</text></g></g><g><g><path fill="none" stroke="none"/><text fill="#000000" stroke="none" font-family="Arial" font-size="13px" font-style="normal" font-weight="normal" text-decoration="undefined" x="149" y="426.5" text-anchor="start" dominant-baseline="central" transform="matrix(1 0 0 1 -62 -30)">-column: number</text></g></g><g><g><path fill="none" stroke="none"/><text fill="#000000" stroke="none" font-family="Arial" font-size="13px" font-style="normal" font-weight="normal" text-decoration="undefined" x="149" y="441.5" text-anchor="start" dominant-baseline="central" transform="matrix(1 0 0 1 -62 -30)">-height: number</text></g></g><g><g><path fill="none" stroke="none"/><text fill="#000000" stroke="none" font-family="Arial" font-size="13px" font-style="normal" font-weight="normal" text-decoration="undefined" x="149" y="456.5" text-anchor="start" dominant-baseline="central" transform="matrix(1 0 0 1 -62 -30)">-length: number</text></g></g><g><g><path fill="none" stroke="none"/><text fill="#000000" stroke="none" font-family="Arial" font-size="13px" font-style="normal" font-weight="normal" text-decoration="undefined" x="149" y="471.5" text-anchor="start" dominant-baseline="central" transform="matrix(1 0 0 1 -62 -30)">-width: number</text></g></g><g><g><path fill="none" stroke="none"/><text fill="#000000" stroke="none" font-family="Arial" font-size="13px" font-style="normal" font-weight="normal" text-decoration="undefined" x="149" y="486.5" text-anchor="start" dominant-baseline="central" transform="matrix(1 0 0 1 -62 -30)">-product: Product | null</text></g></g><g><g><path fill="none" stroke="none"/><text fill="#000000" stroke="none" font-family="Arial" font-size="13px" font-style="normal" font-weight="normal" text-decoration="undefined" x="149" y="501.5" text-anchor="start" dominant-baseline="central" transform="matrix(1 0 0 1 -62 -30)">-state: BinState</text></g></g><g><g><path fill="none" stroke="none"/><text fill="#000000" stroke="none" font-family="Arial" font-size="13px" font-style="normal" font-weight="normal" text-decoration="undefined" x="149" y="524.5" text-anchor="start" dominant-baseline="central" transform="matrix(1 0 0 1 -62 -30)">+constructor(id: string, level: number, column: number, height: number, length: number, width: number, product: Product | null)</text></g></g><g><g><path fill="none" stroke="none"/><text fill="#000000" stroke="none" font-family="Arial" font-size="13px" font-style="normal" font-weight="normal" text-decoration="undefined" x="149" y="539.5" text-anchor="start" dominant-baseline="central" transform="matrix(1 0 0 1 -62 -30)">+getId(): string</text></g></g><g><g><path fill="none" stroke="none"/><text fill="#000000" stroke="none" font-family="Arial" font-size="13px" font-style="normal" font-weight="normal" text-decoration="undefined" x="149" y="554.5" text-anchor="start" dominant-baseline="central" transform="matrix(1 0 0 1 -62 -30)">+getLevel(): number</text></g></g><g><g><path fill="none" stroke="none"/><text fill="#000000" stroke="none" font-family="Arial" font-size="13px" font-style="normal" font-weight="normal" text-decoration="undefined" x="149" y="569.5" text-anchor="start" dominant-baseline="central" transform="matrix(1 0 0 1 -62 -30)">+getColumn(): number</text></g></g><g><g><path fill="none" stroke="none"/><text fill="#000000" stroke="none" font-family="Arial" font-size="13px" font-style="normal" font-weight="normal" text-decoration="undefined" x="149" y="584.5" text-anchor="start" dominant-baseline="central" transform="matrix(1 0 0 1 -62 -30)">+getHeight(): number</text></g></g><g><g><path fill="none" stroke="none"/><text fill="#000000" stroke="none" font-family="Arial" font-size="13px" font-style="normal" font-weight="normal" text-decoration="undefined" x="149" y="599.5" text-anchor="start" dominant-baseline="central" transform="matrix(1 0 0 1 -62 -30)">+getLength(): number</text></g></g><g><g><path fill="none" stroke="none"/><text fill="#000000" stroke="none" font-family="Arial" font-size="13px" font-style="normal" font-weight="normal" text-decoration="undefined" x="149" y="614.5" text-anchor="start" dominant-baseline="central" transform="matrix(1 0 0 1 -62 -30)">+getWidth(): number</text></g></g><g><g><path fill="none" stroke="none"/><text fill="#000000" stroke="none" font-family="Arial" font-size="13px" font-style="normal" font-weight="normal" text-decoration="undefined" x="149" y="629.5" text-anchor="start" dominant-baseline="central" transform="matrix(1 0 0 1 -62 -30)">+getProduct(): Product | null</text></g></g><g><g><path fill="none" stroke="none"/><text fill="#000000" stroke="none" font-family="Arial" font-size="13px" font-style="normal" font-weight="normal" text-decoration="undefined" x="149" y="644.5" text-anchor="start" dominant-baseline="central" transform="matrix(1 0 0 1 -62 -30)">+setId(id: string): void</text></g></g><g><g><path fill="none" stroke="none"/><text fill="#000000" stroke="none" font-family="Arial" font-size="13px" font-style="normal" font-weight="normal" text-decoration="undefined" x="149" y="659.5" text-anchor="start" dominant-baseline="central" transform="matrix(1 0 0 1 -62 -30)">+setProduct(product: Product | null): void</text></g></g><g><g><path fill="none" stroke="none"/><text fill="#000000" stroke="none" font-family="Arial" font-size="13px" font-style="normal" font-weight="normal" text-decoration="undefined" x="149" y="674.5" text-anchor="start" dominant-baseline="central" transform="matrix(1 0 0 1 -62 -30)">+clearProduct(): void</text></g></g><g><g><path fill="none" stroke="none"/><text fill="#000000" stroke="none" font-family="Arial" font-size="13px" font-style="normal" font-weight="normal" text-decoration="undefined" x="149" y="689.5" text-anchor="start" dominant-baseline="central" transform="matrix(1 0 0 1 -62 -30)">+setBinState(state: BinState)</text></g></g><g><g><path fill="none" stroke="none"/><text fill="#000000" stroke="none" font-family="Arial" font-size="13px" font-style="normal" font-weight="normal" text-decoration="undefined" x="149" y="704.5" text-anchor="start" dominant-baseline="central" transform="matrix(1 0 0 1 -62 -30)">+getBinState(): BinState</text></g></g><g><rect fill="#C0C0C0" stroke="none" x="543" y="767" width="426.5712890625" height="176" transform="matrix(1 0 0 1 -62 -30)" fill-opacity="0.2"/></g><g><rect fill="#ffffff" stroke="none" x="536" y="760" width="426.5712890625" height="176" transform="matrix(1 0 0 1 -62 -30)"/></g><g><path fill="none" stroke="#000000" paint-order="fill stroke markers" d=" M 474 730 L 900.5712890625 730 L 900.5712890625 906 L 474 906 L 474 730 Z Z" stroke-miterlimit="10" stroke-dasharray=""/></g><g><path fill="none" stroke="#000000" paint-order="fill stroke markers" d=" M 474 755 L 901.5712890625 755" stroke-miterlimit="10" stroke-dasharray=""/></g><g><path fill="none" stroke="#000000" paint-order="fill stroke markers" d=" M 474 823 L 901.5712890625 823" stroke-miterlimit="10" stroke-dasharray=""/></g><g><g><path fill="none" stroke="none"/><text fill="#000000" stroke="none" font-family="Arial" font-size="13px" font-style="normal" font-weight="bold" text-decoration="undefined" x="749.78564453125" y="773.5" text-anchor="middle" dominant-baseline="central" transform="matrix(1 0 0 1 -62 -30)">Order</text></g></g><g><g><path fill="none" stroke="none"/><text fill="#000000" stroke="none" font-family="Arial" font-size="13px" font-style="normal" font-weight="normal" text-decoration="undefined" x="541" y="796.5" text-anchor="start" dominant-baseline="central" transform="matrix(1 0 0 1 -62 -30)">-id: number</text></g></g><g><g><path fill="none" stroke="none"/><text fill="#000000" stroke="none" font-family="Arial" font-size="13px" font-style="normal" font-weight="normal" text-decoration="undefined" x="541" y="811.5" text-anchor="start" dominant-baseline="central" transform="matrix(1 0 0 1 -62 -30)">-startPoint: Bin</text></g></g><g><g><path fill="none" stroke="none"/><text fill="#000000" stroke="none" font-family="Arial" font-size="13px" font-style="normal" font-weight="normal" text-decoration="undefined" x="541" y="826.5" text-anchor="start" dominant-baseline="central" transform="matrix(1 0 0 1 -62 -30)">-endPoint: Bin</text></g></g><g><g><path fill="none" stroke="none"/><text fill="#000000" stroke="none" font-family="Arial" font-size="13px" font-style="normal" font-weight="normal" text-decoration="undefined" x="541" y="841.5" text-anchor="start" dominant-baseline="central" transform="matrix(1 0 0 1 -62 -30)">-product: Product</text></g></g><g><g><path fill="none" stroke="none"/><text fill="#000000" stroke="none" font-family="Arial" font-size="13px" font-style="normal" font-weight="normal" text-decoration="undefined" x="541" y="864.5" text-anchor="start" dominant-baseline="central" transform="matrix(1 0 0 1 -62 -30)">+constructor(id: number, startPoint: Bin, endPoint: Bin, product: Product)</text></g></g><g><g><path fill="none" stroke="none"/><text fill="#000000" stroke="none" font-family="Arial" font-size="13px" font-style="normal" font-weight="normal" text-decoration="undefined" x="541" y="879.5" text-anchor="start" dominant-baseline="central" transform="matrix(1 0 0 1 -62 -30)">+getId(): number</text></g></g><g><g><path fill="none" stroke="none"/><text fill="#000000" stroke="none" font-family="Arial" font-size="13px" font-style="normal" font-weight="normal" text-decoration="undefined" x="541" y="894.5" text-anchor="start" dominant-baseline="central" transform="matrix(1 0 0 1 -62 -30)">+getStartPoint(): Bin</text></g></g><g><g><path fill="none" stroke="none"/><text fill="#000000" stroke="none" font-family="Arial" font-size="13px" font-style="normal" font-weight="normal" text-decoration="undefined" x="541" y="909.5" text-anchor="start" dominant-baseline="central" transform="matrix(1 0 0 1 -62 -30)">+getEndPoint(): Bin</text></g></g><g><g><path fill="none" stroke="none"/><text fill="#000000" stroke="none" font-family="Arial" font-size="13px" font-style="normal" font-weight="normal" text-decoration="undefined" x="541" y="924.5" text-anchor="start" dominant-baseline="central" transform="matrix(1 0 0 1 -62 -30)">+getProduct(): Product</text></g></g><g><rect fill="#C0C0C0" stroke="none" x="151" y="47" width="732.9599609375" height="266" transform="matrix(1 0 0 1 -62 -30)" fill-opacity="0.2"/></g><g><rect fill="#ffffff" stroke="none" x="144" y="40" width="732.9599609375" height="266" transform="matrix(1 0 0 1 -62 -30)"/></g><g><path fill="none" stroke="#000000" paint-order="fill stroke markers" d=" M 82 10 L 814.9599609375 10 L 814.9599609375 276 L 82 276 L 82 10 Z Z" stroke-miterlimit="10" stroke-dasharray=""/></g><g><path fill="none" stroke="#000000" paint-order="fill stroke markers" d=" M 82 35 L 815.9599609375 35" stroke-miterlimit="10" stroke-dasharray=""/></g><g><path fill="none" stroke="#000000" paint-order="fill stroke markers" d=" M 82 148 L 815.9599609375 148" stroke-miterlimit="10" stroke-dasharray=""/></g><g><g><path fill="none" stroke="none"/><text fill="#000000" stroke="none" font-family="Arial" font-size="13px" font-style="normal" font-weight="bold" text-decoration="undefined" x="510.97998046875" y="53.5" text-anchor="middle" dominant-baseline="central" transform="matrix(1 0 0 1 -62 -30)">Product</text></g></g><g><g><path fill="none" stroke="none"/><text fill="#000000" stroke="none" font-family="Arial" font-size="13px" font-style="normal" font-weight="normal" text-decoration="undefined" x="149" y="76.5" text-anchor="start" dominant-baseline="central" transform="matrix(1 0 0 1 -62 -30)">-id: number</text></g></g><g><g><path fill="none" stroke="none"/><text fill="#000000" stroke="none" font-family="Arial" font-size="13px" font-style="normal" font-weight="normal" text-decoration="undefined" x="149" y="91.5" text-anchor="start" dominant-baseline="central" transform="matrix(1 0 0 1 -62 -30)">-name: string</text></g></g><g><g><path fill="none" stroke="none"/><text fill="#000000" stroke="none" font-family="Arial" font-size="13px" font-style="normal" font-weight="normal" text-decoration="undefined" x="149" y="106.5" text-anchor="start" dominant-baseline="central" transform="matrix(1 0 0 1 -62 -30)">-weight: number</text></g></g><g><g><path fill="none" stroke="none"/><text fill="#000000" stroke="none" font-family="Arial" font-size="13px" font-style="normal" font-weight="normal" text-decoration="undefined" x="149" y="121.5" text-anchor="start" dominant-baseline="central" transform="matrix(1 0 0 1 -62 -30)">-length: number</text></g></g><g><g><path fill="none" stroke="none"/><text fill="#000000" stroke="none" font-family="Arial" font-size="13px" font-style="normal" font-weight="normal" text-decoration="undefined" x="149" y="136.5" text-anchor="start" dominant-baseline="central" transform="matrix(1 0 0 1 -62 -30)">-width: number</text></g></g><g><g><path fill="none" stroke="none"/><text fill="#000000" stroke="none" font-family="Arial" font-size="13px" font-style="normal" font-weight="normal" text-decoration="undefined" x="149" y="151.5" text-anchor="start" dominant-baseline="central" transform="matrix(1 0 0 1 -62 -30)">-height: number</text></g></g><g><g><path fill="none" stroke="none"/><text fill="#000000" stroke="none" font-family="Arial" font-size="13px" font-style="normal" font-weight="normal" text-decoration="undefined" x="149" y="166.5" text-anchor="start" dominant-baseline="central" transform="matrix(1 0 0 1 -62 -30)">-categories: string[0..*]</text></g></g><g><g><path fill="none" stroke="none"/><text fill="#000000" stroke="none" font-family="Arial" font-size="13px" font-style="normal" font-weight="normal" text-decoration="undefined" x="149" y="189.5" text-anchor="start" dominant-baseline="central" transform="matrix(1 0 0 1 -62 -30)">+constructor(id: number, name: string, weight: number, length: number, width: number, height: number, categories: string[0..*])</text></g></g><g><g><path fill="none" stroke="none"/><text fill="#000000" stroke="none" font-family="Arial" font-size="13px" font-style="normal" font-weight="normal" text-decoration="undefined" x="149" y="204.5" text-anchor="start" dominant-baseline="central" transform="matrix(1 0 0 1 -62 -30)">+getId(): number</text></g></g><g><g><path fill="none" stroke="none"/><text fill="#000000" stroke="none" font-family="Arial" font-size="13px" font-style="normal" font-weight="normal" text-decoration="undefined" x="149" y="219.5" text-anchor="start" dominant-baseline="central" transform="matrix(1 0 0 1 -62 -30)">+getName(): string</text></g></g><g><g><path fill="none" stroke="none"/><text fill="#000000" stroke="none" font-family="Arial" font-size="13px" font-style="normal" font-weight="normal" text-decoration="undefined" x="149" y="234.5" text-anchor="start" dominant-baseline="central" transform="matrix(1 0 0 1 -62 -30)">+getWeight(): number</text></g></g><g><g><path fill="none" stroke="none"/><text fill="#000000" stroke="none" font-family="Arial" font-size="13px" font-style="normal" font-weight="normal" text-decoration="undefined" x="149" y="249.5" text-anchor="start" dominant-baseline="central" transform="matrix(1 0 0 1 -62 -30)">+getLength(): number</text></g></g><g><g><path fill="none" stroke="none"/><text fill="#000000" stroke="none" font-family="Arial" font-size="13px" font-style="normal" font-weight="normal" text-decoration="undefined" x="149" y="264.5" text-anchor="start" dominant-baseline="central" transform="matrix(1 0 0 1 -62 -30)">+getWidth(): number</text></g></g><g><g><path fill="none" stroke="none"/><text fill="#000000" stroke="none" font-family="Arial" font-size="13px" font-style="normal" font-weight="normal" text-decoration="undefined" x="149" y="279.5" text-anchor="start" dominant-baseline="central" transform="matrix(1 0 0 1 -62 -30)">+getHeight(): number</text></g></g><g><g><path fill="none" stroke="none"/><text fill="#000000" stroke="none" font-family="Arial" font-size="13px" font-style="normal" font-weight="normal" text-decoration="undefined" x="149" y="294.5" text-anchor="start" dominant-baseline="central" transform="matrix(1 0 0 1 -62 -30)">+getCategories(): string[0..*]</text></g></g><g><rect fill="#C0C0C0" stroke="none" x="79" y="991" width="866.6923828125" height="401" transform="matrix(1 0 0 1 -62 -30)" fill-opacity="0.2"/></g><g><rect fill="#ffffff" stroke="none" x="72" y="984" width="866.6923828125" height="401" transform="matrix(1 0 0 1 -62 -30)"/></g><g><path fill="none" stroke="#000000" paint-order="fill stroke markers" d=" M 10 954 L 876.6923828125 954 L 876.6923828125 1355 L 10 1355 L 10 954 Z Z" stroke-miterlimit="10" stroke-dasharray=""/></g><g><path fill="none" stroke="#000000" paint-order="fill stroke markers" d=" M 10 979 L 877.6923828125 979" stroke-miterlimit="10" stroke-dasharray=""/></g><g><path fill="none" stroke="#000000" paint-order="fill stroke markers" d=" M 10 1107 L 877.6923828125 1107" stroke-miterlimit="10" stroke-dasharray=""/></g><g><g><path fill="none" stroke="none"/><text fill="#000000" stroke="none" font-family="Arial" font-size="13px" font-style="normal" font-weight="bold" text-decoration="undefined" x="505.84619140625" y="997.5" text-anchor="middle" dominant-baseline="central" transform="matrix(1 0 0 1 -62 -30)">Zone</text></g></g><g><g><path fill="none" stroke="none"/><text fill="#000000" stroke="none" font-family="Arial" font-size="13px" font-style="normal" font-weight="normal" text-decoration="undefined" x="77" y="1020.5" text-anchor="start" dominant-baseline="central" transform="matrix(1 0 0 1 -62 -30)">-id: number</text></g></g><g><g><path fill="none" stroke="none"/><text fill="#000000" stroke="none" font-family="Arial" font-size="13px" font-style="normal" font-weight="normal" text-decoration="undefined" x="77" y="1035.5" text-anchor="start" dominant-baseline="central" transform="matrix(1 0 0 1 -62 -30)">-xcoordinate: number</text></g></g><g><g><path fill="none" stroke="none"/><text fill="#000000" stroke="none" font-family="Arial" font-size="13px" font-style="normal" font-weight="normal" text-decoration="undefined" x="77" y="1050.5" text-anchor="start" dominant-baseline="central" transform="matrix(1 0 0 1 -62 -30)">-ycoordinate: number</text></g></g><g><g><path fill="none" stroke="none"/><text fill="#000000" stroke="none" font-family="Arial" font-size="13px" font-style="normal" font-weight="normal" text-decoration="undefined" x="77" y="1065.5" text-anchor="start" dominant-baseline="central" transform="matrix(1 0 0 1 -62 -30)">-height: number</text></g></g><g><g><path fill="none" stroke="none"/><text fill="#000000" stroke="none" font-family="Arial" font-size="13px" font-style="normal" font-weight="normal" text-decoration="undefined" x="77" y="1080.5" text-anchor="start" dominant-baseline="central" transform="matrix(1 0 0 1 -62 -30)">-length: number</text></g></g><g><g><path fill="none" stroke="none"/><text fill="#000000" stroke="none" font-family="Arial" font-size="13px" font-style="normal" font-weight="normal" text-decoration="undefined" x="77" y="1095.5" text-anchor="start" dominant-baseline="central" transform="matrix(1 0 0 1 -62 -30)">-width: number</text></g></g><g><g><path fill="none" stroke="none"/><text fill="#000000" stroke="none" font-family="Arial" font-size="13px" font-style="normal" font-weight="normal" text-decoration="undefined" x="77" y="1110.5" text-anchor="start" dominant-baseline="central" transform="matrix(1 0 0 1 -62 -30)">-bins: Bin[*]</text></g></g><g><g><path fill="none" stroke="none"/><text fill="#000000" stroke="none" font-family="Arial" font-size="13px" font-style="normal" font-weight="normal" text-decoration="undefined" x="77" y="1125.5" text-anchor="start" dominant-baseline="central" transform="matrix(1 0 0 1 -62 -30)">-orientation: boolean</text></g></g><g><g><path fill="none" stroke="none"/><text fill="#000000" stroke="none" font-family="Arial" font-size="13px" font-style="normal" font-weight="normal" text-decoration="undefined" x="77" y="1148.5" text-anchor="start" dominant-baseline="central" transform="matrix(1 0 0 1 -62 -30)">+constructor(id: number, xcoordinate: number, ycoordinate: number, height: number, length: number, width: number, bins: Bin[*], orientation: boolean)</text></g></g><g><g><path fill="none" stroke="none"/><text fill="#000000" stroke="none" font-family="Arial" font-size="13px" font-style="normal" font-weight="normal" text-decoration="undefined" x="77" y="1163.5" text-anchor="start" dominant-baseline="central" transform="matrix(1 0 0 1 -62 -30)">+getId(): number</text></g></g><g><g><path fill="none" stroke="none"/><text fill="#000000" stroke="none" font-family="Arial" font-size="13px" font-style="normal" font-weight="normal" text-decoration="undefined" x="77" y="1178.5" text-anchor="start" dominant-baseline="central" transform="matrix(1 0 0 1 -62 -30)">+getXcoordinate(): number</text></g></g><g><g><path fill="none" stroke="none"/><text fill="#000000" stroke="none" font-family="Arial" font-size="13px" font-style="normal" font-weight="normal" text-decoration="undefined" x="77" y="1193.5" text-anchor="start" dominant-baseline="central" transform="matrix(1 0 0 1 -62 -30)">+getYcoordinate(): number</text></g></g><g><g><path fill="none" stroke="none"/><text fill="#000000" stroke="none" font-family="Arial" font-size="13px" font-style="normal" font-weight="normal" text-decoration="undefined" x="77" y="1208.5" text-anchor="start" dominant-baseline="central" transform="matrix(1 0 0 1 -62 -30)">+getHeight(): number</text></g></g><g><g><path fill="none" stroke="none"/><text fill="#000000" stroke="none" font-family="Arial" font-size="13px" font-style="normal" font-weight="normal" text-decoration="undefined" x="77" y="1223.5" text-anchor="start" dominant-baseline="central" transform="matrix(1 0 0 1 -62 -30)">+getLength(): number</text></g></g><g><g><path fill="none" stroke="none"/><text fill="#000000" stroke="none" font-family="Arial" font-size="13px" font-style="normal" font-weight="normal" text-decoration="undefined" x="77" y="1238.5" text-anchor="start" dominant-baseline="central" transform="matrix(1 0 0 1 -62 -30)">+getWidth(): number</text></g></g><g><g><path fill="none" stroke="none"/><text fill="#000000" stroke="none" font-family="Arial" font-size="13px" font-style="normal" font-weight="normal" text-decoration="undefined" x="77" y="1253.5" text-anchor="start" dominant-baseline="central" transform="matrix(1 0 0 1 -62 -30)">+getBins(): Bin[*]</text></g></g><g><g><path fill="none" stroke="none"/><text fill="#000000" stroke="none" font-family="Arial" font-size="13px" font-style="normal" font-weight="normal" text-decoration="undefined" x="77" y="1268.5" text-anchor="start" dominant-baseline="central" transform="matrix(1 0 0 1 -62 -30)">+getOrientation(): boolean</text></g></g><g><g><path fill="none" stroke="none"/><text fill="#000000" stroke="none" font-family="Arial" font-size="13px" font-style="normal" font-weight="normal" text-decoration="undefined" x="77" y="1283.5" text-anchor="start" dominant-baseline="central" transform="matrix(1 0 0 1 -62 -30)">+getBin(id: number | string): Bin | null</text></g></g><g><g><path fill="none" stroke="none"/><text fill="#000000" stroke="none" font-family="Arial" font-size="13px" font-style="normal" font-weight="normal" text-decoration="undefined" x="77" y="1298.5" text-anchor="start" dominant-baseline="central" transform="matrix(1 0 0 1 -62 -30)">+getLevels(): Bin[*][*]</text></g></g><g><g><path fill="none" stroke="none"/><text fill="#000000" stroke="none" font-family="Arial" font-size="13px" font-style="normal" font-weight="normal" text-decoration="undefined" x="77" y="1313.5" text-anchor="start" dominant-baseline="central" transform="matrix(1 0 0 1 -62 -30)">+getColumns(): Bin[*][*]</text></g></g><g><g><path fill="none" stroke="none"/><text fill="#000000" stroke="none" font-family="Arial" font-size="13px" font-style="normal" font-weight="normal" text-decoration="undefined" x="77" y="1328.5" text-anchor="start" dominant-baseline="central" transform="matrix(1 0 0 1 -62 -30)">+getMaxUsedLevel(): number</text></g></g><g><g><path fill="none" stroke="none"/><text fill="#000000" stroke="none" font-family="Arial" font-size="13px" font-style="normal" font-weight="normal" text-decoration="undefined" x="77" y="1343.5" text-anchor="start" dominant-baseline="central" transform="matrix(1 0 0 1 -62 -30)">+getMaxUsedColumn(): number</text></g></g><g><g><path fill="none" stroke="none"/><text fill="#000000" stroke="none" font-family="Arial" font-size="13px" font-style="normal" font-weight="normal" text-decoration="undefined" x="77" y="1358.5" text-anchor="start" dominant-baseline="central" transform="matrix(1 0 0 1 -62 -30)">+setCoordinateX(x: number): void</text></g></g><g><g><path fill="none" stroke="none"/><text fill="#000000" stroke="none" font-family="Arial" font-size="13px" font-style="normal" font-weight="normal" text-decoration="undefined" x="77" y="1373.5" text-anchor="start" dominant-baseline="central" transform="matrix(1 0 0 1 -62 -30)">+setCoordinateY(y: number): void</text></g></g><g><path fill="none" stroke="#000000" paint-order="fill stroke markers" d=" M 448 329 L 448 277" stroke-miterlimit="10" stroke-dasharray=""/></g><g><path fill="#FFFFFF" stroke="none" paint-order="stroke fill markers" d=" M 452.209517756016 287.16267485762415 L 448 277 L 443.790482243984 287.16267485762415 L 448 299"/></g><g><path fill="none" stroke="#000000" paint-order="fill stroke markers" d=" M 452.209517756016 287.16267485762415 L 448 277 L 443.790482243984 287.16267485762415 L 448 299 L 452.209517756016 287.16267485762415" stroke-miterlimit="10" stroke-dasharray=""/></g><g><path fill="none" stroke="#000000" paint-order="fill stroke markers" d=" M 445 953 L 447 687" stroke-miterlimit="10" stroke-dasharray=""/></g><g><path fill="#000000" stroke="none" paint-order="stroke fill markers" d=" M 451.1329898447841 697.194037224913 L 447 687 L 442.7141922964179 697.130737995226 L 446.8345911415716 708.9993781709746"/></g><g><path fill="none" stroke="#000000" paint-order="fill stroke markers" d=" M 451.1329898447841 697.194037224913 L 447 687 L 442.7141922964179 697.130737995226 L 446.8345911415716 708.9993781709746 L 451.1329898447841 697.194037224913" stroke-miterlimit="10" stroke-dasharray=""/></g><g><rect fill="#C0C0C0" stroke="none" x="207" y="775" width="107.5634765625" height="91" transform="matrix(1 0 0 1 -62 -30)" fill-opacity="0.2"/></g><g><rect fill="#ffffff" stroke="none" x="200" y="768" width="107.5634765625" height="91" transform="matrix(1 0 0 1 -62 -30)"/></g><g><path fill="none" stroke="#000000" paint-order="fill stroke markers" d=" M 138 738 L 245.5634765625 738 L 245.5634765625 829 L 138 829 L 138 738 Z Z" stroke-miterlimit="10" stroke-dasharray=""/></g><g><path fill="none" stroke="#000000" paint-order="fill stroke markers" d=" M 138 776 L 246.5634765625 776" stroke-miterlimit="10" stroke-dasharray=""/></g><g><g><path fill="none" stroke="none"/><text fill="#000000" stroke="none" font-family="Arial" font-size="13px" font-style="normal" font-weight="normal" text-decoration="undefined" x="254.28173828125" y="779.5" text-anchor="middle" dominant-baseline="central" transform="matrix(1 0 0 1 -62 -30)">«enumeration»</text></g></g><g><g><path fill="none" stroke="none"/><text fill="#000000" stroke="none" font-family="Arial" font-size="13px" font-style="normal" font-weight="bold" text-decoration="undefined" x="254.28173828125" y="794.5" text-anchor="middle" dominant-baseline="central" transform="matrix(1 0 0 1 -62 -30)">BinState</text></g></g><g><g><path fill="none" stroke="none"/><text fill="#000000" stroke="none" font-family="Arial" font-size="13px" font-style="normal" font-weight="normal" text-decoration="undefined" x="205" y="817.5" text-anchor="start" dominant-baseline="central" transform="matrix(1 0 0 1 -62 -30)">Idle</text></g></g><g><g><path fill="none" stroke="none"/><text fill="#000000" stroke="none" font-family="Arial" font-size="13px" font-style="normal" font-weight="normal" text-decoration="undefined" x="205" y="832.5" text-anchor="start" dominant-baseline="central" transform="matrix(1 0 0 1 -62 -30)">ProductIncoming</text></g></g><g><g><path fill="none" stroke="none"/><text fill="#000000" stroke="none" font-family="Arial" font-size="13px" font-style="normal" font-weight="normal" text-decoration="undefined" x="205" y="847.5" text-anchor="start" dominant-baseline="central" transform="matrix(1 0 0 1 -62 -30)">ProductOutgoing</text></g></g><g><path fill="none" stroke="#000000" paint-order="fill stroke markers" d=" M 281 687 L 234 737" stroke-miterlimit="10" stroke-dasharray=""/></g><g><path fill="none" stroke="#000000" paint-order="fill stroke markers" d=" M 622 907 L 589 953" stroke-miterlimit="10" stroke-dasharray=""/></g><g><path fill="#FFFFFF" stroke="none" paint-order="stroke fill markers" d=" M 591.5035090166966 942.2886768976322 L 589 953 L 598.3442974036323 947.1961990013034 L 601.823973259938 935.1241584861469"/></g><g><path fill="none" stroke="#000000" paint-order="fill stroke markers" d=" M 591.5035090166966 942.2886768976322 L 589 953 L 598.3442974036323 947.1961990013034 L 601.823973259938 935.1241584861469 L 591.5035090166966 942.2886768976322" stroke-miterlimit="10" stroke-dasharray=""/></g><g><path fill="none" stroke="#000000" paint-order="fill stroke markers" d=" M 618 729 L 586 687" stroke-miterlimit="10" stroke-dasharray=""/></g><g><path fill="#FFFFFF" stroke="none" paint-order="stroke fill markers" d=" M 595.5074040955607 692.532564266569 L 586 687 L 588.8106361972104 697.634863617693 L 599.3329507357828 704.499497840715"/></g><g><path fill="none" stroke="#000000" paint-order="fill stroke markers" d=" M 595.5074040955607 692.532564266569 L 586 687 L 588.8106361972104 697.634863617693 L 599.3329507357828 704.499497840715 L 595.5074040955607 692.532564266569" stroke-miterlimit="10" stroke-dasharray=""/></g></g></svg>