<svg version="1.1" xmlns="http://www.w3.org/2000/svg" xmlns:xlink="http://www.w3.org/1999/xlink" width="775.2587890625" height="746"><defs/><g><g><rect fill="#C0C0C0" stroke="none" x="87" y="695" width="362.015625" height="206" transform="matrix(1 0 0 1 -70 -158)" fill-opacity="0.2"/></g><g><rect fill="#ffffff" stroke="none" x="80" y="688" width="362.015625" height="206" transform="matrix(1 0 0 1 -70 -158)"/></g><g><path fill="none" stroke="#000000" paint-order="fill stroke markers" d=" M 10 530 L 372.015625 530 L 372.015625 736 L 10 736 L 10 530 Z Z" stroke-miterlimit="10" stroke-dasharray=""/></g><g><path fill="none" stroke="#000000" paint-order="fill stroke markers" d=" M 10 555 L 373.015625 555" stroke-miterlimit="10" stroke-dasharray=""/></g><g><path fill="none" stroke="#000000" paint-order="fill stroke markers" d=" M 10 608 L 373.015625 608" stroke-miterlimit="10" stroke-dasharray=""/></g><g><g><path fill="none" stroke="none"/><text fill="#000000" stroke="none" font-family="Arial" font-size="13px" font-style="normal" font-weight="bold" text-decoration="undefined" x="261.5078125" y="701.5" text-anchor="middle" dominant-baseline="central" transform="matrix(1 0 0 1 -70 -158)">Floor</text></g></g><g><g><path fill="none" stroke="none"/><text fill="#000000" stroke="none" font-family="Arial" font-size="13px" font-style="normal" font-weight="normal" text-decoration="undefined" x="85" y="724.5" text-anchor="start" dominant-baseline="central" transform="matrix(1 0 0 1 -70 -158)">-length: number</text></g></g><g><g><path fill="none" stroke="none"/><text fill="#000000" stroke="none" font-family="Arial" font-size="13px" font-style="normal" font-weight="normal" text-decoration="undefined" x="85" y="739.5" text-anchor="start" dominant-baseline="central" transform="matrix(1 0 0 1 -70 -158)">-width: number</text></g></g><g><g><path fill="none" stroke="none"/><text fill="#000000" stroke="none" font-family="Arial" font-size="13px" font-style="normal" font-weight="normal" text-decoration="undefined" x="85" y="754.5" text-anchor="start" dominant-baseline="central" transform="matrix(1 0 0 1 -70 -158)">-SVG: SVG | null</text></g></g><g><g><path fill="none" stroke="none"/><text fill="#000000" stroke="none" font-family="Arial" font-size="13px" font-style="normal" font-weight="normal" text-decoration="undefined" x="85" y="777.5" text-anchor="start" dominant-baseline="central" transform="matrix(1 0 0 1 -70 -158)">+constructor(length: number, width: number, svg: string | null)</text></g></g><g><g><path fill="none" stroke="none"/><text fill="#000000" stroke="none" font-family="Arial" font-size="13px" font-style="normal" font-weight="normal" text-decoration="undefined" x="85" y="792.5" text-anchor="start" dominant-baseline="central" transform="matrix(1 0 0 1 -70 -158)">+clone()</text></g></g><g><g><path fill="none" stroke="none"/><text fill="#000000" stroke="none" font-family="Arial" font-size="13px" font-style="normal" font-weight="normal" text-decoration="undefined" x="85" y="807.5" text-anchor="start" dominant-baseline="central" transform="matrix(1 0 0 1 -70 -158)">+getLength(): number</text></g></g><g><g><path fill="none" stroke="none"/><text fill="#000000" stroke="none" font-family="Arial" font-size="13px" font-style="normal" font-weight="normal" text-decoration="undefined" x="85" y="822.5" text-anchor="start" dominant-baseline="central" transform="matrix(1 0 0 1 -70 -158)">+getWidth(): number</text></g></g><g><g><path fill="none" stroke="none"/><text fill="#000000" stroke="none" font-family="Arial" font-size="13px" font-style="normal" font-weight="normal" text-decoration="undefined" x="85" y="837.5" text-anchor="start" dominant-baseline="central" transform="matrix(1 0 0 1 -70 -158)">+getSVG(): string | null</text></g></g><g><g><path fill="none" stroke="none"/><text fill="#000000" stroke="none" font-family="Arial" font-size="13px" font-style="normal" font-weight="normal" text-decoration="undefined" x="85" y="852.5" text-anchor="start" dominant-baseline="central" transform="matrix(1 0 0 1 -70 -158)">+setLength(length: number)</text></g></g><g><g><path fill="none" stroke="none"/><text fill="#000000" stroke="none" font-family="Arial" font-size="13px" font-style="normal" font-weight="normal" text-decoration="undefined" x="85" y="867.5" text-anchor="start" dominant-baseline="central" transform="matrix(1 0 0 1 -70 -158)">+setWidth(width: number)</text></g></g><g><g><path fill="none" stroke="none"/><text fill="#000000" stroke="none" font-family="Arial" font-size="13px" font-style="normal" font-weight="normal" text-decoration="undefined" x="85" y="882.5" text-anchor="start" dominant-baseline="central" transform="matrix(1 0 0 1 -70 -158)">+setSVG(svg: SVG | null)</text></g></g><g><path fill="#C0C0C0" stroke="none" paint-order="stroke fill markers" d=" M 390.12939453125 221 C 390.12939453125 214.3725824 395.50197693125 209 402.12939453125 209 C 408.75681213125 209 414.12939453125 214.3725824 414.12939453125 221 C 414.12939453125 227.6274176 408.75681213125 233 402.12939453125 233 C 395.50197693125 233 390.12939453125 227.6274176 390.12939453125 221 Z" fill-opacity="0.2"/></g><g><path fill="#ffffff" stroke="none" paint-order="stroke fill markers" d=" M 383.12939453125 214 C 383.12939453125 207.3725824 388.50197693125 202 395.12939453125 202 C 401.75681213125 202 407.12939453125 207.3725824 407.12939453125 214 C 407.12939453125 220.6274176 401.75681213125 226 395.12939453125 226 C 388.50197693125 226 383.12939453125 220.6274176 383.12939453125 214 Z"/></g><g><path fill="none" stroke="#000000" paint-order="fill stroke markers" d=" M 383.12939453125 214 C 383.12939453125 207.3725824 388.50197693125 202 395.12939453125 202 C 401.75681213125 202 407.12939453125 207.3725824 407.12939453125 214 C 407.12939453125 220.6274176 401.75681213125 226 395.12939453125 226 C 388.50197693125 226 383.12939453125 220.6274176 383.12939453125 214 Z" stroke-miterlimit="10" stroke-dasharray=""/></g><g><path fill="none" stroke="#000000" paint-order="fill stroke markers" d=" M 218 251 L 573.2587890625 251" stroke-miterlimit="10" stroke-dasharray=""/></g><g><g><path fill="none" stroke="none"/><text fill="#000000" stroke="none" font-family="Arial" font-size="13px" font-style="normal" font-weight="bold" text-decoration="undefined" x="465.62939453125" y="397.5" text-anchor="middle" dominant-baseline="central" transform="matrix(1 0 0 1 -70 -158)">FloorStrategy</text></g></g><g><g><path fill="none" stroke="none"/><text fill="#000000" stroke="none" font-family="Arial" font-size="13px" font-style="normal" font-weight="normal" text-decoration="undefined" x="293" y="420.5" text-anchor="start" dominant-baseline="central" transform="matrix(1 0 0 1 -70 -158)">+createFloor(params: URLSearchParams): Promise&lt;Floor&gt;</text></g></g><g><rect fill="#C0C0C0" stroke="none" x="95" y="519" width="354.2587890625" height="58" transform="matrix(1 0 0 1 -70 -158)" fill-opacity="0.2"/></g><g><rect fill="#ffffff" stroke="none" x="88" y="512" width="354.2587890625" height="58" transform="matrix(1 0 0 1 -70 -158)"/></g><g><path fill="none" stroke="#000000" paint-order="fill stroke markers" d=" M 18 354 L 372.2587890625 354 L 372.2587890625 412 L 18 412 L 18 354 Z Z" stroke-miterlimit="10" stroke-dasharray=""/></g><g><path fill="none" stroke="#000000" paint-order="fill stroke markers" d=" M 18 379 L 373.2587890625 379" stroke-miterlimit="10" stroke-dasharray=""/></g><g><path fill="none" stroke="#000000" paint-order="fill stroke markers" d=" M 18 389 L 373.2587890625 389" stroke-miterlimit="10" stroke-dasharray=""/></g><g><g><path fill="none" stroke="none"/><text fill="#000000" stroke="none" font-family="Arial" font-size="13px" font-style="normal" font-weight="bold" text-decoration="undefined" x="265.62939453125" y="525.5" text-anchor="middle" dominant-baseline="central" transform="matrix(1 0 0 1 -70 -158)">StandardFloorStrategy</text></g></g><g><g><path fill="none" stroke="none"/><text fill="#000000" stroke="none" font-family="Arial" font-size="13px" font-style="normal" font-weight="normal" text-decoration="undefined" x="93" y="558.5" text-anchor="start" dominant-baseline="central" transform="matrix(1 0 0 1 -70 -158)">+createFloor(params: URLSearchParams): Promise&lt;Floor&gt;</text></g></g><g><rect fill="#C0C0C0" stroke="none" x="487" y="519" width="354.2587890625" height="58" transform="matrix(1 0 0 1 -70 -158)" fill-opacity="0.2"/></g><g><rect fill="#ffffff" stroke="none" x="480" y="512" width="354.2587890625" height="58" transform="matrix(1 0 0 1 -70 -158)"/></g><g><path fill="none" stroke="#000000" paint-order="fill stroke markers" d=" M 410 354 L 764.2587890625 354 L 764.2587890625 412 L 410 412 L 410 354 Z Z" stroke-miterlimit="10" stroke-dasharray=""/></g><g><path fill="none" stroke="#000000" paint-order="fill stroke markers" d=" M 410 379 L 765.2587890625 379" stroke-miterlimit="10" stroke-dasharray=""/></g><g><path fill="none" stroke="#000000" paint-order="fill stroke markers" d=" M 410 389 L 765.2587890625 389" stroke-miterlimit="10" stroke-dasharray=""/></g><g><g><path fill="none" stroke="none"/><text fill="#000000" stroke="none" font-family="Arial" font-size="13px" font-style="normal" font-weight="bold" text-decoration="undefined" x="657.62939453125" y="525.5" text-anchor="middle" dominant-baseline="central" transform="matrix(1 0 0 1 -70 -158)">CustomFloorStrategy</text></g></g><g><g><path fill="none" stroke="none"/><text fill="#000000" stroke="none" font-family="Arial" font-size="13px" font-style="normal" font-weight="normal" text-decoration="undefined" x="485" y="558.5" text-anchor="start" dominant-baseline="central" transform="matrix(1 0 0 1 -70 -158)">+createFloor(params: URLSearchParams): Promise&lt;Floor&gt;</text></g></g><g><rect fill="#C0C0C0" stroke="none" x="295" y="175" width="354.2587890625" height="101" transform="matrix(1 0 0 1 -70 -158)" fill-opacity="0.2"/></g><g><rect fill="#ffffff" stroke="none" x="288" y="168" width="354.2587890625" height="101" transform="matrix(1 0 0 1 -70 -158)"/></g><g><path fill="none" stroke="#000000" paint-order="fill stroke markers" d=" M 218 10 L 572.2587890625 10 L 572.2587890625 111 L 218 111 L 218 10 Z Z" stroke-miterlimit="10" stroke-dasharray=""/></g><g><path fill="none" stroke="#000000" paint-order="fill stroke markers" d=" M 218 35 L 573.2587890625 35" stroke-miterlimit="10" stroke-dasharray=""/></g><g><path fill="none" stroke="#000000" paint-order="fill stroke markers" d=" M 218 58 L 573.2587890625 58" stroke-miterlimit="10" stroke-dasharray=""/></g><g><g><path fill="none" stroke="none"/><text fill="#000000" stroke="none" font-family="Arial" font-size="13px" font-style="normal" font-weight="bold" text-decoration="undefined" x="465.62939453125" y="181.5" text-anchor="middle" dominant-baseline="central" transform="matrix(1 0 0 1 -70 -158)">FloorStrategyContext</text></g></g><g><g><path fill="none" stroke="none"/><text fill="#000000" stroke="none" font-family="Arial" font-size="13px" font-style="normal" font-weight="normal" text-decoration="undefined" x="293" y="204.5" text-anchor="start" dominant-baseline="central" transform="matrix(1 0 0 1 -70 -158)">-strategy: FloorStrategy</text></g></g><g><g><path fill="none" stroke="none"/><text fill="#000000" stroke="none" font-family="Arial" font-size="13px" font-style="normal" font-weight="normal" text-decoration="undefined" x="293" y="227.5" text-anchor="start" dominant-baseline="central" transform="matrix(1 0 0 1 -70 -158)">+constructor(strategy?: FloorStrategy)</text></g></g><g><g><path fill="none" stroke="none"/><text fill="#000000" stroke="none" font-family="Arial" font-size="13px" font-style="normal" font-weight="normal" text-decoration="undefined" x="293" y="242.5" text-anchor="start" dominant-baseline="central" transform="matrix(1 0 0 1 -70 -158)">+setStrategy(strategy: FloorStrategy)</text></g></g><g><g><path fill="none" stroke="none"/><text fill="#000000" stroke="none" font-family="Arial" font-size="13px" font-style="normal" font-weight="normal" text-decoration="undefined" x="293" y="257.5" text-anchor="start" dominant-baseline="central" transform="matrix(1 0 0 1 -70 -158)">+createFloor(params: URLSearchParams): Promise&lt;Floor&gt;</text></g></g><g><path fill="none" stroke="#000000" paint-order="fill stroke markers" d=" M 236 353 L 344 275" stroke-miterlimit="10" stroke-dasharray=""/></g><g><path fill="none" stroke="#000000" paint-order="fill stroke markers" d=" M 547 353 L 444 275" stroke-miterlimit="10" stroke-dasharray=""/></g><g><path fill="none" stroke="#000000" paint-order="fill stroke markers" d=" M 195 413 L 193 529" stroke-miterlimit="10" stroke-dasharray="3"/></g><g><path fill="none" stroke="#000000" paint-order="fill stroke markers" d=" M 188.96630027066186 518.7662682029703 L 193 529 L 197.3840847186388 518.9114024175906" stroke-miterlimit="10" stroke-dasharray=""/></g><g><g><path fill="none" stroke="none"/><text fill="#000000" stroke="none" font-family="Arial" font-size="13px" font-style="normal" font-weight="normal" text-decoration="undefined" x="157" y="613" text-anchor="start" dominant-baseline="text-before-edge" transform="matrix(1 0 0 1 -70 -158)">&lt;&lt;create&gt;&gt;</text></g></g><g><path fill="none" stroke="#000000" paint-order="fill stroke markers" d=" M 539 413 L 356 529" stroke-miterlimit="10" stroke-dasharray="3"/></g><g><path fill="none" stroke="#000000" paint-order="fill stroke markers" d=" M 362.329803034489 520.0036900039753 L 356 529 L 366.83719845310776 527.114494845417" stroke-miterlimit="10" stroke-dasharray=""/></g><g><g><path fill="none" stroke="none"/><text fill="#000000" stroke="none" font-family="Arial" font-size="13px" font-style="normal" font-weight="normal" text-decoration="undefined" x="413" y="621" text-anchor="start" dominant-baseline="text-before-edge" transform="matrix(1 0 0 1 -70 -158)">&lt;&lt;create&gt;&gt;</text></g></g><g><path fill="none" stroke="#000000" paint-order="fill stroke markers" d=" M 395 112 L 395 201" stroke-miterlimit="10" stroke-dasharray=""/></g><g><path fill="#FFFFFF" stroke="none" paint-order="stroke fill markers" d=" M 390.790482243984 190.83732514237585 L 395 201 L 399.209517756016 190.83732514237585 L 395 179"/></g><g><path fill="none" stroke="#000000" paint-order="fill stroke markers" d=" M 390.790482243984 190.83732514237585 L 395 201 L 399.209517756016 190.83732514237585 L 395 179 L 390.790482243984 190.83732514237585" stroke-miterlimit="10" stroke-dasharray=""/></g><g><rect fill="#C0C0C0" stroke="none" x="503" y="719" width="331.89599609375" height="146" transform="matrix(1 0 0 1 -70 -158)" fill-opacity="0.2"/></g><g><rect fill="#ffffff" stroke="none" x="496" y="712" width="331.89599609375" height="146" transform="matrix(1 0 0 1 -70 -158)"/></g><g><path fill="none" stroke="#000000" paint-order="fill stroke markers" d=" M 426 554 L 757.89599609375 554 L 757.89599609375 700 L 426 700 L 426 554 Z Z" stroke-miterlimit="10" stroke-dasharray=""/></g><g><path fill="none" stroke="#000000" paint-order="fill stroke markers" d=" M 426 579 L 758.89599609375 579" stroke-miterlimit="10" stroke-dasharray=""/></g><g><path fill="none" stroke="#000000" paint-order="fill stroke markers" d=" M 426 632 L 758.89599609375 632" stroke-miterlimit="10" stroke-dasharray=""/></g><g><g><path fill="none" stroke="none"/><text fill="#000000" stroke="none" font-family="Arial" font-size="13px" font-style="normal" font-weight="bold" text-decoration="undefined" x="662.447998046875" y="725.5" text-anchor="middle" dominant-baseline="central" transform="matrix(1 0 0 1 -70 -158)">SVG</text></g></g><g><g><path fill="none" stroke="none"/><text fill="#000000" stroke="none" font-family="Arial" font-size="13px" font-style="normal" font-weight="normal" text-decoration="undefined" x="501" y="748.5" text-anchor="start" dominant-baseline="central" transform="matrix(1 0 0 1 -70 -158)">-length: number</text></g></g><g><g><path fill="none" stroke="none"/><text fill="#000000" stroke="none" font-family="Arial" font-size="13px" font-style="normal" font-weight="normal" text-decoration="undefined" x="501" y="763.5" text-anchor="start" dominant-baseline="central" transform="matrix(1 0 0 1 -70 -158)">-width: number</text></g></g><g><g><path fill="none" stroke="none"/><text fill="#000000" stroke="none" font-family="Arial" font-size="13px" font-style="normal" font-weight="normal" text-decoration="undefined" x="501" y="778.5" text-anchor="start" dominant-baseline="central" transform="matrix(1 0 0 1 -70 -158)">-svg: string</text></g></g><g><g><path fill="none" stroke="none"/><text fill="#000000" stroke="none" font-family="Arial" font-size="13px" font-style="normal" font-weight="normal" text-decoration="undefined" x="501" y="801.5" text-anchor="start" dominant-baseline="central" transform="matrix(1 0 0 1 -70 -158)">+constructor(svg: string, length: number, width: number)</text></g></g><g><g><path fill="none" stroke="none"/><text fill="#000000" stroke="none" font-family="Arial" font-size="13px" font-style="normal" font-weight="normal" text-decoration="undefined" x="501" y="816.5" text-anchor="start" dominant-baseline="central" transform="matrix(1 0 0 1 -70 -158)">+getLength(): number</text></g></g><g><g><path fill="none" stroke="none"/><text fill="#000000" stroke="none" font-family="Arial" font-size="13px" font-style="normal" font-weight="normal" text-decoration="undefined" x="501" y="831.5" text-anchor="start" dominant-baseline="central" transform="matrix(1 0 0 1 -70 -158)">+getWidth(): number</text></g></g><g><g><path fill="none" stroke="none"/><text fill="#000000" stroke="none" font-family="Arial" font-size="13px" font-style="normal" font-weight="normal" text-decoration="undefined" x="501" y="846.5" text-anchor="start" dominant-baseline="central" transform="matrix(1 0 0 1 -70 -158)">+getString(): string</text></g></g><g><path fill="none" stroke="#000000" paint-order="fill stroke markers" d=" M 373 630 L 425 629" stroke-miterlimit="10" stroke-dasharray=""/></g><g><path fill="#FFFFFF" stroke="none" paint-order="stroke fill markers" d=" M 414.92014111385225 633.4041395113403 L 425 629 L 414.7582665144411 624.9866603419617 L 403.00406691934336 629.4229987130896"/></g><g><path fill="none" stroke="#000000" paint-order="fill stroke markers" d=" M 414.92014111385225 633.4041395113403 L 425 629 L 414.7582665144411 624.9866603419617 L 403.00406691934336 629.4229987130896 L 414.92014111385225 633.4041395113403" stroke-miterlimit="10" stroke-dasharray=""/></g></g></svg>