<svg version="1.1" xmlns="http://www.w3.org/2000/svg" xmlns:xlink="http://www.w3.org/1999/xlink" width="895.3515625" height="763"><defs/><g><g><rect fill="#C0C0C0" stroke="none" x="735" y="215" width="185.9443359375" height="58" transform="matrix(1 0 0 1 -54 -38)" fill-opacity="0.2"/></g><g><rect fill="#ffffff" stroke="none" x="728" y="208" width="185.9443359375" height="58" transform="matrix(1 0 0 1 -54 -38)"/></g><g><path fill="none" stroke="#000000" paint-order="fill stroke markers" d=" M 674 170 L 859.9443359375 170 L 859.9443359375 228 L 674 228 L 674 170 Z Z" stroke-miterlimit="10" stroke-dasharray=""/></g><g><path fill="none" stroke="#000000" paint-order="fill stroke markers" d=" M 674 195 L 860.9443359375 195" stroke-miterlimit="10" stroke-dasharray=""/></g><g><path fill="none" stroke="#000000" paint-order="fill stroke markers" d=" M 674 205 L 860.9443359375 205" stroke-miterlimit="10" stroke-dasharray=""/></g><g><g><path fill="none" stroke="none"/><text fill="#000000" stroke="none" font-family="Arial" font-size="13px" font-style="normal" font-weight="bold" text-decoration="undefined" x="821.47216796875" y="221.5" text-anchor="middle" dominant-baseline="central" transform="matrix(1 0 0 1 -54 -38)">ProductMapper</text></g></g><g><g><path fill="none" stroke="none"/><text fill="#000000" stroke="none" font-family="Arial" font-size="13px" font-style="normal" font-weight="normal" text-decoration="undefined" x="733" y="254.5" text-anchor="start" dominant-baseline="central" transform="matrix(1 0 0 1 -54 -38)">+toDomain(json: any): Product</text></g></g><g><rect fill="#C0C0C0" stroke="none" x="415" y="215" width="201.13427734375" height="71" transform="matrix(1 0 0 1 -54 -38)" fill-opacity="0.2"/></g><g><rect fill="#ffffff" stroke="none" x="408" y="208" width="201.13427734375" height="71" transform="matrix(1 0 0 1 -54 -38)"/></g><g><path fill="none" stroke="#000000" paint-order="fill stroke markers" d=" M 354 170 L 555.13427734375 170 L 555.13427734375 241 L 354 241 L 354 170 Z Z" stroke-miterlimit="10" stroke-dasharray=""/></g><g><path fill="none" stroke="#000000" paint-order="fill stroke markers" d=" M 354 195 L 556.13427734375 195" stroke-miterlimit="10" stroke-dasharray=""/></g><g><path fill="none" stroke="#000000" paint-order="fill stroke markers" d=" M 354 218 L 556.13427734375 218" stroke-miterlimit="10" stroke-dasharray=""/></g><g><g><path fill="none" stroke="none"/><text fill="#000000" stroke="none" font-family="Arial" font-size="13px" font-style="normal" font-weight="bold" text-decoration="undefined" x="509.067138671875" y="221.5" text-anchor="middle" dominant-baseline="central" transform="matrix(1 0 0 1 -54 -38)">BinMapper</text></g></g><g><g><path fill="none" stroke="none"/><text fill="#000000" stroke="none" font-family="Arial" font-size="13px" font-style="normal" font-weight="normal" text-decoration="undefined" x="413" y="244.5" text-anchor="start" dominant-baseline="central" transform="matrix(1 0 0 1 -54 -38)">-productMapper: ProductMapper</text></g></g><g><g><path fill="none" stroke="none"/><text fill="#000000" stroke="none" font-family="Arial" font-size="13px" font-style="normal" font-weight="normal" text-decoration="undefined" x="413" y="267.5" text-anchor="start" dominant-baseline="central" transform="matrix(1 0 0 1 -54 -38)">+toDomain(json: any): Bin</text></g></g><g><rect fill="#C0C0C0" stroke="none" x="159" y="215" width="170.7734375" height="71" transform="matrix(1 0 0 1 -54 -38)" fill-opacity="0.2"/></g><g><rect fill="#ffffff" stroke="none" x="152" y="208" width="170.7734375" height="71" transform="matrix(1 0 0 1 -54 -38)"/></g><g><path fill="none" stroke="#000000" paint-order="fill stroke markers" d=" M 98 170 L 268.7734375 170 L 268.7734375 241 L 98 241 L 98 170 Z Z" stroke-miterlimit="10" stroke-dasharray=""/></g><g><path fill="none" stroke="#000000" paint-order="fill stroke markers" d=" M 98 195 L 269.7734375 195" stroke-miterlimit="10" stroke-dasharray=""/></g><g><path fill="none" stroke="#000000" paint-order="fill stroke markers" d=" M 98 218 L 269.7734375 218" stroke-miterlimit="10" stroke-dasharray=""/></g><g><g><path fill="none" stroke="none"/><text fill="#000000" stroke="none" font-family="Arial" font-size="13px" font-style="normal" font-weight="bold" text-decoration="undefined" x="237.88671875" y="221.5" text-anchor="middle" dominant-baseline="central" transform="matrix(1 0 0 1 -54 -38)">ZoneMapper</text></g></g><g><g><path fill="none" stroke="none"/><text fill="#000000" stroke="none" font-family="Arial" font-size="13px" font-style="normal" font-weight="normal" text-decoration="undefined" x="157" y="244.5" text-anchor="start" dominant-baseline="central" transform="matrix(1 0 0 1 -54 -38)">-binMapper: BinMapper</text></g></g><g><g><path fill="none" stroke="none"/><text fill="#000000" stroke="none" font-family="Arial" font-size="13px" font-style="normal" font-weight="normal" text-decoration="undefined" x="157" y="267.5" text-anchor="start" dominant-baseline="central" transform="matrix(1 0 0 1 -54 -38)">+toDomain(json: any): Zone</text></g></g><g><rect fill="#C0C0C0" stroke="none" x="711" y="535" width="234.3515625" height="86" transform="matrix(1 0 0 1 -54 -38)" fill-opacity="0.2"/></g><g><rect fill="#ffffff" stroke="none" x="704" y="528" width="234.3515625" height="86" transform="matrix(1 0 0 1 -54 -38)"/></g><g><path fill="none" stroke="#000000" paint-order="fill stroke markers" d=" M 650 490 L 884.3515625 490 L 884.3515625 576 L 650 576 L 650 490 Z Z" stroke-miterlimit="10" stroke-dasharray=""/></g><g><path fill="none" stroke="#000000" paint-order="fill stroke markers" d=" M 650 515 L 885.3515625 515" stroke-miterlimit="10" stroke-dasharray=""/></g><g><path fill="none" stroke="#000000" paint-order="fill stroke markers" d=" M 650 538 L 885.3515625 538" stroke-miterlimit="10" stroke-dasharray=""/></g><g><g><path fill="none" stroke="none"/><text fill="#000000" stroke="none" font-family="Arial" font-size="13px" font-style="normal" font-weight="bold" text-decoration="undefined" x="821.67578125" y="541.5" text-anchor="middle" dominant-baseline="central" transform="matrix(1 0 0 1 -54 -38)">ProductRepository</text></g></g><g><g><path fill="none" stroke="none"/><text fill="#000000" stroke="none" font-family="Arial" font-size="13px" font-style="normal" font-weight="normal" text-decoration="undefined" x="709" y="564.5" text-anchor="start" dominant-baseline="central" transform="matrix(1 0 0 1 -54 -38)">-productMapper: ProductMapper</text></g></g><g><g><path fill="none" stroke="none"/><text fill="#000000" stroke="none" font-family="Arial" font-size="13px" font-style="normal" font-weight="normal" text-decoration="undefined" x="709" y="587.5" text-anchor="start" dominant-baseline="central" transform="matrix(1 0 0 1 -54 -38)">+getAll(): Promise&lt;Product[*]&gt;</text></g></g><g><g><path fill="none" stroke="none"/><text fill="#000000" stroke="none" font-family="Arial" font-size="13px" font-style="normal" font-weight="normal" text-decoration="undefined" x="709" y="602.5" text-anchor="start" dominant-baseline="central" transform="matrix(1 0 0 1 -54 -38)">+getById(id: string): Promise&lt;Product&gt;</text></g></g><g><rect fill="#C0C0C0" stroke="none" x="135" y="527" width="219.1806640625" height="86" transform="matrix(1 0 0 1 -54 -38)" fill-opacity="0.2"/></g><g><rect fill="#ffffff" stroke="none" x="128" y="520" width="219.1806640625" height="86" transform="matrix(1 0 0 1 -54 -38)"/></g><g><path fill="none" stroke="#000000" paint-order="fill stroke markers" d=" M 74 482 L 293.1806640625 482 L 293.1806640625 568 L 74 568 L 74 482 Z Z" stroke-miterlimit="10" stroke-dasharray=""/></g><g><path fill="none" stroke="#000000" paint-order="fill stroke markers" d=" M 74 507 L 294.1806640625 507" stroke-miterlimit="10" stroke-dasharray=""/></g><g><path fill="none" stroke="#000000" paint-order="fill stroke markers" d=" M 74 530 L 294.1806640625 530" stroke-miterlimit="10" stroke-dasharray=""/></g><g><g><path fill="none" stroke="none"/><text fill="#000000" stroke="none" font-family="Arial" font-size="13px" font-style="normal" font-weight="bold" text-decoration="undefined" x="238.09033203125" y="533.5" text-anchor="middle" dominant-baseline="central" transform="matrix(1 0 0 1 -54 -38)">ZoneRepository</text></g></g><g><g><path fill="none" stroke="none"/><text fill="#000000" stroke="none" font-family="Arial" font-size="13px" font-style="normal" font-weight="normal" text-decoration="undefined" x="133" y="556.5" text-anchor="start" dominant-baseline="central" transform="matrix(1 0 0 1 -54 -38)">-zoneMapper: ZoneMapper</text></g></g><g><g><path fill="none" stroke="none"/><text fill="#000000" stroke="none" font-family="Arial" font-size="13px" font-style="normal" font-weight="normal" text-decoration="undefined" x="133" y="579.5" text-anchor="start" dominant-baseline="central" transform="matrix(1 0 0 1 -54 -38)">+getAll(): Promise&lt;Zone[*]&gt;</text></g></g><g><g><path fill="none" stroke="none"/><text fill="#000000" stroke="none" font-family="Arial" font-size="13px" font-style="normal" font-weight="normal" text-decoration="undefined" x="133" y="594.5" text-anchor="start" dominant-baseline="central" transform="matrix(1 0 0 1 -54 -38)">+getById(id: string): Promise&lt;Zone&gt;</text></g></g><g><path fill="#C0C0C0" stroke="none" paint-order="stroke fill markers" d=" M 446.05126953125 29 C 446.05126953125 22.3725824 451.42385193125 17 458.05126953125 17 C 464.67868713124994 17 470.05126953125 22.3725824 470.05126953125 29 C 470.05126953125 35.6274176 464.67868713124994 41 458.05126953125 41 C 451.42385193125 41 446.05126953125 35.6274176 446.05126953125 29 Z" fill-opacity="0.2"/></g><g><path fill="#ffffff" stroke="none" paint-order="stroke fill markers" d=" M 439.05126953125 22 C 439.05126953125 15.372582399999999 444.42385193125 10 451.05126953125 10 C 457.67868713125 10 463.05126953125 15.372582399999999 463.05126953125 22 C 463.05126953125 28.6274176 457.67868713125 34 451.05126953125 34 C 444.42385193125 34 439.05126953125 28.6274176 439.05126953125 22 Z"/></g><g><path fill="none" stroke="#000000" paint-order="fill stroke markers" d=" M 439.05126953125 22 C 439.05126953125 15.372582399999999 444.42385193125 10 451.05126953125 10 C 457.67868713125 10 463.05126953125 15.372582399999999 463.05126953125 22 C 463.05126953125 28.6274176 457.67868713125 34 451.05126953125 34 C 444.42385193125 34 439.05126953125 28.6274176 439.05126953125 22 Z" stroke-miterlimit="10" stroke-dasharray=""/></g><g><path fill="none" stroke="#000000" paint-order="fill stroke markers" d=" M 370 59 L 533.1025390625 59" stroke-miterlimit="10" stroke-dasharray=""/></g><g><g><path fill="none" stroke="none"/><text fill="#000000" stroke="none" font-family="Arial" font-size="13px" font-style="normal" font-weight="bold" text-decoration="undefined" x="505.55126953125" y="85.5" text-anchor="middle" dominant-baseline="central" transform="matrix(1 0 0 1 -54 -38)">DataMapperInterface</text></g></g><g><g><path fill="none" stroke="none"/><text fill="#000000" stroke="none" font-family="Arial" font-size="13px" font-style="normal" font-weight="normal" text-decoration="undefined" x="429" y="108.5" text-anchor="start" dominant-baseline="central" transform="matrix(1 0 0 1 -54 -38)">+toDomain(json: any): any</text></g></g><g><path fill="none" stroke="#000000" paint-order="fill stroke markers" d=" M 453 169 L 452 83" stroke-miterlimit="10" stroke-dasharray=""/></g><g><path fill="none" stroke="#000000" paint-order="fill stroke markers" d=" M 704 169 L 527 83" stroke-miterlimit="10" stroke-dasharray=""/></g><g><path fill="none" stroke="#000000" paint-order="fill stroke markers" d=" M 244 169 L 389 83" stroke-miterlimit="10" stroke-dasharray=""/></g><g><path fill="#C0C0C0" stroke="none" paint-order="stroke fill markers" d=" M 446.2548828125 685 C 446.2548828125 678.3725824 451.6274652125 673 458.2548828125 673 C 464.88230041249994 673 470.2548828125 678.3725824 470.2548828125 685 C 470.2548828125 691.6274176 464.88230041249994 697 458.2548828125 697 C 451.6274652125 697 446.2548828125 691.6274176 446.2548828125 685 Z" fill-opacity="0.2"/></g><g><path fill="#ffffff" stroke="none" paint-order="stroke fill markers" d=" M 439.2548828125 678 C 439.2548828125 671.3725824 444.6274652125 666 451.2548828125 666 C 457.8823004125 666 463.2548828125 671.3725824 463.2548828125 678 C 463.2548828125 684.6274176 457.8823004125 690 451.2548828125 690 C 444.6274652125 690 439.2548828125 684.6274176 439.2548828125 678 Z"/></g><g><path fill="none" stroke="#000000" paint-order="fill stroke markers" d=" M 439.2548828125 678 C 439.2548828125 671.3725824 444.6274652125 666 451.2548828125 666 C 457.8823004125 666 463.2548828125 671.3725824 463.2548828125 678 C 463.2548828125 684.6274176 457.8823004125 690 451.2548828125 690 C 444.6274652125 690 439.2548828125 684.6274176 439.2548828125 678 Z" stroke-miterlimit="10" stroke-dasharray=""/></g><g><path fill="none" stroke="#000000" paint-order="fill stroke markers" d=" M 346 715 L 557.509765625 715" stroke-miterlimit="10" stroke-dasharray=""/></g><g><g><path fill="none" stroke="none"/><text fill="#000000" stroke="none" font-family="Arial" font-size="13px" font-style="normal" font-weight="bold" text-decoration="undefined" x="505.7548828125" y="741.5" text-anchor="middle" dominant-baseline="central" transform="matrix(1 0 0 1 -54 -38)">DataRepositoryInterface</text></g></g><g><g><path fill="none" stroke="none"/><text fill="#000000" stroke="none" font-family="Arial" font-size="13px" font-style="normal" font-weight="normal" text-decoration="undefined" x="405" y="764.5" text-anchor="start" dominant-baseline="central" transform="matrix(1 0 0 1 -54 -38)">+getAll(): Promise&lt;any[*]&gt;</text></g></g><g><g><path fill="none" stroke="none"/><text fill="#000000" stroke="none" font-family="Arial" font-size="13px" font-style="normal" font-weight="normal" text-decoration="undefined" x="405" y="779.5" text-anchor="start" dominant-baseline="central" transform="matrix(1 0 0 1 -54 -38)">+getById(id: string): Promise&lt;any&gt;</text></g></g><g><path fill="none" stroke="#000000" paint-order="fill stroke markers" d=" M 688 577 L 530 665" stroke-miterlimit="10" stroke-dasharray=""/></g><g><path fill="none" stroke="#000000" paint-order="fill stroke markers" d=" M 247 569 L 387 665" stroke-miterlimit="10" stroke-dasharray=""/></g><g><path fill="none" stroke="#000000" paint-order="fill stroke markers" d=" M 767 489 L 766 229" stroke-miterlimit="10" stroke-dasharray=""/></g><g><path fill="#000000" stroke="none" paint-order="stroke fill markers" d=" M 770.2485735427625 239.14640935758746 L 766 229 L 761.8296003010124 239.17879002390185 L 766.0846147587689 250.99983727991184"/></g><g><path fill="none" stroke="#000000" paint-order="fill stroke markers" d=" M 770.2485735427625 239.14640935758746 L 766 229 L 761.8296003010124 239.17879002390185 L 766.0846147587689 250.99983727991184 L 770.2485735427625 239.14640935758746" stroke-miterlimit="10" stroke-dasharray=""/></g><g><path fill="none" stroke="#000000" paint-order="fill stroke markers" d=" M 183 481 L 183 242" stroke-miterlimit="10" stroke-dasharray=""/></g><g><path fill="#000000" stroke="none" paint-order="stroke fill markers" d=" M 187.209517756016 252.16267485762415 L 183 242 L 178.790482243984 252.16267485762415 L 183 264"/></g><g><path fill="none" stroke="#000000" paint-order="fill stroke markers" d=" M 187.209517756016 252.16267485762415 L 183 242 L 178.790482243984 252.16267485762415 L 183 264 L 187.209517756016 252.16267485762415" stroke-miterlimit="10" stroke-dasharray=""/></g><g><path fill="none" stroke="#000000" paint-order="fill stroke markers" d=" M 270 205 L 353 205" stroke-miterlimit="10" stroke-dasharray=""/></g><g><path fill="#FFFFFF" stroke="none" paint-order="stroke fill markers" d=" M 342.83732514237585 209.209517756016 L 353 205 L 342.83732514237585 200.790482243984 L 331 205"/></g><g><path fill="none" stroke="#000000" paint-order="fill stroke markers" d=" M 342.83732514237585 209.209517756016 L 353 205 L 342.83732514237585 200.790482243984 L 331 205 L 342.83732514237585 209.209517756016" stroke-miterlimit="10" stroke-dasharray=""/></g><g><path fill="none" stroke="#000000" paint-order="fill stroke markers" d=" M 556 203 L 673 201" stroke-miterlimit="10" stroke-dasharray=""/></g><g><path fill="#FFFFFF" stroke="none" paint-order="stroke fill markers" d=" M 662.9107566689826 205.3825984310133 L 673 201 L 662.7668625538093 196.96479269338343 L 651.0032135553779 201.3760134434978"/></g><g><path fill="none" stroke="#000000" paint-order="fill stroke markers" d=" M 662.9107566689826 205.3825984310133 L 673 201 L 662.7668625538093 196.96479269338343 L 651.0032135553779 201.3760134434978 L 662.9107566689826 205.3825984310133" stroke-miterlimit="10" stroke-dasharray=""/></g><g><rect fill="#C0C0C0" stroke="none" x="95" y="367" width="51.919921875" height="45" transform="matrix(1 0 0 1 -54 -38)" fill-opacity="0.2"/></g><g><rect fill="#ffffff" stroke="none" x="88" y="360" width="51.919921875" height="45" transform="matrix(1 0 0 1 -54 -38)"/></g><g><path fill="none" stroke="#000000" paint-order="fill stroke markers" d=" M 34 322 L 85.919921875 322 L 85.919921875 367 L 34 367 L 34 322 Z Z" stroke-miterlimit="10" stroke-dasharray=""/></g><g><path fill="none" stroke="#000000" paint-order="fill stroke markers" d=" M 34 347 L 86.919921875 347" stroke-miterlimit="10" stroke-dasharray=""/></g><g><path fill="none" stroke="#000000" paint-order="fill stroke markers" d=" M 34 357 L 86.919921875 357" stroke-miterlimit="10" stroke-dasharray=""/></g><g><g><path fill="none" stroke="none"/><text fill="#000000" stroke="none" font-family="Arial" font-size="13px" font-style="normal" font-weight="bold" text-decoration="undefined" x="114.4599609375" y="373.5" text-anchor="middle" dominant-baseline="central" transform="matrix(1 0 0 1 -54 -38)">Zone</text></g></g><g><rect fill="#C0C0C0" stroke="none" x="391" y="367" width="51.919921875" height="45" transform="matrix(1 0 0 1 -54 -38)" fill-opacity="0.2"/></g><g><rect fill="#ffffff" stroke="none" x="384" y="360" width="51.919921875" height="45" transform="matrix(1 0 0 1 -54 -38)"/></g><g><path fill="none" stroke="#000000" paint-order="fill stroke markers" d=" M 330 322 L 381.919921875 322 L 381.919921875 367 L 330 367 L 330 322 Z Z" stroke-miterlimit="10" stroke-dasharray=""/></g><g><path fill="none" stroke="#000000" paint-order="fill stroke markers" d=" M 330 347 L 382.919921875 347" stroke-miterlimit="10" stroke-dasharray=""/></g><g><path fill="none" stroke="#000000" paint-order="fill stroke markers" d=" M 330 357 L 382.919921875 357" stroke-miterlimit="10" stroke-dasharray=""/></g><g><g><path fill="none" stroke="none"/><text fill="#000000" stroke="none" font-family="Arial" font-size="13px" font-style="normal" font-weight="bold" text-decoration="undefined" x="410.4599609375" y="373.5" text-anchor="middle" dominant-baseline="central" transform="matrix(1 0 0 1 -54 -38)">Bin</text></g></g><g><rect fill="#C0C0C0" stroke="none" x="711" y="367" width="59.11181640625" height="45" transform="matrix(1 0 0 1 -54 -38)" fill-opacity="0.2"/></g><g><rect fill="#ffffff" stroke="none" x="704" y="360" width="59.11181640625" height="45" transform="matrix(1 0 0 1 -54 -38)"/></g><g><path fill="none" stroke="#000000" paint-order="fill stroke markers" d=" M 650 322 L 709.11181640625 322 L 709.11181640625 367 L 650 367 L 650 322 Z Z" stroke-miterlimit="10" stroke-dasharray=""/></g><g><path fill="none" stroke="#000000" paint-order="fill stroke markers" d=" M 650 347 L 710.11181640625 347" stroke-miterlimit="10" stroke-dasharray=""/></g><g><path fill="none" stroke="#000000" paint-order="fill stroke markers" d=" M 650 357 L 710.11181640625 357" stroke-miterlimit="10" stroke-dasharray=""/></g><g><g><path fill="none" stroke="none"/><text fill="#000000" stroke="none" font-family="Arial" font-size="13px" font-style="normal" font-weight="bold" text-decoration="undefined" x="734.055908203125" y="373.5" text-anchor="middle" dominant-baseline="central" transform="matrix(1 0 0 1 -54 -38)">Product</text></g></g><g><path fill="none" stroke="#000000" paint-order="fill stroke markers" d=" M 150 242 L 80 321" stroke-miterlimit="10" stroke-dasharray=""/></g><g><path fill="none" stroke="#000000" paint-order="fill stroke markers" d=" M 428 242 L 371 321" stroke-miterlimit="10" stroke-dasharray=""/></g><g><path fill="none" stroke="#000000" paint-order="fill stroke markers" d=" M 748 229 L 693 321" stroke-miterlimit="10" stroke-dasharray=""/></g><g><g><path fill="none" stroke="none"/><text fill="#000000" stroke="none" font-family="Arial" font-size="13px" font-style="normal" font-weight="normal" text-decoration="undefined" x="69" y="317" text-anchor="start" dominant-baseline="text-before-edge" transform="matrix(1 0 0 1 -54 -38)">&lt;&lt;create&gt;&gt;</text></g></g><g><g><path fill="none" stroke="none"/><text fill="#000000" stroke="none" font-family="Arial" font-size="13px" font-style="normal" font-weight="normal" text-decoration="undefined" x="357" y="317" text-anchor="start" dominant-baseline="text-before-edge" transform="matrix(1 0 0 1 -54 -38)">&lt;&lt;create&gt;&gt;</text></g></g><g><g><path fill="none" stroke="none"/><text fill="#000000" stroke="none" font-family="Arial" font-size="13px" font-style="normal" font-weight="normal" text-decoration="undefined" x="685" y="317" text-anchor="start" dominant-baseline="text-before-edge" transform="matrix(1 0 0 1 -54 -38)">&lt;&lt;create&gt;&gt;</text></g></g></g></svg>