<svg version="1.1" xmlns="http://www.w3.org/2000/svg" xmlns:xlink="http://www.w3.org/1999/xlink" width="797" height="516"><defs/><g><g><rect fill="#ffffff" stroke="none" x="200" y="104" width="672" height="496" transform="matrix(1 0 0 1 -86 -94)"/></g><g><path fill="none" stroke="#000000" paint-order="fill stroke markers" d=" M 114 10 L 786 10 L 786 506 L 114 506 L 114 10 Z Z" stroke-miterlimit="10" stroke-dasharray=""/></g><g><g><path fill="none" stroke="none"/><text fill="#000000" stroke="none" font-family="Arial" font-size="13px" font-style="normal" font-weight="bold" text-decoration="undefined" x="536.5" y="117.5" text-anchor="middle" dominant-baseline="central" transform="matrix(1 0 0 1 -86 -94)">WMS3</text></g></g><g><path fill="#FFFFFF" stroke="none" paint-order="stroke fill markers" d=" M 170 259.5 C 170 249.835016 238.05271040000002 242 322 242 C 405.9472896 242 474 249.835016 474 259.5 C 474 269.164984 405.9472896 277 322 277 C 238.05271040000002 277 170 269.164984 170 259.5 Z"/></g><g><path fill="none" stroke="#000000" paint-order="fill stroke markers" d=" M 170 259.5 C 170 249.835016 238.05271040000002 242 322 242 C 405.9472896 242 474 249.835016 474 259.5 C 474 269.164984 405.9472896 277 322 277 C 238.05271040000002 277 170 269.164984 170 259.5 Z" stroke-miterlimit="10" stroke-dasharray=""/></g><g><g><path fill="none" stroke="none"/><text fill="#000000" stroke="none" font-family="Arial" font-size="13px" font-style="normal" font-weight="bold" text-decoration="undefined" x="408" y="354.5" text-anchor="middle" dominant-baseline="central" transform="matrix(1 0 0 1 -86 -94)">UC1 Configurazione ambiente 3D</text></g></g><g><path fill="#FFFFFF" stroke="none" paint-order="stroke fill markers" d=" M 285 138.5 C 285 123.86445280000001 381.0349104 112 499.5 112 C 617.9650896 112 714 123.86445280000001 714 138.5 C 714 153.1355472 617.9650896 165 499.5 165 C 381.0349104 165 285 153.1355472 285 138.5 Z"/></g><g><path fill="none" stroke="#000000" paint-order="fill stroke markers" d=" M 285 138.5 C 285 123.86445280000001 381.0349104 112 499.5 112 C 617.9650896 112 714 123.86445280000001 714 138.5 C 714 153.1355472 617.9650896 165 499.5 165 C 381.0349104 165 285 153.1355472 285 138.5 Z" stroke-miterlimit="10" stroke-dasharray=""/></g><g><g><path fill="none" stroke="none"/><text fill="#000000" stroke="none" font-family="Arial" font-size="13px" font-style="normal" font-weight="bold" text-decoration="undefined" x="585.5" y="227" text-anchor="middle" dominant-baseline="central" transform="matrix(1 0 0 1 -86 -94)">UC1.1 Configurazione ambiente 3D con</text><text fill="#000000" stroke="none" font-family="Arial" font-size="13px" font-style="normal" font-weight="bold" text-decoration="undefined" x="585.5" y="240" text-anchor="middle" dominant-baseline="central" transform="matrix(1 0 0 1 -86 -94)">planimetria rettangolare</text></g></g><g><path fill="#FFFFFF" stroke="none" paint-order="stroke fill markers" d=" M 285 388.5 C 285 373.8644528 381.0349104 362 499.5 362 C 617.9650896 362 714 373.8644528 714 388.5 C 714 403.1355472 617.9650896 415 499.5 415 C 381.0349104 415 285 403.1355472 285 388.5 Z"/></g><g><path fill="none" stroke="#000000" paint-order="fill stroke markers" d=" M 285 388.5 C 285 373.8644528 381.0349104 362 499.5 362 C 617.9650896 362 714 373.8644528 714 388.5 C 714 403.1355472 617.9650896 415 499.5 415 C 381.0349104 415 285 403.1355472 285 388.5 Z" stroke-miterlimit="10" stroke-dasharray=""/></g><g><g><path fill="none" stroke="none"/><text fill="#000000" stroke="none" font-family="Arial" font-size="13px" font-style="normal" font-weight="bold" text-decoration="undefined" x="585.5" y="477" text-anchor="middle" dominant-baseline="central" transform="matrix(1 0 0 1 -86 -94)">UC1.2 Configurazione ambiente 3D con</text><text fill="#000000" stroke="none" font-family="Arial" font-size="13px" font-style="normal" font-weight="bold" text-decoration="undefined" x="585.5" y="490" text-anchor="middle" dominant-baseline="central" transform="matrix(1 0 0 1 -86 -94)">planimetria definita da file SVG</text></g></g><g><path fill="none" stroke="#000000" paint-order="fill stroke markers" d=" M 462 361 L 348 278" stroke-miterlimit="10" stroke-dasharray=""/></g><g><path fill="#FFFFFF" stroke="none" paint-order="stroke fill markers" d=" M 369.3869962315292 283.1571690095006 L 348 278 L 359.4762208861825 296.76955924286847"/></g><g><path fill="none" stroke="#000000" paint-order="fill stroke markers" d=" M 369.3869962315292 283.1571690095006 L 348 278 L 359.4762208861825 296.76955924286847 L 369.3869962315292 283.1571690095006" stroke-miterlimit="10" stroke-dasharray=""/></g><g><path fill="none" stroke="#000000" paint-order="fill stroke markers" d=" M 458 166 L 348 241" stroke-miterlimit="10" stroke-dasharray=""/></g><g><path fill="#FFFFFF" stroke="none" paint-order="stroke fill markers" d=" M 360.05060695497156 222.59394469157525 L 348 241 L 369.536112418756 236.50601937179238"/></g><g><path fill="none" stroke="#000000" paint-order="fill stroke markers" d=" M 360.05060695497156 222.59394469157525 L 348 241 L 369.536112418756 236.50601937179238 L 360.05060695497156 222.59394469157525" stroke-miterlimit="10" stroke-dasharray=""/></g><g><path fill="#ffffff" stroke="none" paint-order="stroke fill markers" d=" M 26.748623046874997 227.85000000000002 C 26.748623046874997 222.96227952000004 30.706425414875 219 35.588623046875 219 C 40.470820678875 219 44.428623046875 222.96227952000004 44.428623046875 227.85000000000002 C 44.428623046875 232.73772048 40.470820678875 236.7 35.588623046875 236.7 C 30.706425414875 236.7 26.748623046874997 232.73772048 26.748623046874997 227.85000000000002 Z"/></g><g><path fill="none" stroke="#000000" paint-order="fill stroke markers" d=" M 26.748623046874997 227.85000000000002 C 26.748623046874997 222.96227952000004 30.706425414875 219 35.588623046875 219 C 40.470820678875 219 44.428623046875 222.96227952000004 44.428623046875 227.85000000000002 C 44.428623046875 232.73772048 40.470820678875 236.7 35.588623046875 236.7 C 30.706425414875 236.7 26.748623046874997 232.73772048 26.748623046874997 227.85000000000002 Z" stroke-miterlimit="10" stroke-dasharray=""/></g><g><path fill="none" stroke="#000000" paint-order="fill stroke markers" d=" M 35.588623046875 236.7 L 35.588623046875 254.3" stroke-miterlimit="10" stroke-dasharray=""/></g><g><path fill="none" stroke="#000000" paint-order="fill stroke markers" d=" M 26.228623046875 243.3 L 44.948623046875014 243.3" stroke-miterlimit="10" stroke-dasharray=""/></g><g><path fill="none" stroke="#000000" paint-order="fill stroke markers" d=" M 35.588623046875 254.3 L 22.588623046875 272" stroke-miterlimit="10" stroke-dasharray=""/></g><g><path fill="none" stroke="#000000" paint-order="fill stroke markers" d=" M 35.588623046875 254.3 L 48.588623046875 272" stroke-miterlimit="10" stroke-dasharray=""/></g><g><g><path fill="none" stroke="none"/><text fill="#000000" stroke="none" font-family="Arial" font-size="13px" font-style="normal" font-weight="bold" text-decoration="undefined" x="122.088623046875" y="380.5" text-anchor="middle" dominant-baseline="central" transform="matrix(1 0 0 1 -86 -94)">Utente</text></g></g><g><path fill="none" stroke="#000000" paint-order="fill stroke markers" d=" M 169 258 L 62 258" stroke-miterlimit="10" stroke-dasharray=""/></g></g></svg>