<svg version="1.1" xmlns="http://www.w3.org/2000/svg" xmlns:xlink="http://www.w3.org/1999/xlink" width="845" height="532"><defs/><g><g><rect fill="#ffffff" stroke="none" x="240" y="104" width="712" height="512" transform="matrix(1 0 0 1 -118 -94)"/></g><g><path fill="none" stroke="#000000" paint-order="fill stroke markers" d=" M 122 10 L 834 10 L 834 522 L 122 522 L 122 10 Z Z" stroke-miterlimit="10" stroke-dasharray=""/></g><g><g><path fill="none" stroke="none"/><text fill="#000000" stroke="none" font-family="currentFont" font-size="13px" font-style="normal" font-weight="bold" text-decoration="undefined" x="596.5" y="117.5" text-anchor="middle" dominant-baseline="central" transform="matrix(1 0 0 1 -118 -94)">UC–1.2</text></g></g><g><path fill="#FFFFFF" stroke="none" paint-order="stroke fill markers" d=" M 346 83.5 C 346 73.835016 440.6917648 66 557.5 66 C 674.3082352 66 769 73.835016 769 83.5 C 769 93.164984 674.3082352 101 557.5 101 C 440.6917648 101 346 93.164984 346 83.5 Z"/></g><g><path fill="none" stroke="#000000" paint-order="fill stroke markers" d=" M 346 83.5 C 346 73.835016 440.6917648 66 557.5 66 C 674.3082352 66 769 73.835016 769 83.5 C 769 93.164984 674.3082352 101 557.5 101 C 440.6917648 101 346 93.164984 346 83.5 Z" stroke-miterlimit="10" stroke-dasharray=""/></g><g><g><path fill="none" stroke="none"/><text fill="#000000" stroke="none" font-family="currentFont" font-size="13px" font-style="normal" font-weight="bold" text-decoration="undefined" x="675.5" y="178.5" text-anchor="middle" dominant-baseline="central" transform="matrix(1 0 0 1 -118 -94)">UC–1.2.1.1 Visualizzazione errore file vuoto</text></g></g><g><path fill="#FFFFFF" stroke="none" paint-order="stroke fill markers" d=" M 346 243.5 C 346 233.835016 440.6917648 226 557.5 226 C 674.3082352 226 769 233.835016 769 243.5 C 769 253.164984 674.3082352 261 557.5 261 C 440.6917648 261 346 253.164984 346 243.5 Z"/></g><g><path fill="none" stroke="#000000" paint-order="fill stroke markers" d=" M 346 243.5 C 346 233.835016 440.6917648 226 557.5 226 C 674.3082352 226 769 233.835016 769 243.5 C 769 253.164984 674.3082352 261 557.5 261 C 440.6917648 261 346 253.164984 346 243.5 Z" stroke-miterlimit="10" stroke-dasharray=""/></g><g><g><path fill="none" stroke="none"/><text fill="#000000" stroke="none" font-family="currentFont" font-size="13px" font-style="normal" font-weight="bold" text-decoration="undefined" x="675.5" y="338.5" text-anchor="middle" dominant-baseline="central" transform="matrix(1 0 0 1 -118 -94)">UC–1.2.1.2 Visualizzazione errore file non valido</text></g></g><g><path fill="#FFFFFF" stroke="none" paint-order="stroke fill markers" d=" M 242 459.5 C 242 449.835016 354.3765152 442 493 442 C 631.6234848 442 744 449.835016 744 459.5 C 744 469.164984 631.6234848 477 493 477 C 354.3765152 477 242 469.164984 242 459.5 Z"/></g><g><path fill="none" stroke="#000000" paint-order="fill stroke markers" d=" M 242 459.5 C 242 449.835016 354.3765152 442 493 442 C 631.6234848 442 744 449.835016 744 459.5 C 744 469.164984 631.6234848 477 493 477 C 354.3765152 477 242 469.164984 242 459.5 Z" stroke-miterlimit="10" stroke-dasharray=""/></g><g><g><path fill="none" stroke="none"/><text fill="#000000" stroke="none" font-family="currentFont" font-size="13px" font-style="normal" font-weight="bold" text-decoration="undefined" x="611" y="554.5" text-anchor="middle" dominant-baseline="central" transform="matrix(1 0 0 1 -118 -94)">UC–1.2.2.1 Visualizzazione errore lato non positivo</text></g></g><g><path fill="#FFFFFF" stroke="none" paint-order="stroke fill markers" d=" M 170 347.5 C 170 337.835016 275.66078719999996 330 406 330 C 536.3392128 330 642 337.835016 642 347.5 C 642 357.164984 536.3392128 365 406 365 C 275.66078719999996 365 170 357.164984 170 347.5 Z"/></g><g><path fill="none" stroke="#000000" paint-order="fill stroke markers" d=" M 170 347.5 C 170 337.835016 275.66078719999996 330 406 330 C 536.3392128 330 642 337.835016 642 347.5 C 642 357.164984 536.3392128 365 406 365 C 275.66078719999996 365 170 357.164984 170 347.5 Z" stroke-miterlimit="10" stroke-dasharray=""/></g><g><g><path fill="none" stroke="none"/><text fill="#000000" stroke="none" font-family="currentFont" font-size="13px" font-style="normal" font-weight="bold" text-decoration="undefined" x="524" y="442.5" text-anchor="middle" dominant-baseline="central" transform="matrix(1 0 0 1 -118 -94)">UC–1.2.2 Definizione del lato maggiore del magazzino</text></g></g><g><path fill="#FFFFFF" stroke="none" paint-order="stroke fill markers" d=" M 178 163.5 C 178 153.835016 239.11312479999998 146 314.5 146 C 389.8868752 146 451 153.835016 451 163.5 C 451 173.164984 389.8868752 181 314.5 181 C 239.11312479999998 181 178 173.164984 178 163.5 Z"/></g><g><path fill="none" stroke="#000000" paint-order="fill stroke markers" d=" M 178 163.5 C 178 153.835016 239.11312479999998 146 314.5 146 C 389.8868752 146 451 153.835016 451 163.5 C 451 173.164984 389.8868752 181 314.5 181 C 239.11312479999998 181 178 173.164984 178 163.5 Z" stroke-miterlimit="10" stroke-dasharray=""/></g><g><g><path fill="none" stroke="none"/><text fill="#000000" stroke="none" font-family="currentFont" font-size="13px" font-style="normal" font-weight="bold" text-decoration="undefined" x="432.5" y="258.5" text-anchor="middle" dominant-baseline="central" transform="matrix(1 0 0 1 -118 -94)">UC–1.2.1 Caricamento file SVG</text></g></g><g><path fill="none" stroke="#000000" paint-order="fill stroke markers" d=" M 499 102 L 369 145" stroke-miterlimit="10" stroke-dasharray="3"/></g><g><path fill="none" stroke="#000000" paint-order="fill stroke markers" d=" M 377.32661614730284 137.81199168507192 L 369 145 L 379.9704961648062 145.80511731938432" stroke-miterlimit="10" stroke-dasharray=""/></g><g><rect fill="#ffffff" stroke="none" x="497" y="198" width="53.49169921875" height="13" transform="matrix(1 0 0 1 -118 -94)"/></g><g><g><path fill="none" stroke="none"/><text fill="#000000" stroke="none" font-family="currentFont" font-size="13px" font-style="normal" font-weight="normal" text-decoration="undefined" x="523.745849609375" y="204.5" text-anchor="middle" dominant-baseline="central" transform="matrix(1 0 0 1 -118 -94)">«extend»</text></g></g><g><path fill="none" stroke="#000000" paint-order="fill stroke markers" d=" M 502 225 L 372 182" stroke-miterlimit="10" stroke-dasharray="3"/></g><g><path fill="none" stroke="#000000" paint-order="fill stroke markers" d=" M 382.9704961648062 181.1948826806157 L 372 182 L 380.32661614730284 189.18800831492808" stroke-miterlimit="10" stroke-dasharray=""/></g><g><rect fill="#ffffff" stroke="none" x="493" y="299" width="53.49169921875" height="13" transform="matrix(1 0 0 1 -118 -94)"/></g><g><g><path fill="none" stroke="none"/><text fill="#000000" stroke="none" font-family="currentFont" font-size="13px" font-style="normal" font-weight="normal" text-decoration="undefined" x="519.745849609375" y="305.5" text-anchor="middle" dominant-baseline="central" transform="matrix(1 0 0 1 -118 -94)">«extend»</text></g></g><g><path fill="none" stroke="#000000" paint-order="fill stroke markers" d=" M 479 441 L 421 366" stroke-miterlimit="10" stroke-dasharray="3"/></g><g><path fill="none" stroke="#000000" paint-order="fill stroke markers" d=" M 430.54694395345086 371.46405171550083 L 421 366 L 423.88704078830847 376.61437682987764" stroke-miterlimit="10" stroke-dasharray=""/></g><g><rect fill="#ffffff" stroke="none" x="518" y="509" width="53.49169921875" height="13" transform="matrix(1 0 0 1 -118 -94)"/></g><g><g><path fill="none" stroke="none"/><text fill="#000000" stroke="none" font-family="currentFont" font-size="13px" font-style="normal" font-weight="normal" text-decoration="undefined" x="544.745849609375" y="515.5" text-anchor="middle" dominant-baseline="central" transform="matrix(1 0 0 1 -118 -94)">«extend»</text></g></g><g><path fill="#ffffff" stroke="none" paint-order="stroke fill markers" d=" M 26.748623046874997 219.85000000000002 C 26.748623046874997 214.96227952000004 30.706425414874985 211 35.588623046875 211 C 40.470820678875015 211 44.428623046875 214.96227952000004 44.428623046875 219.85000000000002 C 44.428623046875 224.73772048 40.470820678875015 228.7 35.588623046875 228.7 C 30.706425414874985 228.7 26.748623046874997 224.73772048 26.748623046874997 219.85000000000002 Z"/></g><g><path fill="none" stroke="#000000" paint-order="fill stroke markers" d=" M 26.748623046874997 219.85000000000002 C 26.748623046874997 214.96227952000004 30.706425414874985 211 35.588623046875 211 C 40.470820678875015 211 44.428623046875 214.96227952000004 44.428623046875 219.85000000000002 C 44.428623046875 224.73772048 40.470820678875015 228.7 35.588623046875 228.7 C 30.706425414874985 228.7 26.748623046874997 224.73772048 26.748623046874997 219.85000000000002 Z" stroke-miterlimit="10" stroke-dasharray=""/></g><g><path fill="none" stroke="#000000" paint-order="fill stroke markers" d=" M 35.588623046875 228.7 L 35.588623046875 246.3" stroke-miterlimit="10" stroke-dasharray=""/></g><g><path fill="none" stroke="#000000" paint-order="fill stroke markers" d=" M 26.228623046874986 235.3 L 44.948623046875014 235.3" stroke-miterlimit="10" stroke-dasharray=""/></g><g><path fill="none" stroke="#000000" paint-order="fill stroke markers" d=" M 35.588623046875 246.3 L 22.588623046875 264" stroke-miterlimit="10" stroke-dasharray=""/></g><g><path fill="none" stroke="#000000" paint-order="fill stroke markers" d=" M 35.588623046875 246.3 L 48.588623046875 264" stroke-miterlimit="10" stroke-dasharray=""/></g><g><g><path fill="none" stroke="none"/><text fill="#000000" stroke="none" font-family="currentFont" font-size="13px" font-style="normal" font-weight="bold" text-decoration="undefined" x="154.088623046875" y="372.5" text-anchor="middle" dominant-baseline="central" transform="matrix(1 0 0 1 -118 -94)">Utente</text></g></g><g><path fill="none" stroke="#000000" paint-order="fill stroke markers" d=" M 62 242 L 253 182" stroke-miterlimit="10" stroke-dasharray=""/></g><g><path fill="none" stroke="#000000" paint-order="fill stroke markers" d=" M 62 257 L 337 329" stroke-miterlimit="10" stroke-dasharray=""/></g></g></svg>