<svg version="1.1" xmlns="http://www.w3.org/2000/svg" xmlns:xlink="http://www.w3.org/1999/xlink" width="813" height="468"><defs/><g><g><rect fill="#ffffff" stroke="none" x="224" y="72" width="672" height="448" transform="matrix(1 0 0 1 -94 -62)"/></g><g><path fill="none" stroke="#000000" paint-order="fill stroke markers" d=" M 130 10 L 802 10 L 802 458 L 130 458 L 130 10 Z Z" stroke-miterlimit="10" stroke-dasharray=""/></g><g><g><path fill="none" stroke="none"/><text fill="#000000" stroke="none" font-family="currentFont" font-size="13px" font-style="normal" font-weight="bold" text-decoration="undefined" x="560.5" y="85.5" text-anchor="middle" dominant-baseline="central" transform="matrix(1 0 0 1 -94 -62)">UC–1.1</text></g></g><g><path fill="#FFFFFF" stroke="none" paint-order="stroke fill markers" d=" M 178 91.5 C 178 81.835016 278.9597776 74 403.5 74 C 528.0402224 74 629 81.835016 629 91.5 C 629 101.164984 528.0402224 109 403.5 109 C 278.9597776 109 178 101.164984 178 91.5 Z"/></g><g><path fill="none" stroke="#000000" paint-order="fill stroke markers" d=" M 178 91.5 C 178 81.835016 278.9597776 74 403.5 74 C 528.0402224 74 629 81.835016 629 91.5 C 629 101.164984 528.0402224 109 403.5 109 C 278.9597776 109 178 101.164984 178 91.5 Z" stroke-miterlimit="10" stroke-dasharray=""/></g><g><g><path fill="none" stroke="none"/><text fill="#000000" stroke="none" font-family="currentFont" font-size="13px" font-style="normal" font-weight="bold" text-decoration="undefined" x="497.5" y="154.5" text-anchor="middle" dominant-baseline="central" transform="matrix(1 0 0 1 -94 -62)">UC–1.1.1 Definizione della larghezza ambiente 3D</text></g></g><g><path fill="#FFFFFF" stroke="none" paint-order="stroke fill markers" d=" M 178 299.5 C 178 289.835016 280.0790656 282 406 282 C 531.9209344 282 634 289.835016 634 299.5 C 634 309.164984 531.9209344 317 406 317 C 280.0790656 317 178 309.164984 178 299.5 Z"/></g><g><path fill="none" stroke="#000000" paint-order="fill stroke markers" d=" M 178 299.5 C 178 289.835016 280.0790656 282 406 282 C 531.9209344 282 634 289.835016 634 299.5 C 634 309.164984 531.9209344 317 406 317 C 280.0790656 317 178 309.164984 178 299.5 Z" stroke-miterlimit="10" stroke-dasharray=""/></g><g><g><path fill="none" stroke="none"/><text fill="#000000" stroke="none" font-family="currentFont" font-size="13px" font-style="normal" font-weight="bold" text-decoration="undefined" x="500" y="362.5" text-anchor="middle" dominant-baseline="central" transform="matrix(1 0 0 1 -94 -62)">UC–1.1.2 Definizione della lunghezza ambiente 3D</text></g></g><g><path fill="#FFFFFF" stroke="none" paint-order="stroke fill markers" d=" M 242 179.5 C 242 169.835016 353.2572272 162 490.5 162 C 627.7427728 162 739 169.835016 739 179.5 C 739 189.164984 627.7427728 197 490.5 197 C 353.2572272 197 242 189.164984 242 179.5 Z"/></g><g><path fill="none" stroke="#000000" paint-order="fill stroke markers" d=" M 242 179.5 C 242 169.835016 353.2572272 162 490.5 162 C 627.7427728 162 739 169.835016 739 179.5 C 739 189.164984 627.7427728 197 490.5 197 C 353.2572272 197 242 189.164984 242 179.5 Z" stroke-miterlimit="10" stroke-dasharray=""/></g><g><g><path fill="none" stroke="none"/><text fill="#000000" stroke="none" font-family="currentFont" font-size="13px" font-style="normal" font-weight="bold" text-decoration="undefined" x="584.5" y="242.5" text-anchor="middle" dominant-baseline="central" transform="matrix(1 0 0 1 -94 -62)">UC–1.1.1.1 Visualizzazione errore larghezza non positiva</text></g></g><g><path fill="#FFFFFF" stroke="none" paint-order="stroke fill markers" d=" M 242 387.5 C 242 377.835016 354.3765152 370 493 370 C 631.6234848 370 744 377.835016 744 387.5 C 744 397.164984 631.6234848 405 493 405 C 354.3765152 405 242 397.164984 242 387.5 Z"/></g><g><path fill="none" stroke="#000000" paint-order="fill stroke markers" d=" M 242 387.5 C 242 377.835016 354.3765152 370 493 370 C 631.6234848 370 744 377.835016 744 387.5 C 744 397.164984 631.6234848 405 493 405 C 354.3765152 405 242 397.164984 242 387.5 Z" stroke-miterlimit="10" stroke-dasharray=""/></g><g><g><path fill="none" stroke="none"/><text fill="#000000" stroke="none" font-family="currentFont" font-size="13px" font-style="normal" font-weight="bold" text-decoration="undefined" x="587" y="450.5" text-anchor="middle" dominant-baseline="central" transform="matrix(1 0 0 1 -94 -62)">UC–1.1.2.1 Visualizzazione errore lunghezza non positiva</text></g></g><g><path fill="none" stroke="#000000" paint-order="fill stroke markers" d=" M 472 161 L 422 110" stroke-miterlimit="10" stroke-dasharray="3"/></g><g><path fill="none" stroke="#000000" paint-order="fill stroke markers" d=" M 432.1205004218276 114.3099270541145 L 422 110 L 426.10869583089186 120.20385312365931" stroke-miterlimit="10" stroke-dasharray=""/></g><g><rect fill="#ffffff" stroke="none" x="560" y="191" width="53.49169921875" height="13" transform="matrix(1 0 0 1 -94 -62)"/></g><g><g><path fill="none" stroke="none"/><text fill="#000000" stroke="none" font-family="currentFont" font-size="13px" font-style="normal" font-weight="normal" text-decoration="undefined" x="586.745849609375" y="197.5" text-anchor="middle" dominant-baseline="central" transform="matrix(1 0 0 1 -94 -62)">«extend»</text></g></g><g><path fill="none" stroke="#000000" paint-order="fill stroke markers" d=" M 475 369 L 425 318" stroke-miterlimit="10" stroke-dasharray="3"/></g><g><path fill="none" stroke="#000000" paint-order="fill stroke markers" d=" M 435.1205004218276 322.3099270541145 L 425 318 L 429.10869583089186 328.2038531236593" stroke-miterlimit="10" stroke-dasharray=""/></g><g><rect fill="#ffffff" stroke="none" x="558" y="389" width="53.49169921875" height="13" transform="matrix(1 0 0 1 -94 -62)"/></g><g><g><path fill="none" stroke="none"/><text fill="#000000" stroke="none" font-family="currentFont" font-size="13px" font-style="normal" font-weight="normal" text-decoration="undefined" x="584.745849609375" y="395.5" text-anchor="middle" dominant-baseline="central" transform="matrix(1 0 0 1 -94 -62)">«extend»</text></g></g><g><path fill="#ffffff" stroke="none" paint-order="stroke fill markers" d=" M 26.748623046874997 155.85 C 26.748623046874997 150.96227952 30.706425414875 147 35.588623046875 147 C 40.470820678875015 147 44.428623046875 150.96227952 44.428623046875 155.85 C 44.428623046875 160.73772047999998 40.470820678875015 164.7 35.588623046875 164.7 C 30.706425414875 164.7 26.748623046874997 160.73772047999998 26.748623046874997 155.85 Z"/></g><g><path fill="none" stroke="#000000" paint-order="fill stroke markers" d=" M 26.748623046874997 155.85 C 26.748623046874997 150.96227952 30.706425414875 147 35.588623046875 147 C 40.470820678875015 147 44.428623046875 150.96227952 44.428623046875 155.85 C 44.428623046875 160.73772047999998 40.470820678875015 164.7 35.588623046875 164.7 C 30.706425414875 164.7 26.748623046874997 160.73772047999998 26.748623046874997 155.85 Z" stroke-miterlimit="10" stroke-dasharray=""/></g><g><path fill="none" stroke="#000000" paint-order="fill stroke markers" d=" M 35.588623046875 164.7 L 35.588623046875 182.3" stroke-miterlimit="10" stroke-dasharray=""/></g><g><path fill="none" stroke="#000000" paint-order="fill stroke markers" d=" M 26.228623046875 171.3 L 44.948623046875014 171.3" stroke-miterlimit="10" stroke-dasharray=""/></g><g><path fill="none" stroke="#000000" paint-order="fill stroke markers" d=" M 35.588623046875 182.3 L 22.588623046875 200" stroke-miterlimit="10" stroke-dasharray=""/></g><g><path fill="none" stroke="#000000" paint-order="fill stroke markers" d=" M 35.588623046875 182.3 L 48.588623046875 200" stroke-miterlimit="10" stroke-dasharray=""/></g><g><g><path fill="none" stroke="none"/><text fill="#000000" stroke="none" font-family="currentFont" font-size="13px" font-style="normal" font-weight="bold" text-decoration="undefined" x="130.088623046875" y="276.5" text-anchor="middle" dominant-baseline="central" transform="matrix(1 0 0 1 -94 -62)">Utente</text></g></g><g><path fill="none" stroke="#000000" paint-order="fill stroke markers" d=" M 62 179 L 329 110" stroke-miterlimit="10" stroke-dasharray=""/></g><g><path fill="none" stroke="#000000" paint-order="fill stroke markers" d=" M 62 194 L 347 281" stroke-miterlimit="10" stroke-dasharray=""/></g></g></svg>