<svg version="1.1" xmlns="http://www.w3.org/2000/svg" xmlns:xlink="http://www.w3.org/1999/xlink" width="509" height="148"><defs/><g><g><rect fill="#ffffff" stroke="none" x="137" y="46" width="400" height="128" transform="matrix(1 0 0 1 -39 -36)"/></g><g><path fill="none" stroke="#000000" paint-order="fill stroke markers" d=" M 98 10 L 498 10 L 498 138 L 98 138 L 98 10 Z Z" stroke-miterlimit="10" stroke-dasharray=""/></g><g><g><path fill="none" stroke="none"/><text fill="#000000" stroke="none" font-family="currentFont" font-size="13px" font-style="normal" font-weight="bold" text-decoration="undefined" x="337.5" y="59.5" text-anchor="middle" dominant-baseline="central" transform="matrix(1 0 0 1 -39 -36)">WMS3</text></g></g><g><path fill="#ffffff" stroke="none" paint-order="stroke fill markers" d=" M 26.748623046874997 49.849999999999994 C 26.748623046874997 44.962279519999996 30.706425414875 41 35.588623046875 41 C 40.470820678875 41 44.428623046875 44.962279519999996 44.428623046875 49.849999999999994 C 44.428623046875 54.73772047999999 40.470820678875 58.7 35.588623046875 58.7 C 30.706425414875 58.7 26.748623046874997 54.73772047999999 26.748623046874997 49.849999999999994 Z"/></g><g><path fill="none" stroke="#000000" paint-order="fill stroke markers" d=" M 26.748623046874997 49.849999999999994 C 26.748623046874997 44.962279519999996 30.706425414875 41 35.588623046875 41 C 40.470820678875 41 44.428623046875 44.962279519999996 44.428623046875 49.849999999999994 C 44.428623046875 54.73772047999999 40.470820678875 58.7 35.588623046875 58.7 C 30.706425414875 58.7 26.748623046874997 54.73772047999999 26.748623046874997 49.849999999999994 Z" stroke-miterlimit="10" stroke-dasharray=""/></g><g><path fill="none" stroke="#000000" paint-order="fill stroke markers" d=" M 35.588623046875 58.7 L 35.588623046875 76.3" stroke-miterlimit="10" stroke-dasharray=""/></g><g><path fill="none" stroke="#000000" paint-order="fill stroke markers" d=" M 26.228623046875 65.3 L 44.948623046875 65.3" stroke-miterlimit="10" stroke-dasharray=""/></g><g><path fill="none" stroke="#000000" paint-order="fill stroke markers" d=" M 35.588623046875 76.3 L 22.588623046875 94" stroke-miterlimit="10" stroke-dasharray=""/></g><g><path fill="none" stroke="#000000" paint-order="fill stroke markers" d=" M 35.588623046875 76.3 L 48.588623046875 94" stroke-miterlimit="10" stroke-dasharray=""/></g><g><g><path fill="none" stroke="none"/><text fill="#000000" stroke="none" font-family="currentFont" font-size="13px" font-style="normal" font-weight="bold" text-decoration="undefined" x="75.088623046875" y="144.5" text-anchor="middle" dominant-baseline="central" transform="matrix(1 0 0 1 -39 -36)">Utente</text></g></g><g><path fill="none" stroke="#000000" paint-order="fill stroke markers" d=" M 62 80 L 145 80" stroke-miterlimit="10" stroke-dasharray=""/></g><g><path fill="#ffffff" stroke="none" paint-order="stroke fill markers" d=" M 146 79.5 C 146 69.835016 214.5004256 62 299 62 C 383.49957440000003 62 452 69.835016 452 79.5 C 452 89.164984 383.49957440000003 97 299 97 C 214.5004256 97 146 89.164984 146 79.5 Z"/></g><g><path fill="none" stroke="#000000" paint-order="fill stroke markers" d=" M 146 79.5 C 146 69.835016 214.5004256 62 299 62 C 383.49957440000003 62 452 69.835016 452 79.5 C 452 89.164984 383.49957440000003 97 299 97 C 214.5004256 97 146 89.164984 146 79.5 Z" stroke-miterlimit="10" stroke-dasharray=""/></g><g><g><path fill="none" stroke="none"/><text fill="#000000" stroke="none" font-family="currentFont" font-size="13px" font-style="normal" font-weight="bold" text-decoration="undefined" x="338" y="116.5" text-anchor="middle" dominant-baseline="central" transform="matrix(1 0 0 1 -39 -36)">UC–10 Zoom-out sull'ambiente 3D</text></g></g></g></svg>