<svg version="1.1" xmlns="http://www.w3.org/2000/svg" xmlns:xlink="http://www.w3.org/1999/xlink" width="869" height="476"><defs/><g><g><rect fill="#ffffff" stroke="none" x="160" y="64" width="744" height="456" transform="matrix(1 0 0 1 -46 -54)"/></g><g><path fill="none" stroke="#000000" paint-order="fill stroke markers" d=" M 114 10 L 858 10 L 858 466 L 114 466 L 114 10 Z Z" stroke-miterlimit="10" stroke-dasharray=""/></g><g><g><path fill="none" stroke="none"/><text fill="#000000" stroke="none" font-family="currentFont" font-size="13px" font-style="normal" font-weight="bold" text-decoration="undefined" x="532.5" y="77.5" text-anchor="middle" dominant-baseline="central" transform="matrix(1 0 0 1 -46 -54)">UC–8</text></g></g><g><path fill="#ffffff" stroke="none" paint-order="stroke fill markers" d=" M 26.748623046874997 211.85000000000002 C 26.748623046874997 206.96227952000004 30.706425414875 203 35.588623046875 203 C 40.470820678875 203 44.428623046875 206.96227952000004 44.428623046875 211.85000000000002 C 44.428623046875 216.73772048 40.470820678875 220.7 35.588623046875 220.7 C 30.706425414875 220.7 26.748623046874997 216.73772048 26.748623046874997 211.85000000000002 Z"/></g><g><path fill="none" stroke="#000000" paint-order="fill stroke markers" d=" M 26.748623046874997 211.85000000000002 C 26.748623046874997 206.96227952000004 30.706425414875 203 35.588623046875 203 C 40.470820678875 203 44.428623046875 206.96227952000004 44.428623046875 211.85000000000002 C 44.428623046875 216.73772048 40.470820678875 220.7 35.588623046875 220.7 C 30.706425414875 220.7 26.748623046874997 216.73772048 26.748623046874997 211.85000000000002 Z" stroke-miterlimit="10" stroke-dasharray=""/></g><g><path fill="none" stroke="#000000" paint-order="fill stroke markers" d=" M 35.588623046875 220.7 L 35.588623046875 238.3" stroke-miterlimit="10" stroke-dasharray=""/></g><g><path fill="none" stroke="#000000" paint-order="fill stroke markers" d=" M 26.228623046875 227.3 L 44.948623046875 227.3" stroke-miterlimit="10" stroke-dasharray=""/></g><g><path fill="none" stroke="#000000" paint-order="fill stroke markers" d=" M 35.588623046875 238.3 L 22.588623046875 256" stroke-miterlimit="10" stroke-dasharray=""/></g><g><path fill="none" stroke="#000000" paint-order="fill stroke markers" d=" M 35.588623046875 238.3 L 48.588623046875 256" stroke-miterlimit="10" stroke-dasharray=""/></g><g><g><path fill="none" stroke="none"/><text fill="#000000" stroke="none" font-family="currentFont" font-size="13px" font-style="normal" font-weight="bold" text-decoration="undefined" x="82.088623046875" y="324.5" text-anchor="middle" dominant-baseline="central" transform="matrix(1 0 0 1 -46 -54)">Utente</text></g></g><g><path fill="#ffffff" stroke="none" paint-order="stroke fill markers" d=" M 506 315.5 C 506 305.835016 572.2618496 298 654 298 C 735.7381504 298 802 305.835016 802 315.5 C 802 325.164984 735.7381504 333 654 333 C 572.2618496 333 506 325.164984 506 315.5 Z"/></g><g><path fill="none" stroke="#000000" paint-order="fill stroke markers" d=" M 506 315.5 C 506 305.835016 572.2618496 298 654 298 C 735.7381504 298 802 305.835016 802 315.5 C 802 325.164984 735.7381504 333 654 333 C 572.2618496 333 506 325.164984 506 315.5 Z" stroke-miterlimit="10" stroke-dasharray=""/></g><g><g><path fill="none" stroke="none"/><text fill="#000000" stroke="none" font-family="currentFont" font-size="13px" font-style="normal" font-weight="bold" text-decoration="undefined" x="700" y="370.5" text-anchor="middle" dominant-baseline="central" transform="matrix(1 0 0 1 -46 -54)">UC–8.4 Reset planimetria</text></g></g><g><path fill="#ffffff" stroke="none" paint-order="stroke fill markers" d=" M 371 91.5 C 371 81.835016 437.2618496 74 519 74 C 600.7381504 74 667 81.835016 667 91.5 C 667 101.164984 600.7381504 109 519 109 C 437.2618496 109 371 101.164984 371 91.5 Z"/></g><g><path fill="none" stroke="#000000" paint-order="fill stroke markers" d=" M 371 91.5 C 371 81.835016 437.2618496 74 519 74 C 600.7381504 74 667 81.835016 667 91.5 C 667 101.164984 600.7381504 109 519 109 C 437.2618496 109 371 101.164984 371 91.5 Z" stroke-miterlimit="10" stroke-dasharray=""/></g><g><g><path fill="none" stroke="none"/><text fill="#000000" stroke="none" font-family="currentFont" font-size="13px" font-style="normal" font-weight="bold" text-decoration="undefined" x="565" y="146.5" text-anchor="middle" dominant-baseline="central" transform="matrix(1 0 0 1 -46 -54)">UC–11.1 Reset movimentazioni</text></g></g><g><path fill="#ffffff" stroke="none" paint-order="stroke fill markers" d=" M 506 171.5 C 506 161.835016 574.276568 154 658.5 154 C 742.723432 154 811 161.835016 811 171.5 C 811 181.164984 742.723432 189 658.5 189 C 574.276568 189 506 181.164984 506 171.5 Z"/></g><g><path fill="none" stroke="#000000" paint-order="fill stroke markers" d=" M 506 171.5 C 506 161.835016 574.276568 154 658.5 154 C 742.723432 154 811 161.835016 811 171.5 C 811 181.164984 742.723432 189 658.5 189 C 574.276568 189 506 181.164984 506 171.5 Z" stroke-miterlimit="10" stroke-dasharray=""/></g><g><g><path fill="none" stroke="none"/><text fill="#000000" stroke="none" font-family="currentFont" font-size="13px" font-style="normal" font-weight="bold" text-decoration="undefined" x="704.5" y="226.5" text-anchor="middle" dominant-baseline="central" transform="matrix(1 0 0 1 -46 -54)">UC–11.2 Reset modifiche alle zone</text></g></g><g><path fill="none" stroke="#000000" paint-order="fill stroke markers" d=" M 62 242 L 161 242" stroke-miterlimit="10" stroke-dasharray=""/></g><g><path fill="#FFFFFF" stroke="none" paint-order="stroke fill markers" d=" M 162 243.5 C 162 233.835016 239.23087199999998 226 334.5 226 C 429.769128 226 507 233.835016 507 243.5 C 507 253.164984 429.769128 261 334.5 261 C 239.23087199999998 261 162 253.164984 162 243.5 Z"/></g><g><path fill="none" stroke="#000000" paint-order="fill stroke markers" d=" M 162 243.5 C 162 233.835016 239.23087199999998 226 334.5 226 C 429.769128 226 507 233.835016 507 243.5 C 507 253.164984 429.769128 261 334.5 261 C 239.23087199999998 261 162 253.164984 162 243.5 Z" stroke-miterlimit="10" stroke-dasharray=""/></g><g><g><path fill="none" stroke="none"/><text fill="#000000" stroke="none" font-family="currentFont" font-size="13px" font-style="normal" font-weight="bold" text-decoration="undefined" x="380.5" y="298.5" text-anchor="middle" dominant-baseline="central" transform="matrix(1 0 0 1 -46 -54)">UC–11 Reimpostazione ambiente 3D</text></g></g><g><path fill="none" stroke="#000000" paint-order="fill stroke markers" d=" M 356 225 L 496 110" stroke-miterlimit="10" stroke-dasharray="3"/></g><g><path fill="none" stroke="#000000" paint-order="fill stroke markers" d=" M 490.8189811943877 119.70345526788736 L 496 110 L 485.475087448233 113.19784548995997" stroke-miterlimit="10" stroke-dasharray=""/></g><g><rect fill="#ffffff" stroke="none" x="409" y="205" width="55.65625" height="13" transform="matrix(1 0 0 1 -46 -54)"/></g><g><g><path fill="none" stroke="none"/><text fill="#000000" stroke="none" font-family="currentFont" font-size="13px" font-style="normal" font-weight="normal" text-decoration="undefined" x="436.828125" y="211.5" text-anchor="middle" dominant-baseline="central" transform="matrix(1 0 0 1 -46 -54)">«include»</text></g></g><g><path fill="none" stroke="#000000" paint-order="fill stroke markers" d=" M 415 225 L 573 190" stroke-miterlimit="10" stroke-dasharray="3"/></g><g><path fill="none" stroke="#000000" paint-order="fill stroke markers" d=" M 563.9882711286076 196.3078318579773 L 573 190 L 562.1674347234635 188.08805608618414" stroke-miterlimit="10" stroke-dasharray=""/></g><g><rect fill="#ffffff" stroke="none" x="500" y="244" width="55.65625" height="13" transform="matrix(1 0 0 1 -46 -54)"/></g><g><g><path fill="none" stroke="none"/><text fill="#000000" stroke="none" font-family="currentFont" font-size="13px" font-style="normal" font-weight="normal" text-decoration="undefined" x="527.828125" y="250.5" text-anchor="middle" dominant-baseline="central" transform="matrix(1 0 0 1 -46 -54)">«include»</text></g></g><g><path fill="none" stroke="#000000" paint-order="fill stroke markers" d=" M 418 262 L 574 297" stroke-miterlimit="10" stroke-dasharray="3"/></g><g><path fill="none" stroke="#000000" paint-order="fill stroke markers" d=" M 563.1623015800974 298.88262926760444 L 574 297 L 565.0053700332488 290.6678098764155" stroke-miterlimit="10" stroke-dasharray=""/></g><g><rect fill="#ffffff" stroke="none" x="496" y="340" width="55.65625" height="13" transform="matrix(1 0 0 1 -46 -54)"/></g><g><g><path fill="none" stroke="none"/><text fill="#000000" stroke="none" font-family="currentFont" font-size="13px" font-style="normal" font-weight="normal" text-decoration="undefined" x="523.828125" y="346.5" text-anchor="middle" dominant-baseline="central" transform="matrix(1 0 0 1 -46 -54)">«include»</text></g></g><g><path fill="#ffffff" stroke="none" paint-order="stroke fill markers" d=" M 371 395.5 C 371 385.835016 437.2618496 378 519 378 C 600.7381504 378 667 385.835016 667 395.5 C 667 405.164984 600.7381504 413 519 413 C 437.2618496 413 371 405.164984 371 395.5 Z"/></g><g><path fill="none" stroke="#000000" paint-order="fill stroke markers" d=" M 371 395.5 C 371 385.835016 437.2618496 378 519 378 C 600.7381504 378 667 385.835016 667 395.5 C 667 405.164984 600.7381504 413 519 413 C 437.2618496 413 371 405.164984 371 395.5 Z" stroke-miterlimit="10" stroke-dasharray=""/></g><g><g><path fill="none" stroke="none"/><text fill="#000000" stroke="none" font-family="currentFont" font-size="13px" font-style="normal" font-weight="bold" text-decoration="undefined" x="565" y="450.5" text-anchor="middle" dominant-baseline="central" transform="matrix(1 0 0 1 -46 -54)">UC–8.5 Rimozione dati importati</text></g></g><g><path fill="none" stroke="#000000" paint-order="fill stroke markers" d=" M 357 262 L 497 377" stroke-miterlimit="10" stroke-dasharray="3"/></g><g><path fill="none" stroke="#000000" paint-order="fill stroke markers" d=" M 486.475087448233 373.80215451004005 L 497 377 L 491.8189811943877 367.29654473211264" stroke-miterlimit="10" stroke-dasharray=""/></g><g><rect fill="#ffffff" stroke="none" x="411" y="370" width="55.65625" height="13" transform="matrix(1 0 0 1 -46 -54)"/></g><g><g><path fill="none" stroke="none"/><text fill="#000000" stroke="none" font-family="currentFont" font-size="13px" font-style="normal" font-weight="normal" text-decoration="undefined" x="438.828125" y="376.5" text-anchor="middle" dominant-baseline="central" transform="matrix(1 0 0 1 -46 -54)">«include»</text></g></g></g></svg>