<svg version="1.1" xmlns="http://www.w3.org/2000/svg" xmlns:xlink="http://www.w3.org/1999/xlink" width="749" height="580"><defs/><g><g><rect fill="#ffffff" stroke="none" x="192" y="160" width="624" height="560" transform="matrix(1 0 0 1 -78 -150)"/></g><g><path fill="none" stroke="#000000" paint-order="fill stroke markers" d=" M 114 10 L 738 10 L 738 570 L 114 570 L 114 10 Z Z" stroke-miterlimit="10" stroke-dasharray=""/></g><g><g><path fill="none" stroke="none"/><text fill="#000000" stroke="none" font-family="currentFont" font-size="13px" font-style="normal" font-weight="bold" text-decoration="undefined" x="504.5" y="173.5" text-anchor="middle" dominant-baseline="central" transform="matrix(1 0 0 1 -78 -150)">UC12.5</text></g></g><g><path fill="#ffffff" stroke="none" paint-order="stroke fill markers" d=" M 166 91.5 C 166 81.835016 282.8536672 74 427 74 C 571.1463328 74 688 81.835016 688 91.5 C 688 101.164984 571.1463328 109 427 109 C 282.8536672 109 166 101.164984 166 91.5 Z"/></g><g><path fill="none" stroke="#000000" paint-order="fill stroke markers" d=" M 166 91.5 C 166 81.835016 282.8536672 74 427 74 C 571.1463328 74 688 81.835016 688 91.5 C 688 101.164984 571.1463328 109 427 109 C 282.8536672 109 166 101.164984 166 91.5 Z" stroke-miterlimit="10" stroke-dasharray=""/></g><g><g><path fill="none" stroke="none"/><text fill="#000000" stroke="none" font-family="currentFont" font-size="13px" font-style="normal" font-weight="bold" text-decoration="undefined" x="505" y="242.5" text-anchor="middle" dominant-baseline="central" transform="matrix(1 0 0 1 -78 -150)">UC12.5.1 Definizione numero livelli</text></g></g><g><path fill="#ffffff" stroke="none" paint-order="stroke fill markers" d=" M 166 210.5 C 166 200.835016 282.8536672 193 427 193 C 571.1463328 193 688 200.835016 688 210.5 C 688 220.164984 571.1463328 228 427 228 C 282.8536672 228 166 220.164984 166 210.5 Z"/></g><g><path fill="none" stroke="#000000" paint-order="fill stroke markers" d=" M 166 210.5 C 166 200.835016 282.8536672 193 427 193 C 571.1463328 193 688 200.835016 688 210.5 C 688 220.164984 571.1463328 228 427 228 C 282.8536672 228 166 220.164984 166 210.5 Z" stroke-miterlimit="10" stroke-dasharray=""/></g><g><g><path fill="none" stroke="none"/><text fill="#000000" stroke="none" font-family="currentFont" font-size="13px" font-style="normal" font-weight="bold" text-decoration="undefined" x="505" y="361.5" text-anchor="middle" dominant-baseline="central" transform="matrix(1 0 0 1 -78 -150)">UC12.5.2 Definizione altezza livelli</text></g></g><g><path fill="#ffffff" stroke="none" paint-order="stroke fill markers" d=" M 166 306.5 C 166 296.835016 282.8536672 289 427 289 C 571.1463328 289 688 296.835016 688 306.5 C 688 316.164984 571.1463328 324 427 324 C 282.8536672 324 166 316.164984 166 306.5 Z"/></g><g><path fill="none" stroke="#000000" paint-order="fill stroke markers" d=" M 166 306.5 C 166 296.835016 282.8536672 289 427 289 C 571.1463328 289 688 296.835016 688 306.5 C 688 316.164984 571.1463328 324 427 324 C 282.8536672 324 166 316.164984 166 306.5 Z" stroke-miterlimit="10" stroke-dasharray=""/></g><g><g><path fill="none" stroke="none"/><text fill="#000000" stroke="none" font-family="currentFont" font-size="13px" font-style="normal" font-weight="bold" text-decoration="undefined" x="505" y="457.5" text-anchor="middle" dominant-baseline="central" transform="matrix(1 0 0 1 -78 -150)">UC12.5.2.1 Definizione altezza livelli personalizzata</text></g></g><g><path fill="#ffffff" stroke="none" paint-order="stroke fill markers" d=" M 166 402.5 C 166 392.835016 282.8536672 385 427 385 C 571.1463328 385 688 392.835016 688 402.5 C 688 412.164984 571.1463328 420 427 420 C 282.8536672 420 166 412.164984 166 402.5 Z"/></g><g><path fill="none" stroke="#000000" paint-order="fill stroke markers" d=" M 166 402.5 C 166 392.835016 282.8536672 385 427 385 C 571.1463328 385 688 392.835016 688 402.5 C 688 412.164984 571.1463328 420 427 420 C 282.8536672 420 166 412.164984 166 402.5 Z" stroke-miterlimit="10" stroke-dasharray=""/></g><g><g><path fill="none" stroke="none"/><text fill="#000000" stroke="none" font-family="currentFont" font-size="13px" font-style="normal" font-weight="bold" text-decoration="undefined" x="505" y="553.5" text-anchor="middle" dominant-baseline="central" transform="matrix(1 0 0 1 -78 -150)">UC12.5.2.1.1 Definizione altezza singolo livello</text></g></g><g><path fill="#ffffff" stroke="none" paint-order="stroke fill markers" d=" M 166 498.5 C 166 488.835016 282.8536672 481 427 481 C 571.1463328 481 688 488.835016 688 498.5 C 688 508.164984 571.1463328 516 427 516 C 282.8536672 516 166 508.164984 166 498.5 Z"/></g><g><path fill="none" stroke="#000000" paint-order="fill stroke markers" d=" M 166 498.5 C 166 488.835016 282.8536672 481 427 481 C 571.1463328 481 688 488.835016 688 498.5 C 688 508.164984 571.1463328 516 427 516 C 282.8536672 516 166 508.164984 166 498.5 Z" stroke-miterlimit="10" stroke-dasharray=""/></g><g><g><path fill="none" stroke="none"/><text fill="#000000" stroke="none" font-family="currentFont" font-size="13px" font-style="normal" font-weight="bold" text-decoration="undefined" x="505" y="649.5" text-anchor="middle" dominant-baseline="central" transform="matrix(1 0 0 1 -78 -150)">UC12.5.2.1.1.1 Visualizzazione errore altezza non positiva</text></g></g><g><path fill="#ffffff" stroke="none" paint-order="stroke fill markers" d=" M 27.689029846191403 120.85000000000002 C 27.689029846191403 115.96227952000004 31.646832214191406 112 36.529029846191406 112 C 41.41122747819141 112 45.36902984619141 115.96227952000004 45.36902984619141 120.85000000000002 C 45.36902984619141 125.73772048000001 41.41122747819141 129.7 36.529029846191406 129.7 C 31.646832214191406 129.7 27.689029846191403 125.73772048000001 27.689029846191403 120.85000000000002 Z"/></g><g><path fill="none" stroke="#000000" paint-order="fill stroke markers" d=" M 27.689029846191403 120.85000000000002 C 27.689029846191403 115.96227952000004 31.646832214191406 112 36.529029846191406 112 C 41.41122747819141 112 45.36902984619141 115.96227952000004 45.36902984619141 120.85000000000002 C 45.36902984619141 125.73772048000001 41.41122747819141 129.7 36.529029846191406 129.7 C 31.646832214191406 129.7 27.689029846191403 125.73772048000001 27.689029846191403 120.85000000000002 Z" stroke-miterlimit="10" stroke-dasharray=""/></g><g><path fill="none" stroke="#000000" paint-order="fill stroke markers" d=" M 36.529029846191406 129.7 L 36.529029846191406 147.3" stroke-miterlimit="10" stroke-dasharray=""/></g><g><path fill="none" stroke="#000000" paint-order="fill stroke markers" d=" M 27.169029846191407 136.3 L 45.889029846191406 136.3" stroke-miterlimit="10" stroke-dasharray=""/></g><g><path fill="none" stroke="#000000" paint-order="fill stroke markers" d=" M 36.529029846191406 147.3 L 23.529029846191406 165" stroke-miterlimit="10" stroke-dasharray=""/></g><g><path fill="none" stroke="#000000" paint-order="fill stroke markers" d=" M 36.529029846191406 147.3 L 49.529029846191406 165" stroke-miterlimit="10" stroke-dasharray=""/></g><g><g><path fill="none" stroke="none"/><text fill="#000000" stroke="none" font-family="currentFont" font-size="13px" font-style="normal" font-weight="bold" text-decoration="undefined" x="115.0290298461914" y="329.5" text-anchor="middle" dominant-baseline="central" transform="matrix(1 0 0 1 -78 -150)">Utente</text></g></g><g><path fill="none" stroke="#000000" paint-order="fill stroke markers" d=" M 303 110 L 64 147" stroke-miterlimit="10" stroke-dasharray=""/></g><g><path fill="none" stroke="#000000" paint-order="fill stroke markers" d=" M 64 155 L 308 192" stroke-miterlimit="10" stroke-dasharray=""/></g><g><path fill="none" stroke="#000000" paint-order="fill stroke markers" d=" M 427 288 L 427 229" stroke-miterlimit="10" stroke-dasharray=""/></g><g><path fill="#FFFFFF" stroke="none" paint-order="stroke fill markers" d=" M 435.419035512032 249.3253497152483 L 427 229 L 418.580964487968 249.3253497152483"/></g><g><path fill="none" stroke="#000000" paint-order="fill stroke markers" d=" M 435.419035512032 249.3253497152483 L 427 229 L 418.580964487968 249.3253497152483 L 435.419035512032 249.3253497152483" stroke-miterlimit="10" stroke-dasharray=""/></g><g><path fill="none" stroke="#000000" paint-order="fill stroke markers" d=" M 427 325 L 427 384" stroke-miterlimit="10" stroke-dasharray="3"/></g><g><path fill="none" stroke="#000000" paint-order="fill stroke markers" d=" M 422.790482243984 373.8373251423759 L 427 384 L 431.209517756016 373.8373251423759" stroke-miterlimit="10" stroke-dasharray=""/></g><g><rect fill="#ffffff" stroke="none" x="524" y="496" width="58.26020812988281" height="13" transform="matrix(1 0 0 1 -78 -150)"/></g><g><g><path fill="none" stroke="none"/><text fill="#000000" stroke="none" font-family="currentFont" font-size="13px" font-style="normal" font-weight="normal" text-decoration="undefined" x="553.1301040649414" y="502.5" text-anchor="middle" dominant-baseline="central" transform="matrix(1 0 0 1 -78 -150)">«include»</text></g></g><g><path fill="none" stroke="#000000" paint-order="fill stroke markers" d=" M 427 480 L 427 421" stroke-miterlimit="10" stroke-dasharray="3"/></g><g><path fill="none" stroke="#000000" paint-order="fill stroke markers" d=" M 431.209517756016 431.1626748576241 L 427 421 L 422.790482243984 431.1626748576241" stroke-miterlimit="10" stroke-dasharray=""/></g><g><rect fill="#ffffff" stroke="none" x="524" y="599" width="56.33973693847656" height="13" transform="matrix(1 0 0 1 -78 -150)"/></g><g><g><path fill="none" stroke="none"/><text fill="#000000" stroke="none" font-family="currentFont" font-size="13px" font-style="normal" font-weight="normal" text-decoration="undefined" x="552.1698684692383" y="605.5" text-anchor="middle" dominant-baseline="central" transform="matrix(1 0 0 1 -78 -150)">«extend»</text></g></g></g></svg>