<svg version="1.1" xmlns="http://www.w3.org/2000/svg" xmlns:xlink="http://www.w3.org/1999/xlink" width="749" height="668"><defs/><g><g><rect fill="#ffffff" stroke="none" x="192" y="72" width="624" height="648" transform="matrix(1 0 0 1 -78 -62)"/></g><g><path fill="none" stroke="#000000" paint-order="fill stroke markers" d=" M 114 10 L 738 10 L 738 658 L 114 658 L 114 10 Z Z" stroke-miterlimit="10" stroke-dasharray=""/></g><g><g><path fill="none" stroke="none"/><text fill="#000000" stroke="none" font-family="currentFont" font-size="13px" font-style="normal" font-weight="bold" text-decoration="undefined" x="504.5" y="85.5" text-anchor="middle" dominant-baseline="central" transform="matrix(1 0 0 1 -78 -62)">UC–12.5</text></g></g><g><path fill="#ffffff" stroke="none" paint-order="stroke fill markers" d=" M 166 179.5 C 166 169.835016 282.8536672 162 427 162 C 571.1463328 162 688 169.835016 688 179.5 C 688 189.164984 571.1463328 197 427 197 C 282.8536672 197 166 189.164984 166 179.5 Z"/></g><g><path fill="none" stroke="#000000" paint-order="fill stroke markers" d=" M 166 179.5 C 166 169.835016 282.8536672 162 427 162 C 571.1463328 162 688 169.835016 688 179.5 C 688 189.164984 571.1463328 197 427 197 C 282.8536672 197 166 189.164984 166 179.5 Z" stroke-miterlimit="10" stroke-dasharray=""/></g><g><g><path fill="none" stroke="none"/><text fill="#000000" stroke="none" font-family="currentFont" font-size="13px" font-style="normal" font-weight="bold" text-decoration="undefined" x="505" y="242.5" text-anchor="middle" dominant-baseline="central" transform="matrix(1 0 0 1 -78 -62)">UC–12.5.1 Definizione numero livelli</text></g></g><g><path fill="#ffffff" stroke="none" paint-order="stroke fill markers" d=" M 166 298.5 C 166 288.835016 282.8536672 281 427 281 C 571.1463328 281 688 288.835016 688 298.5 C 688 308.164984 571.1463328 316 427 316 C 282.8536672 316 166 308.164984 166 298.5 Z"/></g><g><path fill="none" stroke="#000000" paint-order="fill stroke markers" d=" M 166 298.5 C 166 288.835016 282.8536672 281 427 281 C 571.1463328 281 688 288.835016 688 298.5 C 688 308.164984 571.1463328 316 427 316 C 282.8536672 316 166 308.164984 166 298.5 Z" stroke-miterlimit="10" stroke-dasharray=""/></g><g><g><path fill="none" stroke="none"/><text fill="#000000" stroke="none" font-family="currentFont" font-size="13px" font-style="normal" font-weight="bold" text-decoration="undefined" x="505" y="361.5" text-anchor="middle" dominant-baseline="central" transform="matrix(1 0 0 1 -78 -62)">UC–12.5.2 Definizione altezza livelli</text></g></g><g><path fill="#ffffff" stroke="none" paint-order="stroke fill markers" d=" M 166 394.5 C 166 384.835016 282.8536672 377 427 377 C 571.1463328 377 688 384.835016 688 394.5 C 688 404.164984 571.1463328 412 427 412 C 282.8536672 412 166 404.164984 166 394.5 Z"/></g><g><path fill="none" stroke="#000000" paint-order="fill stroke markers" d=" M 166 394.5 C 166 384.835016 282.8536672 377 427 377 C 571.1463328 377 688 384.835016 688 394.5 C 688 404.164984 571.1463328 412 427 412 C 282.8536672 412 166 404.164984 166 394.5 Z" stroke-miterlimit="10" stroke-dasharray=""/></g><g><g><path fill="none" stroke="none"/><text fill="#000000" stroke="none" font-family="currentFont" font-size="13px" font-style="normal" font-weight="bold" text-decoration="undefined" x="505" y="457.5" text-anchor="middle" dominant-baseline="central" transform="matrix(1 0 0 1 -78 -62)">UC–12.5.2.1 Definizione altezza livelli personalizzata</text></g></g><g><path fill="#ffffff" stroke="none" paint-order="stroke fill markers" d=" M 166 490.5 C 166 480.835016 282.8536672 473 427 473 C 571.1463328 473 688 480.835016 688 490.5 C 688 500.164984 571.1463328 508 427 508 C 282.8536672 508 166 500.164984 166 490.5 Z"/></g><g><path fill="none" stroke="#000000" paint-order="fill stroke markers" d=" M 166 490.5 C 166 480.835016 282.8536672 473 427 473 C 571.1463328 473 688 480.835016 688 490.5 C 688 500.164984 571.1463328 508 427 508 C 282.8536672 508 166 500.164984 166 490.5 Z" stroke-miterlimit="10" stroke-dasharray=""/></g><g><g><path fill="none" stroke="none"/><text fill="#000000" stroke="none" font-family="currentFont" font-size="13px" font-style="normal" font-weight="bold" text-decoration="undefined" x="505" y="553.5" text-anchor="middle" dominant-baseline="central" transform="matrix(1 0 0 1 -78 -62)">UC–12.5.2.1.1 Definizione altezza singolo livello</text></g></g><g><path fill="#ffffff" stroke="none" paint-order="stroke fill markers" d=" M 166 586.5 C 166 576.835016 282.8536672 569 427 569 C 571.1463328 569 688 576.835016 688 586.5 C 688 596.164984 571.1463328 604 427 604 C 282.8536672 604 166 596.164984 166 586.5 Z"/></g><g><path fill="none" stroke="#000000" paint-order="fill stroke markers" d=" M 166 586.5 C 166 576.835016 282.8536672 569 427 569 C 571.1463328 569 688 576.835016 688 586.5 C 688 596.164984 571.1463328 604 427 604 C 282.8536672 604 166 596.164984 166 586.5 Z" stroke-miterlimit="10" stroke-dasharray=""/></g><g><g><path fill="none" stroke="none"/><text fill="#000000" stroke="none" font-family="currentFont" font-size="13px" font-style="normal" font-weight="bold" text-decoration="undefined" x="505" y="649.5" text-anchor="middle" dominant-baseline="central" transform="matrix(1 0 0 1 -78 -62)">UC–12.5.2.1.1.1 Visualizzazione errore altezza non positiva</text></g></g><g><path fill="#ffffff" stroke="none" paint-order="stroke fill markers" d=" M 27.689029846191403 208.85000000000002 C 27.689029846191403 203.96227952000004 31.646832214191406 200 36.529029846191406 200 C 41.41122747819141 200 45.36902984619141 203.96227952000004 45.36902984619141 208.85000000000002 C 45.36902984619141 213.73772048 41.41122747819141 217.7 36.529029846191406 217.7 C 31.646832214191406 217.7 27.689029846191403 213.73772048 27.689029846191403 208.85000000000002 Z"/></g><g><path fill="none" stroke="#000000" paint-order="fill stroke markers" d=" M 27.689029846191403 208.85000000000002 C 27.689029846191403 203.96227952000004 31.646832214191406 200 36.529029846191406 200 C 41.41122747819141 200 45.36902984619141 203.96227952000004 45.36902984619141 208.85000000000002 C 45.36902984619141 213.73772048 41.41122747819141 217.7 36.529029846191406 217.7 C 31.646832214191406 217.7 27.689029846191403 213.73772048 27.689029846191403 208.85000000000002 Z" stroke-miterlimit="10" stroke-dasharray=""/></g><g><path fill="none" stroke="#000000" paint-order="fill stroke markers" d=" M 36.529029846191406 217.7 L 36.529029846191406 235.3" stroke-miterlimit="10" stroke-dasharray=""/></g><g><path fill="none" stroke="#000000" paint-order="fill stroke markers" d=" M 27.169029846191407 224.3 L 45.889029846191406 224.3" stroke-miterlimit="10" stroke-dasharray=""/></g><g><path fill="none" stroke="#000000" paint-order="fill stroke markers" d=" M 36.529029846191406 235.3 L 23.529029846191406 253" stroke-miterlimit="10" stroke-dasharray=""/></g><g><path fill="none" stroke="#000000" paint-order="fill stroke markers" d=" M 36.529029846191406 235.3 L 49.529029846191406 253" stroke-miterlimit="10" stroke-dasharray=""/></g><g><g><path fill="none" stroke="none"/><text fill="#000000" stroke="none" font-family="currentFont" font-size="13px" font-style="normal" font-weight="bold" text-decoration="undefined" x="115.0290298461914" y="329.5" text-anchor="middle" dominant-baseline="central" transform="matrix(1 0 0 1 -78 -62)">Utente</text></g></g><g><path fill="none" stroke="#000000" paint-order="fill stroke markers" d=" M 303 198 L 64 235" stroke-miterlimit="10" stroke-dasharray=""/></g><g><path fill="none" stroke="#000000" paint-order="fill stroke markers" d=" M 64 243 L 308 280" stroke-miterlimit="10" stroke-dasharray=""/></g><g><path fill="none" stroke="#000000" paint-order="fill stroke markers" d=" M 427 376 L 427 317" stroke-miterlimit="10" stroke-dasharray=""/></g><g><path fill="#FFFFFF" stroke="none" paint-order="stroke fill markers" d=" M 435.419035512032 337.3253497152483 L 427 317 L 418.580964487968 337.3253497152483"/></g><g><path fill="none" stroke="#000000" paint-order="fill stroke markers" d=" M 435.419035512032 337.3253497152483 L 427 317 L 418.580964487968 337.3253497152483 L 435.419035512032 337.3253497152483" stroke-miterlimit="10" stroke-dasharray=""/></g><g><path fill="none" stroke="#000000" paint-order="fill stroke markers" d=" M 427 413 L 427 472" stroke-miterlimit="10" stroke-dasharray="3"/></g><g><path fill="none" stroke="#000000" paint-order="fill stroke markers" d=" M 422.790482243984 461.8373251423759 L 427 472 L 431.209517756016 461.8373251423759" stroke-miterlimit="10" stroke-dasharray=""/></g><g><rect fill="#ffffff" stroke="none" x="524" y="496" width="58.26020812988281" height="13" transform="matrix(1 0 0 1 -78 -62)"/></g><g><g><path fill="none" stroke="none"/><text fill="#000000" stroke="none" font-family="currentFont" font-size="13px" font-style="normal" font-weight="normal" text-decoration="undefined" x="553.1301040649414" y="502.5" text-anchor="middle" dominant-baseline="central" transform="matrix(1 0 0 1 -78 -62)">«include»</text></g></g><g><path fill="none" stroke="#000000" paint-order="fill stroke markers" d=" M 427 568 L 427 509" stroke-miterlimit="10" stroke-dasharray="3"/></g><g><path fill="none" stroke="#000000" paint-order="fill stroke markers" d=" M 431.209517756016 519.1626748576241 L 427 509 L 422.790482243984 519.1626748576241" stroke-miterlimit="10" stroke-dasharray=""/></g><g><rect fill="#ffffff" stroke="none" x="524" y="599" width="56.33973693847656" height="13" transform="matrix(1 0 0 1 -78 -62)"/></g><g><g><path fill="none" stroke="none"/><text fill="#000000" stroke="none" font-family="currentFont" font-size="13px" font-style="normal" font-weight="normal" text-decoration="undefined" x="552.1698684692383" y="605.5" text-anchor="middle" dominant-baseline="central" transform="matrix(1 0 0 1 -78 -62)">«extend»</text></g></g><g><path fill="#ffffff" stroke="none" paint-order="stroke fill markers" d=" M 170 86.5 C 170 76.835016 286.8536672 69 431 69 C 575.1463328 69 692 76.835016 692 86.5 C 692 96.164984 575.1463328 104 431 104 C 286.8536672 104 170 96.164984 170 86.5 Z"/></g><g><path fill="none" stroke="#000000" paint-order="fill stroke markers" d=" M 170 86.5 C 170 76.835016 286.8536672 69 431 69 C 575.1463328 69 692 76.835016 692 86.5 C 692 96.164984 575.1463328 104 431 104 C 286.8536672 104 170 96.164984 170 86.5 Z" stroke-miterlimit="10" stroke-dasharray=""/></g><g><g><path fill="none" stroke="none"/><text fill="#000000" stroke="none" font-family="currentFont" font-size="13px" font-style="normal" font-weight="bold" text-decoration="undefined" x="509" y="149.5" text-anchor="middle" dominant-baseline="central" transform="matrix(1 0 0 1 -78 -62)">UC–12.5.1.1 Vis. errore valore immesso minore o uguale a zero</text></g></g><g><path fill="none" stroke="#000000" paint-order="fill stroke markers" d=" M 430 105 L 428 161" stroke-miterlimit="10" stroke-dasharray="3"/></g><g><path fill="none" stroke="#000000" paint-order="fill stroke markers" d=" M 424.1558857396898 150.69355611504727 L 428 161 L 432.56955709984743 150.99404437791003" stroke-miterlimit="10" stroke-dasharray=""/></g><g><rect fill="#ffffff" stroke="none" x="528" y="189" width="53.49169921875" height="13" transform="matrix(1 0 0 1 -78 -62)"/></g><g><g><path fill="none" stroke="none"/><text fill="#000000" stroke="none" font-family="currentFont" font-size="13px" font-style="normal" font-weight="normal" text-decoration="undefined" x="554.745849609375" y="195.5" text-anchor="middle" dominant-baseline="central" transform="matrix(1 0 0 1 -78 -62)">«extend»</text></g></g></g></svg>