<svg version="1.1" xmlns="http://www.w3.org/2000/svg" xmlns:xlink="http://www.w3.org/1999/xlink" width="1181" height="684"><defs/><g><g><rect fill="#ffffff" stroke="none" x="160" y="32" width="1064" height="664" transform="matrix(1 0 0 1 -54 -22)"/></g><g><path fill="none" stroke="#000000" paint-order="fill stroke markers" d=" M 106 10 L 1170 10 L 1170 674 L 106 674 L 106 10 Z Z" stroke-miterlimit="10" stroke-dasharray=""/></g><g><g><path fill="none" stroke="none"/><text fill="#000000" stroke="none" font-family="currentFont" font-size="13px" font-style="normal" font-weight="bold" text-decoration="undefined" x="692.5" y="45.5" text-anchor="middle" dominant-baseline="central" transform="matrix(1 0 0 1 -54 -22)">WMS3</text></g></g><g><path fill="#FFFFFF" stroke="none" paint-order="stroke fill markers" d=" M 146 342.5 C 146 332.835016 191.890808 325 248.5 325 C 305.109192 325 351 332.835016 351 342.5 C 351 352.164984 305.109192 360 248.5 360 C 191.890808 360 146 352.164984 146 342.5 Z"/></g><g><path fill="none" stroke="#000000" paint-order="fill stroke markers" d=" M 146 342.5 C 146 332.835016 191.890808 325 248.5 325 C 305.109192 325 351 332.835016 351 342.5 C 351 352.164984 305.109192 360 248.5 360 C 191.890808 360 146 352.164984 146 342.5 Z" stroke-miterlimit="10" stroke-dasharray=""/></g><g><g><path fill="none" stroke="none"/><text fill="#000000" stroke="none" font-family="currentFont" font-size="13px" font-style="normal" font-weight="bold" text-decoration="undefined" x="302.5" y="365.5" text-anchor="middle" dominant-baseline="central" transform="matrix(1 0 0 1 -54 -22)">UC–12 Creazione zona</text></g></g><g><path fill="#FFFFFF" stroke="none" paint-order="stroke fill markers" d=" M 364 196.5 C 364 186.835016 444.3648784 179 543.5 179 C 642.6351216 179 723 186.835016 723 196.5 C 723 206.164984 642.6351216 214 543.5 214 C 444.3648784 214 364 206.164984 364 196.5 Z"/></g><g><path fill="none" stroke="#000000" paint-order="fill stroke markers" d=" M 364 196.5 C 364 186.835016 444.3648784 179 543.5 179 C 642.6351216 179 723 186.835016 723 196.5 C 723 206.164984 642.6351216 214 543.5 214 C 444.3648784 214 364 206.164984 364 196.5 Z" stroke-miterlimit="10" stroke-dasharray=""/></g><g><g><path fill="none" stroke="none"/><text fill="#000000" stroke="none" font-family="currentFont" font-size="13px" font-style="normal" font-weight="bold" text-decoration="undefined" x="597.5" y="219.5" text-anchor="middle" dominant-baseline="central" transform="matrix(1 0 0 1 -54 -22)">UC–12.2 Definizione lunghezza zona</text></g></g><g><path fill="#FFFFFF" stroke="none" paint-order="stroke fill markers" d=" M 794 196.5 C 794 181.8644528 871.0070144 170 966 170 C 1060.9929855999999 170 1138 181.8644528 1138 196.5 C 1138 211.1355472 1060.9929855999999 223 966 223 C 871.0070144 223 794 211.1355472 794 196.5 Z"/></g><g><path fill="none" stroke="#000000" paint-order="fill stroke markers" d=" M 794 196.5 C 794 181.8644528 871.0070144 170 966 170 C 1060.9929855999999 170 1138 181.8644528 1138 196.5 C 1138 211.1355472 1060.9929855999999 223 966 223 C 871.0070144 223 794 211.1355472 794 196.5 Z" stroke-miterlimit="10" stroke-dasharray=""/></g><g><g><path fill="none" stroke="none"/><text fill="#000000" stroke="none" font-family="currentFont" font-size="13px" font-style="normal" font-weight="bold" text-decoration="undefined" x="1020" y="213" text-anchor="middle" dominant-baseline="central" transform="matrix(1 0 0 1 -54 -22)">UC–12.2.1 Visualizzazione errore</text><text fill="#000000" stroke="none" font-family="currentFont" font-size="13px" font-style="normal" font-weight="bold" text-decoration="undefined" x="1020" y="226" text-anchor="middle" dominant-baseline="central" transform="matrix(1 0 0 1 -54 -22)">lunghezza non positiva</text></g></g><g><path fill="#FFFFFF" stroke="none" paint-order="stroke fill markers" d=" M 458 401.5 C 458 391.835016 538.3648784 384 637.5 384 C 736.6351216 384 817 391.835016 817 401.5 C 817 411.164984 736.6351216 419 637.5 419 C 538.3648784 419 458 411.164984 458 401.5 Z"/></g><g><path fill="none" stroke="#000000" paint-order="fill stroke markers" d=" M 458 401.5 C 458 391.835016 538.3648784 384 637.5 384 C 736.6351216 384 817 391.835016 817 401.5 C 817 411.164984 736.6351216 419 637.5 419 C 538.3648784 419 458 411.164984 458 401.5 Z" stroke-miterlimit="10" stroke-dasharray=""/></g><g><g><path fill="none" stroke="none"/><text fill="#000000" stroke="none" font-family="currentFont" font-size="13px" font-style="normal" font-weight="bold" text-decoration="undefined" x="691.5" y="424.5" text-anchor="middle" dominant-baseline="central" transform="matrix(1 0 0 1 -54 -22)">UC–12.4 Definizione colonne</text></g></g><g><path fill="#FFFFFF" stroke="none" paint-order="stroke fill markers" d=" M 458 299.5 C 458 289.835016 538.3648784 282 637.5 282 C 736.6351216 282 817 289.835016 817 299.5 C 817 309.164984 736.6351216 317 637.5 317 C 538.3648784 317 458 309.164984 458 299.5 Z"/></g><g><path fill="none" stroke="#000000" paint-order="fill stroke markers" d=" M 458 299.5 C 458 289.835016 538.3648784 282 637.5 282 C 736.6351216 282 817 289.835016 817 299.5 C 817 309.164984 736.6351216 317 637.5 317 C 538.3648784 317 458 309.164984 458 299.5 Z" stroke-miterlimit="10" stroke-dasharray=""/></g><g><g><path fill="none" stroke="none"/><text fill="#000000" stroke="none" font-family="currentFont" font-size="13px" font-style="normal" font-weight="bold" text-decoration="undefined" x="691.5" y="322.5" text-anchor="middle" dominant-baseline="central" transform="matrix(1 0 0 1 -54 -22)">UC–12.3 Definizione orientamento zona</text></g></g><g><path fill="none" stroke="#000000" paint-order="fill stroke markers" d=" M 793 196 L 724 196" stroke-miterlimit="10" stroke-dasharray="3"/></g><g><path fill="none" stroke="#000000" paint-order="fill stroke markers" d=" M 734.1626748576241 191.790482243984 L 724 196 L 734.1626748576241 200.209517756016" stroke-miterlimit="10" stroke-dasharray=""/></g><g><rect fill="#FFFFFF" stroke="none" x="783" y="232" width="56.33973693847656" height="13" transform="matrix(1 0 0 1 -54 -22)"/></g><g><g><path fill="none" stroke="none"/><text fill="#000000" stroke="none" font-family="currentFont" font-size="13px" font-style="normal" font-weight="normal" text-decoration="undefined" x="811.1698684692383" y="238.5" text-anchor="middle" dominant-baseline="central" transform="matrix(1 0 0 1 -54 -22)">«extend»</text></g></g><g><path fill="none" stroke="#000000" paint-order="fill stroke markers" d=" M 284 324 L 505 215" stroke-miterlimit="10" stroke-dasharray="3"/></g><g><path fill="none" stroke="#000000" paint-order="fill stroke markers" d=" M 497.7476433655813 223.27063016022382 L 505 215 L 494.0235907732391 215.72002811519957" stroke-miterlimit="10" stroke-dasharray=""/></g><g><rect fill="#FFFFFF" stroke="none" x="405" y="258" width="58.26020812988281" height="13" transform="matrix(1 0 0 1 -54 -22)"/></g><g><g><path fill="none" stroke="none"/><text fill="#000000" stroke="none" font-family="currentFont" font-size="13px" font-style="normal" font-weight="normal" text-decoration="undefined" x="434.1301040649414" y="264.5" text-anchor="middle" dominant-baseline="central" transform="matrix(1 0 0 1 -54 -22)">«include»</text></g></g><g><path fill="none" stroke="#000000" paint-order="fill stroke markers" d=" M 352 331 L 465 318" stroke-miterlimit="10" stroke-dasharray="3"/></g><g><path fill="none" stroke="#000000" paint-order="fill stroke markers" d=" M 455.3850247550824 323.34343064328726 L 465 318 L 454.4228097607095 314.9795618460464" stroke-miterlimit="10" stroke-dasharray=""/></g><g><rect fill="#FFFFFF" stroke="none" x="429" y="310" width="58.26020812988281" height="13" transform="matrix(1 0 0 1 -54 -22)"/></g><g><g><path fill="none" stroke="none"/><text fill="#000000" stroke="none" font-family="currentFont" font-size="13px" font-style="normal" font-weight="normal" text-decoration="undefined" x="458.1301040649414" y="316.5" text-anchor="middle" dominant-baseline="central" transform="matrix(1 0 0 1 -54 -22)">«include»</text></g></g><g><path fill="none" stroke="#000000" paint-order="fill stroke markers" d=" M 352 358 L 518 383" stroke-miterlimit="10" stroke-dasharray="3"/></g><g><path fill="none" stroke="#000000" paint-order="fill stroke markers" d=" M 507.32375716696754 385.6491204144248 L 518 383 L 508.577545285949 377.3239673043879" stroke-miterlimit="10" stroke-dasharray=""/></g><g><rect fill="#FFFFFF" stroke="none" x="464" y="356" width="58.26020812988281" height="13" transform="matrix(1 0 0 1 -54 -22)"/></g><g><g><path fill="none" stroke="none"/><text fill="#000000" stroke="none" font-family="currentFont" font-size="13px" font-style="normal" font-weight="normal" text-decoration="undefined" x="493.1301040649414" y="362.5" text-anchor="middle" dominant-baseline="central" transform="matrix(1 0 0 1 -54 -22)">«include»</text></g></g><g><path fill="#FFFFFF" stroke="none" paint-order="stroke fill markers" d=" M 162 100.5 C 162 90.835016 258.0349104 83 376.5 83 C 494.96508960000006 83 591 90.835016 591 100.5 C 591 110.164984 494.96508960000006 118 376.5 118 C 258.0349104 118 162 110.164984 162 100.5 Z"/></g><g><path fill="none" stroke="#000000" paint-order="fill stroke markers" d=" M 162 100.5 C 162 90.835016 258.0349104 83 376.5 83 C 494.96508960000006 83 591 90.835016 591 100.5 C 591 110.164984 494.96508960000006 118 376.5 118 C 258.0349104 118 162 110.164984 162 100.5 Z" stroke-miterlimit="10" stroke-dasharray=""/></g><g><g><path fill="none" stroke="none"/><text fill="#000000" stroke="none" font-family="currentFont" font-size="13px" font-style="normal" font-weight="bold" text-decoration="undefined" x="430.5" y="123.5" text-anchor="middle" dominant-baseline="central" transform="matrix(1 0 0 1 -54 -22)">UC–12.1 Definizione codice zona</text></g></g><g><path fill="#FFFFFF" stroke="none" paint-order="stroke fill markers" d=" M 658 100.5 C 658 85.8644528 735.0070144 74 830 74 C 924.9929856 74 1002 85.8644528 1002 100.5 C 1002 115.13554719999999 924.9929856 127 830 127 C 735.0070144 127 658 115.13554719999999 658 100.5 Z"/></g><g><path fill="none" stroke="#000000" paint-order="fill stroke markers" d=" M 658 100.5 C 658 85.8644528 735.0070144 74 830 74 C 924.9929856 74 1002 85.8644528 1002 100.5 C 1002 115.13554719999999 924.9929856 127 830 127 C 735.0070144 127 658 115.13554719999999 658 100.5 Z" stroke-miterlimit="10" stroke-dasharray=""/></g><g><g><path fill="none" stroke="none"/><text fill="#000000" stroke="none" font-family="currentFont" font-size="13px" font-style="normal" font-weight="bold" text-decoration="undefined" x="884" y="117" text-anchor="middle" dominant-baseline="central" transform="matrix(1 0 0 1 -54 -22)">UC–12.1.1 Visualizzazione errore</text><text fill="#000000" stroke="none" font-family="currentFont" font-size="13px" font-style="normal" font-weight="bold" text-decoration="undefined" x="884" y="130" text-anchor="middle" dominant-baseline="central" transform="matrix(1 0 0 1 -54 -22)">codice già in uso</text></g></g><g><path fill="none" stroke="#000000" paint-order="fill stroke markers" d=" M 258 324 L 366 119" stroke-miterlimit="10" stroke-dasharray="3"/></g><g><path fill="none" stroke="#000000" paint-order="fill stroke markers" d=" M 364.98744598946837 129.9532978767016 L 366 119 L 357.5388649878635 126.02916739780736" stroke-miterlimit="10" stroke-dasharray=""/></g><g><rect fill="#FFFFFF" stroke="none" x="310" y="222" width="58.26020812988281" height="13" transform="matrix(1 0 0 1 -54 -22)"/></g><g><g><path fill="none" stroke="none"/><text fill="#000000" stroke="none" font-family="currentFont" font-size="13px" font-style="normal" font-weight="normal" text-decoration="undefined" x="339.1301040649414" y="228.5" text-anchor="middle" dominant-baseline="central" transform="matrix(1 0 0 1 -54 -22)">«include»</text></g></g><g><path fill="none" stroke="#000000" paint-order="fill stroke markers" d=" M 657 100 L 592 100" stroke-miterlimit="10" stroke-dasharray="3"/></g><g><path fill="none" stroke="#000000" paint-order="fill stroke markers" d=" M 602.1626748576241 95.79048224398402 L 592 100 L 602.1626748576241 104.20951775601598" stroke-miterlimit="10" stroke-dasharray=""/></g><g><rect fill="#FFFFFF" stroke="none" x="652" y="138" width="56.33973693847656" height="13" transform="matrix(1 0 0 1 -54 -22)"/></g><g><g><path fill="none" stroke="none"/><text fill="#000000" stroke="none" font-family="currentFont" font-size="13px" font-style="normal" font-weight="normal" text-decoration="undefined" x="680.1698684692383" y="144.5" text-anchor="middle" dominant-baseline="central" transform="matrix(1 0 0 1 -54 -22)">«extend»</text></g></g><g><path fill="#ffffff" stroke="none" paint-order="stroke fill markers" d=" M 27.689029846191403 307.85 C 27.689029846191403 302.96227952000004 31.646832214191406 299 36.529029846191406 299 C 41.41122747819141 299 45.36902984619141 302.96227952000004 45.36902984619141 307.85 C 45.36902984619141 312.73772048 41.41122747819141 316.7 36.529029846191406 316.7 C 31.646832214191406 316.7 27.689029846191403 312.73772048 27.689029846191403 307.85 Z"/></g><g><path fill="none" stroke="#000000" paint-order="fill stroke markers" d=" M 27.689029846191403 307.85 C 27.689029846191403 302.96227952000004 31.646832214191406 299 36.529029846191406 299 C 41.41122747819141 299 45.36902984619141 302.96227952000004 45.36902984619141 307.85 C 45.36902984619141 312.73772048 41.41122747819141 316.7 36.529029846191406 316.7 C 31.646832214191406 316.7 27.689029846191403 312.73772048 27.689029846191403 307.85 Z" stroke-miterlimit="10" stroke-dasharray=""/></g><g><path fill="none" stroke="#000000" paint-order="fill stroke markers" d=" M 36.529029846191406 316.7 L 36.529029846191406 334.3" stroke-miterlimit="10" stroke-dasharray=""/></g><g><path fill="none" stroke="#000000" paint-order="fill stroke markers" d=" M 27.169029846191407 323.3 L 45.889029846191406 323.3" stroke-miterlimit="10" stroke-dasharray=""/></g><g><path fill="none" stroke="#000000" paint-order="fill stroke markers" d=" M 36.529029846191406 334.3 L 23.529029846191406 352" stroke-miterlimit="10" stroke-dasharray=""/></g><g><path fill="none" stroke="#000000" paint-order="fill stroke markers" d=" M 36.529029846191406 334.3 L 49.529029846191406 352" stroke-miterlimit="10" stroke-dasharray=""/></g><g><g><path fill="none" stroke="none"/><text fill="#000000" stroke="none" font-family="currentFont" font-size="13px" font-style="normal" font-weight="bold" text-decoration="undefined" x="91.0290298461914" y="388.5" text-anchor="middle" dominant-baseline="central" transform="matrix(1 0 0 1 -54 -22)">Utente</text></g></g><g><path fill="none" stroke="#000000" paint-order="fill stroke markers" d=" M 64 339 L 145 340" stroke-miterlimit="10" stroke-dasharray=""/></g><g><path fill="#ffffff" stroke="none" paint-order="stroke fill markers" d=" M 354 503.5 C 354 493.835016 434.3648784 486 533.5 486 C 632.6351216 486 713 493.835016 713 503.5 C 713 513.164984 632.6351216 521 533.5 521 C 434.3648784 521 354 513.164984 354 503.5 Z"/></g><g><path fill="none" stroke="#000000" paint-order="fill stroke markers" d=" M 354 503.5 C 354 493.835016 434.3648784 486 533.5 486 C 632.6351216 486 713 493.835016 713 503.5 C 713 513.164984 632.6351216 521 533.5 521 C 434.3648784 521 354 513.164984 354 503.5 Z" stroke-miterlimit="10" stroke-dasharray=""/></g><g><g><path fill="none" stroke="none"/><text fill="#000000" stroke="none" font-family="currentFont" font-size="13px" font-style="normal" font-weight="bold" text-decoration="undefined" x="587.5" y="526.5" text-anchor="middle" dominant-baseline="central" transform="matrix(1 0 0 1 -54 -22)">UC–12.5 Definizione livelli</text></g></g><g><path fill="none" stroke="#000000" paint-order="fill stroke markers" d=" M 282 361 L 501 485" stroke-miterlimit="10" stroke-dasharray="3"/></g><g><path fill="none" stroke="#000000" paint-order="fill stroke markers" d=" M 490.0824368933695 483.65582151008846 L 501 485 L 494.23059481861105 476.32963936792794" stroke-miterlimit="10" stroke-dasharray=""/></g><g><rect fill="#ffffff" stroke="none" x="430" y="412" width="58.26020812988281" height="13" transform="matrix(1 0 0 1 -54 -22)"/></g><g><g><path fill="none" stroke="none"/><text fill="#000000" stroke="none" font-family="currentFont" font-size="13px" font-style="normal" font-weight="normal" text-decoration="undefined" x="459.1301040649414" y="418.5" text-anchor="middle" dominant-baseline="central" transform="matrix(1 0 0 1 -54 -22)">«include»</text></g></g><g><path fill="#FFFFFF" stroke="none" paint-order="stroke fill markers" d=" M 162 605.5 C 162 595.835016 258.0349104 588 376.5 588 C 494.96508960000006 588 591 595.835016 591 605.5 C 591 615.164984 494.96508960000006 623 376.5 623 C 258.0349104 623 162 615.164984 162 605.5 Z"/></g><g><path fill="none" stroke="#000000" paint-order="fill stroke markers" d=" M 162 605.5 C 162 595.835016 258.0349104 588 376.5 588 C 494.96508960000006 588 591 595.835016 591 605.5 C 591 615.164984 494.96508960000006 623 376.5 623 C 258.0349104 623 162 615.164984 162 605.5 Z" stroke-miterlimit="10" stroke-dasharray=""/></g><g><g><path fill="none" stroke="none"/><text fill="#000000" stroke="none" font-family="currentFont" font-size="13px" font-style="normal" font-weight="bold" text-decoration="undefined" x="430.5" y="628.5" text-anchor="middle" dominant-baseline="central" transform="matrix(1 0 0 1 -54 -22)">UCy Collocamento della zona nello spazio 3D</text></g></g><g><path fill="none" stroke="#000000" paint-order="fill stroke markers" d=" M 257 361 L 367 587" stroke-miterlimit="10" stroke-dasharray="3"/></g><g><path fill="none" stroke="#000000" paint-order="fill stroke markers" d=" M 358.76742105789833 579.7044778142983 L 367 587 L 366.33740081319286 576.0199743935798" stroke-miterlimit="10" stroke-dasharray=""/></g><g><rect fill="#ffffff" stroke="none" x="363" y="476" width="58.26020812988281" height="13" transform="matrix(1 0 0 1 -54 -22)"/></g><g><g><path fill="none" stroke="none"/><text fill="#000000" stroke="none" font-family="currentFont" font-size="13px" font-style="normal" font-weight="normal" text-decoration="undefined" x="392.1301040649414" y="482.5" text-anchor="middle" dominant-baseline="central" transform="matrix(1 0 0 1 -54 -22)">«include»</text></g></g></g></svg>