<svg version="1.1" xmlns="http://www.w3.org/2000/svg" xmlns:xlink="http://www.w3.org/1999/xlink" width="1293" height="564"><defs/><g><g><rect fill="#ffffff" stroke="none" x="176" y="56" width="1168" height="544" transform="matrix(1 0 0 1 -62 -46)"/></g><g><path fill="none" stroke="#000000" paint-order="fill stroke markers" d=" M 114 10 L 1282 10 L 1282 554 L 114 554 L 114 10 Z Z" stroke-miterlimit="10" stroke-dasharray=""/></g><g><g><path fill="none" stroke="none"/><text fill="#000000" stroke="none" font-family="currentFont" font-size="13px" font-style="normal" font-weight="bold" text-decoration="undefined" x="760.5" y="69.5" text-anchor="middle" dominant-baseline="central" transform="matrix(1 0 0 1 -62 -46)">UC–12.4</text></g></g><g><path fill="#FFFFFF" stroke="none" paint-order="stroke fill markers" d=" M 170 91.5 C 170 81.835016 254.17045759999996 74 358 74 C 461.82954240000004 74 546 81.835016 546 91.5 C 546 101.164984 461.82954240000004 109 358 109 C 254.17045759999996 109 170 101.164984 170 91.5 Z"/></g><g><path fill="none" stroke="#000000" paint-order="fill stroke markers" d=" M 170 91.5 C 170 81.835016 254.17045759999996 74 358 74 C 461.82954240000004 74 546 81.835016 546 91.5 C 546 101.164984 461.82954240000004 109 358 109 C 254.17045759999996 109 170 101.164984 170 91.5 Z" stroke-miterlimit="10" stroke-dasharray=""/></g><g><g><path fill="none" stroke="none"/><text fill="#000000" stroke="none" font-family="currentFont" font-size="13px" font-style="normal" font-weight="bold" text-decoration="undefined" x="420" y="138.5" text-anchor="middle" dominant-baseline="central" transform="matrix(1 0 0 1 -62 -46)">UC–12.4.1 Definizione numero colonne</text></g></g><g><path fill="#FFFFFF" stroke="none" paint-order="stroke fill markers" d=" M 170 340.5 C 170 330.835016 254.17045759999996 323 358 323 C 461.82954240000004 323 546 330.835016 546 340.5 C 546 350.164984 461.82954240000004 358 358 358 C 254.17045759999996 358 170 350.164984 170 340.5 Z"/></g><g><path fill="none" stroke="#000000" paint-order="fill stroke markers" d=" M 170 340.5 C 170 330.835016 254.17045759999996 323 358 323 C 461.82954240000004 323 546 330.835016 546 340.5 C 546 350.164984 461.82954240000004 358 358 358 C 254.17045759999996 358 170 350.164984 170 340.5 Z" stroke-miterlimit="10" stroke-dasharray=""/></g><g><g><path fill="none" stroke="none"/><text fill="#000000" stroke="none" font-family="currentFont" font-size="13px" font-style="normal" font-weight="bold" text-decoration="undefined" x="420" y="387.5" text-anchor="middle" dominant-baseline="central" transform="matrix(1 0 0 1 -62 -46)">UC–12.4.2 Definizione larghezza colonne</text></g></g><g><path fill="#FFFFFF" stroke="none" paint-order="stroke fill markers" d=" M 298 212.5 C 298 197.8644528 391.1247616 186 506 186 C 620.8752384 186 714 197.8644528 714 212.5 C 714 227.13554720000002 620.8752384 239 506 239 C 391.1247616 239 298 227.13554720000002 298 212.5 Z"/></g><g><path fill="none" stroke="#000000" paint-order="fill stroke markers" d=" M 298 212.5 C 298 197.8644528 391.1247616 186 506 186 C 620.8752384 186 714 197.8644528 714 212.5 C 714 227.13554720000002 620.8752384 239 506 239 C 391.1247616 239 298 227.13554720000002 298 212.5 Z" stroke-miterlimit="10" stroke-dasharray=""/></g><g><g><path fill="none" stroke="none"/><text fill="#000000" stroke="none" font-family="currentFont" font-size="13px" font-style="normal" font-weight="bold" text-decoration="undefined" x="568" y="253" text-anchor="middle" dominant-baseline="central" transform="matrix(1 0 0 1 -62 -46)">UC–12.4.2.1 Definizione larghezza colonne</text><text fill="#000000" stroke="none" font-family="currentFont" font-size="13px" font-style="normal" font-weight="bold" text-decoration="undefined" x="568" y="266" text-anchor="middle" dominant-baseline="central" transform="matrix(1 0 0 1 -62 -46)">tramite equa distribuzione</text></g></g><g><path fill="#FFFFFF" stroke="none" paint-order="stroke fill markers" d=" M 298 472.5 C 298 457.8644528 391.1247616 446 506 446 C 620.8752384 446 714 457.8644528 714 472.5 C 714 487.1355472 620.8752384 499 506 499 C 391.1247616 499 298 487.1355472 298 472.5 Z"/></g><g><path fill="none" stroke="#000000" paint-order="fill stroke markers" d=" M 298 472.5 C 298 457.8644528 391.1247616 446 506 446 C 620.8752384 446 714 457.8644528 714 472.5 C 714 487.1355472 620.8752384 499 506 499 C 391.1247616 499 298 487.1355472 298 472.5 Z" stroke-miterlimit="10" stroke-dasharray=""/></g><g><g><path fill="none" stroke="none"/><text fill="#000000" stroke="none" font-family="currentFont" font-size="13px" font-style="normal" font-weight="bold" text-decoration="undefined" x="568" y="513" text-anchor="middle" dominant-baseline="central" transform="matrix(1 0 0 1 -62 -46)">UC–12.4.2.2 Definizione larghezza</text><text fill="#000000" stroke="none" font-family="currentFont" font-size="13px" font-style="normal" font-weight="bold" text-decoration="undefined" x="568" y="526" text-anchor="middle" dominant-baseline="central" transform="matrix(1 0 0 1 -62 -46)">personalizzata delle colonne</text></g></g><g><path fill="#FFFFFF" stroke="none" paint-order="stroke fill markers" d=" M 796 212.5 C 796 202.835016 891.8110528 195 1010 195 C 1128.1889472 195 1224 202.835016 1224 212.5 C 1224 222.164984 1128.1889472 230 1010 230 C 891.8110528 230 796 222.164984 796 212.5 Z"/></g><g><path fill="none" stroke="#000000" paint-order="fill stroke markers" d=" M 796 212.5 C 796 202.835016 891.8110528 195 1010 195 C 1128.1889472 195 1224 202.835016 1224 212.5 C 1224 222.164984 1128.1889472 230 1010 230 C 891.8110528 230 796 222.164984 796 212.5 Z" stroke-miterlimit="10" stroke-dasharray=""/></g><g><g><path fill="none" stroke="none"/><text fill="#000000" stroke="none" font-family="currentFont" font-size="13px" font-style="normal" font-weight="bold" text-decoration="undefined" x="1072" y="259.5" text-anchor="middle" dominant-baseline="central" transform="matrix(1 0 0 1 -62 -46)">UC–12.4.2.1.1 Definizione larghezza zona</text></g></g><g><path fill="#FFFFFF" stroke="none" paint-order="stroke fill markers" d=" M 796 472.5 C 796 457.8644528 891.8110528 446 1010 446 C 1128.1889472 446 1224 457.8644528 1224 472.5 C 1224 487.1355472 1128.1889472 499 1010 499 C 891.8110528 499 796 487.1355472 796 472.5 Z"/></g><g><path fill="none" stroke="#000000" paint-order="fill stroke markers" d=" M 796 472.5 C 796 457.8644528 891.8110528 446 1010 446 C 1128.1889472 446 1224 457.8644528 1224 472.5 C 1224 487.1355472 1128.1889472 499 1010 499 C 891.8110528 499 796 487.1355472 796 472.5 Z" stroke-miterlimit="10" stroke-dasharray=""/></g><g><g><path fill="none" stroke="none"/><text fill="#000000" stroke="none" font-family="currentFont" font-size="13px" font-style="normal" font-weight="bold" text-decoration="undefined" x="1072" y="519.5" text-anchor="middle" dominant-baseline="central" transform="matrix(1 0 0 1 -62 -46)">UC–12.4.2.2.1 Definizione larghezza colonna</text></g></g><g><path fill="#FFFFFF" stroke="none" paint-order="stroke fill markers" d=" M 834 340.5 C 834 325.8644528 912.7978752 314 1010 314 C 1107.2021248 314 1186 325.8644528 1186 340.5 C 1186 355.1355472 1107.2021248 367 1010 367 C 912.7978752 367 834 355.1355472 834 340.5 Z"/></g><g><path fill="none" stroke="#000000" paint-order="fill stroke markers" d=" M 834 340.5 C 834 325.8644528 912.7978752 314 1010 314 C 1107.2021248 314 1186 325.8644528 1186 340.5 C 1186 355.1355472 1107.2021248 367 1010 367 C 912.7978752 367 834 355.1355472 834 340.5 Z" stroke-miterlimit="10" stroke-dasharray=""/></g><g><g><path fill="none" stroke="none"/><text fill="#000000" stroke="none" font-family="currentFont" font-size="13px" font-style="normal" font-weight="bold" text-decoration="undefined" x="1072" y="381" text-anchor="middle" dominant-baseline="central" transform="matrix(1 0 0 1 -62 -46)">UC–12.4.3 Visualizzazione errore</text><text fill="#000000" stroke="none" font-family="currentFont" font-size="13px" font-style="normal" font-weight="bold" text-decoration="undefined" x="1072" y="394" text-anchor="middle" dominant-baseline="central" transform="matrix(1 0 0 1 -62 -46)">larghezza non positiva</text></g></g><g><path fill="none" stroke="#000000" paint-order="fill stroke markers" d=" M 474 240 L 379 322" stroke-miterlimit="10" stroke-dasharray=""/></g><g><path fill="#FFFFFF" stroke="none" paint-order="stroke fill markers" d=" M 388.8852314038153 302.34593680449194 L 379 322 L 399.8874355226487 315.09239279582334"/></g><g><path fill="none" stroke="#000000" paint-order="fill stroke markers" d=" M 388.8852314038153 302.34593680449194 L 379 322 L 399.8874355226487 315.09239279582334 L 388.8852314038153 302.34593680449194" stroke-miterlimit="10" stroke-dasharray=""/></g><g><path fill="none" stroke="#000000" paint-order="fill stroke markers" d=" M 476 445 L 379 359" stroke-miterlimit="10" stroke-dasharray=""/></g><g><path fill="#FFFFFF" stroke="none" paint-order="stroke fill markers" d=" M 399.79388036801225 366.184325941993 L 379 359 L 388.6234082235656 378.783579407241"/></g><g><path fill="none" stroke="#000000" paint-order="fill stroke markers" d=" M 399.79388036801225 366.184325941993 L 379 359 L 388.6234082235656 378.783579407241 L 399.79388036801225 366.184325941993" stroke-miterlimit="10" stroke-dasharray=""/></g><g><path fill="none" stroke="#000000" paint-order="fill stroke markers" d=" M 715 212 L 795 212" stroke-miterlimit="10" stroke-dasharray="3"/></g><g><path fill="none" stroke="#000000" paint-order="fill stroke markers" d=" M 784.8373251423759 216.209517756016 L 795 212 L 784.8373251423758 207.790482243984" stroke-miterlimit="10" stroke-dasharray=""/></g><g><rect fill="#ffffff" stroke="none" x="784" y="232" width="58.26020812988281" height="13" transform="matrix(1 0 0 1 -62 -46)"/></g><g><g><path fill="none" stroke="none"/><text fill="#000000" stroke="none" font-family="currentFont" font-size="13px" font-style="normal" font-weight="normal" text-decoration="undefined" x="813.1301040649414" y="238.5" text-anchor="middle" dominant-baseline="central" transform="matrix(1 0 0 1 -62 -46)">«include»</text></g></g><g><path fill="none" stroke="#000000" paint-order="fill stroke markers" d=" M 715 472 L 795 472" stroke-miterlimit="10" stroke-dasharray="3"/></g><g><path fill="none" stroke="#000000" paint-order="fill stroke markers" d=" M 784.8373251423759 476.209517756016 L 795 472 L 784.8373251423758 467.790482243984" stroke-miterlimit="10" stroke-dasharray=""/></g><g><rect fill="#ffffff" stroke="none" x="785" y="487" width="58.26020812988281" height="13" transform="matrix(1 0 0 1 -62 -46)"/></g><g><g><path fill="none" stroke="none"/><text fill="#000000" stroke="none" font-family="currentFont" font-size="13px" font-style="normal" font-weight="normal" text-decoration="undefined" x="814.1301040649414" y="493.5" text-anchor="middle" dominant-baseline="central" transform="matrix(1 0 0 1 -62 -46)">«include»</text></g></g><g><path fill="none" stroke="#000000" paint-order="fill stroke markers" d=" M 1010 313 L 1010 231" stroke-miterlimit="10" stroke-dasharray="3"/></g><g><path fill="none" stroke="#000000" paint-order="fill stroke markers" d=" M 1014.2095177560159 241.16267485762415 L 1010 231 L 1005.7904822439841 241.16267485762415" stroke-miterlimit="10" stroke-dasharray=""/></g><g><rect fill="#ffffff" stroke="none" x="1008" y="311" width="56.33973693847656" height="13" transform="matrix(1 0 0 1 -62 -46)"/></g><g><g><path fill="none" stroke="none"/><text fill="#000000" stroke="none" font-family="currentFont" font-size="13px" font-style="normal" font-weight="normal" text-decoration="undefined" x="1036.1698684692383" y="317.5" text-anchor="middle" dominant-baseline="central" transform="matrix(1 0 0 1 -62 -46)">«extend»</text></g></g><g><path fill="none" stroke="#000000" paint-order="fill stroke markers" d=" M 1010 368 L 1010 445" stroke-miterlimit="10" stroke-dasharray="3"/></g><g><path fill="none" stroke="#000000" paint-order="fill stroke markers" d=" M 1005.7904822439841 434.83732514237585 L 1010 445 L 1014.2095177560159 434.83732514237585" stroke-miterlimit="10" stroke-dasharray=""/></g><g><rect fill="#ffffff" stroke="none" x="1081" y="445" width="56.33973693847656" height="13" transform="matrix(1 0 0 1 -62 -46)"/></g><g><g><path fill="none" stroke="none"/><text fill="#000000" stroke="none" font-family="currentFont" font-size="13px" font-style="normal" font-weight="normal" text-decoration="undefined" x="1109.1698684692383" y="451.5" text-anchor="middle" dominant-baseline="central" transform="matrix(1 0 0 1 -62 -46)">«extend»</text></g></g><g><path fill="#ffffff" stroke="none" paint-order="stroke fill markers" d=" M 27.689029846191403 179.85 C 27.689029846191403 174.96227952 31.646832214191406 171 36.529029846191406 171 C 41.41122747819141 171 45.36902984619141 174.96227952 45.36902984619141 179.85 C 45.36902984619141 184.73772047999998 41.41122747819141 188.7 36.529029846191406 188.7 C 31.646832214191406 188.7 27.689029846191403 184.73772047999998 27.689029846191403 179.85 Z"/></g><g><path fill="none" stroke="#000000" paint-order="fill stroke markers" d=" M 27.689029846191403 179.85 C 27.689029846191403 174.96227952 31.646832214191406 171 36.529029846191406 171 C 41.41122747819141 171 45.36902984619141 174.96227952 45.36902984619141 179.85 C 45.36902984619141 184.73772047999998 41.41122747819141 188.7 36.529029846191406 188.7 C 31.646832214191406 188.7 27.689029846191403 184.73772047999998 27.689029846191403 179.85 Z" stroke-miterlimit="10" stroke-dasharray=""/></g><g><path fill="none" stroke="#000000" paint-order="fill stroke markers" d=" M 36.529029846191406 188.7 L 36.529029846191406 206.3" stroke-miterlimit="10" stroke-dasharray=""/></g><g><path fill="none" stroke="#000000" paint-order="fill stroke markers" d=" M 27.169029846191407 195.3 L 45.889029846191406 195.3" stroke-miterlimit="10" stroke-dasharray=""/></g><g><path fill="none" stroke="#000000" paint-order="fill stroke markers" d=" M 36.529029846191406 206.3 L 23.529029846191406 224" stroke-miterlimit="10" stroke-dasharray=""/></g><g><path fill="none" stroke="#000000" paint-order="fill stroke markers" d=" M 36.529029846191406 206.3 L 49.529029846191406 224" stroke-miterlimit="10" stroke-dasharray=""/></g><g><g><path fill="none" stroke="none"/><text fill="#000000" stroke="none" font-family="currentFont" font-size="13px" font-style="normal" font-weight="bold" text-decoration="undefined" x="99.0290298461914" y="284.5" text-anchor="middle" dominant-baseline="central" transform="matrix(1 0 0 1 -62 -46)">Utente</text></g></g><g><path fill="none" stroke="#000000" paint-order="fill stroke markers" d=" M 307 110 L 64 200" stroke-miterlimit="10" stroke-dasharray=""/></g><g><path fill="none" stroke="#000000" paint-order="fill stroke markers" d=" M 313 322 L 64 221" stroke-miterlimit="10" stroke-dasharray=""/></g><g><path fill="#ffffff" stroke="none" paint-order="stroke fill markers" d=" M 686 91.5 C 686 81.835016 806.4353888 74 955 74 C 1103.5646112 74 1224 81.835016 1224 91.5 C 1224 101.164984 1103.5646112 109 955 109 C 806.4353888 109 686 101.164984 686 91.5 Z"/></g><g><path fill="none" stroke="#000000" paint-order="fill stroke markers" d=" M 686 91.5 C 686 81.835016 806.4353888 74 955 74 C 1103.5646112 74 1224 81.835016 1224 91.5 C 1224 101.164984 1103.5646112 109 955 109 C 806.4353888 109 686 101.164984 686 91.5 Z" stroke-miterlimit="10" stroke-dasharray=""/></g><g><g><path fill="none" stroke="none"/><text fill="#000000" stroke="none" font-family="currentFont" font-size="13px" font-style="normal" font-weight="bold" text-decoration="undefined" x="1017" y="138.5" text-anchor="middle" dominant-baseline="central" transform="matrix(1 0 0 1 -62 -46)">UC–12.4.1.1 Visualizzazione errore numero colonne non conforme</text></g></g><g><path fill="none" stroke="#000000" paint-order="fill stroke markers" d=" M 685 91 L 547 91" stroke-miterlimit="10" stroke-dasharray="3"/></g><g><path fill="none" stroke="#000000" paint-order="fill stroke markers" d=" M 557.1626748576241 86.790482243984 L 547 91 L 557.1626748576241 95.209517756016" stroke-miterlimit="10" stroke-dasharray=""/></g><g><rect fill="#ffffff" stroke="none" x="651" y="152" width="53.49169921875" height="13" transform="matrix(1 0 0 1 -62 -46)"/></g><g><g><path fill="none" stroke="none"/><text fill="#000000" stroke="none" font-family="currentFont" font-size="13px" font-style="normal" font-weight="normal" text-decoration="undefined" x="677.745849609375" y="158.5" text-anchor="middle" dominant-baseline="central" transform="matrix(1 0 0 1 -62 -46)">«extend»</text></g></g></g></svg>