<svg version="1.1" xmlns="http://www.w3.org/2000/svg" xmlns:xlink="http://www.w3.org/1999/xlink" width="1293" height="548"><defs/><g><g><rect fill="#ffffff" stroke="none" x="176" y="72" width="1168" height="528" transform="matrix(1 0 0 1 -62 -62)"/></g><g><path fill="none" stroke="#000000" paint-order="fill stroke markers" d=" M 114 10 L 1282 10 L 1282 538 L 114 538 L 114 10 Z Z" stroke-miterlimit="10" stroke-dasharray=""/></g><g><g><path fill="none" stroke="none"/><text fill="#000000" stroke="none" font-family="currentFont" font-size="13px" font-style="normal" font-weight="bold" text-decoration="undefined" x="760.5" y="85.5" text-anchor="middle" dominant-baseline="central" transform="matrix(1 0 0 1 -62 -62)">UC–12.4</text></g></g><g><path fill="#FFFFFF" stroke="none" paint-order="stroke fill markers" d=" M 170 75.5 C 170 65.835016 254.17045759999996 58 358 58 C 461.82954240000004 58 546 65.835016 546 75.5 C 546 85.164984 461.82954240000004 93 358 93 C 254.17045759999996 93 170 85.164984 170 75.5 Z"/></g><g><path fill="none" stroke="#000000" paint-order="fill stroke markers" d=" M 170 75.5 C 170 65.835016 254.17045759999996 58 358 58 C 461.82954240000004 58 546 65.835016 546 75.5 C 546 85.164984 461.82954240000004 93 358 93 C 254.17045759999996 93 170 85.164984 170 75.5 Z" stroke-miterlimit="10" stroke-dasharray=""/></g><g><g><path fill="none" stroke="none"/><text fill="#000000" stroke="none" font-family="currentFont" font-size="13px" font-style="normal" font-weight="bold" text-decoration="undefined" x="420" y="138.5" text-anchor="middle" dominant-baseline="central" transform="matrix(1 0 0 1 -62 -62)">UC–12.4.1 Definizione numero colonne</text></g></g><g><path fill="#FFFFFF" stroke="none" paint-order="stroke fill markers" d=" M 170 324.5 C 170 314.835016 254.17045759999996 307 358 307 C 461.82954240000004 307 546 314.835016 546 324.5 C 546 334.164984 461.82954240000004 342 358 342 C 254.17045759999996 342 170 334.164984 170 324.5 Z"/></g><g><path fill="none" stroke="#000000" paint-order="fill stroke markers" d=" M 170 324.5 C 170 314.835016 254.17045759999996 307 358 307 C 461.82954240000004 307 546 314.835016 546 324.5 C 546 334.164984 461.82954240000004 342 358 342 C 254.17045759999996 342 170 334.164984 170 324.5 Z" stroke-miterlimit="10" stroke-dasharray=""/></g><g><g><path fill="none" stroke="none"/><text fill="#000000" stroke="none" font-family="currentFont" font-size="13px" font-style="normal" font-weight="bold" text-decoration="undefined" x="420" y="387.5" text-anchor="middle" dominant-baseline="central" transform="matrix(1 0 0 1 -62 -62)">UC–12.4.2 Definizione larghezza colonne</text></g></g><g><path fill="#FFFFFF" stroke="none" paint-order="stroke fill markers" d=" M 298 196.5 C 298 181.8644528 391.1247616 170 506 170 C 620.8752384 170 714 181.8644528 714 196.5 C 714 211.13554720000002 620.8752384 223 506 223 C 391.1247616 223 298 211.13554720000002 298 196.5 Z"/></g><g><path fill="none" stroke="#000000" paint-order="fill stroke markers" d=" M 298 196.5 C 298 181.8644528 391.1247616 170 506 170 C 620.8752384 170 714 181.8644528 714 196.5 C 714 211.13554720000002 620.8752384 223 506 223 C 391.1247616 223 298 211.13554720000002 298 196.5 Z" stroke-miterlimit="10" stroke-dasharray=""/></g><g><g><path fill="none" stroke="none"/><text fill="#000000" stroke="none" font-family="currentFont" font-size="13px" font-style="normal" font-weight="bold" text-decoration="undefined" x="568" y="253" text-anchor="middle" dominant-baseline="central" transform="matrix(1 0 0 1 -62 -62)">UC–12.4.2.1 Definizione larghezza colonne</text><text fill="#000000" stroke="none" font-family="currentFont" font-size="13px" font-style="normal" font-weight="bold" text-decoration="undefined" x="568" y="266" text-anchor="middle" dominant-baseline="central" transform="matrix(1 0 0 1 -62 -62)">tramite equa distribuzione</text></g></g><g><path fill="#FFFFFF" stroke="none" paint-order="stroke fill markers" d=" M 298 456.5 C 298 441.8644528 391.1247616 430 506 430 C 620.8752384 430 714 441.8644528 714 456.5 C 714 471.1355472 620.8752384 483 506 483 C 391.1247616 483 298 471.1355472 298 456.5 Z"/></g><g><path fill="none" stroke="#000000" paint-order="fill stroke markers" d=" M 298 456.5 C 298 441.8644528 391.1247616 430 506 430 C 620.8752384 430 714 441.8644528 714 456.5 C 714 471.1355472 620.8752384 483 506 483 C 391.1247616 483 298 471.1355472 298 456.5 Z" stroke-miterlimit="10" stroke-dasharray=""/></g><g><g><path fill="none" stroke="none"/><text fill="#000000" stroke="none" font-family="currentFont" font-size="13px" font-style="normal" font-weight="bold" text-decoration="undefined" x="568" y="513" text-anchor="middle" dominant-baseline="central" transform="matrix(1 0 0 1 -62 -62)">UC–12.4.2.2 Definizione larghezza colonne</text><text fill="#000000" stroke="none" font-family="currentFont" font-size="13px" font-style="normal" font-weight="bold" text-decoration="undefined" x="568" y="526" text-anchor="middle" dominant-baseline="central" transform="matrix(1 0 0 1 -62 -62)">personalizzata</text></g></g><g><path fill="#FFFFFF" stroke="none" paint-order="stroke fill markers" d=" M 795 195.5 C 795 185.835016 890.8110528 178 1009 178 C 1127.1889472 178 1223 185.835016 1223 195.5 C 1223 205.164984 1127.1889472 213 1009 213 C 890.8110528 213 795 205.164984 795 195.5 Z"/></g><g><path fill="none" stroke="#000000" paint-order="fill stroke markers" d=" M 795 195.5 C 795 185.835016 890.8110528 178 1009 178 C 1127.1889472 178 1223 185.835016 1223 195.5 C 1223 205.164984 1127.1889472 213 1009 213 C 890.8110528 213 795 205.164984 795 195.5 Z" stroke-miterlimit="10" stroke-dasharray=""/></g><g><g><path fill="none" stroke="none"/><text fill="#000000" stroke="none" font-family="currentFont" font-size="13px" font-style="normal" font-weight="bold" text-decoration="undefined" x="1071" y="258.5" text-anchor="middle" dominant-baseline="central" transform="matrix(1 0 0 1 -62 -62)">UC–12.4.2.1.1 Definizione larghezza zona</text></g></g><g><path fill="#FFFFFF" stroke="none" paint-order="stroke fill markers" d=" M 795 456.5 C 795 441.8644528 890.8110528 430 1009 430 C 1127.1889472 430 1223 441.8644528 1223 456.5 C 1223 471.1355472 1127.1889472 483 1009 483 C 890.8110528 483 795 471.1355472 795 456.5 Z"/></g><g><path fill="none" stroke="#000000" paint-order="fill stroke markers" d=" M 795 456.5 C 795 441.8644528 890.8110528 430 1009 430 C 1127.1889472 430 1223 441.8644528 1223 456.5 C 1223 471.1355472 1127.1889472 483 1009 483 C 890.8110528 483 795 471.1355472 795 456.5 Z" stroke-miterlimit="10" stroke-dasharray=""/></g><g><g><path fill="none" stroke="none"/><text fill="#000000" stroke="none" font-family="currentFont" font-size="13px" font-style="normal" font-weight="bold" text-decoration="undefined" x="1071" y="513" text-anchor="middle" dominant-baseline="central" transform="matrix(1 0 0 1 -62 -62)">UC–12.4.2.2.1 Definizione larghezza singola</text><text fill="#000000" stroke="none" font-family="currentFont" font-size="13px" font-style="normal" font-weight="bold" text-decoration="undefined" x="1071" y="526" text-anchor="middle" dominant-baseline="central" transform="matrix(1 0 0 1 -62 -62)">colonna</text></g></g><g><path fill="#FFFFFF" stroke="none" paint-order="stroke fill markers" d=" M 833 324.5 C 833 309.8644528 911.7978752 298 1009 298 C 1106.2021248 298 1185 309.8644528 1185 324.5 C 1185 339.1355472 1106.2021248 351 1009 351 C 911.7978752 351 833 339.1355472 833 324.5 Z"/></g><g><path fill="none" stroke="#000000" paint-order="fill stroke markers" d=" M 833 324.5 C 833 309.8644528 911.7978752 298 1009 298 C 1106.2021248 298 1185 309.8644528 1185 324.5 C 1185 339.1355472 1106.2021248 351 1009 351 C 911.7978752 351 833 339.1355472 833 324.5 Z" stroke-miterlimit="10" stroke-dasharray=""/></g><g><g><path fill="none" stroke="none"/><text fill="#000000" stroke="none" font-family="currentFont" font-size="13px" font-style="normal" font-weight="bold" text-decoration="undefined" x="1071" y="381" text-anchor="middle" dominant-baseline="central" transform="matrix(1 0 0 1 -62 -62)">UC–12.4.3 Visualizzazione errore</text><text fill="#000000" stroke="none" font-family="currentFont" font-size="13px" font-style="normal" font-weight="bold" text-decoration="undefined" x="1071" y="394" text-anchor="middle" dominant-baseline="central" transform="matrix(1 0 0 1 -62 -62)">larghezza non positiva</text></g></g><g><path fill="none" stroke="#000000" paint-order="fill stroke markers" d=" M 474 224 L 379 306" stroke-miterlimit="10" stroke-dasharray=""/></g><g><path fill="#FFFFFF" stroke="none" paint-order="stroke fill markers" d=" M 388.8852314038153 286.34593680449194 L 379 306 L 399.8874355226487 299.09239279582334"/></g><g><path fill="none" stroke="#000000" paint-order="fill stroke markers" d=" M 388.8852314038153 286.34593680449194 L 379 306 L 399.8874355226487 299.09239279582334 L 388.8852314038153 286.34593680449194" stroke-miterlimit="10" stroke-dasharray=""/></g><g><path fill="none" stroke="#000000" paint-order="fill stroke markers" d=" M 476 429 L 379 343" stroke-miterlimit="10" stroke-dasharray=""/></g><g><path fill="#FFFFFF" stroke="none" paint-order="stroke fill markers" d=" M 399.79388036801225 350.184325941993 L 379 343 L 388.6234082235656 362.783579407241"/></g><g><path fill="none" stroke="#000000" paint-order="fill stroke markers" d=" M 399.79388036801225 350.184325941993 L 379 343 L 388.6234082235656 362.783579407241 L 399.79388036801225 350.184325941993" stroke-miterlimit="10" stroke-dasharray=""/></g><g><path fill="none" stroke="#000000" paint-order="fill stroke markers" d=" M 715 196 L 794 195" stroke-miterlimit="10" stroke-dasharray="3"/></g><g><path fill="none" stroke="#000000" paint-order="fill stroke markers" d=" M 783.8914199974118 199.33781169845747 L 794 195 L 783.7848584645136 190.91945059949282" stroke-miterlimit="10" stroke-dasharray=""/></g><g><rect fill="#ffffff" stroke="none" x="787" y="221" width="58.26020812988281" height="13" transform="matrix(1 0 0 1 -62 -62)"/></g><g><g><path fill="none" stroke="none"/><text fill="#000000" stroke="none" font-family="currentFont" font-size="13px" font-style="normal" font-weight="normal" text-decoration="undefined" x="816.1301040649414" y="227.5" text-anchor="middle" dominant-baseline="central" transform="matrix(1 0 0 1 -62 -62)">«include»</text></g></g><g><path fill="none" stroke="#000000" paint-order="fill stroke markers" d=" M 715 456 L 794 456" stroke-miterlimit="10" stroke-dasharray="3"/></g><g><path fill="none" stroke="#000000" paint-order="fill stroke markers" d=" M 783.8373251423759 460.209517756016 L 794 456 L 783.8373251423758 451.790482243984" stroke-miterlimit="10" stroke-dasharray=""/></g><g><rect fill="#ffffff" stroke="none" x="787" y="482" width="58.26020812988281" height="13" transform="matrix(1 0 0 1 -62 -62)"/></g><g><g><path fill="none" stroke="none"/><text fill="#000000" stroke="none" font-family="currentFont" font-size="13px" font-style="normal" font-weight="normal" text-decoration="undefined" x="816.1301040649414" y="488.5" text-anchor="middle" dominant-baseline="central" transform="matrix(1 0 0 1 -62 -62)">«include»</text></g></g><g><path fill="none" stroke="#000000" paint-order="fill stroke markers" d=" M 1009 297 L 1009 214" stroke-miterlimit="10" stroke-dasharray="3"/></g><g><path fill="none" stroke="#000000" paint-order="fill stroke markers" d=" M 1013.2095177560159 224.16267485762415 L 1009 214 L 1004.7904822439841 224.16267485762415" stroke-miterlimit="10" stroke-dasharray=""/></g><g><rect fill="#ffffff" stroke="none" x="1007" y="310" width="56.33973693847656" height="13" transform="matrix(1 0 0 1 -62 -62)"/></g><g><g><path fill="none" stroke="none"/><text fill="#000000" stroke="none" font-family="currentFont" font-size="13px" font-style="normal" font-weight="normal" text-decoration="undefined" x="1035.1698684692383" y="316.5" text-anchor="middle" dominant-baseline="central" transform="matrix(1 0 0 1 -62 -62)">«extend»</text></g></g><g><path fill="none" stroke="#000000" paint-order="fill stroke markers" d=" M 1009 352 L 1009 429" stroke-miterlimit="10" stroke-dasharray="3"/></g><g><path fill="none" stroke="#000000" paint-order="fill stroke markers" d=" M 1004.7904822439841 418.83732514237585 L 1009 429 L 1013.2095177560159 418.83732514237585" stroke-miterlimit="10" stroke-dasharray=""/></g><g><rect fill="#ffffff" stroke="none" x="1080" y="445" width="56.33973693847656" height="13" transform="matrix(1 0 0 1 -62 -62)"/></g><g><g><path fill="none" stroke="none"/><text fill="#000000" stroke="none" font-family="currentFont" font-size="13px" font-style="normal" font-weight="normal" text-decoration="undefined" x="1108.1698684692383" y="451.5" text-anchor="middle" dominant-baseline="central" transform="matrix(1 0 0 1 -62 -62)">«extend»</text></g></g><g><path fill="#ffffff" stroke="none" paint-order="stroke fill markers" d=" M 27.689029846191403 163.85 C 27.689029846191403 158.96227952 31.646832214191406 155 36.529029846191406 155 C 41.41122747819141 155 45.36902984619141 158.96227952 45.36902984619141 163.85 C 45.36902984619141 168.73772047999998 41.41122747819141 172.7 36.529029846191406 172.7 C 31.646832214191406 172.7 27.689029846191403 168.73772047999998 27.689029846191403 163.85 Z"/></g><g><path fill="none" stroke="#000000" paint-order="fill stroke markers" d=" M 27.689029846191403 163.85 C 27.689029846191403 158.96227952 31.646832214191406 155 36.529029846191406 155 C 41.41122747819141 155 45.36902984619141 158.96227952 45.36902984619141 163.85 C 45.36902984619141 168.73772047999998 41.41122747819141 172.7 36.529029846191406 172.7 C 31.646832214191406 172.7 27.689029846191403 168.73772047999998 27.689029846191403 163.85 Z" stroke-miterlimit="10" stroke-dasharray=""/></g><g><path fill="none" stroke="#000000" paint-order="fill stroke markers" d=" M 36.529029846191406 172.7 L 36.529029846191406 190.3" stroke-miterlimit="10" stroke-dasharray=""/></g><g><path fill="none" stroke="#000000" paint-order="fill stroke markers" d=" M 27.169029846191407 179.3 L 45.889029846191406 179.3" stroke-miterlimit="10" stroke-dasharray=""/></g><g><path fill="none" stroke="#000000" paint-order="fill stroke markers" d=" M 36.529029846191406 190.3 L 23.529029846191406 208" stroke-miterlimit="10" stroke-dasharray=""/></g><g><path fill="none" stroke="#000000" paint-order="fill stroke markers" d=" M 36.529029846191406 190.3 L 49.529029846191406 208" stroke-miterlimit="10" stroke-dasharray=""/></g><g><g><path fill="none" stroke="none"/><text fill="#000000" stroke="none" font-family="currentFont" font-size="13px" font-style="normal" font-weight="bold" text-decoration="undefined" x="99.0290298461914" y="284.5" text-anchor="middle" dominant-baseline="central" transform="matrix(1 0 0 1 -62 -62)">Utente</text></g></g><g><path fill="none" stroke="#000000" paint-order="fill stroke markers" d=" M 307 94 L 64 184" stroke-miterlimit="10" stroke-dasharray=""/></g><g><path fill="none" stroke="#000000" paint-order="fill stroke markers" d=" M 313 306 L 64 205" stroke-miterlimit="10" stroke-dasharray=""/></g></g></svg>