<svg version="1.1" xmlns="http://www.w3.org/2000/svg" xmlns:xlink="http://www.w3.org/1999/xlink" width="1333" height="740"><defs/><g><g><rect fill="#ffffff" stroke="none" x="248" y="88" width="1216" height="720" transform="matrix(1 0 0 1 -142 -78)"/></g><g><path fill="none" stroke="#000000" paint-order="fill stroke markers" d=" M 106 10 L 1322 10 L 1322 730 L 106 730 L 106 10 Z Z" stroke-miterlimit="10" stroke-dasharray=""/></g><g><g><path fill="none" stroke="none"/><text fill="#000000" stroke="none" font-family="currentFont" font-size="13px" font-style="normal" font-weight="bold" text-decoration="undefined" x="856.5" y="101.5" text-anchor="middle" dominant-baseline="central" transform="matrix(1 0 0 1 -142 -78)">WMS3</text></g></g><g><path fill="#FFFFFF" stroke="none" paint-order="stroke fill markers" d=" M 402 179.5 C 402 169.835016 482.36487839999995 162 581.5 162 C 680.6351216 162 761 169.835016 761 179.5 C 761 189.164984 680.6351216 197 581.5 197 C 482.36487839999995 197 402 189.164984 402 179.5 Z"/></g><g><path fill="none" stroke="#000000" paint-order="fill stroke markers" d=" M 402 179.5 C 402 169.835016 482.36487839999995 162 581.5 162 C 680.6351216 162 761 169.835016 761 179.5 C 761 189.164984 680.6351216 197 581.5 197 C 482.36487839999995 197 402 189.164984 402 179.5 Z" stroke-miterlimit="10" stroke-dasharray=""/></g><g><g><path fill="none" stroke="none"/><text fill="#000000" stroke="none" font-family="currentFont" font-size="13px" font-style="normal" font-weight="bold" text-decoration="undefined" x="723.5" y="258.5" text-anchor="middle" dominant-baseline="central" transform="matrix(1 0 0 1 -142 -78)">UC–12.3 Definizione orientamento zona</text></g></g><g><path fill="none" stroke="#000000" paint-order="fill stroke markers" d=" M 245 318 L 399 633" stroke-miterlimit="10" stroke-dasharray="3"/></g><g><path fill="none" stroke="#000000" paint-order="fill stroke markers" d=" M 390.75468531524314 625.7188746921006 L 399 633 L 398.318215153276 622.0211489935068" stroke-miterlimit="10" stroke-dasharray=""/></g><g><rect fill="#ffffff" stroke="none" x="457" y="674" width="58.26020812988281" height="13" transform="matrix(1 0 0 1 -142 -78)"/></g><g><g><path fill="none" stroke="none"/><text fill="#000000" stroke="none" font-family="currentFont" font-size="13px" font-style="normal" font-weight="normal" text-decoration="undefined" x="486.1301040649414" y="680.5" text-anchor="middle" dominant-baseline="central" transform="matrix(1 0 0 1 -142 -78)">«include»</text></g></g><g><path fill="#FFFFFF" stroke="none" paint-order="stroke fill markers" d=" M 140 299.5 C 140 289.835016 182.9806592 282 236 282 C 289.0193408 282 332 289.835016 332 299.5 C 332 309.164984 289.0193408 317 236 317 C 182.9806592 317 140 309.164984 140 299.5 Z"/></g><g><path fill="none" stroke="#000000" paint-order="fill stroke markers" d=" M 140 299.5 C 140 289.835016 182.9806592 282 236 282 C 289.0193408 282 332 289.835016 332 299.5 C 332 309.164984 289.0193408 317 236 317 C 182.9806592 317 140 309.164984 140 299.5 Z" stroke-miterlimit="10" stroke-dasharray=""/></g><g><g><path fill="none" stroke="none"/><text fill="#000000" stroke="none" font-family="currentFont" font-size="13px" font-style="normal" font-weight="bold" text-decoration="undefined" x="378" y="378.5" text-anchor="middle" dominant-baseline="central" transform="matrix(1 0 0 1 -142 -78)">UC–13 Modifica zona</text></g></g><g><path fill="#FFFFFF" stroke="none" paint-order="stroke fill markers" d=" M 546 451.5 C 546 441.835016 630.1704576 434 734 434 C 837.8295424 434 922 441.835016 922 451.5 C 922 461.164984 837.8295424 469 734 469 C 630.1704576 469 546 461.164984 546 451.5 Z"/></g><g><path fill="none" stroke="#000000" paint-order="fill stroke markers" d=" M 546 451.5 C 546 441.835016 630.1704576 434 734 434 C 837.8295424 434 922 441.835016 922 451.5 C 922 461.164984 837.8295424 469 734 469 C 630.1704576 469 546 461.164984 546 451.5 Z" stroke-miterlimit="10" stroke-dasharray=""/></g><g><g><path fill="none" stroke="none"/><text fill="#000000" stroke="none" font-family="currentFont" font-size="13px" font-style="normal" font-weight="bold" text-decoration="undefined" x="876" y="530.5" text-anchor="middle" dominant-baseline="central" transform="matrix(1 0 0 1 -142 -78)">UC–13.2 Rimozione singolo livello</text></g></g><g><path fill="#FFFFFF" stroke="none" paint-order="stroke fill markers" d=" M 546 387.5 C 546 377.835016 630.1704576 370 734 370 C 837.8295424 370 922 377.835016 922 387.5 C 922 397.164984 837.8295424 405 734 405 C 630.1704576 405 546 397.164984 546 387.5 Z"/></g><g><path fill="none" stroke="#000000" paint-order="fill stroke markers" d=" M 546 387.5 C 546 377.835016 630.1704576 370 734 370 C 837.8295424 370 922 377.835016 922 387.5 C 922 397.164984 837.8295424 405 734 405 C 630.1704576 405 546 397.164984 546 387.5 Z" stroke-miterlimit="10" stroke-dasharray=""/></g><g><g><path fill="none" stroke="none"/><text fill="#000000" stroke="none" font-family="currentFont" font-size="13px" font-style="normal" font-weight="bold" text-decoration="undefined" x="876" y="466.5" text-anchor="middle" dominant-baseline="central" transform="matrix(1 0 0 1 -142 -78)">UC–13.1 Rimozione singola colonna</text></g></g><g><path fill="#FFFFFF" stroke="none" paint-order="stroke fill markers" d=" M 1050 423 C 1050 398.147184 1101.9349632 378 1166 378 C 1230.0650368 378 1282 398.147184 1282 423 C 1282 447.85281599999996 1230.0650368 468 1166 468 C 1101.9349632 468 1050 447.85281599999996 1050 423 Z"/></g><g><path fill="none" stroke="#000000" paint-order="fill stroke markers" d=" M 1050 423 C 1050 398.147184 1101.9349632 378 1166 378 C 1230.0650368 378 1282 398.147184 1282 423 C 1282 447.85281599999996 1230.0650368 468 1166 468 C 1101.9349632 468 1050 447.85281599999996 1050 423 Z" stroke-miterlimit="10" stroke-dasharray=""/></g><g><g><path fill="none" stroke="none"/><text fill="#000000" stroke="none" font-family="currentFont" font-size="13px" font-style="normal" font-weight="bold" text-decoration="undefined" x="1308" y="482.5" text-anchor="middle" dominant-baseline="central" transform="matrix(1 0 0 1 -142 -78)">UC–13.3 Visualizzazione</text><text fill="#000000" stroke="none" font-family="currentFont" font-size="13px" font-style="normal" font-weight="bold" text-decoration="undefined" x="1308" y="495.5" text-anchor="middle" dominant-baseline="central" transform="matrix(1 0 0 1 -142 -78)">errore operazione</text><text fill="#000000" stroke="none" font-family="currentFont" font-size="13px" font-style="normal" font-weight="bold" text-decoration="undefined" x="1308" y="508.5" text-anchor="middle" dominant-baseline="central" transform="matrix(1 0 0 1 -142 -78)">impossibile perché</text><text fill="#000000" stroke="none" font-family="currentFont" font-size="13px" font-style="normal" font-weight="bold" text-decoration="undefined" x="1308" y="521.5" text-anchor="middle" dominant-baseline="central" transform="matrix(1 0 0 1 -142 -78)">insiste su bin occupato</text></g></g><g><path fill="none" stroke="#000000" paint-order="fill stroke markers" d=" M 1049 413 L 923 403" stroke-miterlimit="10" stroke-dasharray="3"/></g><g><path fill="none" stroke="#000000" paint-order="fill stroke markers" d=" M 933.4638603354131 399.6077106725739 L 923 403 L 932.7977773877292 408.0003558133898" stroke-miterlimit="10" stroke-dasharray=""/></g><g><rect fill="#FFFFFF" stroke="none" x="1114" y="467" width="56.33973693847656" height="13" transform="matrix(1 0 0 1 -142 -78)"/></g><g><g><path fill="none" stroke="none"/><text fill="#000000" stroke="none" font-family="currentFont" font-size="13px" font-style="normal" font-weight="normal" text-decoration="undefined" x="1142.1698684692383" y="473.5" text-anchor="middle" dominant-baseline="central" transform="matrix(1 0 0 1 -142 -78)">«extend»</text></g></g><g><path fill="none" stroke="#000000" paint-order="fill stroke markers" d=" M 1049 431 L 923 439" stroke-miterlimit="10" stroke-dasharray="3"/></g><g><path fill="none" stroke="#000000" paint-order="fill stroke markers" d=" M 932.8755186061162 434.1549889308433 L 923 439 L 933.4089863560434 442.5571059921941" stroke-miterlimit="10" stroke-dasharray=""/></g><g><rect fill="#FFFFFF" stroke="none" x="1108" y="525" width="56.33973693847656" height="13" transform="matrix(1 0 0 1 -142 -78)"/></g><g><g><path fill="none" stroke="none"/><text fill="#000000" stroke="none" font-family="currentFont" font-size="13px" font-style="normal" font-weight="normal" text-decoration="undefined" x="1136.1698684692383" y="531.5" text-anchor="middle" dominant-baseline="central" transform="matrix(1 0 0 1 -142 -78)">«extend»</text></g></g><g><path fill="#FFFFFF" stroke="none" paint-order="stroke fill markers" d=" M 194 83.5 C 194 73.835016 290.0349104 66 408.5 66 C 526.9650896 66 623 73.835016 623 83.5 C 623 93.164984 526.9650896 101 408.5 101 C 290.0349104 101 194 93.164984 194 83.5 Z"/></g><g><path fill="none" stroke="#000000" paint-order="fill stroke markers" d=" M 194 83.5 C 194 73.835016 290.0349104 66 408.5 66 C 526.9650896 66 623 73.835016 623 83.5 C 623 93.164984 526.9650896 101 408.5 101 C 290.0349104 101 194 93.164984 194 83.5 Z" stroke-miterlimit="10" stroke-dasharray=""/></g><g><g><path fill="none" stroke="none"/><text fill="#000000" stroke="none" font-family="currentFont" font-size="13px" font-style="normal" font-weight="bold" text-decoration="undefined" x="550.5" y="162.5" text-anchor="middle" dominant-baseline="central" transform="matrix(1 0 0 1 -142 -78)">UC–12.1 Definizione lunghezza zona</text></g></g><g><path fill="#FFFFFF" stroke="none" paint-order="stroke fill markers" d=" M 714 83.5 C 714 73.835016 826.8242304 66 966 66 C 1105.1757696 66 1218 73.835016 1218 83.5 C 1218 93.164984 1105.1757696 101 966 101 C 826.8242304 101 714 93.164984 714 83.5 Z"/></g><g><path fill="none" stroke="#000000" paint-order="fill stroke markers" d=" M 714 83.5 C 714 73.835016 826.8242304 66 966 66 C 1105.1757696 66 1218 73.835016 1218 83.5 C 1218 93.164984 1105.1757696 101 966 101 C 826.8242304 101 714 93.164984 714 83.5 Z" stroke-miterlimit="10" stroke-dasharray=""/></g><g><g><path fill="none" stroke="none"/><text fill="#000000" stroke="none" font-family="currentFont" font-size="13px" font-style="normal" font-weight="bold" text-decoration="undefined" x="1108" y="162.5" text-anchor="middle" dominant-baseline="central" transform="matrix(1 0 0 1 -142 -78)">UC–12.1.1 Visualizzazione errore lunghezza non positiva</text></g></g><g><path fill="none" stroke="#000000" paint-order="fill stroke markers" d=" M 713 83 L 624 83" stroke-miterlimit="10" stroke-dasharray="3"/></g><g><path fill="none" stroke="#000000" paint-order="fill stroke markers" d=" M 634.1626748576241 78.790482243984 L 624 83 L 634.1626748576241 87.209517756016" stroke-miterlimit="10" stroke-dasharray=""/></g><g><rect fill="#FFFFFF" stroke="none" x="786" y="175" width="56.33973693847656" height="13" transform="matrix(1 0 0 1 -142 -78)"/></g><g><g><path fill="none" stroke="none"/><text fill="#000000" stroke="none" font-family="currentFont" font-size="13px" font-style="normal" font-weight="normal" text-decoration="undefined" x="814.1698684692383" y="181.5" text-anchor="middle" dominant-baseline="central" transform="matrix(1 0 0 1 -142 -78)">«extend»</text></g></g><g><path fill="#ffffff" stroke="none" paint-order="stroke fill markers" d=" M 27.689029846191403 267.85 C 27.689029846191403 262.96227952000004 31.64683221419139 259 36.529029846191406 259 C 41.41122747819142 259 45.36902984619141 262.96227952000004 45.36902984619141 267.85 C 45.36902984619141 272.73772048 41.41122747819142 276.7 36.529029846191406 276.7 C 31.64683221419139 276.7 27.689029846191403 272.73772048 27.689029846191403 267.85 Z"/></g><g><path fill="none" stroke="#000000" paint-order="fill stroke markers" d=" M 27.689029846191403 267.85 C 27.689029846191403 262.96227952000004 31.64683221419139 259 36.529029846191406 259 C 41.41122747819142 259 45.36902984619141 262.96227952000004 45.36902984619141 267.85 C 45.36902984619141 272.73772048 41.41122747819142 276.7 36.529029846191406 276.7 C 31.64683221419139 276.7 27.689029846191403 272.73772048 27.689029846191403 267.85 Z" stroke-miterlimit="10" stroke-dasharray=""/></g><g><path fill="none" stroke="#000000" paint-order="fill stroke markers" d=" M 36.529029846191406 276.7 L 36.529029846191406 294.3" stroke-miterlimit="10" stroke-dasharray=""/></g><g><path fill="none" stroke="#000000" paint-order="fill stroke markers" d=" M 27.169029846191393 283.3 L 45.88902984619142 283.3" stroke-miterlimit="10" stroke-dasharray=""/></g><g><path fill="none" stroke="#000000" paint-order="fill stroke markers" d=" M 36.529029846191406 294.3 L 23.529029846191406 312" stroke-miterlimit="10" stroke-dasharray=""/></g><g><path fill="none" stroke="#000000" paint-order="fill stroke markers" d=" M 36.529029846191406 294.3 L 49.529029846191406 312" stroke-miterlimit="10" stroke-dasharray=""/></g><g><g><path fill="none" stroke="none"/><text fill="#000000" stroke="none" font-family="currentFont" font-size="13px" font-style="normal" font-weight="bold" text-decoration="undefined" x="179.0290298461914" y="404.5" text-anchor="middle" dominant-baseline="central" transform="matrix(1 0 0 1 -142 -78)">Utente</text></g></g><g><path fill="none" stroke="#000000" paint-order="fill stroke markers" d=" M 139 299 L 64 298" stroke-miterlimit="10" stroke-dasharray=""/></g><g><path fill="#ffffff" stroke="none" paint-order="stroke fill markers" d=" M 814 514 L 947 514 L 957 524 L 957 569 L 814 569 L 814 514"/></g><g><path fill="none" stroke="#000000" paint-order="fill stroke markers" d=" M 814 514 L 947 514 L 957 524 L 957 569 L 814 569 L 814 514 L 814 514" stroke-miterlimit="10" stroke-dasharray=""/></g><g><path fill="none" stroke="#000000" paint-order="fill stroke markers" d=" M 947 514 L 947 524 L 957 524 L 947 514" stroke-miterlimit="10" stroke-dasharray=""/></g><g><g><path fill="none" stroke="none"/><text fill="#000000" stroke="none" font-family="currentFont" font-size="13px" font-style="normal" font-weight="normal" text-decoration="undefined" x="961" y="597" text-anchor="start" dominant-baseline="text-before-edge" transform="matrix(1 0 0 1 -142 -78)">Condition: la zona</text><text fill="#000000" stroke="none" font-family="currentFont" font-size="13px" font-style="normal" font-weight="normal" text-decoration="undefined" x="961" y="610" text-anchor="start" dominant-baseline="text-before-edge" transform="matrix(1 0 0 1 -142 -78)">possiede almeno 2</text><text fill="#000000" stroke="none" font-family="currentFont" font-size="13px" font-style="normal" font-weight="normal" text-decoration="undefined" x="961" y="623" text-anchor="start" dominant-baseline="text-before-edge" transform="matrix(1 0 0 1 -142 -78)">livelli</text></g></g><g><g><path fill="none" stroke="none"/></g></g><g><path fill="#FFFFFF" stroke="none" paint-order="stroke fill markers" d=" M 194 651.5 C 194 641.835016 290.0349104 634 408.5 634 C 526.9650896 634 623 641.835016 623 651.5 C 623 661.164984 526.9650896 669 408.5 669 C 290.0349104 669 194 661.164984 194 651.5 Z"/></g><g><path fill="none" stroke="#000000" paint-order="fill stroke markers" d=" M 194 651.5 C 194 641.835016 290.0349104 634 408.5 634 C 526.9650896 634 623 641.835016 623 651.5 C 623 661.164984 526.9650896 669 408.5 669 C 290.0349104 669 194 661.164984 194 651.5 Z" stroke-miterlimit="10" stroke-dasharray=""/></g><g><g><path fill="none" stroke="none"/><text fill="#000000" stroke="none" font-family="currentFont" font-size="13px" font-style="normal" font-weight="bold" text-decoration="undefined" x="550.5" y="730.5" text-anchor="middle" dominant-baseline="central" transform="matrix(1 0 0 1 -142 -78)">UC–y Collocamento della zona nello spazio 3D</text></g></g><g><path fill="#ffffff" stroke="none" paint-order="stroke fill markers" d=" M 814 266 L 947 266 L 957 276 L 957 321 L 814 321 L 814 266"/></g><g><path fill="none" stroke="#000000" paint-order="fill stroke markers" d=" M 814 266 L 947 266 L 957 276 L 957 321 L 814 321 L 814 266 L 814 266" stroke-miterlimit="10" stroke-dasharray=""/></g><g><path fill="none" stroke="#000000" paint-order="fill stroke markers" d=" M 947 266 L 947 276 L 957 276 L 947 266" stroke-miterlimit="10" stroke-dasharray=""/></g><g><g><path fill="none" stroke="none"/><text fill="#000000" stroke="none" font-family="currentFont" font-size="13px" font-style="normal" font-weight="normal" text-decoration="undefined" x="961" y="349" text-anchor="start" dominant-baseline="text-before-edge" transform="matrix(1 0 0 1 -142 -78)">Condition: la zona</text><text fill="#000000" stroke="none" font-family="currentFont" font-size="13px" font-style="normal" font-weight="normal" text-decoration="undefined" x="961" y="362" text-anchor="start" dominant-baseline="text-before-edge" transform="matrix(1 0 0 1 -142 -78)">possiede almeno 2</text><text fill="#000000" stroke="none" font-family="currentFont" font-size="13px" font-style="normal" font-weight="normal" text-decoration="undefined" x="961" y="375" text-anchor="start" dominant-baseline="text-before-edge" transform="matrix(1 0 0 1 -142 -78)">colonne</text></g></g><g><path fill="none" stroke="#000000" paint-order="fill stroke markers" d=" M 250 281 L 393 102" stroke-miterlimit="10" stroke-dasharray="3"/></g><g><path fill="none" stroke="#000000" paint-order="fill stroke markers" d=" M 389.94571120645753 112.56746516273611 L 393 102 L 383.3679654058608 107.31261795890737" stroke-miterlimit="10" stroke-dasharray=""/></g><g><rect fill="#ffffff" stroke="none" x="406" y="227" width="58.26020812988281" height="13" transform="matrix(1 0 0 1 -142 -78)"/></g><g><g><path fill="none" stroke="none"/><text fill="#000000" stroke="none" font-family="currentFont" font-size="13px" font-style="normal" font-weight="normal" text-decoration="undefined" x="435.1301040649414" y="233.5" text-anchor="middle" dominant-baseline="central" transform="matrix(1 0 0 1 -142 -78)">«include»</text></g></g><g><path fill="none" stroke="#000000" paint-order="fill stroke markers" d=" M 288 281 L 526 198" stroke-miterlimit="10" stroke-dasharray="3"/></g><g><path fill="none" stroke="#000000" paint-order="fill stroke markers" d=" M 517.7902606726639 205.32121439224335 L 526 198 L 515.0179573065909 197.37171799314257" stroke-miterlimit="10" stroke-dasharray=""/></g><g><rect fill="#ffffff" stroke="none" x="497" y="296" width="58.26020812988281" height="13" transform="matrix(1 0 0 1 -142 -78)"/></g><g><g><path fill="none" stroke="none"/><text fill="#000000" stroke="none" font-family="currentFont" font-size="13px" font-style="normal" font-weight="normal" text-decoration="undefined" x="526.1301040649414" y="302.5" text-anchor="middle" dominant-baseline="central" transform="matrix(1 0 0 1 -142 -78)">«include»</text></g></g><g><path fill="#FFFFFF" stroke="none" paint-order="stroke fill markers" d=" M 402 299.5 C 402 289.835016 482.36487839999995 282 581.5 282 C 680.6351216 282 761 289.835016 761 299.5 C 761 309.164984 680.6351216 317 581.5 317 C 482.36487839999995 317 402 309.164984 402 299.5 Z"/></g><g><path fill="none" stroke="#000000" paint-order="fill stroke markers" d=" M 402 299.5 C 402 289.835016 482.36487839999995 282 581.5 282 C 680.6351216 282 761 289.835016 761 299.5 C 761 309.164984 680.6351216 317 581.5 317 C 482.36487839999995 317 402 309.164984 402 299.5 Z" stroke-miterlimit="10" stroke-dasharray=""/></g><g><g><path fill="none" stroke="none"/><text fill="#000000" stroke="none" font-family="currentFont" font-size="13px" font-style="normal" font-weight="bold" text-decoration="undefined" x="723.5" y="378.5" text-anchor="middle" dominant-baseline="central" transform="matrix(1 0 0 1 -142 -78)">UC–12.4 Definizione colonne zona</text></g></g><g><path fill="#ffffff" stroke="none" paint-order="stroke fill markers" d=" M 402 539.5 C 402 529.835016 482.36487839999995 522 581.5 522 C 680.6351216 522 761 529.835016 761 539.5 C 761 549.164984 680.6351216 557 581.5 557 C 482.36487839999995 557 402 549.164984 402 539.5 Z"/></g><g><path fill="none" stroke="#000000" paint-order="fill stroke markers" d=" M 402 539.5 C 402 529.835016 482.36487839999995 522 581.5 522 C 680.6351216 522 761 529.835016 761 539.5 C 761 549.164984 680.6351216 557 581.5 557 C 482.36487839999995 557 402 549.164984 402 539.5 Z" stroke-miterlimit="10" stroke-dasharray=""/></g><g><g><path fill="none" stroke="none"/><text fill="#000000" stroke="none" font-family="currentFont" font-size="13px" font-style="normal" font-weight="bold" text-decoration="undefined" x="723.5" y="618.5" text-anchor="middle" dominant-baseline="central" transform="matrix(1 0 0 1 -142 -78)">UC–12.5 Definizione livelli zona</text></g></g><g><path fill="none" stroke="#000000" paint-order="fill stroke markers" d=" M 703 369 L 614 318" stroke-miterlimit="10" stroke-dasharray="3"/></g><g><path fill="none" stroke="#000000" paint-order="fill stroke markers" d=" M 624.9104930400788 319.40040766292947 L 614 318 L 620.7246458598454 326.7051213696114" stroke-miterlimit="10" stroke-dasharray=""/></g><g><rect fill="#ffffff" stroke="none" x="734" y="423" width="56.33973693847656" height="13" transform="matrix(1 0 0 1 -142 -78)"/></g><g><g><path fill="none" stroke="none"/><text fill="#000000" stroke="none" font-family="currentFont" font-size="13px" font-style="normal" font-weight="normal" text-decoration="undefined" x="762.1698684692383" y="429.5" text-anchor="middle" dominant-baseline="central" transform="matrix(1 0 0 1 -142 -78)">«extend»</text></g></g><g><path fill="none" stroke="#000000" paint-order="fill stroke markers" d=" M 333 299 L 401 299" stroke-miterlimit="10" stroke-dasharray="3"/></g><g><path fill="none" stroke="#000000" paint-order="fill stroke markers" d=" M 390.8373251423759 303.209517756016 L 401 299 L 390.8373251423758 294.790482243984" stroke-miterlimit="10" stroke-dasharray=""/></g><g><rect fill="#ffffff" stroke="none" x="478" y="392" width="58.26020812988281" height="13" transform="matrix(1 0 0 1 -142 -78)"/></g><g><g><path fill="none" stroke="none"/><text fill="#000000" stroke="none" font-family="currentFont" font-size="13px" font-style="normal" font-weight="normal" text-decoration="undefined" x="507.1301040649414" y="398.5" text-anchor="middle" dominant-baseline="central" transform="matrix(1 0 0 1 -142 -78)">«include»</text></g></g><g><path fill="none" stroke="#000000" paint-order="fill stroke markers" d=" M 263 318 L 555 521" stroke-miterlimit="10" stroke-dasharray="3"/></g><g><path fill="none" stroke="#000000" paint-order="fill stroke markers" d=" M 544.2527948063131 518.6553080106783 L 555 521 L 549.058525934184 511.74263072329745" stroke-miterlimit="10" stroke-dasharray=""/></g><g><rect fill="#ffffff" stroke="none" x="539" y="466" width="58.26020812988281" height="13" transform="matrix(1 0 0 1 -142 -78)"/></g><g><g><path fill="none" stroke="none"/><text fill="#000000" stroke="none" font-family="currentFont" font-size="13px" font-style="normal" font-weight="normal" text-decoration="undefined" x="568.1301040649414" y="472.5" text-anchor="middle" dominant-baseline="central" transform="matrix(1 0 0 1 -142 -78)">«include»</text></g></g><g><path fill="none" stroke="#000000" paint-order="fill stroke markers" d=" M 701 470 L 612 521" stroke-miterlimit="10" stroke-dasharray="3"/></g><g><path fill="none" stroke="#000000" paint-order="fill stroke markers" d=" M 618.7246458598454 512.2948786303887 L 612 521 L 622.9104930400788 519.5995923370706" stroke-miterlimit="10" stroke-dasharray=""/></g><g><rect fill="#ffffff" stroke="none" x="737" y="559" width="56.33973693847656" height="13" transform="matrix(1 0 0 1 -142 -78)"/></g><g><g><path fill="none" stroke="none"/><text fill="#000000" stroke="none" font-family="currentFont" font-size="13px" font-style="normal" font-weight="normal" text-decoration="undefined" x="765.1698684692383" y="565.5" text-anchor="middle" dominant-baseline="central" transform="matrix(1 0 0 1 -142 -78)">«extend»</text></g></g><g><path fill="none" stroke="#000000" paint-order="fill stroke markers" d=" M 813 527 L 656 495" stroke-miterlimit="10" stroke-dasharray="3"/></g><g><path fill="none" stroke="#000000" paint-order="fill stroke markers" d=" M 813 310 L 658 343" stroke-miterlimit="10" stroke-dasharray="3"/></g></g></svg>