<svg version="1.1" xmlns="http://www.w3.org/2000/svg" xmlns:xlink="http://www.w3.org/1999/xlink" width="997" height="572"><defs/><g><g><rect fill="#ffffff" stroke="none" x="232" y="104" width="880" height="552" transform="matrix(1 0 0 1 -126 -94)"/></g><g><path fill="none" stroke="#000000" paint-order="fill stroke markers" d=" M 106 10 L 986 10 L 986 562 L 106 562 L 106 10 Z Z" stroke-miterlimit="10" stroke-dasharray=""/></g><g><g><path fill="none" stroke="none"/><text fill="#000000" stroke="none" font-family="currentFont" font-size="13px" font-style="normal" font-weight="bold" text-decoration="undefined" x="672.5" y="117.5" text-anchor="middle" dominant-baseline="central" transform="matrix(1 0 0 1 -126 -94)">WMS3</text></g></g><g><path fill="#FFFFFF" stroke="none" paint-order="stroke fill markers" d=" M 146 299.5 C 146 289.835016 201.5166848 282 270 282 C 338.4833152 282 394 289.835016 394 299.5 C 394 309.164984 338.4833152 317 270 317 C 201.5166848 317 146 309.164984 146 299.5 Z"/></g><g><path fill="none" stroke="#000000" paint-order="fill stroke markers" d=" M 146 299.5 C 146 289.835016 201.5166848 282 270 282 C 338.4833152 282 394 289.835016 394 299.5 C 394 309.164984 338.4833152 317 270 317 C 201.5166848 317 146 309.164984 146 299.5 Z" stroke-miterlimit="10" stroke-dasharray=""/></g><g><g><path fill="none" stroke="none"/><text fill="#000000" stroke="none" font-family="currentFont" font-size="13px" font-style="normal" font-weight="bold" text-decoration="undefined" x="396" y="394.5" text-anchor="middle" dominant-baseline="central" transform="matrix(1 0 0 1 -126 -94)">UC–15 Ispezione zona</text></g></g><g><path fill="none" stroke="#000000" paint-order="fill stroke markers" d=" M 338 318 L 650 405" stroke-miterlimit="10" stroke-dasharray="3"/></g><g><path fill="none" stroke="#000000" paint-order="fill stroke markers" d=" M 639.0801098281677 406.3251409868839 L 650 405 L 641.3414554318312 398.21548778753885" stroke-miterlimit="10" stroke-dasharray=""/></g><g><rect fill="#FFFFFF" stroke="none" x="587" y="463" width="58.26020812988281" height="13" transform="matrix(1 0 0 1 -126 -94)"/></g><g><g><path fill="none" stroke="none"/><text fill="#000000" stroke="none" font-family="currentFont" font-size="13px" font-style="normal" font-weight="normal" text-decoration="undefined" x="616.1301040649414" y="469.5" text-anchor="middle" dominant-baseline="central" transform="matrix(1 0 0 1 -126 -94)">«include»</text></g></g><g><path fill="none" stroke="#000000" paint-order="fill stroke markers" d=" M 311 318 L 675 488" stroke-miterlimit="10" stroke-dasharray="3"/></g><g><path fill="none" stroke="#000000" paint-order="fill stroke markers" d=" M 664.0107572879311 487.51364147458844 L 675 488 L 667.5733393695976 479.88552454678484" stroke-miterlimit="10" stroke-dasharray=""/></g><g><rect fill="#FFFFFF" stroke="none" x="508" y="486" width="58.26020812988281" height="13" transform="matrix(1 0 0 1 -126 -94)"/></g><g><g><path fill="none" stroke="none"/><text fill="#000000" stroke="none" font-family="currentFont" font-size="13px" font-style="normal" font-weight="normal" text-decoration="undefined" x="537.1301040649414" y="492.5" text-anchor="middle" dominant-baseline="central" transform="matrix(1 0 0 1 -126 -94)">«include»</text></g></g><g><path fill="#ffffff" stroke="none" paint-order="stroke fill markers" d=" M 27.689029846191403 267.85 C 27.689029846191403 262.96227952000004 31.64683221419139 259 36.529029846191406 259 C 41.41122747819142 259 45.36902984619141 262.96227952000004 45.36902984619141 267.85 C 45.36902984619141 272.73772048 41.41122747819142 276.7 36.529029846191406 276.7 C 31.64683221419139 276.7 27.689029846191403 272.73772048 27.689029846191403 267.85 Z"/></g><g><path fill="none" stroke="#000000" paint-order="fill stroke markers" d=" M 27.689029846191403 267.85 C 27.689029846191403 262.96227952000004 31.64683221419139 259 36.529029846191406 259 C 41.41122747819142 259 45.36902984619141 262.96227952000004 45.36902984619141 267.85 C 45.36902984619141 272.73772048 41.41122747819142 276.7 36.529029846191406 276.7 C 31.64683221419139 276.7 27.689029846191403 272.73772048 27.689029846191403 267.85 Z" stroke-miterlimit="10" stroke-dasharray=""/></g><g><path fill="none" stroke="#000000" paint-order="fill stroke markers" d=" M 36.529029846191406 276.7 L 36.529029846191406 294.3" stroke-miterlimit="10" stroke-dasharray=""/></g><g><path fill="none" stroke="#000000" paint-order="fill stroke markers" d=" M 27.169029846191393 283.3 L 45.88902984619142 283.3" stroke-miterlimit="10" stroke-dasharray=""/></g><g><path fill="none" stroke="#000000" paint-order="fill stroke markers" d=" M 36.529029846191406 294.3 L 23.529029846191406 312" stroke-miterlimit="10" stroke-dasharray=""/></g><g><path fill="none" stroke="#000000" paint-order="fill stroke markers" d=" M 36.529029846191406 294.3 L 49.529029846191406 312" stroke-miterlimit="10" stroke-dasharray=""/></g><g><g><path fill="none" stroke="none"/><text fill="#000000" stroke="none" font-family="currentFont" font-size="13px" font-style="normal" font-weight="bold" text-decoration="undefined" x="163.0290298461914" y="420.5" text-anchor="middle" dominant-baseline="central" transform="matrix(1 0 0 1 -126 -94)">Utente</text></g></g><g><path fill="none" stroke="#000000" paint-order="fill stroke markers" d=" M 145 298 L 64 298" stroke-miterlimit="10" stroke-dasharray=""/></g><g><path fill="none" stroke="#000000" paint-order="fill stroke markers" d=" M 395 311 L 519 322" stroke-miterlimit="10" stroke-dasharray="3"/></g><g><path fill="none" stroke="#000000" paint-order="fill stroke markers" d=" M 508.5051135237536 325.2950505080651 L 519 322 L 509.2490420462582 316.9089471634682" stroke-miterlimit="10" stroke-dasharray=""/></g><g><rect fill="#ffffff" stroke="none" x="557" y="416" width="58.26020812988281" height="13" transform="matrix(1 0 0 1 -126 -94)"/></g><g><g><path fill="none" stroke="none"/><text fill="#000000" stroke="none" font-family="currentFont" font-size="13px" font-style="normal" font-weight="normal" text-decoration="undefined" x="586.1301040649414" y="422.5" text-anchor="middle" dominant-baseline="central" transform="matrix(1 0 0 1 -126 -94)">«include»</text></g></g><g><path fill="none" stroke="#000000" paint-order="fill stroke markers" d=" M 395 287 L 513 276" stroke-miterlimit="10" stroke-dasharray="3"/></g><g><path fill="none" stroke="#000000" paint-order="fill stroke markers" d=" M 503.27191506509075 281.134623988102 L 513 276 L 502.49047773373695 272.7519326153971" stroke-miterlimit="10" stroke-dasharray=""/></g><g><rect fill="#ffffff" stroke="none" x="557" y="383" width="58.26020812988281" height="13" transform="matrix(1 0 0 1 -126 -94)"/></g><g><g><path fill="none" stroke="none"/><text fill="#000000" stroke="none" font-family="currentFont" font-size="13px" font-style="normal" font-weight="normal" text-decoration="undefined" x="586.1301040649414" y="389.5" text-anchor="middle" dominant-baseline="central" transform="matrix(1 0 0 1 -126 -94)">«include»</text></g></g><g><path fill="none" stroke="#000000" paint-order="fill stroke markers" d=" M 334 281 L 647 193" stroke-miterlimit="10" stroke-dasharray="3"/></g><g><path fill="none" stroke="#000000" paint-order="fill stroke markers" d=" M 638.3559703294726 199.80299574121887 L 647 193 L 636.0773035821933 191.6981924241914" stroke-miterlimit="10" stroke-dasharray=""/></g><g><rect fill="#ffffff" stroke="none" x="553" y="320" width="58.26020812988281" height="13" transform="matrix(1 0 0 1 -126 -94)"/></g><g><g><path fill="none" stroke="none"/><text fill="#000000" stroke="none" font-family="currentFont" font-size="13px" font-style="normal" font-weight="normal" text-decoration="undefined" x="582.1301040649414" y="326.5" text-anchor="middle" dominant-baseline="central" transform="matrix(1 0 0 1 -126 -94)">«include»</text></g></g><g><path fill="none" stroke="#000000" paint-order="fill stroke markers" d=" M 308 281 L 673 110" stroke-miterlimit="10" stroke-dasharray="3"/></g><g><path fill="none" stroke="#000000" paint-order="fill stroke markers" d=" M 665.583066227899 118.12336712332194 L 673 110 L 662.0113478551671 110.49952381310464" stroke-miterlimit="10" stroke-dasharray=""/></g><g><rect fill="#ffffff" stroke="none" x="513" y="288" width="58.26020812988281" height="13" transform="matrix(1 0 0 1 -126 -94)"/></g><g><g><path fill="none" stroke="none"/><text fill="#000000" stroke="none" font-family="currentFont" font-size="13px" font-style="normal" font-weight="normal" text-decoration="undefined" x="542.1301040649414" y="294.5" text-anchor="middle" dominant-baseline="central" transform="matrix(1 0 0 1 -126 -94)">«include»</text></g></g><g><path fill="#FFFFFF" stroke="none" paint-order="stroke fill markers" d=" M 490 423.5 C 490 413.835016 590.5120624 406 714.5 406 C 838.4879376 406 939 413.835016 939 423.5 C 939 433.164984 838.4879376 441 714.5 441 C 590.5120624 441 490 433.164984 490 423.5 Z"/></g><g><path fill="none" stroke="#000000" paint-order="fill stroke markers" d=" M 490 423.5 C 490 413.835016 590.5120624 406 714.5 406 C 838.4879376 406 939 413.835016 939 423.5 C 939 433.164984 838.4879376 441 714.5 441 C 590.5120624 441 490 433.164984 490 423.5 Z" stroke-miterlimit="10" stroke-dasharray=""/></g><g><g><path fill="none" stroke="none"/><text fill="#000000" stroke="none" font-family="currentFont" font-size="13px" font-style="normal" font-weight="bold" text-decoration="undefined" x="840.5" y="518.5" text-anchor="middle" dominant-baseline="central" transform="matrix(1 0 0 1 -126 -94)">UC–15.5 Evidenziazione zona selezionata</text></g></g><g><path fill="#FFFFFF" stroke="none" paint-order="stroke fill markers" d=" M 490 506.5 C 490 496.835016 590.5120624 489 714.5 489 C 838.4879376 489 939 496.835016 939 506.5 C 939 516.164984 838.4879376 524 714.5 524 C 590.5120624 524 490 516.164984 490 506.5 Z"/></g><g><path fill="none" stroke="#000000" paint-order="fill stroke markers" d=" M 490 506.5 C 490 496.835016 590.5120624 489 714.5 489 C 838.4879376 489 939 496.835016 939 506.5 C 939 516.164984 838.4879376 524 714.5 524 C 590.5120624 524 490 516.164984 490 506.5 Z" stroke-miterlimit="10" stroke-dasharray=""/></g><g><g><path fill="none" stroke="none"/><text fill="#000000" stroke="none" font-family="currentFont" font-size="13px" font-style="normal" font-weight="bold" text-decoration="undefined" x="840.5" y="601.5" text-anchor="middle" dominant-baseline="central" transform="matrix(1 0 0 1 -126 -94)">UC–15.6 Visualizzazione lista bin inclusi nella zona</text></g></g><g><path fill="#FFFFFF" stroke="none" paint-order="stroke fill markers" d=" M 490 91.5 C 490 81.835016 590.5120624 74 714.5 74 C 838.4879376 74 939 81.835016 939 91.5 C 939 101.164984 838.4879376 109 714.5 109 C 590.5120624 109 490 101.164984 490 91.5 Z"/></g><g><path fill="none" stroke="#000000" paint-order="fill stroke markers" d=" M 490 91.5 C 490 81.835016 590.5120624 74 714.5 74 C 838.4879376 74 939 81.835016 939 91.5 C 939 101.164984 838.4879376 109 714.5 109 C 590.5120624 109 490 101.164984 490 91.5 Z" stroke-miterlimit="10" stroke-dasharray=""/></g><g><g><path fill="none" stroke="none"/><text fill="#000000" stroke="none" font-family="currentFont" font-size="13px" font-style="normal" font-weight="bold" text-decoration="undefined" x="840.5" y="186.5" text-anchor="middle" dominant-baseline="central" transform="matrix(1 0 0 1 -126 -94)">UC–15.1 Visualizzazione ID zona</text></g></g><g><path fill="#FFFFFF" stroke="none" paint-order="stroke fill markers" d=" M 490 174.5 C 490 164.835016 590.5120624 157 714.5 157 C 838.4879376 157 939 164.835016 939 174.5 C 939 184.164984 838.4879376 192 714.5 192 C 590.5120624 192 490 184.164984 490 174.5 Z"/></g><g><path fill="none" stroke="#000000" paint-order="fill stroke markers" d=" M 490 174.5 C 490 164.835016 590.5120624 157 714.5 157 C 838.4879376 157 939 164.835016 939 174.5 C 939 184.164984 838.4879376 192 714.5 192 C 590.5120624 192 490 184.164984 490 174.5 Z" stroke-miterlimit="10" stroke-dasharray=""/></g><g><g><path fill="none" stroke="none"/><text fill="#000000" stroke="none" font-family="currentFont" font-size="13px" font-style="normal" font-weight="bold" text-decoration="undefined" x="840.5" y="269.5" text-anchor="middle" dominant-baseline="central" transform="matrix(1 0 0 1 -126 -94)">UC–15.2 Visualizzazione larghezza zona</text></g></g><g><path fill="#FFFFFF" stroke="none" paint-order="stroke fill markers" d=" M 490 257.5 C 490 247.835016 590.5120624 240 714.5 240 C 838.4879376 240 939 247.835016 939 257.5 C 939 267.164984 838.4879376 275 714.5 275 C 590.5120624 275 490 267.164984 490 257.5 Z"/></g><g><path fill="none" stroke="#000000" paint-order="fill stroke markers" d=" M 490 257.5 C 490 247.835016 590.5120624 240 714.5 240 C 838.4879376 240 939 247.835016 939 257.5 C 939 267.164984 838.4879376 275 714.5 275 C 590.5120624 275 490 267.164984 490 257.5 Z" stroke-miterlimit="10" stroke-dasharray=""/></g><g><g><path fill="none" stroke="none"/><text fill="#000000" stroke="none" font-family="currentFont" font-size="13px" font-style="normal" font-weight="bold" text-decoration="undefined" x="840.5" y="352.5" text-anchor="middle" dominant-baseline="central" transform="matrix(1 0 0 1 -126 -94)">UC–15.3 Visualizzazione lunghezza zona</text></g></g><g><path fill="#FFFFFF" stroke="none" paint-order="stroke fill markers" d=" M 490 340.5 C 490 330.835016 590.5120624 323 714.5 323 C 838.4879376 323 939 330.835016 939 340.5 C 939 350.164984 838.4879376 358 714.5 358 C 590.5120624 358 490 350.164984 490 340.5 Z"/></g><g><path fill="none" stroke="#000000" paint-order="fill stroke markers" d=" M 490 340.5 C 490 330.835016 590.5120624 323 714.5 323 C 838.4879376 323 939 330.835016 939 340.5 C 939 350.164984 838.4879376 358 714.5 358 C 590.5120624 358 490 350.164984 490 340.5 Z" stroke-miterlimit="10" stroke-dasharray=""/></g><g><g><path fill="none" stroke="none"/><text fill="#000000" stroke="none" font-family="currentFont" font-size="13px" font-style="normal" font-weight="bold" text-decoration="undefined" x="840.5" y="435.5" text-anchor="middle" dominant-baseline="central" transform="matrix(1 0 0 1 -126 -94)">UC–15.4 Visualizzazione altezza zona</text></g></g></g></svg>