<svg version="1.1" xmlns="http://www.w3.org/2000/svg" xmlns:xlink="http://www.w3.org/1999/xlink" width="1045" height="388"><defs/><g><g><rect fill="#ffffff" stroke="none" x="296" y="80" width="920" height="368" transform="matrix(1 0 0 1 -182 -70)"/></g><g><path fill="none" stroke="#000000" paint-order="fill stroke markers" d=" M 114 10 L 1034 10 L 1034 378 L 114 378 L 114 10 Z Z" stroke-miterlimit="10" stroke-dasharray=""/></g><g><g><path fill="none" stroke="none"/><text fill="#000000" stroke="none" font-family="currentFont" font-size="13px" font-style="normal" font-weight="bold" text-decoration="undefined" x="756.5" y="93.5" text-anchor="middle" dominant-baseline="central" transform="matrix(1 0 0 1 -182 -70)">WMS3</text></g></g><g><path fill="#FFFFFF" stroke="none" paint-order="stroke fill markers" d=" M 160 81.5 C 160 71.835016 256.0349104 64 374.5 64 C 492.96508960000006 64 589 71.835016 589 81.5 C 589 91.164984 492.96508960000006 99 374.5 99 C 256.0349104 99 160 91.164984 160 81.5 Z"/></g><g><path fill="none" stroke="#000000" paint-order="fill stroke markers" d=" M 160 81.5 C 160 71.835016 256.0349104 64 374.5 64 C 492.96508960000006 64 589 71.835016 589 81.5 C 589 91.164984 492.96508960000006 99 374.5 99 C 256.0349104 99 160 91.164984 160 81.5 Z" stroke-miterlimit="10" stroke-dasharray=""/></g><g><g><path fill="none" stroke="none"/><text fill="#000000" stroke="none" font-family="currentFont" font-size="13px" font-style="normal" font-weight="bold" text-decoration="undefined" x="556.5" y="152.5" text-anchor="middle" dominant-baseline="central" transform="matrix(1 0 0 1 -182 -70)">UC–16 Collocamento della zona nell'ambiente 3D</text></g></g><g><path fill="#FFFFFF" stroke="none" paint-order="stroke fill markers" d=" M 298 201.5 C 298 191.835016 394.03491039999994 184 512.5 184 C 630.9650896 184 727 191.835016 727 201.5 C 727 211.164984 630.9650896 219 512.5 219 C 394.03491039999994 219 298 211.164984 298 201.5 Z"/></g><g><path fill="none" stroke="#000000" paint-order="fill stroke markers" d=" M 298 201.5 C 298 191.835016 394.03491039999994 184 512.5 184 C 630.9650896 184 727 191.835016 727 201.5 C 727 211.164984 630.9650896 219 512.5 219 C 394.03491039999994 219 298 211.164984 298 201.5 Z" stroke-miterlimit="10" stroke-dasharray=""/></g><g><g><path fill="none" stroke="none"/><text fill="#000000" stroke="none" font-family="currentFont" font-size="13px" font-style="normal" font-weight="bold" text-decoration="undefined" x="694.5" y="272.5" text-anchor="middle" dominant-baseline="central" transform="matrix(1 0 0 1 -182 -70)">UC–16.1 Evidenziazione zona non collocabile</text></g></g><g><path fill="#FFFFFF" stroke="none" paint-order="stroke fill markers" d=" M 634 100 C 634 80.1177472 711.0070144 64 806 64 C 900.9929855999999 64 978 80.1177472 978 100 C 978 119.8822528 900.9929855999999 136 806 136 C 711.0070144 136 634 119.8822528 634 100 Z"/></g><g><path fill="none" stroke="#000000" paint-order="fill stroke markers" d=" M 634 100 C 634 80.1177472 711.0070144 64 806 64 C 900.9929855999999 64 978 80.1177472 978 100 C 978 119.8822528 900.9929855999999 136 806 136 C 711.0070144 136 634 119.8822528 634 100 Z" stroke-miterlimit="10" stroke-dasharray=""/></g><g><g><path fill="none" stroke="none"/><text fill="#000000" stroke="none" font-family="currentFont" font-size="13px" font-style="normal" font-weight="bold" text-decoration="undefined" x="988" y="164.5" text-anchor="middle" dominant-baseline="central" transform="matrix(1 0 0 1 -182 -70)">UC–16.1.1 Evidenziazione zona collisa</text><text fill="#000000" stroke="none" font-family="currentFont" font-size="13px" font-style="normal" font-weight="bold" text-decoration="undefined" x="988" y="177.5" text-anchor="middle" dominant-baseline="central" transform="matrix(1 0 0 1 -182 -70)">con zone già collocate</text></g></g><g><path fill="#FFFFFF" stroke="none" paint-order="stroke fill markers" d=" M 634 303 C 634 283.1177472 711.0070144 267 806 267 C 900.9929855999999 267 978 283.1177472 978 303 C 978 322.8822528 900.9929855999999 339 806 339 C 711.0070144 339 634 322.8822528 634 303 Z"/></g><g><path fill="none" stroke="#000000" paint-order="fill stroke markers" d=" M 634 303 C 634 283.1177472 711.0070144 267 806 267 C 900.9929855999999 267 978 283.1177472 978 303 C 978 322.8822528 900.9929855999999 339 806 339 C 711.0070144 339 634 322.8822528 634 303 Z" stroke-miterlimit="10" stroke-dasharray=""/></g><g><g><path fill="none" stroke="none"/><text fill="#000000" stroke="none" font-family="currentFont" font-size="13px" font-style="normal" font-weight="bold" text-decoration="undefined" x="988" y="361" text-anchor="middle" dominant-baseline="central" transform="matrix(1 0 0 1 -182 -70)">UC–16.1.2 Evidenziazione zona non</text><text fill="#000000" stroke="none" font-family="currentFont" font-size="13px" font-style="normal" font-weight="bold" text-decoration="undefined" x="988" y="374" text-anchor="middle" dominant-baseline="central" transform="matrix(1 0 0 1 -182 -70)">collocabile perché al di fuori del</text><text fill="#000000" stroke="none" font-family="currentFont" font-size="13px" font-style="normal" font-weight="bold" text-decoration="undefined" x="988" y="387" text-anchor="middle" dominant-baseline="central" transform="matrix(1 0 0 1 -182 -70)">perimetro</text></g></g><g><path fill="#ffffff" stroke="none" paint-order="stroke fill markers" d=" M 27.689029846191403 51.849999999999994 C 27.689029846191403 46.962279519999996 31.64683221419139 43 36.529029846191406 43 C 41.41122747819142 43 45.36902984619141 46.962279519999996 45.36902984619141 51.849999999999994 C 45.36902984619141 56.73772047999999 41.41122747819142 60.69999999999999 36.529029846191406 60.69999999999999 C 31.64683221419139 60.69999999999999 27.689029846191403 56.73772047999999 27.689029846191403 51.849999999999994 Z"/></g><g><path fill="none" stroke="#000000" paint-order="fill stroke markers" d=" M 27.689029846191403 51.849999999999994 C 27.689029846191403 46.962279519999996 31.64683221419139 43 36.529029846191406 43 C 41.41122747819142 43 45.36902984619141 46.962279519999996 45.36902984619141 51.849999999999994 C 45.36902984619141 56.73772047999999 41.41122747819142 60.69999999999999 36.529029846191406 60.69999999999999 C 31.64683221419139 60.69999999999999 27.689029846191403 56.73772047999999 27.689029846191403 51.849999999999994 Z" stroke-miterlimit="10" stroke-dasharray=""/></g><g><path fill="none" stroke="#000000" paint-order="fill stroke markers" d=" M 36.529029846191406 60.69999999999999 L 36.529029846191406 78.30000000000001" stroke-miterlimit="10" stroke-dasharray=""/></g><g><path fill="none" stroke="#000000" paint-order="fill stroke markers" d=" M 27.169029846191393 67.30000000000001 L 45.88902984619142 67.30000000000001" stroke-miterlimit="10" stroke-dasharray=""/></g><g><path fill="none" stroke="#000000" paint-order="fill stroke markers" d=" M 36.529029846191406 78.30000000000001 L 23.529029846191406 96" stroke-miterlimit="10" stroke-dasharray=""/></g><g><path fill="none" stroke="#000000" paint-order="fill stroke markers" d=" M 36.529029846191406 78.30000000000001 L 49.529029846191406 96" stroke-miterlimit="10" stroke-dasharray=""/></g><g><g><path fill="none" stroke="none"/><text fill="#000000" stroke="none" font-family="currentFont" font-size="13px" font-style="normal" font-weight="bold" text-decoration="undefined" x="219.0290298461914" y="180.5" text-anchor="middle" dominant-baseline="central" transform="matrix(1 0 0 1 -182 -70)">Utente</text></g></g><g><path fill="none" stroke="#000000" paint-order="fill stroke markers" d=" M 159 82 L 64 82" stroke-miterlimit="10" stroke-dasharray=""/></g><g><path fill="none" stroke="#000000" paint-order="fill stroke markers" d=" M 491 183 L 396 100" stroke-miterlimit="10" stroke-dasharray="3"/></g><g><path fill="none" stroke="#000000" paint-order="fill stroke markers" d=" M 406.4228042212777 103.51641183095992 L 396 100 L 400.88355689272885 109.85651419496165" stroke-miterlimit="10" stroke-dasharray=""/></g><g><rect fill="#ffffff" stroke="none" x="552" y="208" width="56.33973693847656" height="13" transform="matrix(1 0 0 1 -182 -70)"/></g><g><g><path fill="none" stroke="none"/><text fill="#000000" stroke="none" font-family="currentFont" font-size="13px" font-style="normal" font-weight="normal" text-decoration="undefined" x="580.1698684692383" y="214.5" text-anchor="middle" dominant-baseline="central" transform="matrix(1 0 0 1 -182 -70)">«extend»</text></g></g><g><path fill="none" stroke="#000000" paint-order="fill stroke markers" d=" M 698 137 L 564 183" stroke-miterlimit="10" stroke-dasharray=""/></g><g><path fill="#FFFFFF" stroke="none" paint-order="stroke fill markers" d=" M 580.4906293695137 168.43774938420125 L 564 183 L 585.9577020129865 184.36356969344794"/></g><g><path fill="none" stroke="#000000" paint-order="fill stroke markers" d=" M 580.4906293695137 168.43774938420125 L 564 183 L 585.9577020129865 184.36356969344794 L 580.4906293695137 168.43774938420125" stroke-miterlimit="10" stroke-dasharray=""/></g><g><path fill="none" stroke="#000000" paint-order="fill stroke markers" d=" M 699 266 L 567 220" stroke-miterlimit="10" stroke-dasharray=""/></g><g><path fill="#FFFFFF" stroke="none" paint-order="stroke fill markers" d=" M 588.9637995135158 218.73844899822427 L 567 220 L 583.4228028447972 234.63870030846056"/></g><g><path fill="none" stroke="#000000" paint-order="fill stroke markers" d=" M 588.9637995135158 218.73844899822427 L 567 220 L 583.4228028447972 234.63870030846056 L 588.9637995135158 218.73844899822427" stroke-miterlimit="10" stroke-dasharray=""/></g></g></svg>