<svg version="1.1" xmlns="http://www.w3.org/2000/svg" xmlns:xlink="http://www.w3.org/1999/xlink" width="837" height="308"><defs/><g><g><rect fill="#ffffff" stroke="none" x="152" y="32" width="712" height="288" transform="matrix(1 0 0 1 -38 -22)"/></g><g><path fill="none" stroke="#000000" paint-order="fill stroke markers" d=" M 114 10 L 826 10 L 826 298 L 114 298 L 114 10 Z Z" stroke-miterlimit="10" stroke-dasharray=""/></g><g><g><path fill="none" stroke="none"/><text fill="#000000" stroke="none" font-family="currentFont" font-size="13px" font-style="normal" font-weight="bold" text-decoration="undefined" x="508.5" y="45.5" text-anchor="middle" dominant-baseline="central" transform="matrix(1 0 0 1 -38 -22)">WMS3</text></g></g><g><path fill="#FFFFFF" stroke="none" paint-order="stroke fill markers" d=" M 154 83.5 C 154 73.835016 218.69484640000002 66 298.5 66 C 378.3051536 66 443 73.835016 443 83.5 C 443 93.164984 378.3051536 101 298.5 101 C 218.69484640000002 101 154 93.164984 154 83.5 Z"/></g><g><path fill="none" stroke="#000000" paint-order="fill stroke markers" d=" M 154 83.5 C 154 73.835016 218.69484640000002 66 298.5 66 C 378.3051536 66 443 73.835016 443 83.5 C 443 93.164984 378.3051536 101 298.5 101 C 218.69484640000002 101 154 93.164984 154 83.5 Z" stroke-miterlimit="10" stroke-dasharray=""/></g><g><g><path fill="none" stroke="none"/><text fill="#000000" stroke="none" font-family="currentFont" font-size="13px" font-style="normal" font-weight="bold" text-decoration="undefined" x="336.5" y="106.5" text-anchor="middle" dominant-baseline="central" transform="matrix(1 0 0 1 -38 -22)">UC–17 Visualizzazione lista zone</text></g></g><g><path fill="#FFFFFF" stroke="none" paint-order="stroke fill markers" d=" M 474 235.5 C 474 225.835016 541.3811376 218 624.5 218 C 707.6188624 218 775 225.835016 775 235.5 C 775 245.164984 707.6188624 253 624.5 253 C 541.3811376 253 474 245.164984 474 235.5 Z"/></g><g><path fill="none" stroke="#000000" paint-order="fill stroke markers" d=" M 474 235.5 C 474 225.835016 541.3811376 218 624.5 218 C 707.6188624 218 775 225.835016 775 235.5 C 775 245.164984 707.6188624 253 624.5 253 C 541.3811376 253 474 245.164984 474 235.5 Z" stroke-miterlimit="10" stroke-dasharray=""/></g><g><g><path fill="none" stroke="none"/><text fill="#000000" stroke="none" font-family="currentFont" font-size="13px" font-style="normal" font-weight="bold" text-decoration="undefined" x="662.5" y="258.5" text-anchor="middle" dominant-baseline="central" transform="matrix(1 0 0 1 -38 -22)">UC–17.1.1 Visualizzazione ID zona</text></g></g><g><path fill="none" stroke="#000000" paint-order="fill stroke markers" d=" M 338 102 L 419 141" stroke-miterlimit="10" stroke-dasharray="3"/></g><g><path fill="none" stroke="#000000" paint-order="fill stroke markers" d=" M 408.0172584340002 140.38405544530298 L 419 141 L 411.6695675341234 132.798490391201" stroke-miterlimit="10" stroke-dasharray=""/></g><g><rect fill="#FFFFFF" stroke="none" x="421" y="125" width="58.26020812988281" height="13" transform="matrix(1 0 0 1 -38 -22)"/></g><g><g><path fill="none" stroke="none"/><text fill="#000000" stroke="none" font-family="currentFont" font-size="13px" font-style="normal" font-weight="normal" text-decoration="undefined" x="450.1301040649414" y="131.5" text-anchor="middle" dominant-baseline="central" transform="matrix(1 0 0 1 -38 -22)">«include»</text></g></g><g><path fill="#ffffff" stroke="none" paint-order="stroke fill markers" d=" M 290 159.5 C 290 149.835016 364.3207232 142 456 142 C 547.6792768 142 622 149.835016 622 159.5 C 622 169.164984 547.6792768 177 456 177 C 364.3207232 177 290 169.164984 290 159.5 Z"/></g><g><path fill="none" stroke="#000000" paint-order="fill stroke markers" d=" M 290 159.5 C 290 149.835016 364.3207232 142 456 142 C 547.6792768 142 622 149.835016 622 159.5 C 622 169.164984 547.6792768 177 456 177 C 364.3207232 177 290 169.164984 290 159.5 Z" stroke-miterlimit="10" stroke-dasharray=""/></g><g><g><path fill="none" stroke="none"/><text fill="#000000" stroke="none" font-family="currentFont" font-size="13px" font-style="normal" font-weight="bold" text-decoration="undefined" x="494" y="182.5" text-anchor="middle" dominant-baseline="central" transform="matrix(1 0 0 1 -38 -22)">UC–17.1 Visualizzazione singola zona</text></g></g><g><path fill="none" stroke="#000000" paint-order="fill stroke markers" d=" M 498 178 L 584 217" stroke-miterlimit="10" stroke-dasharray="3"/></g><g><path fill="none" stroke="#000000" paint-order="fill stroke markers" d=" M 573.0060078393535 216.63649433065837 L 584 217 L 576.4831109146863 208.9690362671039" stroke-miterlimit="10" stroke-dasharray=""/></g><g><rect fill="#ffffff" stroke="none" x="614" y="207" width="58.26020812988281" height="13" transform="matrix(1 0 0 1 -38 -22)"/></g><g><g><path fill="none" stroke="none"/><text fill="#000000" stroke="none" font-family="currentFont" font-size="13px" font-style="normal" font-weight="normal" text-decoration="undefined" x="643.1301040649414" y="213.5" text-anchor="middle" dominant-baseline="central" transform="matrix(1 0 0 1 -38 -22)">«include»</text></g></g><g><path fill="#ffffff" stroke="none" paint-order="stroke fill markers" d=" M 31.436367187499997 51.849999999999994 C 31.436367187499997 46.962279519999996 35.3941695555 43 40.2763671875 43 C 45.1585648195 43 49.1163671875 46.962279519999996 49.1163671875 51.849999999999994 C 49.1163671875 56.73772047999999 45.1585648195 60.7 40.2763671875 60.7 C 35.3941695555 60.7 31.436367187499997 56.73772047999999 31.436367187499997 51.849999999999994 Z"/></g><g><path fill="none" stroke="#000000" paint-order="fill stroke markers" d=" M 31.436367187499997 51.849999999999994 C 31.436367187499997 46.962279519999996 35.3941695555 43 40.2763671875 43 C 45.1585648195 43 49.1163671875 46.962279519999996 49.1163671875 51.849999999999994 C 49.1163671875 56.73772047999999 45.1585648195 60.7 40.2763671875 60.7 C 35.3941695555 60.7 31.436367187499997 56.73772047999999 31.436367187499997 51.849999999999994 Z" stroke-miterlimit="10" stroke-dasharray=""/></g><g><path fill="none" stroke="#000000" paint-order="fill stroke markers" d=" M 40.2763671875 60.7 L 40.2763671875 78.3" stroke-miterlimit="10" stroke-dasharray=""/></g><g><path fill="none" stroke="#000000" paint-order="fill stroke markers" d=" M 30.9163671875 67.3 L 49.6363671875 67.3" stroke-miterlimit="10" stroke-dasharray=""/></g><g><path fill="none" stroke="#000000" paint-order="fill stroke markers" d=" M 40.2763671875 78.3 L 27.2763671875 96" stroke-miterlimit="10" stroke-dasharray=""/></g><g><path fill="none" stroke="#000000" paint-order="fill stroke markers" d=" M 40.2763671875 78.3 L 53.2763671875 96" stroke-miterlimit="10" stroke-dasharray=""/></g><g><g><path fill="none" stroke="none"/><text fill="#000000" stroke="none" font-family="currentFont" font-size="13px" font-style="normal" font-weight="bold" text-decoration="undefined" x="78.7763671875" y="132.5" text-anchor="middle" dominant-baseline="central" transform="matrix(1 0 0 1 -38 -22)">Utente</text></g></g><g><path fill="none" stroke="#000000" paint-order="fill stroke markers" d=" M 153 82 L 72 82" stroke-miterlimit="10" stroke-dasharray=""/></g></g></svg>