<svg version="1.1" xmlns="http://www.w3.org/2000/svg" xmlns:xlink="http://www.w3.org/1999/xlink" width="669" height="156"><defs/><g><g><rect fill="#ffffff" stroke="none" x="184" y="72" width="560" height="136" transform="matrix(1 0 0 1 -86 -62)"/></g><g><path fill="none" stroke="#000000" paint-order="fill stroke markers" d=" M 98 10 L 658 10 L 658 146 L 98 146 L 98 10 Z Z" stroke-miterlimit="10" stroke-dasharray=""/></g><g><g><path fill="none" stroke="none"/><text fill="#000000" stroke="none" font-family="currentFont" font-size="13px" font-style="normal" font-weight="bold" text-decoration="undefined" x="464.5" y="85.5" text-anchor="middle" dominant-baseline="central" transform="matrix(1 0 0 1 -86 -62)">WMS3</text></g></g><g><path fill="#FFFFFF" stroke="none" paint-order="stroke fill markers" d=" M 370 82.5 C 370 72.835016 426.4121152 65 496 65 C 565.5878848 65 622 72.835016 622 82.5 C 622 92.164984 565.5878848 100 496 100 C 426.4121152 100 370 92.164984 370 82.5 Z"/></g><g><path fill="none" stroke="#000000" paint-order="fill stroke markers" d=" M 370 82.5 C 370 72.835016 426.4121152 65 496 65 C 565.5878848 65 622 72.835016 622 82.5 C 622 92.164984 565.5878848 100 496 100 C 426.4121152 100 370 92.164984 370 82.5 Z" stroke-miterlimit="10" stroke-dasharray=""/></g><g><g><path fill="none" stroke="none"/><text fill="#000000" stroke="none" font-family="currentFont" font-size="13px" font-style="normal" font-weight="bold" text-decoration="undefined" x="582" y="145.5" text-anchor="middle" dominant-baseline="central" transform="matrix(1 0 0 1 -86 -62)">UC–18.1 Ricerca per ID zona</text></g></g><g><path fill="#FFFFFF" stroke="none" paint-order="stroke fill markers" d=" M 130 82.5 C 130 72.835016 170.0705104 65 219.5 65 C 268.9294896 65 309 72.835016 309 82.5 C 309 92.164984 268.9294896 100 219.5 100 C 170.0705104 100 130 92.164984 130 82.5 Z"/></g><g><path fill="none" stroke="#000000" paint-order="fill stroke markers" d=" M 130 82.5 C 130 72.835016 170.0705104 65 219.5 65 C 268.9294896 65 309 72.835016 309 82.5 C 309 92.164984 268.9294896 100 219.5 100 C 170.0705104 100 130 92.164984 130 82.5 Z" stroke-miterlimit="10" stroke-dasharray=""/></g><g><g><path fill="none" stroke="none"/><text fill="#000000" stroke="none" font-family="currentFont" font-size="13px" font-style="normal" font-weight="bold" text-decoration="undefined" x="305.5" y="145.5" text-anchor="middle" dominant-baseline="central" transform="matrix(1 0 0 1 -86 -62)">UC–18 Ricerca zona</text></g></g><g><path fill="none" stroke="#000000" paint-order="fill stroke markers" d=" M 369 82 L 310 82" stroke-miterlimit="10" stroke-dasharray=""/></g><g><path fill="#FFFFFF" stroke="none" paint-order="stroke fill markers" d=" M 330.3253497152483 73.58096448796803 L 310 82 L 330.3253497152483 90.41903551203197"/></g><g><path fill="none" stroke="#000000" paint-order="fill stroke markers" d=" M 330.3253497152483 73.58096448796803 L 310 82 L 330.3253497152483 90.41903551203197 L 330.3253497152483 73.58096448796803" stroke-miterlimit="10" stroke-dasharray=""/></g><g><path fill="#ffffff" stroke="none" paint-order="stroke fill markers" d=" M 27.689029846191403 52.849999999999994 C 27.689029846191403 47.962279519999996 31.646832214191406 44 36.529029846191406 44 C 41.41122747819141 44 45.36902984619141 47.962279519999996 45.36902984619141 52.849999999999994 C 45.36902984619141 57.73772047999999 41.41122747819141 61.7 36.529029846191406 61.7 C 31.646832214191406 61.7 27.689029846191403 57.73772047999999 27.689029846191403 52.849999999999994 Z"/></g><g><path fill="none" stroke="#000000" paint-order="fill stroke markers" d=" M 27.689029846191403 52.849999999999994 C 27.689029846191403 47.962279519999996 31.646832214191406 44 36.529029846191406 44 C 41.41122747819141 44 45.36902984619141 47.962279519999996 45.36902984619141 52.849999999999994 C 45.36902984619141 57.73772047999999 41.41122747819141 61.7 36.529029846191406 61.7 C 31.646832214191406 61.7 27.689029846191403 57.73772047999999 27.689029846191403 52.849999999999994 Z" stroke-miterlimit="10" stroke-dasharray=""/></g><g><path fill="none" stroke="#000000" paint-order="fill stroke markers" d=" M 36.529029846191406 61.7 L 36.529029846191406 79.30000000000001" stroke-miterlimit="10" stroke-dasharray=""/></g><g><path fill="none" stroke="#000000" paint-order="fill stroke markers" d=" M 27.169029846191407 68.30000000000001 L 45.88902984619142 68.30000000000001" stroke-miterlimit="10" stroke-dasharray=""/></g><g><path fill="none" stroke="#000000" paint-order="fill stroke markers" d=" M 36.529029846191406 79.30000000000001 L 23.529029846191406 97" stroke-miterlimit="10" stroke-dasharray=""/></g><g><path fill="none" stroke="#000000" paint-order="fill stroke markers" d=" M 36.529029846191406 79.30000000000001 L 49.529029846191406 97" stroke-miterlimit="10" stroke-dasharray=""/></g><g><g><path fill="none" stroke="none"/><text fill="#000000" stroke="none" font-family="currentFont" font-size="13px" font-style="normal" font-weight="bold" text-decoration="undefined" x="123.0290298461914" y="173.5" text-anchor="middle" dominant-baseline="central" transform="matrix(1 0 0 1 -86 -62)">Utente</text></g></g><g><path fill="none" stroke="#000000" paint-order="fill stroke markers" d=" M 129 82 L 64 83" stroke-miterlimit="10" stroke-dasharray=""/></g></g></svg>