<svg version="1.1" xmlns="http://www.w3.org/2000/svg" xmlns:xlink="http://www.w3.org/1999/xlink" width="909" height="564"><defs/><g><g><rect fill="#ffffff" stroke="none" x="280" y="192" width="776" height="544" transform="matrix(1 0 0 1 -158 -182)"/></g><g><path fill="none" stroke="#000000" paint-order="fill stroke markers" d=" M 122 10 L 898 10 L 898 554 L 122 554 L 122 10 Z Z" stroke-miterlimit="10" stroke-dasharray=""/></g><g><g><path fill="none" stroke="none"/><text fill="#000000" stroke="none" font-family="currentFont" font-size="13px" font-style="normal" font-weight="bold" text-decoration="undefined" x="668.5" y="205.5" text-anchor="middle" dominant-baseline="central" transform="matrix(1 0 0 1 -158 -182)">WMS3</text></g></g><g><path fill="#FFFFFF" stroke="none" paint-order="stroke fill markers" d=" M 178 219.5 C 178 209.835016 218.74208320000002 202 269 202 C 319.2579168 202 360 209.835016 360 219.5 C 360 229.164984 319.2579168 237 269 237 C 218.74208320000002 237 178 229.164984 178 219.5 Z"/></g><g><path fill="none" stroke="#000000" paint-order="fill stroke markers" d=" M 178 219.5 C 178 209.835016 218.74208320000002 202 269 202 C 319.2579168 202 360 209.835016 360 219.5 C 360 229.164984 319.2579168 237 269 237 C 218.74208320000002 237 178 229.164984 178 219.5 Z" stroke-miterlimit="10" stroke-dasharray=""/></g><g><g><path fill="none" stroke="none"/><text fill="#000000" stroke="none" font-family="currentFont" font-size="13px" font-style="normal" font-weight="bold" text-decoration="undefined" x="427" y="402.5" text-anchor="middle" dominant-baseline="central" transform="matrix(1 0 0 1 -158 -182)">UC–19 Ispezione bin</text></g></g><g><path fill="#FFFFFF" stroke="none" paint-order="stroke fill markers" d=" M 498 419.5 C 498 409.835016 577.0217328 402 674.5 402 C 771.9782672 402 851 409.835016 851 419.5 C 851 429.164984 771.9782672 437 674.5 437 C 577.0217328 437 498 429.164984 498 419.5 Z"/></g><g><path fill="none" stroke="#000000" paint-order="fill stroke markers" d=" M 498 419.5 C 498 409.835016 577.0217328 402 674.5 402 C 771.9782672 402 851 409.835016 851 419.5 C 851 429.164984 771.9782672 437 674.5 437 C 577.0217328 437 498 429.164984 498 419.5 Z" stroke-miterlimit="10" stroke-dasharray=""/></g><g><g><path fill="none" stroke="none"/><text fill="#000000" stroke="none" font-family="currentFont" font-size="13px" font-style="normal" font-weight="bold" text-decoration="undefined" x="832.5" y="602.5" text-anchor="middle" dominant-baseline="central" transform="matrix(1 0 0 1 -158 -182)">UC–19.5 Evidenziazione bin selezionato</text></g></g><g><path fill="none" stroke="#000000" paint-order="fill stroke markers" d=" M 307 238 L 638 401" stroke-miterlimit="10" stroke-dasharray="3"/></g><g><path fill="none" stroke="#000000" paint-order="fill stroke markers" d=" M 627.0231493615901 400.28673282562534 L 638 401 L 630.7425505333065 392.7338384217104" stroke-miterlimit="10" stroke-dasharray=""/></g><g><rect fill="#FFFFFF" stroke="none" x="585" y="512" width="58.26020812988281" height="13" transform="matrix(1 0 0 1 -158 -182)"/></g><g><g><path fill="none" stroke="none"/><text fill="#000000" stroke="none" font-family="currentFont" font-size="13px" font-style="normal" font-weight="normal" text-decoration="undefined" x="614.1301040649414" y="518.5" text-anchor="middle" dominant-baseline="central" transform="matrix(1 0 0 1 -158 -182)">«include»</text></g></g><g><path fill="#ffffff" stroke="none" paint-order="stroke fill markers" d=" M 27.689029846191403 187.85000000000002 C 27.689029846191403 182.96227952000004 31.64683221419139 179 36.529029846191406 179 C 41.41122747819142 179 45.36902984619141 182.96227952000004 45.36902984619141 187.85000000000002 C 45.36902984619141 192.73772048 41.41122747819142 196.7 36.529029846191406 196.7 C 31.64683221419139 196.7 27.689029846191403 192.73772048 27.689029846191403 187.85000000000002 Z"/></g><g><path fill="none" stroke="#000000" paint-order="fill stroke markers" d=" M 27.689029846191403 187.85000000000002 C 27.689029846191403 182.96227952000004 31.64683221419139 179 36.529029846191406 179 C 41.41122747819142 179 45.36902984619141 182.96227952000004 45.36902984619141 187.85000000000002 C 45.36902984619141 192.73772048 41.41122747819142 196.7 36.529029846191406 196.7 C 31.64683221419139 196.7 27.689029846191403 192.73772048 27.689029846191403 187.85000000000002 Z" stroke-miterlimit="10" stroke-dasharray=""/></g><g><path fill="none" stroke="#000000" paint-order="fill stroke markers" d=" M 36.529029846191406 196.7 L 36.529029846191406 214.3" stroke-miterlimit="10" stroke-dasharray=""/></g><g><path fill="none" stroke="#000000" paint-order="fill stroke markers" d=" M 27.169029846191393 203.3 L 45.88902984619142 203.3" stroke-miterlimit="10" stroke-dasharray=""/></g><g><path fill="none" stroke="#000000" paint-order="fill stroke markers" d=" M 36.529029846191406 214.3 L 23.529029846191406 232" stroke-miterlimit="10" stroke-dasharray=""/></g><g><path fill="none" stroke="#000000" paint-order="fill stroke markers" d=" M 36.529029846191406 214.3 L 49.529029846191406 232" stroke-miterlimit="10" stroke-dasharray=""/></g><g><g><path fill="none" stroke="none"/><text fill="#000000" stroke="none" font-family="currentFont" font-size="13px" font-style="normal" font-weight="bold" text-decoration="undefined" x="195.0290298461914" y="428.5" text-anchor="middle" dominant-baseline="central" transform="matrix(1 0 0 1 -158 -182)">Utente</text></g></g><g><path fill="none" stroke="#000000" paint-order="fill stroke markers" d=" M 177 219 L 64 218" stroke-miterlimit="10" stroke-dasharray=""/></g><g><path fill="#FFFFFF" stroke="none" paint-order="stroke fill markers" d=" M 250 491.5 C 250 481.835016 338.8714672 474 448.5 474 C 558.1285328 474 647 481.835016 647 491.5 C 647 501.164984 558.1285328 509 448.5 509 C 338.8714672 509 250 501.164984 250 491.5 Z"/></g><g><path fill="none" stroke="#000000" paint-order="fill stroke markers" d=" M 250 491.5 C 250 481.835016 338.8714672 474 448.5 474 C 558.1285328 474 647 481.835016 647 491.5 C 647 501.164984 558.1285328 509 448.5 509 C 338.8714672 509 250 501.164984 250 491.5 Z" stroke-miterlimit="10" stroke-dasharray=""/></g><g><g><path fill="none" stroke="none"/><text fill="#000000" stroke="none" font-family="currentFont" font-size="13px" font-style="normal" font-weight="bold" text-decoration="undefined" x="606.5" y="674.5" text-anchor="middle" dominant-baseline="central" transform="matrix(1 0 0 1 -158 -182)">UC–22 Visualizzazione informazioni prodotto</text></g></g><g><path fill="none" stroke="#000000" paint-order="fill stroke markers" d=" M 436 473 L 282 238" stroke-miterlimit="10" stroke-dasharray="3"/></g><g><path fill="none" stroke="#000000" paint-order="fill stroke markers" d=" M 291.0911464397513 244.1928229759131 L 282 238 L 284.04942417535204 248.8073984172641" stroke-miterlimit="10" stroke-dasharray=""/></g><g><rect fill="#ffffff" stroke="none" x="431" y="515" width="56.33973693847656" height="13" transform="matrix(1 0 0 1 -158 -182)"/></g><g><g><path fill="none" stroke="none"/><text fill="#000000" stroke="none" font-family="currentFont" font-size="13px" font-style="normal" font-weight="normal" text-decoration="undefined" x="459.1698684692383" y="521.5" text-anchor="middle" dominant-baseline="central" transform="matrix(1 0 0 1 -158 -182)">«extend»</text></g></g><g><path fill="#ffffff" stroke="none" paint-order="stroke fill markers" d=" M 154 394 L 279 394 L 289 404 L 289 446 L 154 446 L 154 394"/></g><g><path fill="none" stroke="#000000" paint-order="fill stroke markers" d=" M 154 394 L 279 394 L 289 404 L 289 446 L 154 446 L 154 394 L 154 394" stroke-miterlimit="10" stroke-dasharray=""/></g><g><path fill="none" stroke="#000000" paint-order="fill stroke markers" d=" M 279 394 L 279 404 L 289 404 L 279 394" stroke-miterlimit="10" stroke-dasharray=""/></g><g><g><path fill="none" stroke="none"/><text fill="#000000" stroke="none" font-family="currentFont" font-size="13px" font-style="normal" font-weight="normal" text-decoration="undefined" x="317" y="581" text-anchor="start" dominant-baseline="text-before-edge" transform="matrix(1 0 0 1 -158 -182)">Condition: il bin</text><text fill="#000000" stroke="none" font-family="currentFont" font-size="13px" font-style="normal" font-weight="normal" text-decoration="undefined" x="317" y="594" text-anchor="start" dominant-baseline="text-before-edge" transform="matrix(1 0 0 1 -158 -182)">contiene un prodotto</text></g></g><g><path fill="none" stroke="#000000" paint-order="fill stroke markers" d=" M 279 393 L 359 355" stroke-miterlimit="10" stroke-dasharray="3"/></g><g><path fill="#FFFFFF" stroke="none" paint-order="stroke fill markers" d=" M 502 75.5 C 502 65.835016 581.0217328 58 678.5 58 C 775.9782672 58 855 65.835016 855 75.5 C 855 85.164984 775.9782672 93 678.5 93 C 581.0217328 93 502 85.164984 502 75.5 Z"/></g><g><path fill="none" stroke="#000000" paint-order="fill stroke markers" d=" M 502 75.5 C 502 65.835016 581.0217328 58 678.5 58 C 775.9782672 58 855 65.835016 855 75.5 C 855 85.164984 775.9782672 93 678.5 93 C 581.0217328 93 502 85.164984 502 75.5 Z" stroke-miterlimit="10" stroke-dasharray=""/></g><g><g><path fill="none" stroke="none"/><text fill="#000000" stroke="none" font-family="currentFont" font-size="13px" font-style="normal" font-weight="bold" text-decoration="undefined" x="836.5" y="258.5" text-anchor="middle" dominant-baseline="central" transform="matrix(1 0 0 1 -158 -182)">UC–19.1 Visualizzazione ID bin</text></g></g><g><path fill="#ffffff" stroke="none" paint-order="stroke fill markers" d=" M 502 147.5 C 502 137.835016 581.0217328 130 678.5 130 C 775.9782672 130 855 137.835016 855 147.5 C 855 157.164984 775.9782672 165 678.5 165 C 581.0217328 165 502 157.164984 502 147.5 Z"/></g><g><path fill="none" stroke="#000000" paint-order="fill stroke markers" d=" M 502 147.5 C 502 137.835016 581.0217328 130 678.5 130 C 775.9782672 130 855 137.835016 855 147.5 C 855 157.164984 775.9782672 165 678.5 165 C 581.0217328 165 502 157.164984 502 147.5 Z" stroke-miterlimit="10" stroke-dasharray=""/></g><g><g><path fill="none" stroke="none"/><text fill="#000000" stroke="none" font-family="currentFont" font-size="13px" font-style="normal" font-weight="bold" text-decoration="undefined" x="836.5" y="330.5" text-anchor="middle" dominant-baseline="central" transform="matrix(1 0 0 1 -158 -182)">UC–19.2 Visualizzazione lunghezza bin</text></g></g><g><path fill="#ffffff" stroke="none" paint-order="stroke fill markers" d=" M 502 219.5 C 502 209.835016 581.0217328 202 678.5 202 C 775.9782672 202 855 209.835016 855 219.5 C 855 229.164984 775.9782672 237 678.5 237 C 581.0217328 237 502 229.164984 502 219.5 Z"/></g><g><path fill="none" stroke="#000000" paint-order="fill stroke markers" d=" M 502 219.5 C 502 209.835016 581.0217328 202 678.5 202 C 775.9782672 202 855 209.835016 855 219.5 C 855 229.164984 775.9782672 237 678.5 237 C 581.0217328 237 502 229.164984 502 219.5 Z" stroke-miterlimit="10" stroke-dasharray=""/></g><g><g><path fill="none" stroke="none"/><text fill="#000000" stroke="none" font-family="currentFont" font-size="13px" font-style="normal" font-weight="bold" text-decoration="undefined" x="836.5" y="402.5" text-anchor="middle" dominant-baseline="central" transform="matrix(1 0 0 1 -158 -182)">UC–19.3 Visualizzazione larghezza bin</text></g></g><g><path fill="#ffffff" stroke="none" paint-order="stroke fill markers" d=" M 502 291.5 C 502 281.835016 581.0217328 274 678.5 274 C 775.9782672 274 855 281.835016 855 291.5 C 855 301.164984 775.9782672 309 678.5 309 C 581.0217328 309 502 301.164984 502 291.5 Z"/></g><g><path fill="none" stroke="#000000" paint-order="fill stroke markers" d=" M 502 291.5 C 502 281.835016 581.0217328 274 678.5 274 C 775.9782672 274 855 281.835016 855 291.5 C 855 301.164984 775.9782672 309 678.5 309 C 581.0217328 309 502 301.164984 502 291.5 Z" stroke-miterlimit="10" stroke-dasharray=""/></g><g><g><path fill="none" stroke="none"/><text fill="#000000" stroke="none" font-family="currentFont" font-size="13px" font-style="normal" font-weight="bold" text-decoration="undefined" x="836.5" y="474.5" text-anchor="middle" dominant-baseline="central" transform="matrix(1 0 0 1 -158 -182)">UC–19.4 Visualizzazione altezza bin</text></g></g><g><path fill="none" stroke="#000000" paint-order="fill stroke markers" d=" M 361 235 L 576 273" stroke-miterlimit="10" stroke-dasharray="3"/></g><g><path fill="none" stroke="#000000" paint-order="fill stroke markers" d=" M 565.2597815236793 275.37649049669864 L 576 273 L 566.7250861383276 267.0859512296096" stroke-miterlimit="10" stroke-dasharray=""/></g><g><rect fill="#ffffff" stroke="none" x="582" y="302" width="58.26020812988281" height="13" transform="matrix(1 0 0 1 -158 -182)"/></g><g><g><path fill="none" stroke="none"/><text fill="#000000" stroke="none" font-family="currentFont" font-size="13px" font-style="normal" font-weight="normal" text-decoration="undefined" x="611.1301040649414" y="308.5" text-anchor="middle" dominant-baseline="central" transform="matrix(1 0 0 1 -158 -182)">«include»</text></g></g><g><path fill="none" stroke="#000000" paint-order="fill stroke markers" d=" M 361 219 L 501 219" stroke-miterlimit="10" stroke-dasharray="3"/></g><g><path fill="none" stroke="#000000" paint-order="fill stroke markers" d=" M 490.8373251423759 223.209517756016 L 501 219 L 490.8373251423758 214.790482243984" stroke-miterlimit="10" stroke-dasharray=""/></g><g><rect fill="#ffffff" stroke="none" x="582" y="447" width="58.26020812988281" height="13" transform="matrix(1 0 0 1 -158 -182)"/></g><g><g><path fill="none" stroke="none"/><text fill="#000000" stroke="none" font-family="currentFont" font-size="13px" font-style="normal" font-weight="normal" text-decoration="undefined" x="611.1301040649414" y="453.5" text-anchor="middle" dominant-baseline="central" transform="matrix(1 0 0 1 -158 -182)">«include»</text></g></g><g><path fill="none" stroke="#000000" paint-order="fill stroke markers" d=" M 361 203 L 570 166" stroke-miterlimit="10" stroke-dasharray="3"/></g><g><path fill="none" stroke="#000000" paint-order="fill stroke markers" d=" M 560.7267455661179 171.91665042101408 L 570 166 L 559.2591152715245 163.62652254074305" stroke-miterlimit="10" stroke-dasharray=""/></g><g><rect fill="#ffffff" stroke="none" x="582" y="376" width="58.26020812988281" height="13" transform="matrix(1 0 0 1 -158 -182)"/></g><g><g><path fill="none" stroke="none"/><text fill="#000000" stroke="none" font-family="currentFont" font-size="13px" font-style="normal" font-weight="normal" text-decoration="undefined" x="611.1301040649414" y="382.5" text-anchor="middle" dominant-baseline="central" transform="matrix(1 0 0 1 -158 -182)">«include»</text></g></g><g><path fill="none" stroke="#000000" paint-order="fill stroke markers" d=" M 320 201 L 624 94" stroke-miterlimit="10" stroke-dasharray="3"/></g><g><path fill="none" stroke="#000000" paint-order="fill stroke markers" d=" M 615.8113841566604 101.34483291642556 L 624 94 L 613.0161930467564 93.40335537052971" stroke-miterlimit="10" stroke-dasharray=""/></g><g><rect fill="#ffffff" stroke="none" x="582" y="408" width="58.26020812988281" height="13" transform="matrix(1 0 0 1 -158 -182)"/></g><g><g><path fill="none" stroke="none"/><text fill="#000000" stroke="none" font-family="currentFont" font-size="13px" font-style="normal" font-weight="normal" text-decoration="undefined" x="611.1301040649414" y="414.5" text-anchor="middle" dominant-baseline="central" transform="matrix(1 0 0 1 -158 -182)">«include»</text></g></g></g></svg>