<svg version="1.1" xmlns="http://www.w3.org/2000/svg" xmlns:xlink="http://www.w3.org/1999/xlink" width="1093" height="388"><defs/><g><g><rect fill="#ffffff" stroke="none" x="168" y="56" width="952" height="368" transform="matrix(1 0 0 1 -38 -46)"/></g><g><path fill="none" stroke="#000000" paint-order="fill stroke markers" d=" M 130 10 L 1082 10 L 1082 378 L 130 378 L 130 10 Z Z" stroke-miterlimit="10" stroke-dasharray=""/></g><g><g><path fill="none" stroke="none"/><text fill="#000000" stroke="none" font-family="Arial" font-size="13px" font-style="normal" font-weight="bold" text-decoration="undefined" x="644.5" y="69.5" text-anchor="middle" dominant-baseline="central" transform="matrix(1 0 0 1 -38 -46)">UC–2</text></g></g><g><path fill="#ffffff" stroke="none" paint-order="stroke fill markers" d=" M 26.748623046874997 171.85 C 26.748623046874997 166.96227952 30.706425414875 163 35.588623046875 163 C 40.470820678875 163 44.428623046875 166.96227952 44.428623046875 171.85 C 44.428623046875 176.73772047999998 40.470820678875 180.7 35.588623046875 180.7 C 30.706425414875 180.7 26.748623046874997 176.73772047999998 26.748623046874997 171.85 Z"/></g><g><path fill="none" stroke="#000000" paint-order="fill stroke markers" d=" M 26.748623046874997 171.85 C 26.748623046874997 166.96227952 30.706425414875 163 35.588623046875 163 C 40.470820678875 163 44.428623046875 166.96227952 44.428623046875 171.85 C 44.428623046875 176.73772047999998 40.470820678875 180.7 35.588623046875 180.7 C 30.706425414875 180.7 26.748623046874997 176.73772047999998 26.748623046874997 171.85 Z" stroke-miterlimit="10" stroke-dasharray=""/></g><g><path fill="none" stroke="#000000" paint-order="fill stroke markers" d=" M 35.588623046875 180.7 L 35.588623046875 198.3" stroke-miterlimit="10" stroke-dasharray=""/></g><g><path fill="none" stroke="#000000" paint-order="fill stroke markers" d=" M 26.228623046875 187.3 L 44.948623046875 187.3" stroke-miterlimit="10" stroke-dasharray=""/></g><g><path fill="none" stroke="#000000" paint-order="fill stroke markers" d=" M 35.588623046875 198.3 L 22.588623046875 216" stroke-miterlimit="10" stroke-dasharray=""/></g><g><path fill="none" stroke="#000000" paint-order="fill stroke markers" d=" M 35.588623046875 198.3 L 48.588623046875 216" stroke-miterlimit="10" stroke-dasharray=""/></g><g><g><path fill="none" stroke="none"/><text fill="#000000" stroke="none" font-family="Arial" font-size="13px" font-style="normal" font-weight="bold" text-decoration="undefined" x="74.088623046875" y="276.5" text-anchor="middle" dominant-baseline="central" transform="matrix(1 0 0 1 -38 -46)">Utente</text></g></g><g><path fill="#ffffff" stroke="none" paint-order="stroke fill markers" d=" M 183 96.5 C 183 86.835016 241.8745488 79 314.5 79 C 387.1254512 79 446 86.835016 446 96.5 C 446 106.164984 387.1254512 114 314.5 114 C 241.8745488 114 183 106.164984 183 96.5 Z"/></g><g><path fill="none" stroke="#000000" paint-order="fill stroke markers" d=" M 183 96.5 C 183 86.835016 241.8745488 79 314.5 79 C 387.1254512 79 446 86.835016 446 96.5 C 446 106.164984 387.1254512 114 314.5 114 C 241.8745488 114 183 106.164984 183 96.5 Z" stroke-miterlimit="10" stroke-dasharray=""/></g><g><g><path fill="none" stroke="none"/><text fill="#000000" stroke="none" font-family="Arial" font-size="13px" font-style="normal" font-weight="bold" text-decoration="undefined" x="352.5" y="143.5" text-anchor="middle" dominant-baseline="central" transform="matrix(1 0 0 1 -38 -46)">UC–2.1 Definizione larghezza</text></g></g><g><path fill="#ffffff" stroke="none" paint-order="stroke fill markers" d=" M 183 303.5 C 183 293.835016 241.8745488 286 314.5 286 C 387.1254512 286 446 293.835016 446 303.5 C 446 313.164984 387.1254512 321 314.5 321 C 241.8745488 321 183 313.164984 183 303.5 Z"/></g><g><path fill="none" stroke="#000000" paint-order="fill stroke markers" d=" M 183 303.5 C 183 293.835016 241.8745488 286 314.5 286 C 387.1254512 286 446 293.835016 446 303.5 C 446 313.164984 387.1254512 321 314.5 321 C 241.8745488 321 183 313.164984 183 303.5 Z" stroke-miterlimit="10" stroke-dasharray=""/></g><g><g><path fill="none" stroke="none"/><text fill="#000000" stroke="none" font-family="Arial" font-size="13px" font-style="normal" font-weight="bold" text-decoration="undefined" x="352.5" y="350.5" text-anchor="middle" dominant-baseline="central" transform="matrix(1 0 0 1 -38 -46)">UC–2.2 Definizione lunghezza</text></g></g><g><path fill="#ffffff" stroke="none" paint-order="stroke fill markers" d=" M 562 307.5 C 562 297.835016 670.7947936 290 805 290 C 939.2052064 290 1048 297.835016 1048 307.5 C 1048 317.164984 939.2052064 325 805 325 C 670.7947936 325 562 317.164984 562 307.5 Z"/></g><g><path fill="none" stroke="#000000" paint-order="fill stroke markers" d=" M 562 307.5 C 562 297.835016 670.7947936 290 805 290 C 939.2052064 290 1048 297.835016 1048 307.5 C 1048 317.164984 939.2052064 325 805 325 C 670.7947936 325 562 317.164984 562 307.5 Z" stroke-miterlimit="10" stroke-dasharray=""/></g><g><g><path fill="none" stroke="none"/><text fill="#000000" stroke="none" font-family="Arial" font-size="13px" font-style="normal" font-weight="bold" text-decoration="undefined" x="843" y="354.5" text-anchor="middle" dominant-baseline="central" transform="matrix(1 0 0 1 -38 -46)">UC–2.2.1 Visualizzazione errore lunghezza non positiva</text></g></g><g><path fill="#ffffff" stroke="none" paint-order="stroke fill markers" d=" M 562 96.5 C 562 86.835016 670.7947936 79 805 79 C 939.2052064 79 1048 86.835016 1048 96.5 C 1048 106.164984 939.2052064 114 805 114 C 670.7947936 114 562 106.164984 562 96.5 Z"/></g><g><path fill="none" stroke="#000000" paint-order="fill stroke markers" d=" M 562 96.5 C 562 86.835016 670.7947936 79 805 79 C 939.2052064 79 1048 86.835016 1048 96.5 C 1048 106.164984 939.2052064 114 805 114 C 670.7947936 114 562 106.164984 562 96.5 Z" stroke-miterlimit="10" stroke-dasharray=""/></g><g><g><path fill="none" stroke="none"/><text fill="#000000" stroke="none" font-family="Arial" font-size="13px" font-style="normal" font-weight="bold" text-decoration="undefined" x="843" y="143.5" text-anchor="middle" dominant-baseline="central" transform="matrix(1 0 0 1 -38 -46)">UC–2.1.1 Visualizzazione errore larghezza non positiva</text></g></g><g><path fill="#ffffff" stroke="none" paint-order="stroke fill markers" d=" M 506 203.5 C 506 193.835016 607.1836352 186 732 186 C 856.8163648 186 958 193.835016 958 203.5 C 958 213.164984 856.8163648 221 732 221 C 607.1836352 221 506 213.164984 506 203.5 Z"/></g><g><path fill="none" stroke="#000000" paint-order="fill stroke markers" d=" M 506 203.5 C 506 193.835016 607.1836352 186 732 186 C 856.8163648 186 958 193.835016 958 203.5 C 958 213.164984 856.8163648 221 732 221 C 607.1836352 221 506 213.164984 506 203.5 Z" stroke-miterlimit="10" stroke-dasharray=""/></g><g><g><path fill="none" stroke="none"/><text fill="#000000" stroke="none" font-family="Arial" font-size="13px" font-style="normal" font-weight="bold" text-decoration="undefined" x="770" y="250.5" text-anchor="middle" dominant-baseline="central" transform="matrix(1 0 0 1 -38 -46)">UC–2.3 Errore dimensione inferiore a quella iniziale</text></g></g><g><path fill="none" stroke="#000000" paint-order="fill stroke markers" d=" M 561 305 L 447 304" stroke-miterlimit="10" stroke-dasharray="3"/></g><g><path fill="none" stroke="#000000" paint-order="fill stroke markers" d=" M 457.1992080615523 299.8797870301202 L 447 304 L 457.1253597139909 308.2984986521214" stroke-miterlimit="10" stroke-dasharray=""/></g><g><rect fill="#ffffff" stroke="none" x="515" y="360" width="53.49169921875" height="13" transform="matrix(1 0 0 1 -38 -46)"/></g><g><g><path fill="none" stroke="none"/><text fill="#000000" stroke="none" font-family="Arial" font-size="13px" font-style="normal" font-weight="normal" text-decoration="undefined" x="541.745849609375" y="366.5" text-anchor="middle" dominant-baseline="central" transform="matrix(1 0 0 1 -38 -46)">«extend»</text></g></g><g><path fill="none" stroke="#000000" paint-order="fill stroke markers" d=" M 561 96 L 447 96" stroke-miterlimit="10" stroke-dasharray="3"/></g><g><path fill="none" stroke="#000000" paint-order="fill stroke markers" d=" M 457.16267485762415 91.790482243984 L 447 96 L 457.16267485762415 100.209517756016" stroke-miterlimit="10" stroke-dasharray=""/></g><g><rect fill="#ffffff" stroke="none" x="520" y="120" width="53.49169921875" height="13" transform="matrix(1 0 0 1 -38 -46)"/></g><g><g><path fill="none" stroke="none"/><text fill="#000000" stroke="none" font-family="Arial" font-size="13px" font-style="normal" font-weight="normal" text-decoration="undefined" x="546.745849609375" y="126.5" text-anchor="middle" dominant-baseline="central" transform="matrix(1 0 0 1 -38 -46)">«extend»</text></g></g><g><path fill="none" stroke="#000000" paint-order="fill stroke markers" d=" M 662 185 L 388 115" stroke-miterlimit="10" stroke-dasharray="3"/></g><g><path fill="none" stroke="#000000" paint-order="fill stroke markers" d=" M 398.88838781380974 113.43698662319238 L 388 115 L 396.8044702171598 121.59403550150788" stroke-miterlimit="10" stroke-dasharray=""/></g><g><rect fill="#ffffff" stroke="none" x="568" y="176" width="53.49169921875" height="13" transform="matrix(1 0 0 1 -38 -46)"/></g><g><g><path fill="none" stroke="none"/><text fill="#000000" stroke="none" font-family="Arial" font-size="13px" font-style="normal" font-weight="normal" text-decoration="undefined" x="594.745849609375" y="182.5" text-anchor="middle" dominant-baseline="central" transform="matrix(1 0 0 1 -38 -46)">«extend»</text></g></g><g><path fill="none" stroke="#000000" paint-order="fill stroke markers" d=" M 653 222 L 389 285" stroke-miterlimit="10" stroke-dasharray="3"/></g><g><path fill="none" stroke="#000000" paint-order="fill stroke markers" d=" M 397.9079993061789 278.54650882381355 L 389 285 L 399.8622140892131 286.7355993431952" stroke-miterlimit="10" stroke-dasharray=""/></g><g><rect fill="#ffffff" stroke="none" x="568" y="303" width="53.49169921875" height="13" transform="matrix(1 0 0 1 -38 -46)"/></g><g><g><path fill="none" stroke="none"/><text fill="#000000" stroke="none" font-family="Arial" font-size="13px" font-style="normal" font-weight="normal" text-decoration="undefined" x="594.745849609375" y="309.5" text-anchor="middle" dominant-baseline="central" transform="matrix(1 0 0 1 -38 -46)">«extend»</text></g></g><g><path fill="#ffffff" stroke="none" paint-order="stroke fill markers" d=" M 250 186 L 439 186 L 449 196 L 449 223 L 250 223 L 250 186"/></g><g><path fill="none" stroke="#000000" paint-order="fill stroke markers" d=" M 250 186 L 439 186 L 449 196 L 449 223 L 250 223 L 250 186 L 250 186" stroke-miterlimit="10" stroke-dasharray=""/></g><g><path fill="none" stroke="#000000" paint-order="fill stroke markers" d=" M 439 186 L 439 196 L 449 196 L 439 186" stroke-miterlimit="10" stroke-dasharray=""/></g><g><g><path fill="none" stroke="none"/><text fill="#000000" stroke="none" font-family="Arial" font-size="13px" font-style="normal" font-weight="normal" text-decoration="undefined" x="293" y="237" text-anchor="start" dominant-baseline="text-before-edge" transform="matrix(1 0 0 1 -38 -46)">Condition: planimetria definita</text><text fill="#000000" stroke="none" font-family="Arial" font-size="13px" font-style="normal" font-weight="normal" text-decoration="undefined" x="293" y="250" text-anchor="start" dominant-baseline="text-before-edge" transform="matrix(1 0 0 1 -38 -46)">tramite file SVG</text></g></g><g><path fill="none" stroke="#000000" paint-order="fill stroke markers" d=" M 62 192 L 264 115" stroke-miterlimit="10" stroke-dasharray=""/></g><g><path fill="none" stroke="#000000" paint-order="fill stroke markers" d=" M 62 212 L 264 285" stroke-miterlimit="10" stroke-dasharray=""/></g><g><path fill="none" stroke="#000000" paint-order="fill stroke markers" d=" M 421 225 L 521 253" stroke-miterlimit="10" stroke-dasharray="3"/></g><g><path fill="none" stroke="#000000" paint-order="fill stroke markers" d=" M 414 185 L 525 150" stroke-miterlimit="10" stroke-dasharray="3"/></g></g></svg>