<svg version="1.1" xmlns="http://www.w3.org/2000/svg" xmlns:xlink="http://www.w3.org/1999/xlink" width="653" height="156"><defs/><g><g><rect fill="#ffffff" stroke="none" x="160" y="40" width="536" height="136" transform="matrix(1 0 0 1 -54 -30)"/></g><g><path fill="none" stroke="#000000" paint-order="fill stroke markers" d=" M 106 10 L 642 10 L 642 146 L 106 146 L 106 10 Z Z" stroke-miterlimit="10" stroke-dasharray=""/></g><g><g><path fill="none" stroke="none"/><text fill="#000000" stroke="none" font-family="currentFont" font-size="13px" font-style="normal" font-weight="bold" text-decoration="undefined" x="428.5" y="53.5" text-anchor="middle" dominant-baseline="central" transform="matrix(1 0 0 1 -54 -30)">WMS3</text></g></g><g><path fill="#FFFFFF" stroke="none" paint-order="stroke fill markers" d=" M 154 83.5 C 154 73.835016 254.73591999999996 66 379 66 C 503.26408000000004 66 604 73.835016 604 83.5 C 604 93.164984 503.26408000000004 101 379 101 C 254.73591999999996 101 154 93.164984 154 83.5 Z"/></g><g><path fill="none" stroke="#000000" paint-order="fill stroke markers" d=" M 154 83.5 C 154 73.835016 254.73591999999996 66 379 66 C 503.26408000000004 66 604 73.835016 604 83.5 C 604 93.164984 503.26408000000004 101 379 101 C 254.73591999999996 101 154 93.164984 154 83.5 Z" stroke-miterlimit="10" stroke-dasharray=""/></g><g><g><path fill="none" stroke="none"/><text fill="#000000" stroke="none" font-family="currentFont" font-size="13px" font-style="normal" font-weight="bold" text-decoration="undefined" x="433" y="114.5" text-anchor="middle" dominant-baseline="central" transform="matrix(1 0 0 1 -54 -30)">UC–21 Spostamento camera su uno specifico bin</text></g></g><g><path fill="#ffffff" stroke="none" paint-order="stroke fill markers" d=" M 27.689029846191403 51.849999999999994 C 27.689029846191403 46.962279519999996 31.646832214191406 43 36.529029846191406 43 C 41.41122747819141 43 45.36902984619141 46.962279519999996 45.36902984619141 51.849999999999994 C 45.36902984619141 56.73772047999999 41.41122747819141 60.7 36.529029846191406 60.7 C 31.646832214191406 60.7 27.689029846191403 56.73772047999999 27.689029846191403 51.849999999999994 Z"/></g><g><path fill="none" stroke="#000000" paint-order="fill stroke markers" d=" M 27.689029846191403 51.849999999999994 C 27.689029846191403 46.962279519999996 31.646832214191406 43 36.529029846191406 43 C 41.41122747819141 43 45.36902984619141 46.962279519999996 45.36902984619141 51.849999999999994 C 45.36902984619141 56.73772047999999 41.41122747819141 60.7 36.529029846191406 60.7 C 31.646832214191406 60.7 27.689029846191403 56.73772047999999 27.689029846191403 51.849999999999994 Z" stroke-miterlimit="10" stroke-dasharray=""/></g><g><path fill="none" stroke="#000000" paint-order="fill stroke markers" d=" M 36.529029846191406 60.7 L 36.529029846191406 78.3" stroke-miterlimit="10" stroke-dasharray=""/></g><g><path fill="none" stroke="#000000" paint-order="fill stroke markers" d=" M 27.169029846191407 67.3 L 45.889029846191406 67.3" stroke-miterlimit="10" stroke-dasharray=""/></g><g><path fill="none" stroke="#000000" paint-order="fill stroke markers" d=" M 36.529029846191406 78.3 L 23.529029846191406 96" stroke-miterlimit="10" stroke-dasharray=""/></g><g><path fill="none" stroke="#000000" paint-order="fill stroke markers" d=" M 36.529029846191406 78.3 L 49.529029846191406 96" stroke-miterlimit="10" stroke-dasharray=""/></g><g><g><path fill="none" stroke="none"/><text fill="#000000" stroke="none" font-family="currentFont" font-size="13px" font-style="normal" font-weight="bold" text-decoration="undefined" x="91.0290298461914" y="140.5" text-anchor="middle" dominant-baseline="central" transform="matrix(1 0 0 1 -54 -30)">Utente</text></g></g><g><path fill="none" stroke="#000000" paint-order="fill stroke markers" d=" M 153 82 L 64 82" stroke-miterlimit="10" stroke-dasharray=""/></g></g></svg>