<svg version="1.1" xmlns="http://www.w3.org/2000/svg" xmlns:xlink="http://www.w3.org/1999/xlink" width="645" height="164"><defs/><g><g><rect fill="#ffffff" stroke="none" x="200" y="72" width="528" height="144" transform="matrix(1 0 0 1 -94 -62)"/></g><g><path fill="none" stroke="#000000" paint-order="fill stroke markers" d=" M 106 10 L 634 10 L 634 154 L 106 154 L 106 10 Z Z" stroke-miterlimit="10" stroke-dasharray=""/></g><g><g><path fill="none" stroke="none"/><text fill="#000000" stroke="none" font-family="currentFont" font-size="13px" font-style="normal" font-weight="bold" text-decoration="undefined" x="464.5" y="85.5" text-anchor="middle" dominant-baseline="central" transform="matrix(1 0 0 1 -94 -62)">WMS3</text></g></g><g><path fill="#FFFFFF" stroke="none" paint-order="stroke fill markers" d=" M 170 83.5 C 170 73.835016 261.3339008 66 374 66 C 486.66609919999996 66 578 73.835016 578 83.5 C 578 93.164984 486.66609919999996 101 374 101 C 261.3339008 101 170 93.164984 170 83.5 Z"/></g><g><path fill="none" stroke="#000000" paint-order="fill stroke markers" d=" M 170 83.5 C 170 73.835016 261.3339008 66 374 66 C 486.66609919999996 66 578 73.835016 578 83.5 C 578 93.164984 486.66609919999996 101 374 101 C 261.3339008 101 170 93.164984 170 83.5 Z" stroke-miterlimit="10" stroke-dasharray=""/></g><g><g><path fill="none" stroke="none"/><text fill="#000000" stroke="none" font-family="Inter" font-size="13px" font-style="normal" font-weight="bold" text-decoration="undefined" x="468" y="146.5" text-anchor="middle" dominant-baseline="central" transform="matrix(1 0 0 1 -94 -62)">UC–22 Visualizzazione informazioni prodotto</text></g></g><g><path fill="#ffffff" stroke="none" paint-order="stroke fill markers" d=" M 26.748623046874997 51.849999999999994 C 26.748623046874997 46.962279519999996 30.706425414875 43 35.588623046875 43 C 40.470820678875015 43 44.428623046875 46.962279519999996 44.428623046875 51.849999999999994 C 44.428623046875 56.73772047999999 40.470820678875015 60.7 35.588623046875 60.7 C 30.706425414875 60.7 26.748623046874997 56.73772047999999 26.748623046874997 51.849999999999994 Z"/></g><g><path fill="none" stroke="#000000" paint-order="fill stroke markers" d=" M 26.748623046874997 51.849999999999994 C 26.748623046874997 46.962279519999996 30.706425414875 43 35.588623046875 43 C 40.470820678875015 43 44.428623046875 46.962279519999996 44.428623046875 51.849999999999994 C 44.428623046875 56.73772047999999 40.470820678875015 60.7 35.588623046875 60.7 C 30.706425414875 60.7 26.748623046874997 56.73772047999999 26.748623046874997 51.849999999999994 Z" stroke-miterlimit="10" stroke-dasharray=""/></g><g><path fill="none" stroke="#000000" paint-order="fill stroke markers" d=" M 35.588623046875 60.7 L 35.588623046875 78.30000000000001" stroke-miterlimit="10" stroke-dasharray=""/></g><g><path fill="none" stroke="#000000" paint-order="fill stroke markers" d=" M 26.228623046875 67.30000000000001 L 44.948623046875014 67.30000000000001" stroke-miterlimit="10" stroke-dasharray=""/></g><g><path fill="none" stroke="#000000" paint-order="fill stroke markers" d=" M 35.588623046875 78.30000000000001 L 22.588623046875 96" stroke-miterlimit="10" stroke-dasharray=""/></g><g><path fill="none" stroke="#000000" paint-order="fill stroke markers" d=" M 35.588623046875 78.30000000000001 L 48.588623046875 96" stroke-miterlimit="10" stroke-dasharray=""/></g><g><g><path fill="none" stroke="none"/><text fill="#000000" stroke="none" font-family="currentFont" font-size="13px" font-style="normal" font-weight="bold" text-decoration="undefined" x="130.088623046875" y="172.5" text-anchor="middle" dominant-baseline="central" transform="matrix(1 0 0 1 -94 -62)">Utente</text></g></g><g><path fill="none" stroke="#000000" paint-order="fill stroke markers" d=" M 62 82 L 169 82" stroke-miterlimit="10" stroke-dasharray=""/></g></g></svg>