<svg version="1.1" xmlns="http://www.w3.org/2000/svg" xmlns:xlink="http://www.w3.org/1999/xlink" width="613" height="468"><defs/><g><g><rect fill="#ffffff" stroke="none" x="200" y="40" width="464" height="448" transform="matrix(1 0 0 1 -62 -30)"/></g><g><path fill="none" stroke="#000000" paint-order="fill stroke markers" d=" M 138 10 L 602 10 L 602 458 L 138 458 L 138 10 Z Z" stroke-miterlimit="10" stroke-dasharray=""/></g><g><g><path fill="none" stroke="none"/><text fill="#000000" stroke="none" font-family="currentFont" font-size="13px" font-style="normal" font-weight="bold" text-decoration="undefined" x="432.5" y="53.5" text-anchor="middle" dominant-baseline="central" transform="matrix(1 0 0 1 -62 -30)">UC–22</text></g></g><g><path fill="#ffffff" stroke="none" paint-order="stroke fill markers" d=" M 26.748623046874997 235.85000000000002 C 26.748623046874997 230.96227952000004 30.706425414875 227 35.588623046875 227 C 40.470820678875 227 44.428623046875 230.96227952000004 44.428623046875 235.85000000000002 C 44.428623046875 240.73772048 40.470820678875 244.7 35.588623046875 244.7 C 30.706425414875 244.7 26.748623046874997 240.73772048 26.748623046874997 235.85000000000002 Z"/></g><g><path fill="none" stroke="#000000" paint-order="fill stroke markers" d=" M 26.748623046874997 235.85000000000002 C 26.748623046874997 230.96227952000004 30.706425414875 227 35.588623046875 227 C 40.470820678875 227 44.428623046875 230.96227952000004 44.428623046875 235.85000000000002 C 44.428623046875 240.73772048 40.470820678875 244.7 35.588623046875 244.7 C 30.706425414875 244.7 26.748623046874997 240.73772048 26.748623046874997 235.85000000000002 Z" stroke-miterlimit="10" stroke-dasharray=""/></g><g><path fill="none" stroke="#000000" paint-order="fill stroke markers" d=" M 35.588623046875 244.7 L 35.588623046875 262.3" stroke-miterlimit="10" stroke-dasharray=""/></g><g><path fill="none" stroke="#000000" paint-order="fill stroke markers" d=" M 26.228623046875 251.3 L 44.948623046875 251.3" stroke-miterlimit="10" stroke-dasharray=""/></g><g><path fill="none" stroke="#000000" paint-order="fill stroke markers" d=" M 35.588623046875 262.3 L 22.588623046875 280" stroke-miterlimit="10" stroke-dasharray=""/></g><g><path fill="none" stroke="#000000" paint-order="fill stroke markers" d=" M 35.588623046875 262.3 L 48.588623046875 280" stroke-miterlimit="10" stroke-dasharray=""/></g><g><g><path fill="none" stroke="none"/><text fill="#000000" stroke="none" font-family="currentFont" font-size="13px" font-style="normal" font-weight="bold" text-decoration="undefined" x="98.088623046875" y="324.5" text-anchor="middle" dominant-baseline="central" transform="matrix(1 0 0 1 -62 -30)">Utente</text></g></g><g><path fill="none" stroke="#000000" paint-order="fill stroke markers" d=" M 336 94 L 62 250" stroke-miterlimit="10" stroke-dasharray=""/></g><g><path fill="none" stroke="#000000" paint-order="fill stroke markers" d=" M 62 255 L 322 149" stroke-miterlimit="10" stroke-dasharray=""/></g><g><path fill="none" stroke="#000000" paint-order="fill stroke markers" d=" M 62 259 L 291 204" stroke-miterlimit="10" stroke-dasharray=""/></g><g><path fill="none" stroke="#000000" paint-order="fill stroke markers" d=" M 62 264 L 177 255" stroke-miterlimit="10" stroke-dasharray=""/></g><g><path fill="none" stroke="#000000" paint-order="fill stroke markers" d=" M 62 268 L 177 278" stroke-miterlimit="10" stroke-dasharray=""/></g><g><path fill="none" stroke="#000000" paint-order="fill stroke markers" d=" M 62 273 L 297 332" stroke-miterlimit="10" stroke-dasharray=""/></g><g><path fill="none" stroke="#000000" paint-order="fill stroke markers" d=" M 62 277 L 326 387" stroke-miterlimit="10" stroke-dasharray=""/></g><g><path fill="#ffffff" stroke="none" paint-order="stroke fill markers" d=" M 178 75.5 C 178 65.835016 263.5136032 58 369 58 C 474.48639679999997 58 560 65.835016 560 75.5 C 560 85.164984 474.48639679999997 93 369 93 C 263.5136032 93 178 85.164984 178 75.5 Z"/></g><g><path fill="none" stroke="#000000" paint-order="fill stroke markers" d=" M 178 75.5 C 178 65.835016 263.5136032 58 369 58 C 474.48639679999997 58 560 65.835016 560 75.5 C 560 85.164984 474.48639679999997 93 369 93 C 263.5136032 93 178 85.164984 178 75.5 Z" stroke-miterlimit="10" stroke-dasharray=""/></g><g><g><path fill="none" stroke="none"/><text fill="#000000" stroke="none" font-family="currentFont" font-size="13px" font-style="normal" font-weight="bold" text-decoration="undefined" x="431" y="106.5" text-anchor="middle" dominant-baseline="central" transform="matrix(1 0 0 1 -62 -30)">UC–22.1 Visualizzazione ID prodotto</text></g></g><g><path fill="#ffffff" stroke="none" paint-order="stroke fill markers" d=" M 178 130.5 C 178 120.835016 263.5136032 113 369 113 C 474.48639679999997 113 560 120.835016 560 130.5 C 560 140.164984 474.48639679999997 148 369 148 C 263.5136032 148 178 140.164984 178 130.5 Z"/></g><g><path fill="none" stroke="#000000" paint-order="fill stroke markers" d=" M 178 130.5 C 178 120.835016 263.5136032 113 369 113 C 474.48639679999997 113 560 120.835016 560 130.5 C 560 140.164984 474.48639679999997 148 369 148 C 263.5136032 148 178 140.164984 178 130.5 Z" stroke-miterlimit="10" stroke-dasharray=""/></g><g><g><path fill="none" stroke="none"/><text fill="#000000" stroke="none" font-family="Inter" font-size="13px" font-style="normal" font-weight="bold" text-decoration="undefined" x="431" y="161.5" text-anchor="middle" dominant-baseline="central" transform="matrix(1 0 0 1 -62 -30)">UC–22.2 Visualizzazione nome prodotto</text></g></g><g><path fill="#ffffff" stroke="none" paint-order="stroke fill markers" d=" M 178 185.5 C 178 175.835016 263.5136032 168 369 168 C 474.48639679999997 168 560 175.835016 560 185.5 C 560 195.164984 474.48639679999997 203 369 203 C 263.5136032 203 178 195.164984 178 185.5 Z"/></g><g><path fill="none" stroke="#000000" paint-order="fill stroke markers" d=" M 178 185.5 C 178 175.835016 263.5136032 168 369 168 C 474.48639679999997 168 560 175.835016 560 185.5 C 560 195.164984 474.48639679999997 203 369 203 C 263.5136032 203 178 195.164984 178 185.5 Z" stroke-miterlimit="10" stroke-dasharray=""/></g><g><g><path fill="none" stroke="none"/><text fill="#000000" stroke="none" font-family="currentFont" font-size="13px" font-style="normal" font-weight="bold" text-decoration="undefined" x="431" y="216.5" text-anchor="middle" dominant-baseline="central" transform="matrix(1 0 0 1 -62 -30)">UC–22.3 Visualizzazione categoria prodotto</text></g></g><g><path fill="#ffffff" stroke="none" paint-order="stroke fill markers" d=" M 178 240.5 C 178 230.835016 263.5136032 223 369 223 C 474.48639679999997 223 560 230.835016 560 240.5 C 560 250.164984 474.48639679999997 258 369 258 C 263.5136032 258 178 250.164984 178 240.5 Z"/></g><g><path fill="none" stroke="#000000" paint-order="fill stroke markers" d=" M 178 240.5 C 178 230.835016 263.5136032 223 369 223 C 474.48639679999997 223 560 230.835016 560 240.5 C 560 250.164984 474.48639679999997 258 369 258 C 263.5136032 258 178 250.164984 178 240.5 Z" stroke-miterlimit="10" stroke-dasharray=""/></g><g><g><path fill="none" stroke="none"/><text fill="#000000" stroke="none" font-family="currentFont" font-size="13px" font-style="normal" font-weight="bold" text-decoration="undefined" x="431" y="271.5" text-anchor="middle" dominant-baseline="central" transform="matrix(1 0 0 1 -62 -30)">UC–22.4 Visualizzazione larghezza prodotto</text></g></g><g><path fill="#ffffff" stroke="none" paint-order="stroke fill markers" d=" M 178 295.5 C 178 285.835016 263.5136032 278 369 278 C 474.48639679999997 278 560 285.835016 560 295.5 C 560 305.164984 474.48639679999997 313 369 313 C 263.5136032 313 178 305.164984 178 295.5 Z"/></g><g><path fill="none" stroke="#000000" paint-order="fill stroke markers" d=" M 178 295.5 C 178 285.835016 263.5136032 278 369 278 C 474.48639679999997 278 560 285.835016 560 295.5 C 560 305.164984 474.48639679999997 313 369 313 C 263.5136032 313 178 305.164984 178 295.5 Z" stroke-miterlimit="10" stroke-dasharray=""/></g><g><g><path fill="none" stroke="none"/><text fill="#000000" stroke="none" font-family="currentFont" font-size="13px" font-style="normal" font-weight="bold" text-decoration="undefined" x="431" y="326.5" text-anchor="middle" dominant-baseline="central" transform="matrix(1 0 0 1 -62 -30)">UC–22.5 Visualizzazione lunghezza prodotto</text></g></g><g><path fill="#ffffff" stroke="none" paint-order="stroke fill markers" d=" M 178 350.5 C 178 340.835016 263.5136032 333 369 333 C 474.48639679999997 333 560 340.835016 560 350.5 C 560 360.164984 474.48639679999997 368 369 368 C 263.5136032 368 178 360.164984 178 350.5 Z"/></g><g><path fill="none" stroke="#000000" paint-order="fill stroke markers" d=" M 178 350.5 C 178 340.835016 263.5136032 333 369 333 C 474.48639679999997 333 560 340.835016 560 350.5 C 560 360.164984 474.48639679999997 368 369 368 C 263.5136032 368 178 360.164984 178 350.5 Z" stroke-miterlimit="10" stroke-dasharray=""/></g><g><g><path fill="none" stroke="none"/><text fill="#000000" stroke="none" font-family="currentFont" font-size="13px" font-style="normal" font-weight="bold" text-decoration="undefined" x="431" y="381.5" text-anchor="middle" dominant-baseline="central" transform="matrix(1 0 0 1 -62 -30)">UC–22.6 Visualizzazione altezza prodotto</text></g></g><g><path fill="#ffffff" stroke="none" paint-order="stroke fill markers" d=" M 178 405.5 C 178 395.835016 263.5136032 388 369 388 C 474.48639679999997 388 560 395.835016 560 405.5 C 560 415.164984 474.48639679999997 423 369 423 C 263.5136032 423 178 415.164984 178 405.5 Z"/></g><g><path fill="none" stroke="#000000" paint-order="fill stroke markers" d=" M 178 405.5 C 178 395.835016 263.5136032 388 369 388 C 474.48639679999997 388 560 395.835016 560 405.5 C 560 415.164984 474.48639679999997 423 369 423 C 263.5136032 423 178 415.164984 178 405.5 Z" stroke-miterlimit="10" stroke-dasharray=""/></g><g><g><path fill="none" stroke="none"/><text fill="#000000" stroke="none" font-family="currentFont" font-size="13px" font-style="normal" font-weight="bold" text-decoration="undefined" x="431" y="436.5" text-anchor="middle" dominant-baseline="central" transform="matrix(1 0 0 1 -62 -30)">UC–22.7 Visualizzazione peso prodotto</text></g></g></g></svg>