<svg version="1.1" xmlns="http://www.w3.org/2000/svg" xmlns:xlink="http://www.w3.org/1999/xlink" width="669" height="399"><defs/><g><g><rect fill="#ffffff" stroke="none" x="176" y="53" width="544" height="379" transform="matrix(1 0 0 1 -62 -43)"/></g><g><path fill="none" stroke="#000000" paint-order="fill stroke markers" d=" M 114 10 L 658 10 L 658 389 L 114 389 L 114 10 Z Z" stroke-miterlimit="10" stroke-dasharray=""/></g><g><g><path fill="none" stroke="none"/><text fill="#000000" stroke="none" font-family="currentFont" font-size="13px" font-style="normal" font-weight="bold" text-decoration="undefined" x="448.5" y="66.5" text-anchor="middle" dominant-baseline="central" transform="matrix(1 0 0 1 -62 -43)">UC–23.1.1</text></g></g><g><path fill="#FFFFFF" stroke="none" paint-order="stroke fill markers" d=" M 178 91.5 C 178 81.835016 270.4531888 74 384.5 74 C 498.5468112 74 591 81.835016 591 91.5 C 591 101.164984 498.5468112 109 384.5 109 C 270.4531888 109 178 101.164984 178 91.5 Z"/></g><g><path fill="none" stroke="#000000" paint-order="fill stroke markers" d=" M 178 91.5 C 178 81.835016 270.4531888 74 384.5 74 C 498.5468112 74 591 81.835016 591 91.5 C 591 101.164984 498.5468112 109 384.5 109 C 270.4531888 109 178 101.164984 178 91.5 Z" stroke-miterlimit="10" stroke-dasharray=""/></g><g><g><path fill="none" stroke="none"/><text fill="#000000" stroke="none" font-family="currentFont" font-size="13px" font-style="normal" font-weight="bold" text-decoration="undefined" x="446.5" y="135.5" text-anchor="middle" dominant-baseline="central" transform="matrix(1 0 0 1 -62 -43)">UC–23.1.1.1 Visualizzazione nome prodotto</text></g></g><g><path fill="#FFFFFF" stroke="none" paint-order="stroke fill markers" d=" M 178 199.5 C 178 189.835016 270.4531888 182 384.5 182 C 498.5468112 182 591 189.835016 591 199.5 C 591 209.164984 498.5468112 217 384.5 217 C 270.4531888 217 178 209.164984 178 199.5 Z"/></g><g><path fill="none" stroke="#000000" paint-order="fill stroke markers" d=" M 178 199.5 C 178 189.835016 270.4531888 182 384.5 182 C 498.5468112 182 591 189.835016 591 199.5 C 591 209.164984 498.5468112 217 384.5 217 C 270.4531888 217 178 209.164984 178 199.5 Z" stroke-miterlimit="10" stroke-dasharray=""/></g><g><g><path fill="none" stroke="none"/><text fill="#000000" stroke="none" font-family="currentFont" font-size="13px" font-style="normal" font-weight="bold" text-decoration="undefined" x="446.5" y="243.5" text-anchor="middle" dominant-baseline="central" transform="matrix(1 0 0 1 -62 -43)">UC–23.1.1.2 Visualizzazione ID prodotto</text></g></g><g><path fill="#FFFFFF" stroke="none" paint-order="stroke fill markers" d=" M 178 307.5 C 178 297.835016 270.4531888 290 384.5 290 C 498.5468112 290 591 297.835016 591 307.5 C 591 317.164984 498.5468112 325 384.5 325 C 270.4531888 325 178 317.164984 178 307.5 Z"/></g><g><path fill="none" stroke="#000000" paint-order="fill stroke markers" d=" M 178 307.5 C 178 297.835016 270.4531888 290 384.5 290 C 498.5468112 290 591 297.835016 591 307.5 C 591 317.164984 498.5468112 325 384.5 325 C 270.4531888 325 178 317.164984 178 307.5 Z" stroke-miterlimit="10" stroke-dasharray=""/></g><g><g><path fill="none" stroke="none"/><text fill="#000000" stroke="none" font-family="currentFont" font-size="13px" font-style="normal" font-weight="bold" text-decoration="undefined" x="446.5" y="351.5" text-anchor="middle" dominant-baseline="central" transform="matrix(1 0 0 1 -62 -43)">UC–23.1.1.3 Visualizzazione categoria prodotto</text></g></g><g><path fill="#ffffff" stroke="none" paint-order="stroke fill markers" d=" M 26.748623046874997 166.85 C 26.748623046874997 161.96227952 30.706425414875 158 35.588623046875 158 C 40.470820678875 158 44.428623046875 161.96227952 44.428623046875 166.85 C 44.428623046875 171.73772047999998 40.470820678875 175.7 35.588623046875 175.7 C 30.706425414875 175.7 26.748623046874997 171.73772047999998 26.748623046874997 166.85 Z"/></g><g><path fill="none" stroke="#000000" paint-order="fill stroke markers" d=" M 26.748623046874997 166.85 C 26.748623046874997 161.96227952 30.706425414875 158 35.588623046875 158 C 40.470820678875 158 44.428623046875 161.96227952 44.428623046875 166.85 C 44.428623046875 171.73772047999998 40.470820678875 175.7 35.588623046875 175.7 C 30.706425414875 175.7 26.748623046874997 171.73772047999998 26.748623046874997 166.85 Z" stroke-miterlimit="10" stroke-dasharray=""/></g><g><path fill="none" stroke="#000000" paint-order="fill stroke markers" d=" M 35.588623046875 175.7 L 35.588623046875 193.3" stroke-miterlimit="10" stroke-dasharray=""/></g><g><path fill="none" stroke="#000000" paint-order="fill stroke markers" d=" M 26.228623046875 182.3 L 44.948623046875 182.3" stroke-miterlimit="10" stroke-dasharray=""/></g><g><path fill="none" stroke="#000000" paint-order="fill stroke markers" d=" M 35.588623046875 193.3 L 22.588623046875 211" stroke-miterlimit="10" stroke-dasharray=""/></g><g><path fill="none" stroke="#000000" paint-order="fill stroke markers" d=" M 35.588623046875 193.3 L 48.588623046875 211" stroke-miterlimit="10" stroke-dasharray=""/></g><g><g><path fill="none" stroke="none"/><text fill="#000000" stroke="none" font-family="currentFont" font-size="13px" font-style="normal" font-weight="bold" text-decoration="undefined" x="98.088623046875" y="268.5" text-anchor="middle" dominant-baseline="central" transform="matrix(1 0 0 1 -62 -43)">Utente</text></g></g><g><path fill="none" stroke="#000000" paint-order="fill stroke markers" d=" M 321 110 L 62 189" stroke-miterlimit="10" stroke-dasharray=""/></g><g><path fill="none" stroke="#000000" paint-order="fill stroke markers" d=" M 62 206 L 327 289" stroke-miterlimit="10" stroke-dasharray=""/></g><g><path fill="none" stroke="#000000" paint-order="fill stroke markers" d=" M 62 197 L 177 198" stroke-miterlimit="10" stroke-dasharray=""/></g></g></svg>