<svg version="1.1" xmlns="http://www.w3.org/2000/svg" xmlns:xlink="http://www.w3.org/1999/xlink" width="989" height="420"><defs/><g><g><rect fill="#ffffff" stroke="none" x="128" y="32" width="880" height="400" transform="matrix(1 0 0 1 -30 -22)"/></g><g><path fill="none" stroke="#000000" paint-order="fill stroke markers" d=" M 98 10 L 978 10 L 978 410 L 98 410 L 98 10 Z Z" stroke-miterlimit="10" stroke-dasharray=""/></g><g><g><path fill="none" stroke="none"/><text fill="#000000" stroke="none" font-family="currentFont" font-size="13px" font-style="normal" font-weight="bold" text-decoration="undefined" x="568.5" y="45.5" text-anchor="middle" dominant-baseline="central" transform="matrix(1 0 0 1 -30 -22)">WMS3</text></g></g><g><path fill="#FFFFFF" stroke="none" paint-order="stroke fill markers" d=" M 142 84.5 C 142 69.8644528 221.469448 58 319.5 58 C 417.530552 58 497 69.8644528 497 84.5 C 497 99.1355472 417.530552 111 319.5 111 C 221.469448 111 142 99.1355472 142 84.5 Z"/></g><g><path fill="none" stroke="#000000" paint-order="fill stroke markers" d=" M 142 84.5 C 142 69.8644528 221.469448 58 319.5 58 C 417.530552 58 497 69.8644528 497 84.5 C 497 99.1355472 417.530552 111 319.5 111 C 221.469448 111 142 99.1355472 142 84.5 Z" stroke-miterlimit="10" stroke-dasharray=""/></g><g><g><path fill="none" stroke="none"/><text fill="#000000" stroke="none" font-family="currentFont" font-size="13px" font-style="normal" font-weight="bold" text-decoration="undefined" x="349.5" y="101" text-anchor="middle" dominant-baseline="central" transform="matrix(1 0 0 1 -30 -22)">UC–23.1 Visualizzazione lista prodotti</text><text fill="#000000" stroke="none" font-family="currentFont" font-size="13px" font-style="normal" font-weight="bold" text-decoration="undefined" x="349.5" y="114" text-anchor="middle" dominant-baseline="central" transform="matrix(1 0 0 1 -30 -22)">non collocati</text></g></g><g><path fill="#FFFFFF" stroke="none" paint-order="stroke fill markers" d=" M 142 332.5 C 142 317.8644528 221.469448 306 319.5 306 C 417.530552 306 497 317.8644528 497 332.5 C 497 347.1355472 417.530552 359 319.5 359 C 221.469448 359 142 347.1355472 142 332.5 Z"/></g><g><path fill="none" stroke="#000000" paint-order="fill stroke markers" d=" M 142 332.5 C 142 317.8644528 221.469448 306 319.5 306 C 417.530552 306 497 317.8644528 497 332.5 C 497 347.1355472 417.530552 359 319.5 359 C 221.469448 359 142 347.1355472 142 332.5 Z" stroke-miterlimit="10" stroke-dasharray=""/></g><g><g><path fill="none" stroke="none"/><text fill="#000000" stroke="none" font-family="currentFont" font-size="13px" font-style="normal" font-weight="bold" text-decoration="undefined" x="349.5" y="349" text-anchor="middle" dominant-baseline="central" transform="matrix(1 0 0 1 -30 -22)">UC–23.2 Visualizzazione lista prodotti</text><text fill="#000000" stroke="none" font-family="currentFont" font-size="13px" font-style="normal" font-weight="bold" text-decoration="undefined" x="349.5" y="362" text-anchor="middle" dominant-baseline="central" transform="matrix(1 0 0 1 -30 -22)">collocati</text></g></g><g><path fill="#ffffff" stroke="none" paint-order="stroke fill markers" d=" M 602 84.5 C 602 69.8644528 675.4252928 58 766 58 C 856.5747072 58 930 69.8644528 930 84.5 C 930 99.1355472 856.5747072 111 766 111 C 675.4252928 111 602 99.1355472 602 84.5 Z"/></g><g><path fill="none" stroke="#000000" paint-order="fill stroke markers" d=" M 602 84.5 C 602 69.8644528 675.4252928 58 766 58 C 856.5747072 58 930 69.8644528 930 84.5 C 930 99.1355472 856.5747072 111 766 111 C 675.4252928 111 602 99.1355472 602 84.5 Z" stroke-miterlimit="10" stroke-dasharray=""/></g><g><g><path fill="none" stroke="none"/><text fill="#000000" stroke="none" font-family="currentFont" font-size="13px" font-style="normal" font-weight="bold" text-decoration="undefined" x="796" y="101" text-anchor="middle" dominant-baseline="central" transform="matrix(1 0 0 1 -30 -22)">UC–23.1.1 Visualizzazione singolo</text><text fill="#000000" stroke="none" font-family="currentFont" font-size="13px" font-style="normal" font-weight="bold" text-decoration="undefined" x="796" y="114" text-anchor="middle" dominant-baseline="central" transform="matrix(1 0 0 1 -30 -22)">prodotto</text></g></g><g><path fill="none" stroke="#000000" paint-order="fill stroke markers" d=" M 498 84 L 601 84" stroke-miterlimit="10" stroke-dasharray="3"/></g><g><path fill="none" stroke="#000000" paint-order="fill stroke markers" d=" M 590.8373251423759 88.20951775601598 L 601 84 L 590.8373251423758 79.79048224398402" stroke-miterlimit="10" stroke-dasharray=""/></g><g><rect fill="#ffffff" stroke="none" x="546" y="111" width="70.20002746582031" height="13" transform="matrix(1 0 0 1 -30 -22)"/></g><g><g><path fill="none" stroke="none"/><text fill="#000000" stroke="none" font-family="currentFont" font-size="13px" font-style="normal" font-weight="normal" text-decoration="undefined" x="581.1000137329102" y="117.5" text-anchor="middle" dominant-baseline="central" transform="matrix(1 0 0 1 -30 -22)">«include»</text></g></g><g><path fill="#ffffff" stroke="none" paint-order="stroke fill markers" d=" M 602 332.5 C 602 317.8644528 675.4252928 306 766 306 C 856.5747072 306 930 317.8644528 930 332.5 C 930 347.1355472 856.5747072 359 766 359 C 675.4252928 359 602 347.1355472 602 332.5 Z"/></g><g><path fill="none" stroke="#000000" paint-order="fill stroke markers" d=" M 602 332.5 C 602 317.8644528 675.4252928 306 766 306 C 856.5747072 306 930 317.8644528 930 332.5 C 930 347.1355472 856.5747072 359 766 359 C 675.4252928 359 602 347.1355472 602 332.5 Z" stroke-miterlimit="10" stroke-dasharray=""/></g><g><g><path fill="none" stroke="none"/><text fill="#000000" stroke="none" font-family="currentFont" font-size="13px" font-style="normal" font-weight="bold" text-decoration="undefined" x="796" y="349" text-anchor="middle" dominant-baseline="central" transform="matrix(1 0 0 1 -30 -22)">UC–23.2.1 Visualizzazione singolo</text><text fill="#000000" stroke="none" font-family="currentFont" font-size="13px" font-style="normal" font-weight="bold" text-decoration="undefined" x="796" y="362" text-anchor="middle" dominant-baseline="central" transform="matrix(1 0 0 1 -30 -22)">prodotto collocato</text></g></g><g><path fill="none" stroke="#000000" paint-order="fill stroke markers" d=" M 498 332 L 601 332" stroke-miterlimit="10" stroke-dasharray="3"/></g><g><path fill="none" stroke="#000000" paint-order="fill stroke markers" d=" M 590.8373251423759 336.209517756016 L 601 332 L 590.8373251423758 327.790482243984" stroke-miterlimit="10" stroke-dasharray=""/></g><g><rect fill="#ffffff" stroke="none" x="542" y="360" width="70.20002746582031" height="13" transform="matrix(1 0 0 1 -30 -22)"/></g><g><g><path fill="none" stroke="none"/><text fill="#000000" stroke="none" font-family="currentFont" font-size="13px" font-style="normal" font-weight="normal" text-decoration="undefined" x="577.1000137329102" y="366.5" text-anchor="middle" dominant-baseline="central" transform="matrix(1 0 0 1 -30 -22)">«include»</text></g></g><g><path fill="none" stroke="#000000" paint-order="fill stroke markers" d=" M 766 305 L 766 112" stroke-miterlimit="10" stroke-dasharray=""/></g><g><path fill="#FFFFFF" stroke="none" paint-order="stroke fill markers" d=" M 774.419035512032 132.3253497152483 L 766 112 L 757.580964487968 132.3253497152483"/></g><g><path fill="none" stroke="#000000" paint-order="fill stroke markers" d=" M 774.419035512032 132.3253497152483 L 766 112 L 757.580964487968 132.3253497152483 L 774.419035512032 132.3253497152483" stroke-miterlimit="10" stroke-dasharray=""/></g><g><path fill="#ffffff" stroke="none" paint-order="stroke fill markers" d=" M 26.748623046874997 179.85 C 26.748623046874997 174.96227952 30.706425414875 171 35.588623046875 171 C 40.470820678875 171 44.428623046875 174.96227952 44.428623046875 179.85 C 44.428623046875 184.73772047999998 40.470820678875 188.7 35.588623046875 188.7 C 30.706425414875 188.7 26.748623046874997 184.73772047999998 26.748623046874997 179.85 Z"/></g><g><path fill="none" stroke="#000000" paint-order="fill stroke markers" d=" M 26.748623046874997 179.85 C 26.748623046874997 174.96227952 30.706425414875 171 35.588623046875 171 C 40.470820678875 171 44.428623046875 174.96227952 44.428623046875 179.85 C 44.428623046875 184.73772047999998 40.470820678875 188.7 35.588623046875 188.7 C 30.706425414875 188.7 26.748623046874997 184.73772047999998 26.748623046874997 179.85 Z" stroke-miterlimit="10" stroke-dasharray=""/></g><g><path fill="none" stroke="#000000" paint-order="fill stroke markers" d=" M 35.588623046875 188.7 L 35.588623046875 206.3" stroke-miterlimit="10" stroke-dasharray=""/></g><g><path fill="none" stroke="#000000" paint-order="fill stroke markers" d=" M 26.228623046875 195.3 L 44.948623046875 195.3" stroke-miterlimit="10" stroke-dasharray=""/></g><g><path fill="none" stroke="#000000" paint-order="fill stroke markers" d=" M 35.588623046875 206.3 L 22.588623046875 224" stroke-miterlimit="10" stroke-dasharray=""/></g><g><path fill="none" stroke="#000000" paint-order="fill stroke markers" d=" M 35.588623046875 206.3 L 48.588623046875 224" stroke-miterlimit="10" stroke-dasharray=""/></g><g><g><path fill="none" stroke="none"/><text fill="#000000" stroke="none" font-family="currentFont" font-size="13px" font-style="normal" font-weight="bold" text-decoration="undefined" x="66.088623046875" y="260.5" text-anchor="middle" dominant-baseline="central" transform="matrix(1 0 0 1 -30 -22)">Utente</text></g></g><g><path fill="none" stroke="#000000" paint-order="fill stroke markers" d=" M 62 210 L 141 209" stroke-miterlimit="10" stroke-dasharray=""/></g><g><path fill="none" stroke="#000000" paint-order="fill stroke markers" d=" M 319 305 L 319 227" stroke-miterlimit="10" stroke-dasharray=""/></g><g><path fill="#FFFFFF" stroke="none" paint-order="stroke fill markers" d=" M 327.419035512032 247.3253497152483 L 319 227 L 310.580964487968 247.3253497152483"/></g><g><path fill="none" stroke="#000000" paint-order="fill stroke markers" d=" M 327.419035512032 247.3253497152483 L 319 227 L 310.580964487968 247.3253497152483 L 327.419035512032 247.3253497152483" stroke-miterlimit="10" stroke-dasharray=""/></g><g><path fill="#ffffff" stroke="none" paint-order="stroke fill markers" d=" M 142 208.5 C 142 198.835016 221.469448 191 319.5 191 C 417.530552 191 497 198.835016 497 208.5 C 497 218.164984 417.530552 226 319.5 226 C 221.469448 226 142 218.164984 142 208.5 Z"/></g><g><path fill="none" stroke="#000000" paint-order="fill stroke markers" d=" M 142 208.5 C 142 198.835016 221.469448 191 319.5 191 C 417.530552 191 497 198.835016 497 208.5 C 497 218.164984 417.530552 226 319.5 226 C 221.469448 226 142 218.164984 142 208.5 Z" stroke-miterlimit="10" stroke-dasharray=""/></g><g><g><path fill="none" stroke="none"/><text fill="#000000" stroke="none" font-family="currentFont" font-size="13px" font-style="normal" font-weight="bold" text-decoration="undefined" x="349.5" y="231.5" text-anchor="middle" dominant-baseline="central" transform="matrix(1 0 0 1 -30 -22)">UC–23 Visualizzazione lista prodotti</text></g></g><g><path fill="none" stroke="#000000" paint-order="fill stroke markers" d=" M 319 112 L 319 190" stroke-miterlimit="10" stroke-dasharray=""/></g><g><path fill="#FFFFFF" stroke="none" paint-order="stroke fill markers" d=" M 310.580964487968 169.6746502847517 L 319 190 L 327.419035512032 169.6746502847517"/></g><g><path fill="none" stroke="#000000" paint-order="fill stroke markers" d=" M 310.580964487968 169.6746502847517 L 319 190 L 327.419035512032 169.6746502847517 L 310.580964487968 169.6746502847517" stroke-miterlimit="10" stroke-dasharray=""/></g></g></svg>