<svg version="1.1" xmlns="http://www.w3.org/2000/svg" xmlns:xlink="http://www.w3.org/1999/xlink" width="989" height="348"><defs/><g><g><rect fill="#ffffff" stroke="none" x="168" y="56" width="880" height="328" transform="matrix(1 0 0 1 -70 -46)"/></g><g><path fill="none" stroke="#000000" paint-order="fill stroke markers" d=" M 98 10 L 978 10 L 978 338 L 98 338 L 98 10 Z Z" stroke-miterlimit="10" stroke-dasharray=""/></g><g><g><path fill="none" stroke="none"/><text fill="#000000" stroke="none" font-family="currentFont" font-size="13px" font-style="normal" font-weight="bold" text-decoration="undefined" x="608.5" y="69.5" text-anchor="middle" dominant-baseline="central" transform="matrix(1 0 0 1 -70 -46)">WMS3</text></g></g><g><path fill="#FFFFFF" stroke="none" paint-order="stroke fill markers" d=" M 234 179.5 C 234 169.835016 352.4206704 162 498.5 162 C 644.5793295999999 162 763 169.835016 763 179.5 C 763 189.164984 644.5793295999999 197 498.5 197 C 352.4206704 197 234 189.164984 234 179.5 Z"/></g><g><path fill="none" stroke="#000000" paint-order="fill stroke markers" d=" M 234 179.5 C 234 169.835016 352.4206704 162 498.5 162 C 644.5793295999999 162 763 169.835016 763 179.5 C 763 189.164984 644.5793295999999 197 498.5 197 C 352.4206704 197 234 189.164984 234 179.5 Z" stroke-miterlimit="10" stroke-dasharray=""/></g><g><g><path fill="none" stroke="none"/><text fill="#000000" stroke="none" font-family="currentFont" font-size="13px" font-style="normal" font-weight="bold" text-decoration="undefined" x="568.5" y="226.5" text-anchor="middle" dominant-baseline="central" transform="matrix(1 0 0 1 -70 -46)">UC–26.1 Visualizzazione singolo ordine di movimentazione</text></g></g><g><path fill="#ffffff" stroke="none" paint-order="stroke fill markers" d=" M 146 77.5 C 146 67.835016 264.4206704 60 410.5 60 C 556.5793295999999 60 675 67.835016 675 77.5 C 675 87.164984 556.5793295999999 95 410.5 95 C 264.4206704 95 146 87.164984 146 77.5 Z"/></g><g><path fill="none" stroke="#000000" paint-order="fill stroke markers" d=" M 146 77.5 C 146 67.835016 264.4206704 60 410.5 60 C 556.5793295999999 60 675 67.835016 675 77.5 C 675 87.164984 556.5793295999999 95 410.5 95 C 264.4206704 95 146 87.164984 146 77.5 Z" stroke-miterlimit="10" stroke-dasharray=""/></g><g><g><path fill="none" stroke="none"/><text fill="#000000" stroke="none" font-family="currentFont" font-size="13px" font-style="normal" font-weight="bold" text-decoration="undefined" x="480.5" y="124.5" text-anchor="middle" dominant-baseline="central" transform="matrix(1 0 0 1 -70 -46)">UC–26 Visualizzazione cronologia ordini di movimentazione</text></g></g><g><path fill="none" stroke="#000000" paint-order="fill stroke markers" d=" M 426 96 L 482 161" stroke-miterlimit="10" stroke-dasharray="3"/></g><g><path fill="none" stroke="#000000" paint-order="fill stroke markers" d=" M 472.1775631612902 156.0482594424227 L 482 161 L 478.55589763051114 150.55307897663235" stroke-miterlimit="10" stroke-dasharray=""/></g><g><rect fill="#ffffff" stroke="none" x="429" y="162" width="70.20002746582031" height="13" transform="matrix(1 0 0 1 -70 -46)"/></g><g><g><path fill="none" stroke="none"/><text fill="#000000" stroke="none" font-family="currentFont" font-size="13px" font-style="normal" font-weight="normal" text-decoration="undefined" x="464.10001373291016" y="168.5" text-anchor="middle" dominant-baseline="central" transform="matrix(1 0 0 1 -70 -46)">«include»</text></g></g><g><path fill="#ffffff" stroke="none" paint-order="stroke fill markers" d=" M 27.689029846191403 47.849999999999994 C 27.689029846191403 42.962279519999996 31.646832214191406 39 36.529029846191406 39 C 41.41122747819141 39 45.36902984619141 42.962279519999996 45.36902984619141 47.849999999999994 C 45.36902984619141 52.73772047999999 41.41122747819141 56.7 36.529029846191406 56.7 C 31.646832214191406 56.7 27.689029846191403 52.73772047999999 27.689029846191403 47.849999999999994 Z"/></g><g><path fill="none" stroke="#000000" paint-order="fill stroke markers" d=" M 27.689029846191403 47.849999999999994 C 27.689029846191403 42.962279519999996 31.646832214191406 39 36.529029846191406 39 C 41.41122747819141 39 45.36902984619141 42.962279519999996 45.36902984619141 47.849999999999994 C 45.36902984619141 52.73772047999999 41.41122747819141 56.7 36.529029846191406 56.7 C 31.646832214191406 56.7 27.689029846191403 52.73772047999999 27.689029846191403 47.849999999999994 Z" stroke-miterlimit="10" stroke-dasharray=""/></g><g><path fill="none" stroke="#000000" paint-order="fill stroke markers" d=" M 36.529029846191406 56.7 L 36.529029846191406 74.3" stroke-miterlimit="10" stroke-dasharray=""/></g><g><path fill="none" stroke="#000000" paint-order="fill stroke markers" d=" M 27.169029846191407 63.3 L 45.889029846191406 63.3" stroke-miterlimit="10" stroke-dasharray=""/></g><g><path fill="none" stroke="#000000" paint-order="fill stroke markers" d=" M 36.529029846191406 74.3 L 23.529029846191406 92" stroke-miterlimit="10" stroke-dasharray=""/></g><g><path fill="none" stroke="#000000" paint-order="fill stroke markers" d=" M 36.529029846191406 74.3 L 49.529029846191406 92" stroke-miterlimit="10" stroke-dasharray=""/></g><g><g><path fill="none" stroke="none"/><text fill="#000000" stroke="none" font-family="currentFont" font-size="13px" font-style="normal" font-weight="bold" text-decoration="undefined" x="107.0290298461914" y="152.5" text-anchor="middle" dominant-baseline="central" transform="matrix(1 0 0 1 -70 -46)">Utente</text></g></g><g><path fill="none" stroke="#000000" paint-order="fill stroke markers" d=" M 145 78 L 64 78" stroke-miterlimit="10" stroke-dasharray=""/></g><g><path fill="#ffffff" stroke="none" paint-order="stroke fill markers" d=" M 314 275.5 C 314 265.835016 432.4206704 258 578.5 258 C 724.5793295999999 258 843 265.835016 843 275.5 C 843 285.164984 724.5793295999999 293 578.5 293 C 432.4206704 293 314 285.164984 314 275.5 Z"/></g><g><path fill="none" stroke="#000000" paint-order="fill stroke markers" d=" M 314 275.5 C 314 265.835016 432.4206704 258 578.5 258 C 724.5793295999999 258 843 265.835016 843 275.5 C 843 285.164984 724.5793295999999 293 578.5 293 C 432.4206704 293 314 285.164984 314 275.5 Z" stroke-miterlimit="10" stroke-dasharray=""/></g><g><g><path fill="none" stroke="none"/><text fill="#000000" stroke="none" font-family="currentFont" font-size="13px" font-style="normal" font-weight="bold" text-decoration="undefined" x="648.5" y="322.5" text-anchor="middle" dominant-baseline="central" transform="matrix(1 0 0 1 -70 -46)">UC–26.1.1 Visualizzazione ID bin di partenza</text></g></g><g><path fill="none" stroke="#000000" paint-order="fill stroke markers" d=" M 563 257 L 514 198" stroke-miterlimit="10" stroke-dasharray="3"/></g><g><path fill="none" stroke="#000000" paint-order="fill stroke markers" d=" M 523.7312787085139 203.12856848420938 L 514 198 L 517.2546076114423 208.50749871737045" stroke-miterlimit="10" stroke-dasharray=""/></g><g><rect fill="#ffffff" stroke="none" x="528" y="272" width="56.33973693847656" height="13" transform="matrix(1 0 0 1 -70 -46)"/></g><g><g><path fill="none" stroke="none"/><text fill="#000000" stroke="none" font-family="currentFont" font-size="13px" font-style="normal" font-weight="normal" text-decoration="undefined" x="556.1698684692383" y="278.5" text-anchor="middle" dominant-baseline="central" transform="matrix(1 0 0 1 -70 -46)">«extend»</text></g></g><g><path fill="#ffffff" stroke="none" paint-order="stroke fill markers" d=" M 786 202 L 919 202 L 929 212 L 929 252 L 786 252 L 786 202"/></g><g><path fill="none" stroke="#000000" paint-order="fill stroke markers" d=" M 786 202 L 919 202 L 929 212 L 929 252 L 786 252 L 786 202 L 786 202" stroke-miterlimit="10" stroke-dasharray=""/></g><g><path fill="none" stroke="#000000" paint-order="fill stroke markers" d=" M 919 202 L 919 212 L 929 212 L 919 202" stroke-miterlimit="10" stroke-dasharray=""/></g><g><g><path fill="none" stroke="none"/><text fill="#000000" stroke="none" font-family="currentFont" font-size="13px" font-style="normal" font-weight="normal" text-decoration="undefined" x="861" y="253" text-anchor="start" dominant-baseline="text-before-edge" transform="matrix(1 0 0 1 -70 -46)">Condition: lo</text><text fill="#000000" stroke="none" font-family="currentFont" font-size="13px" font-style="normal" font-weight="normal" text-decoration="undefined" x="861" y="266" text-anchor="start" dominant-baseline="text-before-edge" transform="matrix(1 0 0 1 -70 -46)">spostamento è</text><text fill="#000000" stroke="none" font-family="currentFont" font-size="13px" font-style="normal" font-weight="normal" text-decoration="undefined" x="861" y="279" text-anchor="start" dominant-baseline="text-before-edge" transform="matrix(1 0 0 1 -70 -46)">partito da un bin</text></g></g><g><path fill="none" stroke="#000000" paint-order="fill stroke markers" d=" M 785 227 L 538 227" stroke-miterlimit="10" stroke-dasharray="3"/></g></g></svg>