<svg version="1.1" xmlns="http://www.w3.org/2000/svg" xmlns:xlink="http://www.w3.org/1999/xlink" width="509" height="212"><defs/><g><g><rect fill="#ffffff" stroke="none" x="208" y="48" width="376" height="192" transform="matrix(1 0 0 1 -86 -38)"/></g><g><path fill="none" stroke="#000000" paint-order="fill stroke markers" d=" M 122 10 L 498 10 L 498 202 L 122 202 L 122 10 Z Z" stroke-miterlimit="10" stroke-dasharray=""/></g><g><g><path fill="none" stroke="none"/><text fill="#000000" stroke="none" font-family="currentFont" font-size="13px" font-style="normal" font-weight="bold" text-decoration="undefined" x="396.5" y="61.5" text-anchor="middle" dominant-baseline="central" transform="matrix(1 0 0 1 -86 -38)">WMS3</text></g></g><g><path fill="#FFFFFF" stroke="none" paint-order="stroke fill markers" d=" M 170 113.5 C 170 98.86445280000001 234.4709888 87 314 87 C 393.5290112 87 458 98.86445280000001 458 113.5 C 458 128.1355472 393.5290112 140 314 140 C 234.4709888 140 170 128.1355472 170 113.5 Z"/></g><g><path fill="none" stroke="#000000" paint-order="fill stroke markers" d=" M 170 113.5 C 170 98.86445280000001 234.4709888 87 314 87 C 393.5290112 87 458 98.86445280000001 458 113.5 C 458 128.1355472 393.5290112 140 314 140 C 234.4709888 140 170 128.1355472 170 113.5 Z" stroke-miterlimit="10" stroke-dasharray=""/></g><g><g><path fill="none" stroke="none"/><text fill="#000000" stroke="none" font-family="currentFont" font-size="13px" font-style="normal" font-weight="bold" text-decoration="undefined" x="400" y="146" text-anchor="middle" dominant-baseline="central" transform="matrix(1 0 0 1 -86 -38)">UC–3 Definizione passo griglia</text><text fill="#000000" stroke="none" font-family="currentFont" font-size="13px" font-style="normal" font-weight="bold" text-decoration="undefined" x="400" y="159" text-anchor="middle" dominant-baseline="central" transform="matrix(1 0 0 1 -86 -38)">di aggancio</text></g></g><g><path fill="#ffffff" stroke="none" paint-order="stroke fill markers" d=" M 26.748623046874997 83.85 C 26.748623046874997 78.96227952 30.706425414875 75 35.588623046875 75 C 40.470820678875 75 44.428623046875 78.96227952 44.428623046875 83.85 C 44.428623046875 88.73772048 40.470820678875 92.69999999999999 35.588623046875 92.69999999999999 C 30.706425414875 92.69999999999999 26.748623046874997 88.73772048 26.748623046874997 83.85 Z"/></g><g><path fill="none" stroke="#000000" paint-order="fill stroke markers" d=" M 26.748623046874997 83.85 C 26.748623046874997 78.96227952 30.706425414875 75 35.588623046875 75 C 40.470820678875 75 44.428623046875 78.96227952 44.428623046875 83.85 C 44.428623046875 88.73772048 40.470820678875 92.69999999999999 35.588623046875 92.69999999999999 C 30.706425414875 92.69999999999999 26.748623046874997 88.73772048 26.748623046874997 83.85 Z" stroke-miterlimit="10" stroke-dasharray=""/></g><g><path fill="none" stroke="#000000" paint-order="fill stroke markers" d=" M 35.588623046875 92.69999999999999 L 35.588623046875 110.30000000000001" stroke-miterlimit="10" stroke-dasharray=""/></g><g><path fill="none" stroke="#000000" paint-order="fill stroke markers" d=" M 26.228623046875 99.30000000000001 L 44.948623046875014 99.30000000000001" stroke-miterlimit="10" stroke-dasharray=""/></g><g><path fill="none" stroke="#000000" paint-order="fill stroke markers" d=" M 35.588623046875 110.30000000000001 L 22.588623046875 128" stroke-miterlimit="10" stroke-dasharray=""/></g><g><path fill="none" stroke="#000000" paint-order="fill stroke markers" d=" M 35.588623046875 110.30000000000001 L 48.588623046875 128" stroke-miterlimit="10" stroke-dasharray=""/></g><g><g><path fill="none" stroke="none"/><text fill="#000000" stroke="none" font-family="currentFont" font-size="13px" font-style="normal" font-weight="bold" text-decoration="undefined" x="122.088623046875" y="180.5" text-anchor="middle" dominant-baseline="central" transform="matrix(1 0 0 1 -86 -38)">Utente</text></g></g><g><path fill="none" stroke="#000000" paint-order="fill stroke markers" d=" M 169 114 L 62 114" stroke-miterlimit="10" stroke-dasharray=""/></g></g></svg>