<svg version="1.1" xmlns="http://www.w3.org/2000/svg" xmlns:xlink="http://www.w3.org/1999/xlink" width="909" height="388"><defs/><g><g><rect fill="#ffffff" stroke="none" x="120" y="48" width="792" height="368" transform="matrix(1 0 0 1 -14 -38)"/></g><g><path fill="none" stroke="#000000" paint-order="fill stroke markers" d=" M 106 10 L 898 10 L 898 378 L 106 378 L 106 10 Z Z" stroke-miterlimit="10" stroke-dasharray=""/></g><g><g><path fill="none" stroke="none"/><text fill="#000000" stroke="none" font-family="currentFont" font-size="13px" font-style="normal" font-weight="bold" text-decoration="undefined" x="516.5" y="61.5" text-anchor="middle" dominant-baseline="central" transform="matrix(1 0 0 1 -14 -38)">WMS3</text></g></g><g><path fill="#ffffff" stroke="none" paint-order="stroke fill markers" d=" M 26.748623046874997 59.849999999999994 C 26.748623046874997 54.962279519999996 30.706425414875 51 35.588623046875 51 C 40.470820678875 51 44.428623046875 54.962279519999996 44.428623046875 59.849999999999994 C 44.428623046875 64.73772048 40.470820678875 68.7 35.588623046875 68.7 C 30.706425414875 68.7 26.748623046874997 64.73772048 26.748623046874997 59.849999999999994 Z"/></g><g><path fill="none" stroke="#000000" paint-order="fill stroke markers" d=" M 26.748623046874997 59.849999999999994 C 26.748623046874997 54.962279519999996 30.706425414875 51 35.588623046875 51 C 40.470820678875 51 44.428623046875 54.962279519999996 44.428623046875 59.849999999999994 C 44.428623046875 64.73772048 40.470820678875 68.7 35.588623046875 68.7 C 30.706425414875 68.7 26.748623046874997 64.73772048 26.748623046874997 59.849999999999994 Z" stroke-miterlimit="10" stroke-dasharray=""/></g><g><path fill="none" stroke="#000000" paint-order="fill stroke markers" d=" M 35.588623046875 68.7 L 35.588623046875 86.3" stroke-miterlimit="10" stroke-dasharray=""/></g><g><path fill="none" stroke="#000000" paint-order="fill stroke markers" d=" M 26.228623046875 75.3 L 44.948623046875 75.3" stroke-miterlimit="10" stroke-dasharray=""/></g><g><path fill="none" stroke="#000000" paint-order="fill stroke markers" d=" M 35.588623046875 86.3 L 22.588623046875 104" stroke-miterlimit="10" stroke-dasharray=""/></g><g><path fill="none" stroke="#000000" paint-order="fill stroke markers" d=" M 35.588623046875 86.3 L 48.588623046875 104" stroke-miterlimit="10" stroke-dasharray=""/></g><g><g><path fill="none" stroke="none"/><text fill="#000000" stroke="none" font-family="currentFont" font-size="13px" font-style="normal" font-weight="bold" text-decoration="undefined" x="50.088623046875" y="156.5" text-anchor="middle" dominant-baseline="central" transform="matrix(1 0 0 1 -14 -38)">Utente</text></g></g><g><path fill="#FFFFFF" stroke="none" paint-order="stroke fill markers" d=" M 139 88.5 C 139 78.835016 228.54304 71 339 71 C 449.45696 71 539 78.835016 539 88.5 C 539 98.164984 449.45696 106 339 106 C 228.54304 106 139 98.164984 139 88.5 Z"/></g><g><path fill="none" stroke="#000000" paint-order="fill stroke markers" d=" M 139 88.5 C 139 78.835016 228.54304 71 339 71 C 449.45696 71 539 78.835016 539 88.5 C 539 98.164984 449.45696 106 339 106 C 228.54304 106 139 98.164984 139 88.5 Z" stroke-miterlimit="10" stroke-dasharray=""/></g><g><g><path fill="none" stroke="none"/><text fill="#000000" stroke="none" font-family="currentFont" font-size="13px" font-style="normal" font-weight="bold" text-decoration="undefined" x="353" y="127.5" text-anchor="middle" dominant-baseline="central" transform="matrix(1 0 0 1 -14 -38)">UC–4 Importazione delle zone da database</text></g></g><g><path fill="#FFFFFF" stroke="none" paint-order="stroke fill markers" d=" M 506 198 C 506 178.1177472 586.3648784 162 685.5 162 C 784.6351216 162 865 178.1177472 865 198 C 865 217.8822528 784.6351216 234 685.5 234 C 586.3648784 234 506 217.8822528 506 198 Z"/></g><g><path fill="none" stroke="#000000" paint-order="fill stroke markers" d=" M 506 198 C 506 178.1177472 586.3648784 162 685.5 162 C 784.6351216 162 865 178.1177472 865 198 C 865 217.8822528 784.6351216 234 685.5 234 C 586.3648784 234 506 217.8822528 506 198 Z" stroke-miterlimit="10" stroke-dasharray=""/></g><g><g><path fill="none" stroke="none"/><text fill="#000000" stroke="none" font-family="currentFont" font-size="13px" font-style="normal" font-weight="bold" text-decoration="undefined" x="699.5" y="230.5" text-anchor="middle" dominant-baseline="central" transform="matrix(1 0 0 1 -14 -38)">UC–6 Visualizzazione errore</text><text fill="#000000" stroke="none" font-family="currentFont" font-size="13px" font-style="normal" font-weight="bold" text-decoration="undefined" x="699.5" y="243.5" text-anchor="middle" dominant-baseline="central" transform="matrix(1 0 0 1 -14 -38)">importazione dati da database</text></g></g><g><path fill="#FFFFFF" stroke="none" paint-order="stroke fill markers" d=" M 139 315.5 C 139 305.835016 228.54304 298 339 298 C 449.45696 298 539 305.835016 539 315.5 C 539 325.164984 449.45696 333 339 333 C 228.54304 333 139 325.164984 139 315.5 Z"/></g><g><path fill="none" stroke="#000000" paint-order="fill stroke markers" d=" M 139 315.5 C 139 305.835016 228.54304 298 339 298 C 449.45696 298 539 305.835016 539 315.5 C 539 325.164984 449.45696 333 339 333 C 228.54304 333 139 325.164984 139 315.5 Z" stroke-miterlimit="10" stroke-dasharray=""/></g><g><g><path fill="none" stroke="none"/><text fill="#000000" stroke="none" font-family="currentFont" font-size="13px" font-style="normal" font-weight="bold" text-decoration="undefined" x="353" y="354.5" text-anchor="middle" dominant-baseline="central" transform="matrix(1 0 0 1 -14 -38)">UC–4.1 Importazione dei bin da database</text></g></g><g><path fill="none" stroke="#000000" paint-order="fill stroke markers" d=" M 569 161 L 399 107" stroke-miterlimit="10" stroke-dasharray="3"/></g><g><path fill="none" stroke="#000000" paint-order="fill stroke markers" d=" M 409.9601630775834 106.06467903221497 L 399 107 L 407.4113774339764 114.08863383616284" stroke-miterlimit="10" stroke-dasharray=""/></g><g><rect fill="#FFFFFF" stroke="none" x="504" y="152" width="62.4000244140625" height="13" transform="matrix(1 0 0 1 -14 -38)"/></g><g><g><path fill="none" stroke="none"/><text fill="#000000" stroke="none" font-family="currentFont" font-size="13px" font-style="normal" font-weight="normal" text-decoration="undefined" x="535.2000122070312" y="158.5" text-anchor="middle" dominant-baseline="central" transform="matrix(1 0 0 1 -14 -38)">«extend»</text></g></g><g><path fill="none" stroke="#000000" paint-order="fill stroke markers" d=" M 339 107 L 339 297" stroke-miterlimit="10" stroke-dasharray="3"/></g><g><path fill="none" stroke="#000000" paint-order="fill stroke markers" d=" M 334.790482243984 286.83732514237585 L 339 297 L 343.209517756016 286.83732514237585" stroke-miterlimit="10" stroke-dasharray=""/></g><g><rect fill="#FFFFFF" stroke="none" x="278" y="206" width="70.20002746582031" height="13" transform="matrix(1 0 0 1 -14 -38)"/></g><g><g><path fill="none" stroke="none"/><text fill="#000000" stroke="none" font-family="currentFont" font-size="13px" font-style="normal" font-weight="normal" text-decoration="undefined" x="313.10001373291016" y="212.5" text-anchor="middle" dominant-baseline="central" transform="matrix(1 0 0 1 -14 -38)">«include»</text></g></g><g><path fill="none" stroke="#000000" paint-order="fill stroke markers" d=" M 576 235 L 392 297" stroke-miterlimit="10" stroke-dasharray="3"/></g><g><path fill="none" stroke="#000000" paint-order="fill stroke markers" d=" M 400.2864732606402 289.76575084057134 L 392 297 L 402.9748080721448 297.7440347972946" stroke-miterlimit="10" stroke-dasharray=""/></g><g><rect fill="#FFFFFF" stroke="none" x="479" y="311" width="62.4000244140625" height="13" transform="matrix(1 0 0 1 -14 -38)"/></g><g><g><path fill="none" stroke="none"/><text fill="#000000" stroke="none" font-family="currentFont" font-size="13px" font-style="normal" font-weight="normal" text-decoration="undefined" x="510.20001220703125" y="317.5" text-anchor="middle" dominant-baseline="central" transform="matrix(1 0 0 1 -14 -38)">«extend»</text></g></g><g><path fill="none" stroke="#000000" paint-order="fill stroke markers" d=" M 62 90 L 138 89" stroke-miterlimit="10" stroke-dasharray=""/></g></g></svg>