<svg version="1.1" xmlns="http://www.w3.org/2000/svg" xmlns:xlink="http://www.w3.org/1999/xlink" width="749" height="260"><defs/><g><g><rect fill="#ffffff" stroke="none" x="168" y="88" width="624" height="240" transform="matrix(1 0 0 1 -54 -78)"/></g><g><path fill="none" stroke="#000000" paint-order="fill stroke markers" d=" M 114 10 L 738 10 L 738 250 L 114 250 L 114 10 Z Z" stroke-miterlimit="10" stroke-dasharray=""/></g><g><g><path fill="none" stroke="none"/><text fill="#000000" stroke="none" font-family="currentFont" font-size="13px" font-style="normal" font-weight="bold" text-decoration="undefined" x="480.5" y="101.5" text-anchor="middle" dominant-baseline="central" transform="matrix(1 0 0 1 -54 -78)">WMS3</text></g></g><g><path fill="#FFFFFF" stroke="none" paint-order="stroke fill markers" d=" M 152 81.5 C 152 71.835016 271.9876736 64 420 64 C 568.0123264 64 688 71.835016 688 81.5 C 688 91.164984 568.0123264 99 420 99 C 271.9876736 99 152 91.164984 152 81.5 Z"/></g><g><path fill="none" stroke="#000000" paint-order="fill stroke markers" d=" M 152 81.5 C 152 71.835016 271.9876736 64 420 64 C 568.0123264 64 688 71.835016 688 81.5 C 688 91.164984 568.0123264 99 420 99 C 271.9876736 99 152 91.164984 152 81.5 Z" stroke-miterlimit="10" stroke-dasharray=""/></g><g><g><path fill="none" stroke="none"/><text fill="#000000" stroke="none" font-family="currentFont" font-size="13px" font-style="normal" font-weight="bold" text-decoration="undefined" x="474" y="160.5" text-anchor="middle" dominant-baseline="central" transform="matrix(1 0 0 1 -54 -78)">UC–5 Importazione dei prodotti da database</text></g></g><g><path fill="#FFFFFF" stroke="none" paint-order="stroke fill markers" d=" M 152 195.5 C 152 185.835016 271.9876736 178 420 178 C 568.0123264 178 688 185.835016 688 195.5 C 688 205.164984 568.0123264 213 420 213 C 271.9876736 213 152 205.164984 152 195.5 Z"/></g><g><path fill="none" stroke="#000000" paint-order="fill stroke markers" d=" M 152 195.5 C 152 185.835016 271.9876736 178 420 178 C 568.0123264 178 688 185.835016 688 195.5 C 688 205.164984 568.0123264 213 420 213 C 271.9876736 213 152 205.164984 152 195.5 Z" stroke-miterlimit="10" stroke-dasharray=""/></g><g><g><path fill="none" stroke="none"/><text fill="#000000" stroke="none" font-family="currentFont" font-size="13px" font-style="normal" font-weight="bold" text-decoration="undefined" x="474" y="274.5" text-anchor="middle" dominant-baseline="central" transform="matrix(1 0 0 1 -54 -78)">UC–6 Visualizzazione errore importazione dati da database</text></g></g><g><path fill="none" stroke="#000000" paint-order="fill stroke markers" d=" M 420 177 L 420 100" stroke-miterlimit="10" stroke-dasharray="3"/></g><g><path fill="none" stroke="#000000" paint-order="fill stroke markers" d=" M 424.209517756016 110.16267485762415 L 420 100 L 415.790482243984 110.16267485762415" stroke-miterlimit="10" stroke-dasharray=""/></g><g><rect fill="#FFFFFF" stroke="none" x="400" y="216" width="62.4000244140625" height="13" transform="matrix(1 0 0 1 -54 -78)"/></g><g><g><path fill="none" stroke="none"/><text fill="#000000" stroke="none" font-family="currentFont" font-size="13px" font-style="normal" font-weight="normal" text-decoration="undefined" x="431.20001220703125" y="222.5" text-anchor="middle" dominant-baseline="central" transform="matrix(1 0 0 1 -54 -78)">«extend»</text></g></g><g><path fill="#ffffff" stroke="none" paint-order="stroke fill markers" d=" M 26.748623046874997 51.849999999999994 C 26.748623046874997 46.962279519999996 30.706425414875 43 35.588623046875 43 C 40.470820678875 43 44.428623046875 46.962279519999996 44.428623046875 51.849999999999994 C 44.428623046875 56.73772047999998 40.470820678875 60.69999999999999 35.588623046875 60.69999999999999 C 30.706425414875 60.69999999999999 26.748623046874997 56.73772047999998 26.748623046874997 51.849999999999994 Z"/></g><g><path fill="none" stroke="#000000" paint-order="fill stroke markers" d=" M 26.748623046874997 51.849999999999994 C 26.748623046874997 46.962279519999996 30.706425414875 43 35.588623046875 43 C 40.470820678875 43 44.428623046875 46.962279519999996 44.428623046875 51.849999999999994 C 44.428623046875 56.73772047999998 40.470820678875 60.69999999999999 35.588623046875 60.69999999999999 C 30.706425414875 60.69999999999999 26.748623046874997 56.73772047999998 26.748623046874997 51.849999999999994 Z" stroke-miterlimit="10" stroke-dasharray=""/></g><g><path fill="none" stroke="#000000" paint-order="fill stroke markers" d=" M 35.588623046875 60.69999999999999 L 35.588623046875 78.30000000000001" stroke-miterlimit="10" stroke-dasharray=""/></g><g><path fill="none" stroke="#000000" paint-order="fill stroke markers" d=" M 26.228623046875 67.30000000000001 L 44.948623046875 67.30000000000001" stroke-miterlimit="10" stroke-dasharray=""/></g><g><path fill="none" stroke="#000000" paint-order="fill stroke markers" d=" M 35.588623046875 78.30000000000001 L 22.588623046875 96" stroke-miterlimit="10" stroke-dasharray=""/></g><g><path fill="none" stroke="#000000" paint-order="fill stroke markers" d=" M 35.588623046875 78.30000000000001 L 48.588623046875 96" stroke-miterlimit="10" stroke-dasharray=""/></g><g><g><path fill="none" stroke="none"/><text fill="#000000" stroke="none" font-family="currentFont" font-size="13px" font-style="normal" font-weight="bold" text-decoration="undefined" x="90.088623046875" y="188.5" text-anchor="middle" dominant-baseline="central" transform="matrix(1 0 0 1 -54 -78)">Utente</text></g></g><g><path fill="none" stroke="#000000" paint-order="fill stroke markers" d=" M 151 82 L 62 82" stroke-miterlimit="10" stroke-dasharray=""/></g></g></svg>