<svg version="1.1" xmlns="http://www.w3.org/2000/svg" xmlns:xlink="http://www.w3.org/1999/xlink" width="509" height="148"><defs/><g><g><rect fill="#ffffff" stroke="none" x="127" y="40" width="400" height="128" transform="matrix(1 0 0 1 -29 -30)"/></g><g><path fill="none" stroke="#000000" paint-order="fill stroke markers" d=" M 98 10 L 498 10 L 498 138 L 98 138 L 98 10 Z Z" stroke-miterlimit="10" stroke-dasharray=""/></g><g><g><path fill="none" stroke="none"/><text fill="#000000" stroke="none" font-family="Arial" font-size="13px" font-style="normal" font-weight="bold" text-decoration="undefined" x="327.5" y="53.5" text-anchor="middle" dominant-baseline="central" transform="matrix(1 0 0 1 -29 -30)">WMS3</text></g></g><g><path fill="#ffffff" stroke="none" paint-order="stroke fill markers" d=" M 146 82.5 C 146 72.835016 214.5004256 65 299 65 C 383.49957440000003 65 452 72.835016 452 82.5 C 452 92.164984 383.49957440000003 100 299 100 C 214.5004256 100 146 92.164984 146 82.5 Z"/></g><g><path fill="none" stroke="#000000" paint-order="fill stroke markers" d=" M 146 82.5 C 146 72.835016 214.5004256 65 299 65 C 383.49957440000003 65 452 72.835016 452 82.5 C 452 92.164984 383.49957440000003 100 299 100 C 214.5004256 100 146 92.164984 146 82.5 Z" stroke-miterlimit="10" stroke-dasharray=""/></g><g><g><path fill="none" stroke="none"/><text fill="#000000" stroke="none" font-family="Arial" font-size="13px" font-style="normal" font-weight="bold" text-decoration="undefined" x="328" y="113.5" text-anchor="middle" dominant-baseline="central" transform="matrix(1 0 0 1 -29 -30)">UC–7 Rotazione del POV</text></g></g><g><path fill="#ffffff" stroke="none" paint-order="stroke fill markers" d=" M 26.748623046874997 52.849999999999994 C 26.748623046874997 47.962279519999996 30.706425414875 44 35.588623046875 44 C 40.470820678875 44 44.428623046875 47.962279519999996 44.428623046875 52.849999999999994 C 44.428623046875 57.73772047999999 40.470820678875 61.7 35.588623046875 61.7 C 30.706425414875 61.7 26.748623046874997 57.73772047999999 26.748623046874997 52.849999999999994 Z"/></g><g><path fill="none" stroke="#000000" paint-order="fill stroke markers" d=" M 26.748623046874997 52.849999999999994 C 26.748623046874997 47.962279519999996 30.706425414875 44 35.588623046875 44 C 40.470820678875 44 44.428623046875 47.962279519999996 44.428623046875 52.849999999999994 C 44.428623046875 57.73772047999999 40.470820678875 61.7 35.588623046875 61.7 C 30.706425414875 61.7 26.748623046874997 57.73772047999999 26.748623046874997 52.849999999999994 Z" stroke-miterlimit="10" stroke-dasharray=""/></g><g><path fill="none" stroke="#000000" paint-order="fill stroke markers" d=" M 35.588623046875 61.7 L 35.588623046875 79.3" stroke-miterlimit="10" stroke-dasharray=""/></g><g><path fill="none" stroke="#000000" paint-order="fill stroke markers" d=" M 26.228623046875 68.3 L 44.948623046875 68.3" stroke-miterlimit="10" stroke-dasharray=""/></g><g><path fill="none" stroke="#000000" paint-order="fill stroke markers" d=" M 35.588623046875 79.3 L 22.588623046875 97" stroke-miterlimit="10" stroke-dasharray=""/></g><g><path fill="none" stroke="#000000" paint-order="fill stroke markers" d=" M 35.588623046875 79.3 L 48.588623046875 97" stroke-miterlimit="10" stroke-dasharray=""/></g><g><g><path fill="none" stroke="none"/><text fill="#000000" stroke="none" font-family="Arial" font-size="13px" font-style="normal" font-weight="bold" text-decoration="undefined" x="65.088623046875" y="141.5" text-anchor="middle" dominant-baseline="central" transform="matrix(1 0 0 1 -29 -30)">Utente</text></g></g><g><path fill="none" stroke="#000000" paint-order="fill stroke markers" d=" M 62 83 L 145 83" stroke-miterlimit="10" stroke-dasharray=""/></g></g></svg>