<svg version="1.1" xmlns="http://www.w3.org/2000/svg" xmlns:xlink="http://www.w3.org/1999/xlink" width="509" height="148"><defs/><g><g><rect fill="#ffffff" stroke="none" x="137" y="46" width="400" height="128" transform="matrix(1 0 0 1 -39 -36)"/></g><g><path fill="none" stroke="#000000" paint-order="fill stroke markers" d=" M 98 10 L 498 10 L 498 138 L 98 138 L 98 10 Z Z" stroke-miterlimit="10" stroke-dasharray=""/></g><g><g><path fill="none" stroke="none"/><text fill="#000000" stroke="none" font-family="Arial" font-size="13px" font-style="normal" font-weight="bold" text-decoration="undefined" x="337.5" y="59.5" text-anchor="middle" dominant-baseline="central" transform="matrix(1 0 0 1 -39 -36)">WMS3</text></g></g><g><path fill="#ffffff" stroke="none" paint-order="stroke fill markers" d=" M 146 81.5 C 146 71.835016 214.5004256 64 299 64 C 383.49957440000003 64 452 71.835016 452 81.5 C 452 91.164984 383.49957440000003 99 299 99 C 214.5004256 99 146 91.164984 146 81.5 Z"/></g><g><path fill="none" stroke="#000000" paint-order="fill stroke markers" d=" M 146 81.5 C 146 71.835016 214.5004256 64 299 64 C 383.49957440000003 64 452 71.835016 452 81.5 C 452 91.164984 383.49957440000003 99 299 99 C 214.5004256 99 146 91.164984 146 81.5 Z" stroke-miterlimit="10" stroke-dasharray=""/></g><g><g><path fill="none" stroke="none"/><text fill="#000000" stroke="none" font-family="Arial" font-size="13px" font-style="normal" font-weight="bold" text-decoration="undefined" x="338" y="118.5" text-anchor="middle" dominant-baseline="central" transform="matrix(1 0 0 1 -39 -36)">UC–8 Pan del POV</text></g></g><g><path fill="#ffffff" stroke="none" paint-order="stroke fill markers" d=" M 26.748623046874997 51.849999999999994 C 26.748623046874997 46.962279519999996 30.706425414875 43 35.588623046875 43 C 40.470820678875 43 44.428623046875 46.962279519999996 44.428623046875 51.849999999999994 C 44.428623046875 56.73772047999999 40.470820678875 60.7 35.588623046875 60.7 C 30.706425414875 60.7 26.748623046874997 56.73772047999999 26.748623046874997 51.849999999999994 Z"/></g><g><path fill="none" stroke="#000000" paint-order="fill stroke markers" d=" M 26.748623046874997 51.849999999999994 C 26.748623046874997 46.962279519999996 30.706425414875 43 35.588623046875 43 C 40.470820678875 43 44.428623046875 46.962279519999996 44.428623046875 51.849999999999994 C 44.428623046875 56.73772047999999 40.470820678875 60.7 35.588623046875 60.7 C 30.706425414875 60.7 26.748623046874997 56.73772047999999 26.748623046874997 51.849999999999994 Z" stroke-miterlimit="10" stroke-dasharray=""/></g><g><path fill="none" stroke="#000000" paint-order="fill stroke markers" d=" M 35.588623046875 60.7 L 35.588623046875 78.3" stroke-miterlimit="10" stroke-dasharray=""/></g><g><path fill="none" stroke="#000000" paint-order="fill stroke markers" d=" M 26.228623046875 67.3 L 44.948623046875 67.3" stroke-miterlimit="10" stroke-dasharray=""/></g><g><path fill="none" stroke="#000000" paint-order="fill stroke markers" d=" M 35.588623046875 78.3 L 22.588623046875 96" stroke-miterlimit="10" stroke-dasharray=""/></g><g><path fill="none" stroke="#000000" paint-order="fill stroke markers" d=" M 35.588623046875 78.3 L 48.588623046875 96" stroke-miterlimit="10" stroke-dasharray=""/></g><g><g><path fill="none" stroke="none"/><text fill="#000000" stroke="none" font-family="Arial" font-size="13px" font-style="normal" font-weight="bold" text-decoration="undefined" x="75.088623046875" y="146.5" text-anchor="middle" dominant-baseline="central" transform="matrix(1 0 0 1 -39 -36)">Utente</text></g></g><g><path fill="none" stroke="#000000" paint-order="fill stroke markers" d=" M 62 82 L 145 82" stroke-miterlimit="10" stroke-dasharray=""/></g></g></svg>