<svg version="1.1" xmlns="http://www.w3.org/2000/svg" xmlns:xlink="http://www.w3.org/1999/xlink" width="509" height="148"><defs/><g><g><rect fill="#ffffff" stroke="none" x="129" y="38" width="400" height="128" transform="matrix(1 0 0 1 -31 -28)"/></g><g><path fill="none" stroke="#000000" paint-order="fill stroke markers" d=" M 98 10 L 498 10 L 498 138 L 98 138 L 98 10 Z Z" stroke-miterlimit="10" stroke-dasharray=""/></g><g><g><path fill="none" stroke="none"/><text fill="#000000" stroke="none" font-family="Arial" font-size="13px" font-style="normal" font-weight="bold" text-decoration="undefined" x="329.5" y="51.5" text-anchor="middle" dominant-baseline="central" transform="matrix(1 0 0 1 -31 -28)">WMS3</text></g></g><g><path fill="#ffffff" stroke="none" paint-order="stroke fill markers" d=" M 26.748623046874997 50.849999999999994 C 26.748623046874997 45.962279519999996 30.706425414875 42 35.588623046875 42 C 40.470820678875 42 44.428623046875 45.962279519999996 44.428623046875 50.849999999999994 C 44.428623046875 55.73772047999999 40.470820678875 59.7 35.588623046875 59.7 C 30.706425414875 59.7 26.748623046874997 55.73772047999999 26.748623046874997 50.849999999999994 Z"/></g><g><path fill="none" stroke="#000000" paint-order="fill stroke markers" d=" M 26.748623046874997 50.849999999999994 C 26.748623046874997 45.962279519999996 30.706425414875 42 35.588623046875 42 C 40.470820678875 42 44.428623046875 45.962279519999996 44.428623046875 50.849999999999994 C 44.428623046875 55.73772047999999 40.470820678875 59.7 35.588623046875 59.7 C 30.706425414875 59.7 26.748623046874997 55.73772047999999 26.748623046874997 50.849999999999994 Z" stroke-miterlimit="10" stroke-dasharray=""/></g><g><path fill="none" stroke="#000000" paint-order="fill stroke markers" d=" M 35.588623046875 59.7 L 35.588623046875 77.3" stroke-miterlimit="10" stroke-dasharray=""/></g><g><path fill="none" stroke="#000000" paint-order="fill stroke markers" d=" M 26.228623046875 66.3 L 44.948623046875 66.3" stroke-miterlimit="10" stroke-dasharray=""/></g><g><path fill="none" stroke="#000000" paint-order="fill stroke markers" d=" M 35.588623046875 77.3 L 22.588623046875 95" stroke-miterlimit="10" stroke-dasharray=""/></g><g><path fill="none" stroke="#000000" paint-order="fill stroke markers" d=" M 35.588623046875 77.3 L 48.588623046875 95" stroke-miterlimit="10" stroke-dasharray=""/></g><g><g><path fill="none" stroke="none"/><text fill="#000000" stroke="none" font-family="Arial" font-size="13px" font-style="normal" font-weight="bold" text-decoration="undefined" x="67.088623046875" y="137.5" text-anchor="middle" dominant-baseline="central" transform="matrix(1 0 0 1 -31 -28)">Utente</text></g></g><g><path fill="#ffffff" stroke="none" paint-order="stroke fill markers" d=" M 146 80.5 C 146 70.835016 214.5004256 63 299 63 C 383.49957440000003 63 452 70.835016 452 80.5 C 452 90.164984 383.49957440000003 98 299 98 C 214.5004256 98 146 90.164984 146 80.5 Z"/></g><g><path fill="none" stroke="#000000" paint-order="fill stroke markers" d=" M 146 80.5 C 146 70.835016 214.5004256 63 299 63 C 383.49957440000003 63 452 70.835016 452 80.5 C 452 90.164984 383.49957440000003 98 299 98 C 214.5004256 98 146 90.164984 146 80.5 Z" stroke-miterlimit="10" stroke-dasharray=""/></g><g><g><path fill="none" stroke="none"/><text fill="#000000" stroke="none" font-family="Arial" font-size="13px" font-style="normal" font-weight="bold" text-decoration="undefined" x="330" y="109.5" text-anchor="middle" dominant-baseline="central" transform="matrix(1 0 0 1 -31 -28)">UC9 Zoom-in sull'ambiente 3D</text></g></g><g><path fill="none" stroke="#000000" paint-order="fill stroke markers" d=" M 62 81 L 145 81" stroke-miterlimit="10" stroke-dasharray=""/></g></g></svg>