<svg version="1.1" xmlns="http://www.w3.org/2000/svg" xmlns:xlink="http://www.w3.org/1999/xlink" width="669" height="300"><defs/><g><g><rect fill="#ffffff" stroke="none" x="168" y="64" width="549" height="280" transform="matrix(1 0 0 1 -59 -54)"/></g><g><path fill="none" stroke="#000000" paint-order="fill stroke markers" d=" M 109 10 L 658 10 L 658 290 L 109 290 L 109 10 Z Z" stroke-miterlimit="10" stroke-dasharray=""/></g><g><g><path fill="none" stroke="none"/><text fill="#000000" stroke="none" font-family="currentFont" font-size="13px" font-style="normal" font-weight="bold" text-decoration="undefined" x="443" y="77.5" text-anchor="middle" dominant-baseline="central" transform="matrix(1 0 0 1 -59 -54)">UCb.2.1</text></g></g><g><path fill="#FFFFFF" stroke="none" paint-order="stroke fill markers" d=" M 154 88.5 C 154 78.835016 257.4222112 71 385 71 C 512.5777888 71 616 78.835016 616 88.5 C 616 98.164984 512.5777888 106 385 106 C 257.4222112 106 154 98.164984 154 88.5 Z"/></g><g><path fill="none" stroke="#000000" paint-order="fill stroke markers" d=" M 154 88.5 C 154 78.835016 257.4222112 71 385 71 C 512.5777888 71 616 78.835016 616 88.5 C 616 98.164984 512.5777888 106 385 106 C 257.4222112 106 154 98.164984 154 88.5 Z" stroke-miterlimit="10" stroke-dasharray=""/></g><g><g><path fill="none" stroke="none"/><text fill="#000000" stroke="none" font-family="currentFont" font-size="13px" font-style="normal" font-weight="bold" text-decoration="undefined" x="444" y="143.5" text-anchor="middle" dominant-baseline="central" transform="matrix(1 0 0 1 -59 -54)">UCb.2.1.1 Visualizzazione ID zona di appartenenza</text></g></g><g><path fill="#FFFFFF" stroke="none" paint-order="stroke fill markers" d=" M 154 232.5 C 154 222.835016 257.4222112 215 385 215 C 512.5777888 215 616 222.835016 616 232.5 C 616 242.164984 512.5777888 250 385 250 C 257.4222112 250 154 242.164984 154 232.5 Z"/></g><g><path fill="none" stroke="#000000" paint-order="fill stroke markers" d=" M 154 232.5 C 154 222.835016 257.4222112 215 385 215 C 512.5777888 215 616 222.835016 616 232.5 C 616 242.164984 512.5777888 250 385 250 C 257.4222112 250 154 242.164984 154 232.5 Z" stroke-miterlimit="10" stroke-dasharray=""/></g><g><g><path fill="none" stroke="none"/><text fill="#000000" stroke="none" font-family="currentFont" font-size="13px" font-style="normal" font-weight="bold" text-decoration="undefined" x="444" y="287.5" text-anchor="middle" dominant-baseline="central" transform="matrix(1 0 0 1 -59 -54)">UCb.2.1.2 Visualizzazione ID bin di appartenenza</text></g></g><g><path fill="#ffffff" stroke="none" paint-order="stroke fill markers" d=" M 26.748623046874997 131.85 C 26.748623046874997 126.96227952000001 30.706425414875 123 35.588623046875 123 C 40.470820678875 123 44.428623046875 126.96227952000001 44.428623046875 131.85 C 44.428623046875 136.73772047999998 40.470820678875 140.7 35.588623046875 140.7 C 30.706425414875 140.7 26.748623046874997 136.73772047999998 26.748623046874997 131.85 Z"/></g><g><path fill="none" stroke="#000000" paint-order="fill stroke markers" d=" M 26.748623046874997 131.85 C 26.748623046874997 126.96227952000001 30.706425414875 123 35.588623046875 123 C 40.470820678875 123 44.428623046875 126.96227952000001 44.428623046875 131.85 C 44.428623046875 136.73772047999998 40.470820678875 140.7 35.588623046875 140.7 C 30.706425414875 140.7 26.748623046874997 136.73772047999998 26.748623046874997 131.85 Z" stroke-miterlimit="10" stroke-dasharray=""/></g><g><path fill="none" stroke="#000000" paint-order="fill stroke markers" d=" M 35.588623046875 140.7 L 35.588623046875 158.3" stroke-miterlimit="10" stroke-dasharray=""/></g><g><path fill="none" stroke="#000000" paint-order="fill stroke markers" d=" M 26.228623046875 147.3 L 44.948623046875 147.3" stroke-miterlimit="10" stroke-dasharray=""/></g><g><path fill="none" stroke="#000000" paint-order="fill stroke markers" d=" M 35.588623046875 158.3 L 22.588623046875 176" stroke-miterlimit="10" stroke-dasharray=""/></g><g><path fill="none" stroke="#000000" paint-order="fill stroke markers" d=" M 35.588623046875 158.3 L 48.588623046875 176" stroke-miterlimit="10" stroke-dasharray=""/></g><g><g><path fill="none" stroke="none"/><text fill="#000000" stroke="none" font-family="currentFont" font-size="13px" font-style="normal" font-weight="bold" text-decoration="undefined" x="95.088623046875" y="244.5" text-anchor="middle" dominant-baseline="central" transform="matrix(1 0 0 1 -59 -54)">Utente</text></g></g><g><path fill="none" stroke="#000000" paint-order="fill stroke markers" d=" M 295 107 L 62 156" stroke-miterlimit="10" stroke-dasharray=""/></g><g><path fill="none" stroke="#000000" paint-order="fill stroke markers" d=" M 62 167 L 295 214" stroke-miterlimit="10" stroke-dasharray=""/></g></g></svg>