<svg version="1.1" xmlns="http://www.w3.org/2000/svg" xmlns:xlink="http://www.w3.org/1999/xlink" width="821" height="332"><defs/><g><g><rect fill="#ffffff" stroke="none" x="160" y="56" width="712" height="312" transform="matrix(1 0 0 1 -62 -46)"/></g><g><path fill="none" stroke="#000000" paint-order="fill stroke markers" d=" M 98 10 L 810 10 L 810 322 L 98 322 L 98 10 Z Z" stroke-miterlimit="10" stroke-dasharray=""/></g><g><g><path fill="none" stroke="none"/><text fill="#000000" stroke="none" font-family="currentFont" font-size="13px" font-style="normal" font-weight="bold" text-decoration="undefined" x="516.5" y="69.5" text-anchor="middle" dominant-baseline="central" transform="matrix(1 0 0 1 -62 -46)">WMS3</text></g></g><g><path fill="#FFFFFF" stroke="none" paint-order="stroke fill markers" d=" M 130 171.5 C 130 161.835016 179.9202448 154 241.5 154 C 303.0797552 154 353 161.835016 353 171.5 C 353 181.164984 303.0797552 189 241.5 189 C 179.9202448 189 130 181.164984 130 171.5 Z"/></g><g><path fill="none" stroke="#000000" paint-order="fill stroke markers" d=" M 130 171.5 C 130 161.835016 179.9202448 154 241.5 154 C 303.0797552 154 353 161.835016 353 171.5 C 353 181.164984 303.0797552 189 241.5 189 C 179.9202448 189 130 181.164984 130 171.5 Z" stroke-miterlimit="10" stroke-dasharray=""/></g><g><g><path fill="none" stroke="none"/><text fill="#000000" stroke="none" font-family="Inter" font-size="13px" font-style="normal" font-weight="bold" text-decoration="undefined" x="303.5" y="218.5" text-anchor="middle" dominant-baseline="central" transform="matrix(1 0 0 1 -62 -46)">UCc Ricerca prodotti</text></g></g><g><path fill="#FFFFFF" stroke="none" paint-order="stroke fill markers" d=" M 395 83.5 C 395 73.835016 474.9171632 66 573.5 66 C 672.0828368 66 752 73.835016 752 83.5 C 752 93.164984 672.0828368 101 573.5 101 C 474.9171632 101 395 93.164984 395 83.5 Z"/></g><g><path fill="none" stroke="#000000" paint-order="fill stroke markers" d=" M 395 83.5 C 395 73.835016 474.9171632 66 573.5 66 C 672.0828368 66 752 73.835016 752 83.5 C 752 93.164984 672.0828368 101 573.5 101 C 474.9171632 101 395 93.164984 395 83.5 Z" stroke-miterlimit="10" stroke-dasharray=""/></g><g><g><path fill="none" stroke="none"/><text fill="#000000" stroke="none" font-family="Inter" font-size="13px" font-style="normal" font-weight="bold" text-decoration="undefined" x="635.5" y="130.5" text-anchor="middle" dominant-baseline="central" transform="matrix(1 0 0 1 -62 -46)">UCc.1 Ricerca per ID prodotto</text></g></g><g><path fill="#FFFFFF" stroke="none" paint-order="stroke fill markers" d=" M 395 171.5 C 395 161.835016 474.9171632 154 573.5 154 C 672.0828368 154 752 161.835016 752 171.5 C 752 181.164984 672.0828368 189 573.5 189 C 474.9171632 189 395 181.164984 395 171.5 Z"/></g><g><path fill="none" stroke="#000000" paint-order="fill stroke markers" d=" M 395 171.5 C 395 161.835016 474.9171632 154 573.5 154 C 672.0828368 154 752 161.835016 752 171.5 C 752 181.164984 672.0828368 189 573.5 189 C 474.9171632 189 395 181.164984 395 171.5 Z" stroke-miterlimit="10" stroke-dasharray=""/></g><g><g><path fill="none" stroke="none"/><text fill="#000000" stroke="none" font-family="Inter" font-size="13px" font-style="normal" font-weight="bold" text-decoration="undefined" x="635.5" y="218.5" text-anchor="middle" dominant-baseline="central" transform="matrix(1 0 0 1 -62 -46)">UCc.2 Ricerca per nome prodotto</text></g></g><g><path fill="#FFFFFF" stroke="none" paint-order="stroke fill markers" d=" M 395 259.5 C 395 249.835016 474.9171632 242 573.5 242 C 672.0828368 242 752 249.835016 752 259.5 C 752 269.164984 672.0828368 277 573.5 277 C 474.9171632 277 395 269.164984 395 259.5 Z"/></g><g><path fill="none" stroke="#000000" paint-order="fill stroke markers" d=" M 395 259.5 C 395 249.835016 474.9171632 242 573.5 242 C 672.0828368 242 752 249.835016 752 259.5 C 752 269.164984 672.0828368 277 573.5 277 C 474.9171632 277 395 269.164984 395 259.5 Z" stroke-miterlimit="10" stroke-dasharray=""/></g><g><g><path fill="none" stroke="none"/><text fill="#000000" stroke="none" font-family="Inter" font-size="13px" font-style="normal" font-weight="bold" text-decoration="undefined" x="635.5" y="306.5" text-anchor="middle" dominant-baseline="central" transform="matrix(1 0 0 1 -62 -46)">UCc.3 Ricerca per categoria prodotto</text></g></g><g><path fill="none" stroke="#000000" paint-order="fill stroke markers" d=" M 501 102 L 309 153" stroke-miterlimit="10" stroke-dasharray=""/></g><g><path fill="#FFFFFF" stroke="none" paint-order="stroke fill markers" d=" M 326.4827914135459 139.6451505290982 L 309 153 L 330.80550498518846 155.918895739988"/></g><g><path fill="none" stroke="#000000" paint-order="fill stroke markers" d=" M 326.4827914135459 139.6451505290982 L 309 153 L 330.80550498518846 155.918895739988 L 326.4827914135459 139.6451505290982" stroke-miterlimit="10" stroke-dasharray=""/></g><g><path fill="none" stroke="#000000" paint-order="fill stroke markers" d=" M 394 171 L 354 171" stroke-miterlimit="10" stroke-dasharray=""/></g><g><path fill="#FFFFFF" stroke="none" paint-order="stroke fill markers" d=" M 374.3253497152483 162.58096448796803 L 354 171 L 374.3253497152483 179.41903551203197"/></g><g><path fill="none" stroke="#000000" paint-order="fill stroke markers" d=" M 374.3253497152483 162.58096448796803 L 354 171 L 374.3253497152483 179.41903551203197 L 374.3253497152483 162.58096448796803" stroke-miterlimit="10" stroke-dasharray=""/></g><g><path fill="none" stroke="#000000" paint-order="fill stroke markers" d=" M 505 241 L 313 190" stroke-miterlimit="10" stroke-dasharray=""/></g><g><path fill="#FFFFFF" stroke="none" paint-order="stroke fill markers" d=" M 334.80550498518846 187.081104260012 L 313 190 L 330.4827914135459 203.3548494709018"/></g><g><path fill="none" stroke="#000000" paint-order="fill stroke markers" d=" M 334.80550498518846 187.081104260012 L 313 190 L 330.4827914135459 203.3548494709018 L 334.80550498518846 187.081104260012" stroke-miterlimit="10" stroke-dasharray=""/></g><g><path fill="#ffffff" stroke="none" paint-order="stroke fill markers" d=" M 26.748623046874997 139.85 C 26.748623046874997 134.96227952 30.706425414875 131 35.588623046875 131 C 40.470820678875 131 44.428623046875 134.96227952 44.428623046875 139.85 C 44.428623046875 144.73772047999998 40.470820678875 148.7 35.588623046875 148.7 C 30.706425414875 148.7 26.748623046874997 144.73772047999998 26.748623046874997 139.85 Z"/></g><g><path fill="none" stroke="#000000" paint-order="fill stroke markers" d=" M 26.748623046874997 139.85 C 26.748623046874997 134.96227952 30.706425414875 131 35.588623046875 131 C 40.470820678875 131 44.428623046875 134.96227952 44.428623046875 139.85 C 44.428623046875 144.73772047999998 40.470820678875 148.7 35.588623046875 148.7 C 30.706425414875 148.7 26.748623046874997 144.73772047999998 26.748623046874997 139.85 Z" stroke-miterlimit="10" stroke-dasharray=""/></g><g><path fill="none" stroke="#000000" paint-order="fill stroke markers" d=" M 35.588623046875 148.7 L 35.588623046875 166.3" stroke-miterlimit="10" stroke-dasharray=""/></g><g><path fill="none" stroke="#000000" paint-order="fill stroke markers" d=" M 26.228623046875 155.3 L 44.948623046875 155.3" stroke-miterlimit="10" stroke-dasharray=""/></g><g><path fill="none" stroke="#000000" paint-order="fill stroke markers" d=" M 35.588623046875 166.3 L 22.588623046875 184" stroke-miterlimit="10" stroke-dasharray=""/></g><g><path fill="none" stroke="#000000" paint-order="fill stroke markers" d=" M 35.588623046875 166.3 L 48.588623046875 184" stroke-miterlimit="10" stroke-dasharray=""/></g><g><g><path fill="none" stroke="none"/><text fill="#000000" stroke="none" font-family="currentFont" font-size="13px" font-style="normal" font-weight="bold" text-decoration="undefined" x="98.088623046875" y="244.5" text-anchor="middle" dominant-baseline="central" transform="matrix(1 0 0 1 -62 -46)">Utente</text></g></g><g><path fill="none" stroke="#000000" paint-order="fill stroke markers" d=" M 129 170 L 62 170" stroke-miterlimit="10" stroke-dasharray=""/></g></g></svg>