<svg version="1.1" xmlns="http://www.w3.org/2000/svg" xmlns:xlink="http://www.w3.org/1999/xlink" width="1301" height="500"><defs/><g><g><rect fill="#ffffff" stroke="none" x="160" y="40" width="1192" height="480" transform="matrix(1 0 0 1 -62 -30)"/></g><g><path fill="none" stroke="#000000" paint-order="fill stroke markers" d=" M 98 10 L 1290 10 L 1290 490 L 98 490 L 98 10 Z Z" stroke-miterlimit="10" stroke-dasharray=""/></g><g><g><path fill="none" stroke="none"/><text fill="#000000" stroke="none" font-family="currentFont" font-size="13px" font-style="normal" font-weight="bold" text-decoration="undefined" x="756.5" y="53.5" text-anchor="middle" dominant-baseline="central" transform="matrix(1 0 0 1 -62 -30)">WMS3</text></g></g><g><path fill="#FFFFFF" stroke="none" paint-order="stroke fill markers" d=" M 229 87.5 C 229 77.835016 340.7049424 70 478.5 70 C 616.2950576000001 70 728 77.835016 728 87.5 C 728 97.164984 616.2950576000001 105 478.5 105 C 340.7049424 105 229 97.164984 229 87.5 Z"/></g><g><path fill="none" stroke="#000000" paint-order="fill stroke markers" d=" M 229 87.5 C 229 77.835016 340.7049424 70 478.5 70 C 616.2950576000001 70 728 77.835016 728 87.5 C 728 97.164984 616.2950576000001 105 478.5 105 C 340.7049424 105 229 97.164984 229 87.5 Z" stroke-miterlimit="10" stroke-dasharray=""/></g><g><g><path fill="none" stroke="none"/><text fill="#000000" stroke="none" font-family="currentFont" font-size="13px" font-style="normal" font-weight="bold" text-decoration="undefined" x="540.5" y="118.5" text-anchor="middle" dominant-baseline="central" transform="matrix(1 0 0 1 -62 -30)">UCd.1 Spostamento prodotto non collocato in un bin</text></g></g><g><path fill="#FFFFFF" stroke="none" paint-order="stroke fill markers" d=" M 142 179.5 C 142 169.835016 212.51514399999996 162 299.5 162 C 386.48485600000004 162 457 169.835016 457 179.5 C 457 189.164984 386.48485600000004 197 299.5 197 C 212.51514399999996 197 142 189.164984 142 179.5 Z"/></g><g><path fill="none" stroke="#000000" paint-order="fill stroke markers" d=" M 142 179.5 C 142 169.835016 212.51514399999996 162 299.5 162 C 386.48485600000004 162 457 169.835016 457 179.5 C 457 189.164984 386.48485600000004 197 299.5 197 C 212.51514399999996 197 142 189.164984 142 179.5 Z" stroke-miterlimit="10" stroke-dasharray=""/></g><g><g><path fill="none" stroke="none"/><text fill="#000000" stroke="none" font-family="currentFont" font-size="13px" font-style="normal" font-weight="bold" text-decoration="undefined" x="361.5" y="210.5" text-anchor="middle" dominant-baseline="central" transform="matrix(1 0 0 1 -62 -30)">UCd Spostamento prodotto</text></g></g><g><path fill="#FFFFFF" stroke="none" paint-order="stroke fill markers" d=" M 229 283.5 C 229 273.835016 340.7049424 266 478.5 266 C 616.2950576000001 266 728 273.835016 728 283.5 C 728 293.164984 616.2950576000001 301 478.5 301 C 340.7049424 301 229 293.164984 229 283.5 Z"/></g><g><path fill="none" stroke="#000000" paint-order="fill stroke markers" d=" M 229 283.5 C 229 273.835016 340.7049424 266 478.5 266 C 616.2950576000001 266 728 273.835016 728 283.5 C 728 293.164984 616.2950576000001 301 478.5 301 C 340.7049424 301 229 293.164984 229 283.5 Z" stroke-miterlimit="10" stroke-dasharray=""/></g><g><g><path fill="none" stroke="none"/><text fill="#000000" stroke="none" font-family="currentFont" font-size="13px" font-style="normal" font-weight="bold" text-decoration="undefined" x="540.5" y="314.5" text-anchor="middle" dominant-baseline="central" transform="matrix(1 0 0 1 -62 -30)">UCd.2 Spostamento prodotto collocato in un bin</text></g></g><g><path fill="#FFFFFF" stroke="none" paint-order="stroke fill markers" d=" M 229 428.5 C 229 413.8644528 340.7049424 402 478.5 402 C 616.2950576000001 402 728 413.8644528 728 428.5 C 728 443.1355472 616.2950576000001 455 478.5 455 C 340.7049424 455 229 443.1355472 229 428.5 Z"/></g><g><path fill="none" stroke="#000000" paint-order="fill stroke markers" d=" M 229 428.5 C 229 413.8644528 340.7049424 402 478.5 402 C 616.2950576000001 402 728 413.8644528 728 428.5 C 728 443.1355472 616.2950576000001 455 478.5 455 C 340.7049424 455 229 443.1355472 229 428.5 Z" stroke-miterlimit="10" stroke-dasharray=""/></g><g><g><path fill="none" stroke="none"/><text fill="#000000" stroke="none" font-family="currentFont" font-size="13px" font-style="normal" font-weight="bold" text-decoration="undefined" x="540.5" y="453" text-anchor="middle" dominant-baseline="central" transform="matrix(1 0 0 1 -62 -30)">UCd.2.1 Visualizzazione errore spostamento</text><text fill="#000000" stroke="none" font-family="currentFont" font-size="13px" font-style="normal" font-weight="bold" text-decoration="undefined" x="540.5" y="466" text-anchor="middle" dominant-baseline="central" transform="matrix(1 0 0 1 -62 -30)">impossibile</text></g></g><g><path fill="none" stroke="#000000" paint-order="fill stroke markers" d=" M 447 265 L 332 198" stroke-miterlimit="10" stroke-dasharray=""/></g><g><path fill="#FFFFFF" stroke="none" paint-order="stroke fill markers" d=" M 353.80031893102034 200.9573796688614 L 332 198 L 345.32397012975883 215.5063365665491"/></g><g><path fill="none" stroke="#000000" paint-order="fill stroke markers" d=" M 353.80031893102034 200.9573796688614 L 332 198 L 345.32397012975883 215.5063365665491 L 353.80031893102034 200.9573796688614" stroke-miterlimit="10" stroke-dasharray=""/></g><g><path fill="none" stroke="#000000" paint-order="fill stroke markers" d=" M 441 106 L 334 161" stroke-miterlimit="10" stroke-dasharray=""/></g><g><path fill="#FFFFFF" stroke="none" paint-order="stroke fill markers" d=" M 348.2282004963424 144.22030063928793 L 334 161 L 355.9258962592766 159.19581785081445"/></g><g><path fill="none" stroke="#000000" paint-order="fill stroke markers" d=" M 348.2282004963424 144.22030063928793 L 334 161 L 355.9258962592766 159.19581785081445 L 348.2282004963424 144.22030063928793" stroke-miterlimit="10" stroke-dasharray=""/></g><g><path fill="#FFFFFF" stroke="none" paint-order="stroke fill markers" d=" M 590 180.5 C 590 170.835016 676.6328912 163 783.5 163 C 890.3671088 163 977 170.835016 977 180.5 C 977 190.164984 890.3671088 198 783.5 198 C 676.6328912 198 590 190.164984 590 180.5 Z"/></g><g><path fill="none" stroke="#000000" paint-order="fill stroke markers" d=" M 590 180.5 C 590 170.835016 676.6328912 163 783.5 163 C 890.3671088 163 977 170.835016 977 180.5 C 977 190.164984 890.3671088 198 783.5 198 C 676.6328912 198 590 190.164984 590 180.5 Z" stroke-miterlimit="10" stroke-dasharray=""/></g><g><g><path fill="none" stroke="none"/><text fill="#000000" stroke="none" font-family="currentFont" font-size="13px" font-style="normal" font-weight="bold" text-decoration="undefined" x="845.5" y="211.5" text-anchor="middle" dominant-baseline="central" transform="matrix(1 0 0 1 -62 -30)">UCd.3 Invio richiesta di movimentazione</text></g></g><g><path fill="none" stroke="#000000" paint-order="fill stroke markers" d=" M 540 106 L 724 162" stroke-miterlimit="10" stroke-dasharray="3"/></g><g><path fill="none" stroke="#000000" paint-order="fill stroke markers" d=" M 713.0519844169123 163.06815485416197 L 724 162 L 715.5032843999275 155.01388348139798" stroke-miterlimit="10" stroke-dasharray=""/></g><g><rect fill="#FFFFFF" stroke="none" x="602" y="158" width="70.20002746582031" height="13" transform="matrix(1 0 0 1 -62 -30)"/></g><g><g><path fill="none" stroke="none"/><text fill="#000000" stroke="none" font-family="currentFont" font-size="13px" font-style="normal" font-weight="normal" text-decoration="undefined" x="637.1000137329102" y="164.5" text-anchor="middle" dominant-baseline="central" transform="matrix(1 0 0 1 -62 -30)">«include»</text></g></g><g><path fill="none" stroke="#000000" paint-order="fill stroke markers" d=" M 478 401 L 478 302" stroke-miterlimit="10" stroke-dasharray="3"/></g><g><path fill="none" stroke="#000000" paint-order="fill stroke markers" d=" M 482.209517756016 312.16267485762415 L 478 302 L 473.790482243984 312.16267485762415" stroke-miterlimit="10" stroke-dasharray=""/></g><g><rect fill="#ffffff" stroke="none" x="463" y="376" width="62.4000244140625" height="13" transform="matrix(1 0 0 1 -62 -30)"/></g><g><g><path fill="none" stroke="none"/><text fill="#000000" stroke="none" font-family="currentFont" font-size="13px" font-style="normal" font-weight="normal" text-decoration="undefined" x="494.20001220703125" y="382.5" text-anchor="middle" dominant-baseline="central" transform="matrix(1 0 0 1 -62 -30)">«extend»</text></g></g><g><path fill="none" stroke="#000000" paint-order="fill stroke markers" d=" M 727 199 L 531 265" stroke-miterlimit="10" stroke-dasharray="3"/></g><g><path fill="none" stroke="#000000" paint-order="fill stroke markers" d=" M 539.287914325206 257.7674018404141 L 531 265 L 541.9746596254868 265.7462212170057" stroke-miterlimit="10" stroke-dasharray=""/></g><g><rect fill="#ffffff" stroke="none" x="611" y="248" width="62.4000244140625" height="13" transform="matrix(1 0 0 1 -62 -30)"/></g><g><g><path fill="none" stroke="none"/><text fill="#000000" stroke="none" font-family="currentFont" font-size="13px" font-style="normal" font-weight="normal" text-decoration="undefined" x="642.2000122070312" y="254.5" text-anchor="middle" dominant-baseline="central" transform="matrix(1 0 0 1 -62 -30)">«extend»</text></g></g><g><path fill="#ffffff" stroke="none" paint-order="stroke fill markers" d=" M 858 326 L 991 326 L 1001 336 L 1001 376 L 858 376 L 858 326"/></g><g><path fill="none" stroke="#000000" paint-order="fill stroke markers" d=" M 858 326 L 991 326 L 1001 336 L 1001 376 L 858 376 L 858 326 L 858 326" stroke-miterlimit="10" stroke-dasharray=""/></g><g><path fill="none" stroke="#000000" paint-order="fill stroke markers" d=" M 991 326 L 991 336 L 1001 336 L 991 326" stroke-miterlimit="10" stroke-dasharray=""/></g><g><g><path fill="none" stroke="none"/><text fill="#000000" stroke="none" font-family="currentFont" font-size="13px" font-style="normal" font-weight="normal" text-decoration="undefined" x="925" y="361" text-anchor="start" dominant-baseline="text-before-edge" transform="matrix(1 0 0 1 -62 -30)">Condition: richiesto</text><text fill="#000000" stroke="none" font-family="currentFont" font-size="13px" font-style="normal" font-weight="normal" text-decoration="undefined" x="925" y="374" text-anchor="start" dominant-baseline="text-before-edge" transform="matrix(1 0 0 1 -62 -30)">spostamento verso</text><text fill="#000000" stroke="none" font-family="currentFont" font-size="13px" font-style="normal" font-weight="normal" text-decoration="undefined" x="925" y="387" text-anchor="start" dominant-baseline="text-before-edge" transform="matrix(1 0 0 1 -62 -30)">bin libero</text></g></g><g><path fill="#ffffff" stroke="none" paint-order="stroke fill markers" d=" M 602 326 L 735 326 L 745 336 L 745 376 L 602 376 L 602 326"/></g><g><path fill="none" stroke="#000000" paint-order="fill stroke markers" d=" M 602 326 L 735 326 L 745 336 L 745 376 L 602 376 L 602 326 L 602 326" stroke-miterlimit="10" stroke-dasharray=""/></g><g><path fill="none" stroke="#000000" paint-order="fill stroke markers" d=" M 735 326 L 735 336 L 745 336 L 735 326" stroke-miterlimit="10" stroke-dasharray=""/></g><g><g><path fill="none" stroke="none"/><text fill="#000000" stroke="none" font-family="currentFont" font-size="13px" font-style="normal" font-weight="normal" text-decoration="undefined" x="669" y="361" text-anchor="start" dominant-baseline="text-before-edge" transform="matrix(1 0 0 1 -62 -30)">Condition: richiesto</text><text fill="#000000" stroke="none" font-family="currentFont" font-size="13px" font-style="normal" font-weight="normal" text-decoration="undefined" x="669" y="374" text-anchor="start" dominant-baseline="text-before-edge" transform="matrix(1 0 0 1 -62 -30)">spostamento verso</text><text fill="#000000" stroke="none" font-family="currentFont" font-size="13px" font-style="normal" font-weight="normal" text-decoration="undefined" x="669" y="387" text-anchor="start" dominant-baseline="text-before-edge" transform="matrix(1 0 0 1 -62 -30)">bin occupato</text></g></g><g><path fill="#FFFFFF" stroke="none" paint-order="stroke fill markers" d=" M 819 84.5 C 819 69.8644528 913.9156224 58 1031 58 C 1148.0843776 58 1243 69.8644528 1243 84.5 C 1243 99.13554719999999 1148.0843776 111 1031 111 C 913.9156224 111 819 99.13554719999999 819 84.5 Z"/></g><g><path fill="none" stroke="#000000" paint-order="fill stroke markers" d=" M 819 84.5 C 819 69.8644528 913.9156224 58 1031 58 C 1148.0843776 58 1243 69.8644528 1243 84.5 C 1243 99.13554719999999 1148.0843776 111 1031 111 C 913.9156224 111 819 99.13554719999999 819 84.5 Z" stroke-miterlimit="10" stroke-dasharray=""/></g><g><g><path fill="none" stroke="none"/><text fill="#000000" stroke="none" font-family="currentFont" font-size="13px" font-style="normal" font-weight="bold" text-decoration="undefined" x="1093" y="109" text-anchor="middle" dominant-baseline="central" transform="matrix(1 0 0 1 -62 -30)">UCd.3.1 Visualizzazione errore spostamento</text><text fill="#000000" stroke="none" font-family="currentFont" font-size="13px" font-style="normal" font-weight="bold" text-decoration="undefined" x="1093" y="122" text-anchor="middle" dominant-baseline="central" transform="matrix(1 0 0 1 -62 -30)">negato</text></g></g><g><path fill="#FFFFFF" stroke="none" paint-order="stroke fill markers" d=" M 819 276.5 C 819 261.8644528 913.9156224 250 1031 250 C 1148.0843776 250 1243 261.8644528 1243 276.5 C 1243 291.1355472 1148.0843776 303 1031 303 C 913.9156224 303 819 291.1355472 819 276.5 Z"/></g><g><path fill="none" stroke="#000000" paint-order="fill stroke markers" d=" M 819 276.5 C 819 261.8644528 913.9156224 250 1031 250 C 1148.0843776 250 1243 261.8644528 1243 276.5 C 1243 291.1355472 1148.0843776 303 1031 303 C 913.9156224 303 819 291.1355472 819 276.5 Z" stroke-miterlimit="10" stroke-dasharray=""/></g><g><g><path fill="none" stroke="none"/><text fill="#000000" stroke="none" font-family="currentFont" font-size="13px" font-style="normal" font-weight="bold" text-decoration="undefined" x="1093" y="301" text-anchor="middle" dominant-baseline="central" transform="matrix(1 0 0 1 -62 -30)">UCd.3.2 Visualizzazione errore di</text><text fill="#000000" stroke="none" font-family="currentFont" font-size="13px" font-style="normal" font-weight="bold" text-decoration="undefined" x="1093" y="314" text-anchor="middle" dominant-baseline="central" transform="matrix(1 0 0 1 -62 -30)">connessione alla API</text></g></g><g><path fill="none" stroke="#000000" paint-order="fill stroke markers" d=" M 959 112 L 830 162" stroke-miterlimit="10" stroke-dasharray="3"/></g><g><path fill="none" stroke="#000000" paint-order="fill stroke markers" d=" M 837.9544719291043 154.40221240563474 L 830 162 L 840.9971081718185 162.25221391183703" stroke-miterlimit="10" stroke-dasharray=""/></g><g><rect fill="#ffffff" stroke="none" x="966" y="167" width="62.4000244140625" height="13" transform="matrix(1 0 0 1 -62 -30)"/></g><g><g><path fill="none" stroke="none"/><text fill="#000000" stroke="none" font-family="currentFont" font-size="13px" font-style="normal" font-weight="normal" text-decoration="undefined" x="997.2000122070312" y="173.5" text-anchor="middle" dominant-baseline="central" transform="matrix(1 0 0 1 -62 -30)">«extend»</text></g></g><g><path fill="none" stroke="#000000" paint-order="fill stroke markers" d=" M 961 249 L 832 199" stroke-miterlimit="10" stroke-dasharray="3"/></g><g><path fill="none" stroke="#000000" paint-order="fill stroke markers" d=" M 842.9971081718185 198.74778608816297 L 832 199 L 839.9544719291043 206.59778759436526" stroke-miterlimit="10" stroke-dasharray=""/></g><g><rect fill="#ffffff" stroke="none" x="966" y="239" width="62.4000244140625" height="13" transform="matrix(1 0 0 1 -62 -30)"/></g><g><g><path fill="none" stroke="none"/><text fill="#000000" stroke="none" font-family="currentFont" font-size="13px" font-style="normal" font-weight="normal" text-decoration="undefined" x="997.2000122070312" y="245.5" text-anchor="middle" dominant-baseline="central" transform="matrix(1 0 0 1 -62 -30)">«extend»</text></g></g><g><path fill="#ffffff" stroke="none" paint-order="stroke fill markers" d=" M 27.689029846191403 147.85 C 27.689029846191403 142.96227952 31.646832214191406 139 36.529029846191406 139 C 41.41122747819141 139 45.36902984619141 142.96227952 45.36902984619141 147.85 C 45.36902984619141 152.73772047999998 41.41122747819141 156.7 36.529029846191406 156.7 C 31.646832214191406 156.7 27.689029846191403 152.73772047999998 27.689029846191403 147.85 Z"/></g><g><path fill="none" stroke="#000000" paint-order="fill stroke markers" d=" M 27.689029846191403 147.85 C 27.689029846191403 142.96227952 31.646832214191406 139 36.529029846191406 139 C 41.41122747819141 139 45.36902984619141 142.96227952 45.36902984619141 147.85 C 45.36902984619141 152.73772047999998 41.41122747819141 156.7 36.529029846191406 156.7 C 31.646832214191406 156.7 27.689029846191403 152.73772047999998 27.689029846191403 147.85 Z" stroke-miterlimit="10" stroke-dasharray=""/></g><g><path fill="none" stroke="#000000" paint-order="fill stroke markers" d=" M 36.529029846191406 156.7 L 36.529029846191406 174.3" stroke-miterlimit="10" stroke-dasharray=""/></g><g><path fill="none" stroke="#000000" paint-order="fill stroke markers" d=" M 27.169029846191407 163.3 L 45.889029846191406 163.3" stroke-miterlimit="10" stroke-dasharray=""/></g><g><path fill="none" stroke="#000000" paint-order="fill stroke markers" d=" M 36.529029846191406 174.3 L 23.529029846191406 192" stroke-miterlimit="10" stroke-dasharray=""/></g><g><path fill="none" stroke="#000000" paint-order="fill stroke markers" d=" M 36.529029846191406 174.3 L 49.529029846191406 192" stroke-miterlimit="10" stroke-dasharray=""/></g><g><g><path fill="none" stroke="none"/><text fill="#000000" stroke="none" font-family="currentFont" font-size="13px" font-style="normal" font-weight="bold" text-decoration="undefined" x="99.0290298461914" y="236.5" text-anchor="middle" dominant-baseline="central" transform="matrix(1 0 0 1 -62 -30)">Utente</text></g></g><g><path fill="none" stroke="#000000" paint-order="fill stroke markers" d=" M 141 178 L 64 178" stroke-miterlimit="10" stroke-dasharray=""/></g><g><path fill="none" stroke="#000000" paint-order="fill stroke markers" d=" M 864 325 L 629 232" stroke-miterlimit="10" stroke-dasharray="3"/></g><g><path fill="none" stroke="#000000" paint-order="fill stroke markers" d=" M 601 351 L 478 351" stroke-miterlimit="10" stroke-dasharray="3"/></g></g></svg>