<svg version="1.1" xmlns="http://www.w3.org/2000/svg" xmlns:xlink="http://www.w3.org/1999/xlink" width="661" height="276"><defs/><g><g><rect fill="#ffffff" stroke="none" x="192" y="64" width="528" height="256" transform="matrix(1 0 0 1 -70 -54)"/></g><g><path fill="none" stroke="#000000" paint-order="fill stroke markers" d=" M 122 10 L 650 10 L 650 266 L 122 266 L 122 10 Z Z" stroke-miterlimit="10" stroke-dasharray=""/></g><g><g><path fill="none" stroke="none"/><text fill="#000000" stroke="none" font-family="currentFont" font-size="13px" font-style="normal" font-weight="bold" text-decoration="undefined" x="456.5" y="77.5" text-anchor="middle" dominant-baseline="central" transform="matrix(1 0 0 1 -70 -54)">UCe.1</text></g></g><g><path fill="#FFFFFF" stroke="none" paint-order="stroke fill markers" d=" M 171 73.5 C 171 63.835015999999996 267.9303408 56 387.5 56 C 507.06965920000005 56 604 63.835015999999996 604 73.5 C 604 83.164984 507.06965920000005 91 387.5 91 C 267.9303408 91 171 83.164984 171 73.5 Z"/></g><g><path fill="none" stroke="#000000" paint-order="fill stroke markers" d=" M 171 73.5 C 171 63.835015999999996 267.9303408 56 387.5 56 C 507.06965920000005 56 604 63.835015999999996 604 73.5 C 604 83.164984 507.06965920000005 91 387.5 91 C 267.9303408 91 171 83.164984 171 73.5 Z" stroke-miterlimit="10" stroke-dasharray=""/></g><g><g><path fill="none" stroke="none"/><text fill="#000000" stroke="none" font-family="currentFont" font-size="13px" font-style="normal" font-weight="bold" text-decoration="undefined" x="457.5" y="128.5" text-anchor="middle" dominant-baseline="central" transform="matrix(1 0 0 1 -70 -54)">UCe.1.2 Visualizzazione ID bin di destinazione</text></g></g><g><path fill="#FFFFFF" stroke="none" paint-order="stroke fill markers" d=" M 171 137.5 C 171 127.835016 267.9303408 120 387.5 120 C 507.06965920000005 120 604 127.835016 604 137.5 C 604 147.164984 507.06965920000005 155 387.5 155 C 267.9303408 155 171 147.164984 171 137.5 Z"/></g><g><path fill="none" stroke="#000000" paint-order="fill stroke markers" d=" M 171 137.5 C 171 127.835016 267.9303408 120 387.5 120 C 507.06965920000005 120 604 127.835016 604 137.5 C 604 147.164984 507.06965920000005 155 387.5 155 C 267.9303408 155 171 147.164984 171 137.5 Z" stroke-miterlimit="10" stroke-dasharray=""/></g><g><g><path fill="none" stroke="none"/><text fill="#000000" stroke="none" font-family="currentFont" font-size="13px" font-style="normal" font-weight="bold" text-decoration="undefined" x="457.5" y="192.5" text-anchor="middle" dominant-baseline="central" transform="matrix(1 0 0 1 -70 -54)">UCe.1.3 Visualizzazione ID prodotto</text></g></g><g><path fill="#FFFFFF" stroke="none" paint-order="stroke fill markers" d=" M 171 201.5 C 171 191.835016 267.9303408 184 387.5 184 C 507.06965920000005 184 604 191.835016 604 201.5 C 604 211.164984 507.06965920000005 219 387.5 219 C 267.9303408 219 171 211.164984 171 201.5 Z"/></g><g><path fill="none" stroke="#000000" paint-order="fill stroke markers" d=" M 171 201.5 C 171 191.835016 267.9303408 184 387.5 184 C 507.06965920000005 184 604 191.835016 604 201.5 C 604 211.164984 507.06965920000005 219 387.5 219 C 267.9303408 219 171 211.164984 171 201.5 Z" stroke-miterlimit="10" stroke-dasharray=""/></g><g><g><path fill="none" stroke="none"/><text fill="#000000" stroke="none" font-family="currentFont" font-size="13px" font-style="normal" font-weight="bold" text-decoration="undefined" x="457.5" y="256.5" text-anchor="middle" dominant-baseline="central" transform="matrix(1 0 0 1 -70 -54)">UCe.1.4 Visualizzazione nome prodotto</text></g></g><g><path fill="#ffffff" stroke="none" paint-order="stroke fill markers" d=" M 26.748623046874997 107.85 C 26.748623046874997 102.96227952000001 30.706425414875 99 35.588623046875 99 C 40.470820678875 99 44.428623046875 102.96227952000001 44.428623046875 107.85 C 44.428623046875 112.73772047999998 40.470820678875 116.69999999999999 35.588623046875 116.69999999999999 C 30.706425414875 116.69999999999999 26.748623046874997 112.73772047999998 26.748623046874997 107.85 Z"/></g><g><path fill="none" stroke="#000000" paint-order="fill stroke markers" d=" M 26.748623046874997 107.85 C 26.748623046874997 102.96227952000001 30.706425414875 99 35.588623046875 99 C 40.470820678875 99 44.428623046875 102.96227952000001 44.428623046875 107.85 C 44.428623046875 112.73772047999998 40.470820678875 116.69999999999999 35.588623046875 116.69999999999999 C 30.706425414875 116.69999999999999 26.748623046874997 112.73772047999998 26.748623046874997 107.85 Z" stroke-miterlimit="10" stroke-dasharray=""/></g><g><path fill="none" stroke="#000000" paint-order="fill stroke markers" d=" M 35.588623046875 116.69999999999999 L 35.588623046875 134.3" stroke-miterlimit="10" stroke-dasharray=""/></g><g><path fill="none" stroke="#000000" paint-order="fill stroke markers" d=" M 26.228623046875 123.30000000000001 L 44.948623046875 123.30000000000001" stroke-miterlimit="10" stroke-dasharray=""/></g><g><path fill="none" stroke="#000000" paint-order="fill stroke markers" d=" M 35.588623046875 134.3 L 22.588623046875 152" stroke-miterlimit="10" stroke-dasharray=""/></g><g><path fill="none" stroke="#000000" paint-order="fill stroke markers" d=" M 35.588623046875 134.3 L 48.588623046875 152" stroke-miterlimit="10" stroke-dasharray=""/></g><g><g><path fill="none" stroke="none"/><text fill="#000000" stroke="none" font-family="currentFont" font-size="13px" font-style="normal" font-weight="bold" text-decoration="undefined" x="106.088623046875" y="220.5" text-anchor="middle" dominant-baseline="central" transform="matrix(1 0 0 1 -70 -54)">Utente</text></g></g><g><path fill="none" stroke="#000000" paint-order="fill stroke markers" d=" M 62 133 L 284 92" stroke-miterlimit="10" stroke-dasharray=""/></g><g><path fill="none" stroke="#000000" paint-order="fill stroke markers" d=" M 62 138 L 170 138" stroke-miterlimit="10" stroke-dasharray=""/></g><g><path fill="none" stroke="#000000" paint-order="fill stroke markers" d=" M 62 143 L 286 183" stroke-miterlimit="10" stroke-dasharray=""/></g></g></svg>