<svg version="1.1" xmlns="http://www.w3.org/2000/svg" xmlns:xlink="http://www.w3.org/1999/xlink" width="445" height="156"><defs/><g><g><rect fill="#ffffff" stroke="none" x="208" y="56" width="336" height="136" transform="matrix(1 0 0 1 -110 -46)"/></g><g><path fill="none" stroke="#000000" paint-order="fill stroke markers" d=" M 98 10 L 434 10 L 434 146 L 98 146 L 98 10 Z Z" stroke-miterlimit="10" stroke-dasharray=""/></g><g><g><path fill="none" stroke="none"/><text fill="#000000" stroke="none" font-family="currentFont" font-size="13px" font-style="normal" font-weight="bold" text-decoration="undefined" x="376.5" y="69.5" text-anchor="middle" dominant-baseline="central" transform="matrix(1 0 0 1 -110 -46)">WMS3</text></g></g><g><path fill="#FFFFFF" stroke="none" paint-order="stroke fill markers" d=" M 138 83.5 C 138 73.835016 195.30754560000003 66 266 66 C 336.6924544 66 394 73.835016 394 83.5 C 394 93.164984 336.6924544 101 266 101 C 195.30754560000003 101 138 93.164984 138 83.5 Z"/></g><g><path fill="none" stroke="#000000" paint-order="fill stroke markers" d=" M 138 83.5 C 138 73.835016 195.30754560000003 66 266 66 C 336.6924544 66 394 73.835016 394 83.5 C 394 93.164984 336.6924544 101 266 101 C 195.30754560000003 101 138 93.164984 138 83.5 Z" stroke-miterlimit="10" stroke-dasharray=""/></g><g><g><path fill="none" stroke="none"/><text fill="#000000" stroke="none" font-family="currentFont" font-size="13px" font-style="normal" font-weight="bold" text-decoration="undefined" x="376" y="130.5" text-anchor="middle" dominant-baseline="central" transform="matrix(1 0 0 1 -110 -46)">UCg Eliminazione zona</text></g></g><g><path fill="#ffffff" stroke="none" paint-order="stroke fill markers" d=" M 27.689029846191403 51.849999999999994 C 27.689029846191403 46.962279519999996 31.64683221419139 43 36.529029846191406 43 C 41.41122747819142 43 45.36902984619141 46.962279519999996 45.36902984619141 51.849999999999994 C 45.36902984619141 56.73772047999999 41.41122747819142 60.7 36.529029846191406 60.7 C 31.64683221419139 60.7 27.689029846191403 56.73772047999999 27.689029846191403 51.849999999999994 Z"/></g><g><path fill="none" stroke="#000000" paint-order="fill stroke markers" d=" M 27.689029846191403 51.849999999999994 C 27.689029846191403 46.962279519999996 31.64683221419139 43 36.529029846191406 43 C 41.41122747819142 43 45.36902984619141 46.962279519999996 45.36902984619141 51.849999999999994 C 45.36902984619141 56.73772047999999 41.41122747819142 60.7 36.529029846191406 60.7 C 31.64683221419139 60.7 27.689029846191403 56.73772047999999 27.689029846191403 51.849999999999994 Z" stroke-miterlimit="10" stroke-dasharray=""/></g><g><path fill="none" stroke="#000000" paint-order="fill stroke markers" d=" M 36.529029846191406 60.7 L 36.529029846191406 78.3" stroke-miterlimit="10" stroke-dasharray=""/></g><g><path fill="none" stroke="#000000" paint-order="fill stroke markers" d=" M 27.169029846191393 67.3 L 45.88902984619142 67.3" stroke-miterlimit="10" stroke-dasharray=""/></g><g><path fill="none" stroke="#000000" paint-order="fill stroke markers" d=" M 36.529029846191406 78.3 L 23.529029846191406 96" stroke-miterlimit="10" stroke-dasharray=""/></g><g><path fill="none" stroke="#000000" paint-order="fill stroke markers" d=" M 36.529029846191406 78.3 L 49.529029846191406 96" stroke-miterlimit="10" stroke-dasharray=""/></g><g><g><path fill="none" stroke="none"/><text fill="#000000" stroke="none" font-family="currentFont" font-size="13px" font-style="normal" font-weight="bold" text-decoration="undefined" x="147.0290298461914" y="156.5" text-anchor="middle" dominant-baseline="central" transform="matrix(1 0 0 1 -110 -46)">Utente</text></g></g><g><path fill="none" stroke="#000000" paint-order="fill stroke markers" d=" M 137 82 L 64 82" stroke-miterlimit="10" stroke-dasharray=""/></g></g></svg>