<svg version="1.1" xmlns="http://www.w3.org/2000/svg" xmlns:xlink="http://www.w3.org/1999/xlink" width="837" height="332"><defs/><g><g><rect fill="#ffffff" stroke="none" x="128" y="48" width="712" height="312" transform="matrix(1 0 0 1 -14 -38)"/></g><g><path fill="none" stroke="#000000" paint-order="fill stroke markers" d=" M 114 10 L 826 10 L 826 322 L 114 322 L 114 10 Z Z" stroke-miterlimit="10" stroke-dasharray=""/></g><g><g><path fill="none" stroke="none"/><text fill="#000000" stroke="none" font-family="currentFont" font-size="13px" font-style="normal" font-weight="bold" text-decoration="undefined" x="484.5" y="61.5" text-anchor="middle" dominant-baseline="central" transform="matrix(1 0 0 1 -14 -38)">WMS3</text></g></g><g><path fill="#ffffff" stroke="none" paint-order="stroke fill markers" d=" M 290 267.5 C 290 257.835016 386.9303408 250 506.5 250 C 626.0696592 250 723 257.835016 723 267.5 C 723 277.164984 626.0696592 285 506.5 285 C 386.9303408 285 290 277.164984 290 267.5 Z"/></g><g><path fill="none" stroke="#000000" paint-order="fill stroke markers" d=" M 290 267.5 C 290 257.835016 386.9303408 250 506.5 250 C 626.0696592 250 723 257.835016 723 267.5 C 723 277.164984 626.0696592 285 506.5 285 C 386.9303408 285 290 277.164984 290 267.5 Z" stroke-miterlimit="10" stroke-dasharray=""/></g><g><g><path fill="none" stroke="none"/><text fill="#000000" stroke="none" font-family="currentFont" font-size="13px" font-style="normal" font-weight="bold" text-decoration="undefined" x="520.5" y="306.5" text-anchor="middle" dominant-baseline="central" transform="matrix(1 0 0 1 -14 -38)">UCn.2 Evidenziazione bin di partenza</text></g></g><g><path fill="#FFFFFF" stroke="none" paint-order="stroke fill markers" d=" M 290 75.5 C 290 65.835016 386.9303408 58 506.5 58 C 626.0696592 58 723 65.835016 723 75.5 C 723 85.164984 626.0696592 93 506.5 93 C 386.9303408 93 290 85.164984 290 75.5 Z"/></g><g><path fill="none" stroke="#000000" paint-order="fill stroke markers" d=" M 290 75.5 C 290 65.835016 386.9303408 58 506.5 58 C 626.0696592 58 723 65.835016 723 75.5 C 723 85.164984 626.0696592 93 506.5 93 C 386.9303408 93 290 85.164984 290 75.5 Z" stroke-miterlimit="10" stroke-dasharray=""/></g><g><g><path fill="none" stroke="none"/><text fill="#000000" stroke="none" font-family="currentFont" font-size="13px" font-style="normal" font-weight="bold" text-decoration="undefined" x="520.5" y="114.5" text-anchor="middle" dominant-baseline="central" transform="matrix(1 0 0 1 -14 -38)">UCn.1 Evidenziazione bin di destinazione</text></g></g><g><path fill="#C0C0C0" stroke="none" paint-order="stroke fill markers" d=" M 169 176.5 C 169 166.835016 265.9303408 159 385.5 159 C 505.06965920000005 159 602 166.835016 602 176.5 C 602 186.164984 505.06965920000005 194 385.5 194 C 265.9303408 194 169 186.164984 169 176.5 Z" fill-opacity="0.2"/></g><g><path fill="#ffffff" stroke="none" paint-order="stroke fill markers" d=" M 162 169.5 C 162 159.835016 258.9303408 152 378.5 152 C 498.06965920000005 152 595 159.835016 595 169.5 C 595 179.164984 498.06965920000005 187 378.5 187 C 258.9303408 187 162 179.164984 162 169.5 Z"/></g><g><path fill="none" stroke="#000000" paint-order="fill stroke markers" d=" M 162 169.5 C 162 159.835016 258.9303408 152 378.5 152 C 498.06965920000005 152 595 159.835016 595 169.5 C 595 179.164984 498.06965920000005 187 378.5 187 C 258.9303408 187 162 179.164984 162 169.5 Z" stroke-miterlimit="10" stroke-dasharray=""/></g><g><g><path fill="none" stroke="none"/><text fill="#000000" stroke="none" font-family="currentFont" font-size="13px" font-style="normal" font-weight="bold" text-decoration="undefined" x="392.5" y="208.5" text-anchor="middle" dominant-baseline="central" transform="matrix(1 0 0 1 -14 -38)">UCn Ispezione ordine di movimentazione</text></g></g><g><path fill="none" stroke="#000000" paint-order="fill stroke markers" d=" M 403 151 L 480 94" stroke-miterlimit="10" stroke-dasharray="3"/></g><g><path fill="none" stroke="#000000" paint-order="fill stroke markers" d=" M 474.33640072411026 103.42993336361087 L 480 94 L 469.32726071854864 96.66320037364164" stroke-miterlimit="10" stroke-dasharray=""/></g><g><rect fill="#ffffff" stroke="none" x="381" y="152" width="58.26020812988281" height="13" transform="matrix(1 0 0 1 -14 -38)"/></g><g><g><path fill="none" stroke="none"/><text fill="#000000" stroke="none" font-family="currentFont" font-size="13px" font-style="normal" font-weight="normal" text-decoration="undefined" x="410.1301040649414" y="158.5" text-anchor="middle" dominant-baseline="central" transform="matrix(1 0 0 1 -14 -38)">«include»</text></g></g><g><path fill="none" stroke="#000000" paint-order="fill stroke markers" d=" M 482 249 L 403 188" stroke-miterlimit="10" stroke-dasharray="3"/></g><g><path fill="none" stroke="#000000" paint-order="fill stroke markers" d=" M 413.6165095361072 190.87918830050162 L 403 188 L 408.47111231391534 197.5428994571107" stroke-miterlimit="10" stroke-dasharray=""/></g><g><rect fill="#ffffff" stroke="none" x="382" y="256" width="56.33973693847656" height="13" transform="matrix(1 0 0 1 -14 -38)"/></g><g><g><path fill="none" stroke="none"/><text fill="#000000" stroke="none" font-family="currentFont" font-size="13px" font-style="normal" font-weight="normal" text-decoration="undefined" x="410.1698684692383" y="262.5" text-anchor="middle" dominant-baseline="central" transform="matrix(1 0 0 1 -14 -38)">«extend»</text></g></g><g><path fill="#ffffff" stroke="none" paint-order="stroke fill markers" d=" M 27.689029846191403 139.85 C 27.689029846191403 134.96227952 31.646832214191406 131 36.529029846191406 131 C 41.41122747819141 131 45.36902984619141 134.96227952 45.36902984619141 139.85 C 45.36902984619141 144.73772047999998 41.41122747819141 148.7 36.529029846191406 148.7 C 31.646832214191406 148.7 27.689029846191403 144.73772047999998 27.689029846191403 139.85 Z"/></g><g><path fill="none" stroke="#000000" paint-order="fill stroke markers" d=" M 27.689029846191403 139.85 C 27.689029846191403 134.96227952 31.646832214191406 131 36.529029846191406 131 C 41.41122747819141 131 45.36902984619141 134.96227952 45.36902984619141 139.85 C 45.36902984619141 144.73772047999998 41.41122747819141 148.7 36.529029846191406 148.7 C 31.646832214191406 148.7 27.689029846191403 144.73772047999998 27.689029846191403 139.85 Z" stroke-miterlimit="10" stroke-dasharray=""/></g><g><path fill="none" stroke="#000000" paint-order="fill stroke markers" d=" M 36.529029846191406 148.7 L 36.529029846191406 166.3" stroke-miterlimit="10" stroke-dasharray=""/></g><g><path fill="none" stroke="#000000" paint-order="fill stroke markers" d=" M 27.169029846191407 155.3 L 45.889029846191406 155.3" stroke-miterlimit="10" stroke-dasharray=""/></g><g><path fill="none" stroke="#000000" paint-order="fill stroke markers" d=" M 36.529029846191406 166.3 L 23.529029846191406 184" stroke-miterlimit="10" stroke-dasharray=""/></g><g><path fill="none" stroke="#000000" paint-order="fill stroke markers" d=" M 36.529029846191406 166.3 L 49.529029846191406 184" stroke-miterlimit="10" stroke-dasharray=""/></g><g><g><path fill="none" stroke="none"/><text fill="#000000" stroke="none" font-family="currentFont" font-size="13px" font-style="normal" font-weight="bold" text-decoration="undefined" x="51.029029846191406" y="236.5" text-anchor="middle" dominant-baseline="central" transform="matrix(1 0 0 1 -14 -38)">Utente</text></g></g><g><path fill="none" stroke="#000000" paint-order="fill stroke markers" d=" M 161 170 L 64 170" stroke-miterlimit="10" stroke-dasharray=""/></g><g><path fill="#ffffff" stroke="none" paint-order="stroke fill markers" d=" M 642 194 L 775 194 L 785 204 L 785 244 L 642 244 L 642 194"/></g><g><path fill="none" stroke="#000000" paint-order="fill stroke markers" d=" M 642 194 L 775 194 L 785 204 L 785 244 L 642 244 L 642 194 L 642 194" stroke-miterlimit="10" stroke-dasharray=""/></g><g><path fill="none" stroke="#000000" paint-order="fill stroke markers" d=" M 775 194 L 775 204 L 785 204 L 775 194" stroke-miterlimit="10" stroke-dasharray=""/></g><g><g><path fill="none" stroke="none"/><text fill="#000000" stroke="none" font-family="currentFont" font-size="13px" font-style="normal" font-weight="normal" text-decoration="undefined" x="661" y="237" text-anchor="start" dominant-baseline="text-before-edge" transform="matrix(1 0 0 1 -14 -38)">Condition: lo</text><text fill="#000000" stroke="none" font-family="currentFont" font-size="13px" font-style="normal" font-weight="normal" text-decoration="undefined" x="661" y="250" text-anchor="start" dominant-baseline="text-before-edge" transform="matrix(1 0 0 1 -14 -38)">spostamento è</text><text fill="#000000" stroke="none" font-family="currentFont" font-size="13px" font-style="normal" font-weight="normal" text-decoration="undefined" x="661" y="263" text-anchor="start" dominant-baseline="text-before-edge" transform="matrix(1 0 0 1 -14 -38)">partito da un bin</text></g></g><g><path fill="none" stroke="#000000" paint-order="fill stroke markers" d=" M 641 219 L 442 218" stroke-miterlimit="10" stroke-dasharray="3"/></g></g></svg>