<svg version="1.1" xmlns="http://www.w3.org/2000/svg" xmlns:xlink="http://www.w3.org/1999/xlink" width="805" height="316"><defs/><g><g><rect fill="#ffffff" stroke="none" x="144" y="32" width="688" height="296" transform="matrix(1 0 0 1 -38 -22)"/></g><g><path fill="none" stroke="#000000" paint-order="fill stroke markers" d=" M 106 10 L 794 10 L 794 306 L 106 306 L 106 10 Z Z" stroke-miterlimit="10" stroke-dasharray=""/></g><g><g><path fill="none" stroke="none"/><text fill="#000000" stroke="none" font-family="currentFont" font-size="13px" font-style="normal" font-weight="bold" text-decoration="undefined" x="488.5" y="45.5" text-anchor="middle" dominant-baseline="central" transform="matrix(1 0 0 1 -38 -22)">UCq.6</text></g></g><g><path fill="#FFFFFF" stroke="none" paint-order="stroke fill markers" d=" M 407 82.5 C 407 72.835016 484.67858720000004 65 580.5 65 C 676.3214128 65 754 72.835016 754 82.5 C 754 92.164984 676.3214128 100 580.5 100 C 484.67858720000004 100 407 92.164984 407 82.5 Z"/></g><g><path fill="none" stroke="#000000" paint-order="fill stroke markers" d=" M 407 82.5 C 407 72.835016 484.67858720000004 65 580.5 65 C 676.3214128 65 754 72.835016 754 82.5 C 754 92.164984 676.3214128 100 580.5 100 C 484.67858720000004 100 407 92.164984 407 82.5 Z" stroke-miterlimit="10" stroke-dasharray=""/></g><g><g><path fill="none" stroke="none"/><text fill="#000000" stroke="none" font-family="currentFont" font-size="13px" font-style="normal" font-weight="bold" text-decoration="undefined" x="618.5" y="105.5" text-anchor="middle" dominant-baseline="central" transform="matrix(1 0 0 1 -38 -22)">UCq.6.1.1 Visualizzazione ID bin</text></g></g><g><path fill="#ffffff" stroke="none" paint-order="stroke fill markers" d=" M 146 162.5 C 146 152.835016 220.76843839999998 145 313 145 C 405.2315616 145 480 152.835016 480 162.5 C 480 172.164984 405.2315616 180 313 180 C 220.76843839999998 180 146 172.164984 146 162.5 Z"/></g><g><path fill="none" stroke="#000000" paint-order="fill stroke markers" d=" M 146 162.5 C 146 152.835016 220.76843839999998 145 313 145 C 405.2315616 145 480 152.835016 480 162.5 C 480 172.164984 405.2315616 180 313 180 C 220.76843839999998 180 146 172.164984 146 162.5 Z" stroke-miterlimit="10" stroke-dasharray=""/></g><g><g><path fill="none" stroke="none"/><text fill="#000000" stroke="none" font-family="currentFont" font-size="13px" font-style="normal" font-weight="bold" text-decoration="undefined" x="351" y="185.5" text-anchor="middle" dominant-baseline="central" transform="matrix(1 0 0 1 -38 -22)">UCq.6.1 Visualizzazione singolo bin</text></g></g><g><path fill="#FFFFFF" stroke="none" paint-order="stroke fill markers" d=" M 407 242.5 C 407 232.835016 484.67858720000004 225 580.5 225 C 676.3214128 225 754 232.835016 754 242.5 C 754 252.164984 676.3214128 260 580.5 260 C 484.67858720000004 260 407 252.164984 407 242.5 Z"/></g><g><path fill="none" stroke="#000000" paint-order="fill stroke markers" d=" M 407 242.5 C 407 232.835016 484.67858720000004 225 580.5 225 C 676.3214128 225 754 232.835016 754 242.5 C 754 252.164984 676.3214128 260 580.5 260 C 484.67858720000004 260 407 252.164984 407 242.5 Z" stroke-miterlimit="10" stroke-dasharray=""/></g><g><g><path fill="none" stroke="none"/><text fill="#000000" stroke="none" font-family="currentFont" font-size="13px" font-style="normal" font-weight="bold" text-decoration="undefined" x="618.5" y="265.5" text-anchor="middle" dominant-baseline="central" transform="matrix(1 0 0 1 -38 -22)">UCq.6.1.2 Visualizzazione stato bin</text></g></g><g><path fill="none" stroke="#000000" paint-order="fill stroke markers" d=" M 373 144 L 517 101" stroke-miterlimit="10" stroke-dasharray="3"/></g><g><path fill="none" stroke="#000000" paint-order="fill stroke markers" d=" M 508.4666638894731 107.94133811485781 L 517 101 L 506.05775291857776 99.874287421627" stroke-miterlimit="10" stroke-dasharray=""/></g><g><rect fill="#ffffff" stroke="none" x="426" y="126" width="58.26020812988281" height="13" transform="matrix(1 0 0 1 -38 -22)"/></g><g><g><path fill="none" stroke="none"/><text fill="#000000" stroke="none" font-family="currentFont" font-size="13px" font-style="normal" font-weight="normal" text-decoration="undefined" x="455.1301040649414" y="132.5" text-anchor="middle" dominant-baseline="central" transform="matrix(1 0 0 1 -38 -22)">«include»</text></g></g><g><path fill="none" stroke="#000000" paint-order="fill stroke markers" d=" M 376 181 L 520 224" stroke-miterlimit="10" stroke-dasharray="3"/></g><g><path fill="none" stroke="#000000" paint-order="fill stroke markers" d=" M 509.05775291857776 225.125712578373 L 520 224 L 511.4666638894731 217.0586618851422" stroke-miterlimit="10" stroke-dasharray=""/></g><g><rect fill="#ffffff" stroke="none" x="421" y="225" width="58.26020812988281" height="13" transform="matrix(1 0 0 1 -38 -22)"/></g><g><g><path fill="none" stroke="none"/><text fill="#000000" stroke="none" font-family="currentFont" font-size="13px" font-style="normal" font-weight="normal" text-decoration="undefined" x="450.1301040649414" y="231.5" text-anchor="middle" dominant-baseline="central" transform="matrix(1 0 0 1 -38 -22)">«include»</text></g></g><g><path fill="#ffffff" stroke="none" paint-order="stroke fill markers" d=" M 27.689029846191403 131.85 C 27.689029846191403 126.96227952000001 31.646832214191406 123 36.529029846191406 123 C 41.41122747819141 123 45.36902984619141 126.96227952000001 45.36902984619141 131.85 C 45.36902984619141 136.73772047999998 41.41122747819141 140.7 36.529029846191406 140.7 C 31.646832214191406 140.7 27.689029846191403 136.73772047999998 27.689029846191403 131.85 Z"/></g><g><path fill="none" stroke="#000000" paint-order="fill stroke markers" d=" M 27.689029846191403 131.85 C 27.689029846191403 126.96227952000001 31.646832214191406 123 36.529029846191406 123 C 41.41122747819141 123 45.36902984619141 126.96227952000001 45.36902984619141 131.85 C 45.36902984619141 136.73772047999998 41.41122747819141 140.7 36.529029846191406 140.7 C 31.646832214191406 140.7 27.689029846191403 136.73772047999998 27.689029846191403 131.85 Z" stroke-miterlimit="10" stroke-dasharray=""/></g><g><path fill="none" stroke="#000000" paint-order="fill stroke markers" d=" M 36.529029846191406 140.7 L 36.529029846191406 158.3" stroke-miterlimit="10" stroke-dasharray=""/></g><g><path fill="none" stroke="#000000" paint-order="fill stroke markers" d=" M 27.169029846191407 147.3 L 45.889029846191406 147.3" stroke-miterlimit="10" stroke-dasharray=""/></g><g><path fill="none" stroke="#000000" paint-order="fill stroke markers" d=" M 36.529029846191406 158.3 L 23.529029846191406 176" stroke-miterlimit="10" stroke-dasharray=""/></g><g><path fill="none" stroke="#000000" paint-order="fill stroke markers" d=" M 36.529029846191406 158.3 L 49.529029846191406 176" stroke-miterlimit="10" stroke-dasharray=""/></g><g><g><path fill="none" stroke="none"/><text fill="#000000" stroke="none" font-family="currentFont" font-size="13px" font-style="normal" font-weight="bold" text-decoration="undefined" x="75.0290298461914" y="212.5" text-anchor="middle" dominant-baseline="central" transform="matrix(1 0 0 1 -38 -22)">Utente</text></g></g><g><path fill="none" stroke="#000000" paint-order="fill stroke markers" d=" M 145 162 L 64 162" stroke-miterlimit="10" stroke-dasharray=""/></g></g></svg>