<svg version="1.1" xmlns="http://www.w3.org/2000/svg" xmlns:xlink="http://www.w3.org/1999/xlink" width="653" height="156"><defs/><g><g><rect fill="#ffffff" stroke="none" x="176" y="96" width="536" height="136" transform="matrix(1 0 0 1 -70 -86)"/></g><g><path fill="none" stroke="#000000" paint-order="fill stroke markers" d=" M 106 10 L 642 10 L 642 146 L 106 146 L 106 10 Z Z" stroke-miterlimit="10" stroke-dasharray=""/></g><g><g><path fill="none" stroke="none"/><text fill="#000000" stroke="none" font-family="currentFont" font-size="13px" font-style="normal" font-weight="bold" text-decoration="undefined" x="444.5" y="109.5" text-anchor="middle" dominant-baseline="central" transform="matrix(1 0 0 1 -70 -86)">WMS3</text></g></g><g><path fill="#FFFFFF" stroke="none" paint-order="stroke fill markers" d=" M 154 81.5 C 154 71.835016 254.73591999999996 64 379 64 C 503.26408000000004 64 604 71.835016 604 81.5 C 604 91.164984 503.26408000000004 99 379 99 C 254.73591999999996 99 154 91.164984 154 81.5 Z"/></g><g><path fill="none" stroke="#000000" paint-order="fill stroke markers" d=" M 154 81.5 C 154 71.835016 254.73591999999996 64 379 64 C 503.26408000000004 64 604 71.835016 604 81.5 C 604 91.164984 503.26408000000004 99 379 99 C 254.73591999999996 99 154 91.164984 154 81.5 Z" stroke-miterlimit="10" stroke-dasharray=""/></g><g><g><path fill="none" stroke="none"/><text fill="#000000" stroke="none" font-family="currentFont" font-size="13px" font-style="normal" font-weight="bold" text-decoration="undefined" x="449" y="168.5" text-anchor="middle" dominant-baseline="central" transform="matrix(1 0 0 1 -70 -86)">UCz Spostamento POV su zona specifica</text></g></g><g><path fill="#ffffff" stroke="none" paint-order="stroke fill markers" d=" M 27.689029846191403 51.849999999999994 C 27.689029846191403 46.96227952000001 31.646832214191406 43 36.529029846191406 43 C 41.41122747819141 43 45.36902984619141 46.96227952000001 45.36902984619141 51.849999999999994 C 45.36902984619141 56.73772047999998 41.41122747819141 60.69999999999999 36.529029846191406 60.69999999999999 C 31.646832214191406 60.69999999999999 27.689029846191403 56.73772047999998 27.689029846191403 51.849999999999994 Z"/></g><g><path fill="none" stroke="#000000" paint-order="fill stroke markers" d=" M 27.689029846191403 51.849999999999994 C 27.689029846191403 46.96227952000001 31.646832214191406 43 36.529029846191406 43 C 41.41122747819141 43 45.36902984619141 46.96227952000001 45.36902984619141 51.849999999999994 C 45.36902984619141 56.73772047999998 41.41122747819141 60.69999999999999 36.529029846191406 60.69999999999999 C 31.646832214191406 60.69999999999999 27.689029846191403 56.73772047999998 27.689029846191403 51.849999999999994 Z" stroke-miterlimit="10" stroke-dasharray=""/></g><g><path fill="none" stroke="#000000" paint-order="fill stroke markers" d=" M 36.529029846191406 60.69999999999999 L 36.529029846191406 78.30000000000001" stroke-miterlimit="10" stroke-dasharray=""/></g><g><path fill="none" stroke="#000000" paint-order="fill stroke markers" d=" M 27.169029846191407 67.30000000000001 L 45.889029846191406 67.30000000000001" stroke-miterlimit="10" stroke-dasharray=""/></g><g><path fill="none" stroke="#000000" paint-order="fill stroke markers" d=" M 36.529029846191406 78.30000000000001 L 23.529029846191406 96" stroke-miterlimit="10" stroke-dasharray=""/></g><g><path fill="none" stroke="#000000" paint-order="fill stroke markers" d=" M 36.529029846191406 78.30000000000001 L 49.529029846191406 96" stroke-miterlimit="10" stroke-dasharray=""/></g><g><g><path fill="none" stroke="none"/><text fill="#000000" stroke="none" font-family="currentFont" font-size="13px" font-style="normal" font-weight="bold" text-decoration="undefined" x="107.0290298461914" y="196.5" text-anchor="middle" dominant-baseline="central" transform="matrix(1 0 0 1 -70 -86)">Utente</text></g></g><g><path fill="none" stroke="#000000" paint-order="fill stroke markers" d=" M 153 82 L 64 82" stroke-miterlimit="10" stroke-dasharray=""/></g></g></svg>