<svg xmlns="http://www.w3.org/2000/svg" viewBox="0 0 740 580">
	<defs>
		<style>
			.a{isolation:isolate;}.c,.e,.i{fill:#1d1d1b;}.d{fill:#f0e400;mix-blend-mode:multiply;}.e{font-size:18px;}.i,.j,.k{stroke:#1d1d1b;stroke-miterlimit:10;}.j{fill:none;}.k{fill:#ffed00;stroke-width:0.5px;}</style>
	</defs>
	<g class="a">
		<path class="c"
			d="M42.11,130.85l132.5,58.28v360.5L42.11,492.05V130.85m-1-1.54v363.4l134.5,58.45V188.48L41.11,129.31Z"
			transform="translate(-21.98 -17.43)" />
		<path class="c"
			d="M659.12,78.13V438.39L176.61,549.9V189.28L659.12,78.13m1-1.26L175.61,188.48V551.16l484.51-112V76.87Z"
			transform="translate(-21.98 -17.43)" />
		<path class="c"
			d="M524.84,18.48,657,76.58,175.71,188,44.24,129.61,524.84,18.48m.1-1.05L41.11,129.31l134.5,59.78L660.12,76.87,524.94,17.43Z"
			transform="translate(-21.98 -17.43)" />
		<polygon class="d"
			points="319.84 132.54 186.1 73.8 19.13 111.89 19.89 228.51 153.63 287.25 319.84 250.33 319.84 132.54" />
		<text class="e" transform="translate(660 250)">Altezza</text>
		<text class="e" transform="translate(400 510)">Larghezza</text>
		<text class="e" transform="translate(0 531.67)">Lunghezza</text>
		<line class="i" x1="319.84" y1="132.54" x2="319.84" y2="494.53" />
		<line class="i" x1="483.54" y1="94.69" x2="483.54" y2="456.69" />
		<line class="i" x1="153.63" y1="452.96" x2="638.14" y2="345.34" />
		<path class="j" d="M175.57,440.43,41.83,381.69" transform="translate(-21.98 13.43)" />
		<path class="j" d="M505.52,112.12,371.78,53.38" transform="translate(-21.98 -17.43)" />
		<polyline class="k"
			points="638.14 179.63 153.63 287.25 19.89 228.51 19.13 111.89 186.1 73.8 319.84 132.54 186.1 73.8 19.13 111.89 19.89 228.51 153.63 287.25 319.84 250.33" />
		<text class="e" transform="translate(2.67 480.5)">0</text>
		<text class="e" transform="translate(2.67 369.15)">1</text>
		<text class="e" transform="translate(2.67 233.44)">2</text>
		<text class="e" transform="translate(14.73 98.91)">A</text>
		<text class="e" transform="translate(182.97 62.15)">B</text>
		<text class="e" transform="translate(345.07 27.29)">C</text>
	</g>
</svg>